<?xml version="1.0" standalone="no"?>
<!DOCTYPE svg PUBLIC "-//W3C//DTD SVG 1.1//EN" "http://www.w3.org/Graphics/SVG/1.1/DTD/svg11.dtd" >
<svg>
<metadata>
Created by FontForge 20090914 at Sat Oct 17 13:42:20 2020
 By www-data
Copyright (c) 2003 by Bitstream, Inc. All Rights Reserved.
DejaVu changes are in public domain
Changes by Saber Rastikerdar are in public domain.
Non-Arabic (Latin) glyphs and data are imported from Roboto font under the Apache License, Version 2.0.
</metadata>
<defs>
<font id="Vazir-Medium" horiz-adv-x="0" >
  <font-face 
    font-family="Vazir Medium"
    font-weight="500"
    font-stretch="normal"
    units-per-em="2048"
    panose-1="2 11 6 3 3 8 4 2 2 4"
    ascent="1638"
    descent="-410"
    x-height="1082"
    cap-height="1456"
    bbox="-1012 -1140 3090 2346"
    underline-thickness="100"
    underline-position="-400"
    unicode-range="U+0002-U+FFFD"
  />
<missing-glyph horiz-adv-x="908" 
d="M808 0h-708v1456h708v-1456zM754 84v1287l-274 -643zM154 1359v-1263l268 632zM194 54h515l-258 606zM451 796l258 606h-515z" />
    <glyph glyph-name="uni0622" unicode="&#x627;&#x653;" horiz-adv-x="465" 
d="M128 1408c-53.333 0 -110 -36 -170 -108l-5 -7l-7 6l-101 91l-4 5l3 6c36.667 52 75.834 92.5 117.501 121.5s85.834 43.5 132.501 43.5c29.333 0 69.166 -8.5 119.499 -25.5s88.833 -25.5 115.5 -25.5c46 0 104 17.667 174 53l8 4l3 -7l66 -122l3 -7l-6 -4
c-36.667 -22.667 -73.334 -40 -110.001 -52s-74 -18 -112 -18c-28.667 0 -67.5 7.66699 -116.5 23s-85.833 23 -110.5 23zM148 1228.27h169h20v-17.9824v-1191.4v-17.9834h-20h-169h-20v17.9834v1191.4v17.9824h20z" />
    <glyph glyph-name="uni0623" unicode="&#x627;&#x654;" horiz-adv-x="465" 
d="M114 1385c-22.667 20.667 -39.0029 43.6689 -49.0029 69.002s-15 56 -15 92c0 63.333 20.333 114.666 61 153.999s89 59 145 59c10 0 19.833 -0.666992 29.5 -2s19.167 -3 28.5 -5s18.5 -4.83301 27.5 -8.5s18 -7.66699 27 -12s17.833 -9.16602 26.5 -14.499l2 -1v-3
l1 -119v-9l-8 5c-40 24 -80 36 -120 36c-26.667 0 -49.167 -7.66699 -67.5 -23s-27.5 -38.666 -27.5 -69.999c0 -10.667 1.66699 -20.334 5 -29.001s8.33301 -16.834 15 -24.501s15.334 -15 26.001 -22s23.667 -13.167 39 -18.5
c2.66699 -0.666992 4.83398 -1.33398 6.50098 -2.00098s3.5 -1.16699 5.5 -1.5s4 -0.5 6 -0.5h3c0.666992 0 2 0.333008 4 1l71 14.5c30.667 6.33301 51.334 10.5 62.001 12.5l6 1v-6v-116v-4l-4 -1l-397 -96l-6 -1v6v113v4l4 1zM147.997 1168.82h169h20v-17.084v-1131.8
v-17.083h-20h-169h-20v17.083v1131.8v17.084h20z" />
    <glyph glyph-name="uni0624" unicode="&#x648;&#x654;" horiz-adv-x="880" 
d="M302 1002c-22.667 20.667 -39.0029 43.6689 -49.0029 69.002s-15 56 -15 92c0 63.333 20.333 114.666 61 153.999s89 59 145 59c10 0 19.833 -0.666992 29.5 -2s19.167 -3 28.5 -5s18.5 -4.83301 27.5 -8.5s18 -7.66699 27 -12s17.833 -9.16602 26.5 -14.499l2 -1v-3
l1 -119v-9l-8 5c-40 24 -80 36 -120 36c-26.667 0 -49.167 -7.66699 -67.5 -23s-27.5 -38.666 -27.5 -69.999c0 -10.667 1.66699 -20.334 5 -29.001s8.33301 -16.834 15 -24.501s15.334 -15 26.001 -22s23.667 -13.167 39 -18.5
c2.66699 -0.666992 4.83398 -1.33398 6.50098 -2.00098s3.5 -1.16699 5.5 -1.5s4 -0.5 6 -0.5h3c0.666992 0 2 0.333008 4 1l71 14.5c30.667 6.33301 51.334 10.5 62.001 12.5l6 1v-6v-116v-4l-4 -1l-397 -96l-6 -1v6v113v4l4 1zM587.997 9.00195
c-64 -7.33301 -107.665 -11.0029 -130.998 -11.0029c-124 0 -218.167 26.667 -282.5 80s-96.5 132.666 -96.5 237.999c0 78 14.333 150.667 43 218s70 121.833 124 163.5s115 62.5 183 62.5c63.333 0 119.666 -16.667 168.999 -50s88.5 -77.666 117.5 -132.999
s50.833 -116.166 65.5 -182.499s22 -135.833 22 -208.5c0 -192 -53.333 -349 -160 -471s-263.334 -203 -470.001 -243l-17 -3l-6 16l-60 154l-8 22l23 5c132 24.667 238.333 66.334 319 125.001s135.667 131.334 165 218.001zM594.999 233.999
c-15.333 200.667 -73.667 300.999 -175 300.999c-37.333 0 -69.5 -20.167 -96.5 -60.5s-40.5 -88.166 -40.5 -143.499c0 -39.333 13.833 -69 41.5 -89s72.167 -30 133.5 -30c40 0 85.667 7.33301 137 22z" />
    <glyph glyph-name="uni0625" unicode="&#x627;&#x655;" horiz-adv-x="465" 
d="M99 -489c-22.667 20.667 -39.0029 43.6689 -49.0029 69.002s-15 56 -15 92c0 63.333 20.333 114.666 61 153.999s89 59 145 59c10 0 19.833 -0.666992 29.5 -2s19.167 -3 28.5 -5s18.5 -4.83301 27.5 -8.5s18 -7.66699 27 -12s17.833 -9.16602 26.5 -14.499l2 -1v-3
l1 -119v-9l-8 5c-40 24 -80 36 -120 36c-26.667 0 -49.167 -7.66699 -67.5 -23s-27.5 -38.666 -27.5 -69.999c0 -10.667 1.66699 -20.334 5 -29.001s8.33301 -16.834 15 -24.501s15.334 -15 26.001 -22s23.667 -13.167 39 -18.5
c2.66699 -0.666992 4.83398 -1.33398 6.50098 -2.00098s3.5 -1.16699 5.5 -1.5s4 -0.5 6 -0.5h3c0.666992 0 2 0.333008 4 1l71 14.5c30.667 6.33301 51.334 10.5 62.001 12.5l6 1v-6v-116v-4l-4 -1l-397 -96l-6 -1v6v113v4l4 1zM148.997 1366h169h20v-20v-1325v-20h-20
h-169h-20v20v1325v20h20z" />
    <glyph glyph-name="uni0626" unicode="&#x64a;&#x654;" horiz-adv-x="1477" 
d="M476 790c-22.667 20.667 -39.0029 43.6689 -49.0029 69.002s-15 56 -15 92c0 63.333 20.333 114.666 61 153.999s89 59 145 59c10 0 19.833 -0.666992 29.5 -2s19.167 -3 28.5 -5s18.5 -4.83301 27.5 -8.5s18 -7.66699 27 -12s17.833 -9.16602 26.5 -14.499l2 -1v-3
l1 -119v-9l-8 5c-40 24 -80 36 -120 36c-26.667 0 -49.167 -7.66699 -67.5 -23s-27.5 -38.666 -27.5 -69.999c0 -10.667 1.66699 -20.334 5 -29.001s8.33301 -16.834 15 -24.501s15.334 -15 26.001 -22s23.667 -13.167 39 -18.5
c2.66699 -0.666992 4.83398 -1.33398 6.50098 -2.00098s3.5 -1.16699 5.5 -1.5s4 -0.5 6 -0.5h3c0.666992 0 2 0.333008 4 1l71 14.5c30.667 6.33301 51.334 10.5 62.001 12.5l6 1v-6v-116v-4l-4 -1l-397 -96l-6 -1v6v113v4l4 1zM379.997 487.002
c-60.667 -147.333 -90.999 -275.666 -90.999 -384.999c0 -130.667 35.667 -228.167 107 -292.5s180.666 -96.833 327.999 -97.5c79.333 0 154.666 10.667 225.999 32s130.333 52.666 177 93.999s70 88 70 140c0 25.333 -26.333 38 -79 38h-144c-85.333 0 -151 23 -197 69
s-69 112 -69 198c0 68.667 13.333 132.5 40 191.5s62.5 108 107.5 147s96.5 69.667 154.5 92s118.667 33.5 182 33.5c72 0 134.667 -11.333 188 -34l15 -6l-3 -16l-32 -165l-5 -22l-21 7c-43.333 13.333 -90.666 20 -141.999 20c-40.667 0 -78.5 -7 -113.5 -21
s-64 -32.333 -87 -55s-41.167 -47.834 -54.5 -75.501s-20 -55.5 -20 -83.5c0 -27.333 3.66699 -44.833 11 -52.5s26 -11.5 56 -11.5h180c73.333 0 130.833 -19.833 172.5 -59.5s62.5 -91.167 62.5 -154.5c0 -108.667 -29.167 -202.5 -87.5 -281.5s-138.333 -138 -240 -177
s-219.167 -58.5 -352.5 -58.5c-211.333 0 -371 50.167 -479 150.5s-162 249.5 -162 447.5c0 138.667 36.667 294.334 110 467.001l7 18l19 -7l155 -63l18 -8z" />
    <glyph glyph-name="uni06C0" unicode="&#x647;&#x654;" horiz-adv-x="922" 
d="M170 1273c39.333 -8.66699 78.334 -12.998 117.001 -12.998c103.333 0 175.333 16.333 216 49c29.333 23.333 44 48 44 74c0 12 -10 18.333 -30 19l-100 2c-40.667 1.33301 -71.5 12.666 -92.5 33.999s-31.5 52.666 -31.5 93.999c0 34.667 6.66699 66.5 20 95.5
s31.833 53.667 55.5 74s51.667 37.833 84 52.5s67 25.5 104 32.5s76.167 10.833 117.5 11.5h5v-5l-9 -130v-5h-5c-76.667 -1.33301 -133.834 -11.666 -171.501 -30.999s-59.5 -48 -65.5 -86l103 -4c30.667 -0.666992 57 -6.33398 79 -17.001s39 -26.667 51 -48
s18 -47.333 18 -78c0 -54 -24.333 -108 -73 -162c-34 -36.667 -78 -64.167 -132 -82.5s-118.667 -27.5 -194 -27.5c-20 0 -41 1 -63 3s-44.667 4.66699 -68 8l-5 1l1 5l19 130l1 5zM448.001 629.002c-57.333 -52 -98.833 -98.833 -124.5 -140.5s-38.5 -81.5 -38.5 -119.5
c0 -51.333 13.333 -89 40 -113s71.667 -36 135 -36c64 0 109.5 12 136.5 36s40.5 62 40.5 114c0 68.667 -63 155 -189 259zM381.001 968.002c104 -76 190 -148.333 258 -217s119.167 -135.167 153.5 -199.5s51.5 -126.833 51.5 -187.5
c0 -104.667 -34.667 -190.5 -104 -257.5s-162.333 -101.167 -279 -102.5c-120.667 0 -214.667 31.333 -282 94s-101 151.334 -101 266.001c0 137.333 70 276.666 210 417.999l-29 25l-14 12l11 15l97 130l12 16z" />
    <glyph glyph-name="uniFBA5.fina" unicode="&#xfeea;&#x654;" horiz-adv-x="1038" arabic-form="final" 
d="M314 1224c39.333 -8.66699 78.334 -12.998 117.001 -12.998c103.333 0 175.333 16.333 216 49c29.333 23.333 44 48 44 74c0 12 -10 18.333 -30 19l-100 2c-40.667 1.33301 -71.5 12.666 -92.5 33.999s-31.5 52.666 -31.5 93.999c0 34.667 6.66699 66.5 20 95.5
s31.833 53.667 55.5 74s51.667 37.833 84 52.5s67 25.5 104 32.5s76.167 10.833 117.5 11.5h5v-5l-9 -130v-5h-5c-76.667 -1.33301 -133.834 -11.666 -171.501 -30.999s-59.5 -48 -65.5 -86l103 -4c30.667 -0.666992 57 -6.33398 79 -17.001s39 -26.667 51 -48
s18 -47.333 18 -78c0 -54 -24.333 -108 -73 -162c-34 -36.667 -78 -64.167 -132 -82.5s-118.667 -27.5 -194 -27.5c-20 0 -41 1 -63 3s-44.667 4.66699 -68 8l-5 1l1 5l19 130l1 5zM78.001 432.002c0 203.333 168.333 358.666 505 465.999l-5 28l-3 19l19 4l159 33l21 4
l3 -21l82 -589c14 -104 70 -156 168 -156h31v-20v-180v-20h-35c-89.333 0 -161.833 19 -217.5 57s-94.167 93 -115.5 165c-78.667 -60 -165 -90 -259 -90c-101.333 0 -185.5 25.333 -252.5 76s-100.5 125.334 -100.5 224.001zM615.001 696.002
c-110.667 -42.667 -192.167 -84.668 -244.5 -126.001s-78.5 -83.333 -78.5 -126c0 -69.333 44.333 -104 133 -104c56 0 106 15.333 150 46s66 69.334 66 116.001c0 19.333 -1.33301 37.333 -4 54z" />
    <glyph glyph-name="uniFDF2" unicode="&#x627;&#xfedf;&#xfee0;&#xfeea;" horiz-adv-x="2513" arabic-form="isolated" 
d="M1254 1543v362v5h5h88h5v-5v-362v-5h-5h-88h-5v5zM1345 1450c0 -6 0.167969 -14.6689 0.500977 -26.002s0.666016 -21.5 0.999023 -30.5s0.833008 -17.5 1.5 -25.5c4.66699 -64.667 26.334 -97 65.001 -97c41.333 0 62 32 62 96c0 3.33301 -0.166992 7.16602 -0.5 11.499
l-1 13.5c-0.333008 4.66699 -0.833008 9.66699 -1.5 15s-1.5 10.833 -2.5 16.5s-2 11.834 -3 18.501s-2.33301 13.5 -4 20.5s-3.16699 14.167 -4.5 21.5l-1 5l5 1l88 14l5 1l1 -5c6 -20.667 10.5 -41.334 13.5 -62.001s4.5 -41 4.5 -61
c0 -137.333 -50.667 -206.666 -152 -207.999c-10 0 -20.167 1.16699 -30.5 3.5s-20.333 5.5 -30 9.5s-18.5 9.16699 -26.5 15.5s-14.667 13.5 -20 21.5c-12 -34 -31.667 -58.167 -59 -72.5s-58 -21.5 -92 -21.5c-48 0 -83.833 15.5 -107.5 46.5s-35.5 76.5 -35.5 136.5
c0 35.333 4.33301 69 13 101l1 5l5 -1l78 -13l5 -1l-1 -5c-6 -26 -9 -53.333 -9 -82c0 -52.667 21 -79 63 -79c13.333 0 24.666 1.33301 33.999 4s17 7.83398 23 15.501s10.667 15.334 14 23.001s5.83301 19.5 7.5 35.5s2.66699 30.667 3 44s0.5 32 0.5 56v6.5v6.5v6v6.5v7
v6.5v5h5h77h5v-5zM78.001 431.998c0 203.333 168.333 358.666 505 465.999l-5 28l-3 19l19 4l159 33l21 4l3 -21l82 -589c14 -104 70 -156 168 -156h31v-20v-180v-20h-35c-89.333 0 -161.833 19 -217.5 57s-94.167 93 -115.5 165c-78.667 -60 -165 -90 -259 -90
c-101.333 0 -185.5 25.333 -252.5 76s-100.5 125.334 -100.5 224.001zM615.001 695.998c-110.667 -42.667 -192.167 -84.668 -244.5 -126.001s-78.5 -83.333 -78.5 -126c0 -69.333 44.333 -104 133 -104c56 0 106 15.333 150 46s66 69.334 66 116.001
c0 19.333 -1.33301 37.333 -4 54zM1310 103.997c-26 -38.667 -59.1689 -65.666 -99.502 -80.999s-90.166 -23 -149.499 -23h-42v20v180v20h44c23.333 0 43 1.5 59 4.5s29.333 9 40 18s19 18.333 25 28s10.5 24.667 13.5 45s4.83301 39.5 5.5 57.5s1 43.333 1 76v580v20h20
h169h20v-20v-580c0 -39.333 0.5 -69.333 1.5 -90s3.66699 -41.5 8 -62.5s11 -36.167 20 -45.5s21.167 -16.833 36.5 -22.5s35 -8.5 59 -8.5h43v-20v-180v-20h-40c-27.333 0 -52.166 1.83301 -74.499 5.5s-43.333 9.5 -63 17.5s-37.5 18.667 -53.5 32
s-30.333 29.666 -43 48.999zM1545 19.998v180v20h31c55.333 0 92.333 15.333 111 46s28 83 28 157v759v20h20h169h20v-20v-757c0 -138.667 -26.833 -244.167 -80.5 -316.5s-143.167 -108.5 -268.5 -108.5h-30v20zM2195 1366h169h20v-20v-1325v-20h-20h-169h-20v20v1325v20
h20z" />
    <glyph glyph-name="uniFE70" unicode="&#x20;&#x64b;" horiz-adv-x="791" arabic-form="isolated" 
d="M161 1076v104v3l3 2l455 186l7 2v-7v-103v-3l-3 -2l-455 -187l-7 -2v7zM161 1288v104v3l3 2l455 186l7 2v-7v-103v-3l-3 -2l-455 -187l-7 -2v7z" />
    <glyph glyph-name="uniFE71" unicode="&#x640;&#x64b;" horiz-adv-x="791" arabic-form="medial" 
d="M486 0v220h326v-220h-326zM228 0v220h326v-220h-326zM-20 0v220h326v-220h-326zM185 1103v104v3l3 2l455 186l7 2v-7v-103v-3l-3 -2l-455 -187l-7 -2v7zM185 1315v104v3l3 2l455 186l7 2v-7v-103v-3l-3 -2l-455 -187l-7 -2v7z" />
    <glyph glyph-name="uniFE72" unicode="&#x20;&#x64c;" horiz-adv-x="791" arabic-form="isolated" 
d="M314 1497c0 49.333 15.8262 89.5029 47.4932 120.503s71.834 46.5 120.501 46.5c49.333 0 89.5 -15.333 120.5 -46s46.5 -71.334 46.5 -122.001c0 -36.667 -8.33301 -75.667 -25 -117l14 -2c4.66699 -0.666992 8.66699 -1 12 -1h10h5v-5v-76v-5h-5
c-11.333 0.666992 -22.833 1.66699 -34.5 3s-24.5 3 -38.5 5c-32 -74.667 -71.667 -130.667 -119 -168s-102.666 -56 -165.999 -56c-34 0 -64 7.5 -90 22.5s-47.667 36.5 -65 64.5s-30.5 61 -39.5 99s-13.833 80.667 -14.5 128v4l4 1l79 14l6 1v-6
c0.666992 -28.667 2.83398 -55.334 6.50098 -80.001s8.83398 -46.834 15.501 -66.501s14.834 -36.5 24.501 -50.5s20.834 -24.667 33.501 -32s26.334 -11 41.001 -11c70.667 0 135 50.333 193 151c-58.667 21.333 -103.667 46 -135 74s-47 64.667 -47 110zM535.993 1397
c8 18 14.168 35.334 18.501 52.001s6.5 32 6.5 46c0 22.667 -7.33301 41.5 -22 56.5s-32.334 22.5 -53.001 22.5c-24 0 -43.667 -7.33301 -59 -22s-23 -34.334 -23 -59.001c0 -40 44 -72 132 -96z" />
    <glyph glyph-name="uniFE74" unicode="&#x20;&#x64d;" horiz-adv-x="791" arabic-form="isolated" 
d="M169 -440v104v3l3 2l456 186l7 2v-7v-104v-3l-3 -2l-456 -186l-7 -2v7zM169 -228v104v3l3 2l456 186l7 2v-7v-104v-3l-3 -2l-456 -186l-7 -2v7z" />
    <glyph glyph-name="uniFE76" unicode="&#x20;&#x64e;" horiz-adv-x="791" arabic-form="isolated" 
d="M151 1343v104v3l3 2l456 186l7 2v-7v-104v-3l-3 -2l-456 -186l-7 -2v7z" />
    <glyph glyph-name="uniFE77" unicode="&#x640;&#x64e;" horiz-adv-x="791" arabic-form="medial" 
d="M486 0v220h326v-220h-326zM228 0v220h326v-220h-326zM-20 0v220h326v-220h-326zM160 1349v104v3l3 2l456 186l7 2v-7v-104v-3l-3 -2l-456 -186l-7 -2v7z" />
    <glyph glyph-name="uniFE78" unicode="&#x20;&#x64f;" horiz-adv-x="791" arabic-form="isolated" 
d="M595 1257c-26 0 -52.0029 2 -78.0029 6c-22 -30 -51.333 -55.833 -88 -77.5s-78.167 -38.334 -124.5 -50.001s-97.166 -19.167 -152.499 -22.5h-5v5v78v5h5c63.333 6 119.166 16.333 167.499 31s84.5 33 108.5 55c-50 10.667 -92.667 31.334 -128 62.001s-53 68 -53 112
c0 50 15.833 90.333 47.5 121s71.834 46 120.501 46s88.834 -15.5 120.501 -46.5s47.5 -71.5 47.5 -121.5c0 -18.667 -2 -37.667 -6 -57s-10 -38.666 -18 -57.999c6.66699 -0.666992 12.834 -1.33398 18.501 -2.00098s11.5 -1 17.5 -1h5v-5v-75v-5h-5zM468.997 1361
c8 18 14.166 35.332 18.499 51.999s6.5 32 6.5 46c0 22.667 -7.16699 41.334 -21.5 56.001s-32.166 22 -53.499 22c-24.667 0 -44.5 -7.16699 -59.5 -21.5s-22.5 -33.833 -22.5 -58.5c0 -40 44 -72 132 -96z" />
    <glyph glyph-name="uniFE79" unicode="&#x640;&#x64f;" horiz-adv-x="791" arabic-form="medial" 
d="M486 0v220h326v-220h-326zM228 0v220h326v-220h-326zM-20 0v220h326v-220h-326zM595 1176c-26 0 -52.0029 2 -78.0029 6c-22 -30 -51.333 -55.833 -88 -77.5s-78.167 -38.334 -124.5 -50.001s-97.166 -19.167 -152.499 -22.5h-5v5v78v5h5
c63.333 6 119.166 16.333 167.499 31s84.5 33 108.5 55c-50 10.667 -92.667 31.334 -128 62.001s-53 68 -53 112c0 50 15.833 90.333 47.5 121s71.834 46 120.501 46s88.834 -15.5 120.501 -46.5s47.5 -71.5 47.5 -121.5c0 -18.667 -2 -37.667 -6 -57
s-10 -38.666 -18 -57.999c6.66699 -0.666992 12.834 -1.33398 18.501 -2.00098s11.5 -1 17.5 -1h5v-5v-75v-5h-5zM468.997 1280c8 18 14.166 35.332 18.499 51.999s6.5 32 6.5 46c0 22.667 -7.16699 41.334 -21.5 56.001s-32.166 22 -53.499 22
c-24.667 0 -44.5 -7.16699 -59.5 -21.5s-22.5 -33.833 -22.5 -58.5c0 -40 44 -72 132 -96z" />
    <glyph glyph-name="uniFE7A" unicode="&#x20;&#x650;" horiz-adv-x="791" arabic-form="isolated" 
d="M171 -334v104v3l3 2l455 186l7 2v-7v-103v-3l-3 -2l-455 -187l-7 -2v7z" />
    <glyph glyph-name="uniFE7B" unicode="&#x640;&#x650;" horiz-adv-x="791" arabic-form="medial" 
d="M486 0v220h326v-220h-326zM228 0v220h326v-220h-326zM-20 0v220h326v-220h-326zM177 -452v104v3l3 2l455 186l7 2v-7v-103v-3l-3 -2l-455 -187l-7 -2v7z" />
    <glyph glyph-name="uniFE7C" unicode="&#x20;&#x651;" horiz-adv-x="791" arabic-form="isolated" 
d="M431 1569c0 -6 0.167969 -14.6689 0.500977 -26.002s0.666016 -21.5 0.999023 -30.5s0.833008 -17.5 1.5 -25.5c4.66699 -64.667 26.334 -97 65.001 -97c41.333 0 62 32 62 96c0 3.33301 -0.166992 7.16602 -0.5 11.499l-1 13.5
c-0.333008 4.66699 -0.833008 9.66699 -1.5 15s-1.5 10.833 -2.5 16.5s-2 11.834 -3 18.501s-2.33301 13.5 -4 20.5s-3.16699 14.167 -4.5 21.5l-1 5l5 1l88 14l5 1l1 -5c6 -20.667 10.5 -41.334 13.5 -62.001s4.5 -41 4.5 -61c0 -137.333 -50.667 -206.666 -152 -207.999
c-10 0 -20.167 1.16699 -30.5 3.5s-20.333 5.5 -30 9.5s-18.5 9.16699 -26.5 15.5s-14.667 13.5 -20 21.5c-12 -34 -31.667 -58.167 -59 -72.5s-58 -21.5 -92 -21.5c-48 0 -83.833 15.5 -107.5 46.5s-35.5 76.5 -35.5 136.5c0 35.333 4.33301 69 13 101l1 5l5 -1l78 -13
l5 -1l-1 -5c-6 -26 -9 -53.333 -9 -82c0 -52.667 21 -79 63 -79c13.333 0 24.666 1.33301 33.999 4s17 7.83398 23 15.501s10.667 15.334 14 23.001s5.83301 19.5 7.5 35.5s2.66699 30.667 3 44s0.5 32 0.5 56v6.5v6.5v6v6.5v7v6.5v5h5h77h5v-5z" />
    <glyph glyph-name="uniFE7D" unicode="&#x640;&#x651;" horiz-adv-x="791" arabic-form="medial" 
d="M486 0v220h326v-220h-326zM228 0v220h326v-220h-326zM-20 0v220h326v-220h-326zM442 1568c0 -6 0.167969 -14.6689 0.500977 -26.002s0.666016 -21.5 0.999023 -30.5s0.833008 -17.5 1.5 -25.5c4.66699 -64.667 26.334 -97 65.001 -97c41.333 0 62 32 62 96
c0 3.33301 -0.166992 7.16602 -0.5 11.499l-1 13.5c-0.333008 4.66699 -0.833008 9.66699 -1.5 15s-1.5 10.833 -2.5 16.5s-2 11.834 -3 18.501s-2.33301 13.5 -4 20.5s-3.16699 14.167 -4.5 21.5l-1 5l5 1l88 14l5 1l1 -5c6 -20.667 10.5 -41.334 13.5 -62.001
s4.5 -41 4.5 -61c0 -137.333 -50.667 -206.666 -152 -207.999c-10 0 -20.167 1.16699 -30.5 3.5s-20.333 5.5 -30 9.5s-18.5 9.16699 -26.5 15.5s-14.667 13.5 -20 21.5c-12 -34 -31.667 -58.167 -59 -72.5s-58 -21.5 -92 -21.5c-48 0 -83.833 15.5 -107.5 46.5
s-35.5 76.5 -35.5 136.5c0 35.333 4.33301 69 13 101l1 5l5 -1l78 -13l5 -1l-1 -5c-6 -26 -9 -53.333 -9 -82c0 -52.667 21 -79 63 -79c13.333 0 24.666 1.33301 33.999 4s17 7.83398 23 15.501s10.667 15.334 14 23.001s5.83301 19.5 7.5 35.5s2.66699 30.667 3 44
s0.5 32 0.5 56v6.5v6.5v6v6.5v7v6.5v5h5h77h5v-5z" />
    <glyph glyph-name="uniFE7E" unicode="&#x20;&#x652;" horiz-adv-x="791" arabic-form="isolated" 
d="M324 1452c0 -24.667 8.66699 -45.5 26 -62.5s38.333 -25.5 63 -25.5s45.5 8.5 62.5 25.5s25.5 37.833 25.5 62.5s-8.5 45.667 -25.5 63s-37.833 26 -62.5 26s-45.667 -8.66699 -63 -26s-26 -38.333 -26 -63zM235 1452c0 48.667 17.5 90.5 52.5 125.5
s76.833 52.5 125.5 52.5s90.5 -17.5 125.5 -52.5s52.5 -76.833 52.5 -125.5s-17.5 -90.5 -52.5 -125.5s-76.833 -52.5 -125.5 -52.5s-90.5 17.5 -125.5 52.5s-52.5 76.833 -52.5 125.5z" />
    <glyph glyph-name="uniFE7F" unicode="&#x640;&#x652;" horiz-adv-x="791" arabic-form="medial" 
d="M486 0v220h326v-220h-326zM228 0v220h326v-220h-326zM-20 0v220h326v-220h-326zM314 1462c0 -24.667 8.66699 -45.5 26 -62.5s38.333 -25.5 63 -25.5s45.5 8.5 62.5 25.5s25.5 37.833 25.5 62.5s-8.5 45.667 -25.5 63s-37.833 26 -62.5 26s-45.667 -8.66699 -63 -26
s-26 -38.333 -26 -63zM225 1462c0 48.667 17.5 90.5 52.5 125.5s76.833 52.5 125.5 52.5s90.5 -17.5 125.5 -52.5s52.5 -76.833 52.5 -125.5s-17.5 -90.5 -52.5 -125.5s-76.833 -52.5 -125.5 -52.5s-90.5 17.5 -125.5 52.5s-52.5 76.833 -52.5 125.5z" />
    <glyph glyph-name="uniFEF5" unicode="&#xfedf;&#xfe82;" horiz-adv-x="1212" arabic-form="isolated" 
d="M225 1458c-53.333 0 -110 -36 -170 -108l-5 -7l-7 6l-101 91l-4 5l3 6c36.667 52 75.834 92.5 117.501 121.5s85.834 43.5 132.501 43.5c29.333 0 69.166 -8.5 119.499 -25.5s88.833 -25.5 115.5 -25.5c46 0 104 17.667 174 53l8 4l3 -7l66 -122l3 -7l-6 -4
c-36.667 -22.667 -73.334 -40 -110.001 -52s-74 -18 -112 -18c-28.667 0 -67.5 7.66699 -116.5 23s-85.833 23 -110.5 23zM178 236c76.667 -10 150.336 -14.999 221.003 -14.999c26.667 0 52.667 0.666992 78 2c-32.667 110.667 -78.334 239.167 -137.001 385.5
s-141.334 342.166 -248.001 587.499l-8 17l16 9l149 81l20 10l8 -20l255.5 -628.5c58.333 -149.667 106.166 -283.167 143.499 -400.5c46 18.667 83 41.167 111 67.5s49.667 62.833 65 109.5s23 105.667 23 177v728v20h20h169h20v-20v-729
c0 -212.667 -57 -368.167 -171 -466.5s-286.333 -147.5 -517 -147.5c-88 0 -162.667 5.33301 -224 16l-17 3v17v177v23z" />
    <glyph glyph-name="uniFEF6" unicode="&#xfee0;&#xfe82;" horiz-adv-x="1273" arabic-form="final" 
d="M225 1458c-53.333 0 -110 -36 -170 -108l-5 -7l-7 6l-101 91l-4 5l3 6c36.667 52 75.834 92.5 117.501 121.5s85.834 43.5 132.501 43.5c29.333 0 69.166 -8.5 119.499 -25.5s88.833 -25.5 115.5 -25.5c46 0 104 17.667 174 53l8 4l3 -7l66 -122l3 -7l-6 -4
c-36.667 -22.667 -73.334 -40 -110.001 -52s-74 -18 -112 -18c-28.667 0 -67.5 7.66699 -116.5 23s-85.833 23 -110.5 23zM277 1293l255.499 -628.502c58.333 -149.667 106.166 -283.167 143.499 -400.5c46 18.667 83 41.167 111 67.5s49.667 62.833 65 109.5
s23 105.667 23 177v728v20h20h169h20v-20v-779c0 -122 13.5 -210.333 40.5 -265s71.167 -82 132.5 -82h36v-20v-180v-20h-34c-155.333 0 -258.666 69.333 -309.999 208c-117.333 -136.667 -301.666 -205 -552.999 -205c-88 0 -162.667 5.33301 -224 16l-17 3v17v177v23
l23 -3c74.667 -10 148 -15 220 -15c26.667 0 53 0.666992 79 2c-33.333 108.667 -79 235.834 -137 381.501s-140.667 342.834 -248 591.501l-8 17l16 9l149 81l20 10z" />
    <glyph glyph-name="uniFEF7" unicode="&#xfedf;&#xfe84;" horiz-adv-x="1212" arabic-form="isolated" 
d="M77 1481c-22.667 20.667 -39.0029 43.6689 -49.0029 69.002s-15 56 -15 92c0 63.333 20.333 114.666 61 153.999s89 59 145 59c10 0 19.833 -0.666992 29.5 -2s19.167 -3 28.5 -5s18.5 -4.83301 27.5 -8.5s18 -7.66699 27 -12s17.833 -9.16602 26.5 -14.499l2 -1v-3
l1 -119v-9l-8 5c-40 24 -80 36 -120 36c-26.667 0 -49.167 -7.66699 -67.5 -23s-27.5 -38.666 -27.5 -69.999c0 -10.667 1.66699 -20.334 5 -29.001s8.33301 -16.834 15 -24.501s15.334 -15 26.001 -22s23.667 -13.167 39 -18.5
c2.66699 -0.666992 4.83398 -1.33398 6.50098 -2.00098s3.5 -1.16699 5.5 -1.5s4 -0.5 6 -0.5h3c0.666992 0 2 0.333008 4 1l71 14.5c30.667 6.33301 51.334 10.5 62.001 12.5l6 1v-6v-116v-4l-4 -1l-397 -96l-6 -1v6v113v4l4 1zM177.997 236.002
c76.667 -10 150.336 -14.999 221.003 -14.999c26.667 0 52.667 0.666992 78 2c-32.667 110.667 -78.334 239.167 -137.001 385.5s-141.334 342.166 -248.001 587.499l-8 17l16 9l149 81l20 10l8 -20l255.5 -628.5c58.333 -149.667 106.166 -283.167 143.499 -400.5
c46 18.667 83 41.167 111 67.5s49.667 62.833 65 109.5s23 105.667 23 177v728v20h20h169h20v-20v-729c0 -212.667 -57 -368.167 -171 -466.5s-286.333 -147.5 -517 -147.5c-88 0 -162.667 5.33301 -224 16l-17 3v17v177v23z" />
    <glyph glyph-name="uniFEF8" unicode="&#xfee0;&#xfe84;" horiz-adv-x="1273" arabic-form="final" 
d="M277 1293l255.499 -628.502c58.333 -149.667 106.166 -283.167 143.499 -400.5c46 18.667 83 41.167 111 67.5s49.667 62.833 65 109.5s23 105.667 23 177v728v20h20h169h20v-20v-779c0 -122 13.5 -210.333 40.5 -265s71.167 -82 132.5 -82h36v-20v-180v-20h-34
c-155.333 0 -258.666 69.333 -309.999 208c-117.333 -136.667 -301.666 -205 -552.999 -205c-88 0 -162.667 5.33301 -224 16l-17 3v17v177v23l23 -3c74.667 -10 148 -15 220 -15c26.667 0 53 0.666992 79 2c-33.333 108.667 -79 235.834 -137 381.501
s-140.667 342.834 -248 591.501l-8 17l16 9l149 81l20 10zM76.999 1481c-22.667 20.667 -39.0029 43.6689 -49.0029 69.002s-15 56 -15 92c0 63.333 20.333 114.666 61 153.999s89 59 145 59c10 0 19.833 -0.666992 29.5 -2s19.167 -3 28.5 -5s18.5 -4.83301 27.5 -8.5
s18 -7.66699 27 -12s17.833 -9.16602 26.5 -14.499l2 -1v-3l1 -119v-9l-8 5c-40 24 -80 36 -120 36c-26.667 0 -49.167 -7.66699 -67.5 -23s-27.5 -38.666 -27.5 -69.999c0 -10.667 1.66699 -20.334 5 -29.001s8.33301 -16.834 15 -24.501s15.334 -15 26.001 -22
s23.667 -13.167 39 -18.5c2.66699 -0.666992 4.83398 -1.33398 6.50098 -2.00098s3.5 -1.16699 5.5 -1.5s4 -0.5 6 -0.5h3c0.666992 0 2 0.333008 4 1l71 14.5c30.667 6.33301 51.334 10.5 62.001 12.5l6 1v-6v-116v-4l-4 -1l-397 -96l-6 -1v6v113v4l4 1z" />
    <glyph glyph-name="uniFEF9" unicode="&#xfedf;&#xfe88;" horiz-adv-x="1212" arabic-form="isolated" 
d="M169 -501c-22.667 20.667 -39.0029 43.6689 -49.0029 69.002s-15 56 -15 92c0 63.333 20.333 114.666 61 153.999s89 59 145 59c10 0 19.833 -0.666992 29.5 -2s19.167 -3 28.5 -5s18.5 -4.83301 27.5 -8.5s18 -7.66699 27 -12s17.833 -9.16602 26.5 -14.499l2 -1v-3
l1 -119v-9l-8 5c-40 24 -80 36 -120 36c-26.667 0 -49.167 -7.66699 -67.5 -23s-27.5 -38.666 -27.5 -69.999c0 -10.667 1.66699 -20.334 5 -29.001s8.33301 -16.834 15 -24.501s15.334 -15 26.001 -22s23.667 -13.167 39 -18.5
c2.66699 -0.666992 4.83398 -1.33398 6.50098 -2.00098s3.5 -1.16699 5.5 -1.5s4 -0.5 6 -0.5h3c0.666992 0 2 0.333008 4 1l71 14.5c30.667 6.33301 51.334 10.5 62.001 12.5l6 1v-6v-116v-4l-4 -1l-397 -96l-6 -1v6v113v4l4 1zM177.997 236.002
c76.667 -10 150.336 -14.999 221.003 -14.999c26.667 0 52.667 0.666992 78 2c-32.667 110.667 -78.334 239.167 -137.001 385.5s-141.334 342.166 -248.001 587.499l-8 17l16 9l149 81l20 10l8 -20l255.5 -628.5c58.333 -149.667 106.166 -283.167 143.499 -400.5
c46 18.667 83 41.167 111 67.5s49.667 62.833 65 109.5s23 105.667 23 177v728v20h20h169h20v-20v-729c0 -212.667 -57 -368.167 -171 -466.5s-286.333 -147.5 -517 -147.5c-88 0 -162.667 5.33301 -224 16l-17 3v17v177v23z" />
    <glyph glyph-name="uniFEFA" unicode="&#xfee0;&#xfe88;" horiz-adv-x="1273" arabic-form="final" 
d="M169 -501c-22.667 20.667 -39.0029 43.6689 -49.0029 69.002s-15 56 -15 92c0 63.333 20.333 114.666 61 153.999s89 59 145 59c10 0 19.833 -0.666992 29.5 -2s19.167 -3 28.5 -5s18.5 -4.83301 27.5 -8.5s18 -7.66699 27 -12s17.833 -9.16602 26.5 -14.499l2 -1v-3
l1 -119v-9l-8 5c-40 24 -80 36 -120 36c-26.667 0 -49.167 -7.66699 -67.5 -23s-27.5 -38.666 -27.5 -69.999c0 -10.667 1.66699 -20.334 5 -29.001s8.33301 -16.834 15 -24.501s15.334 -15 26.001 -22s23.667 -13.167 39 -18.5
c2.66699 -0.666992 4.83398 -1.33398 6.50098 -2.00098s3.5 -1.16699 5.5 -1.5s4 -0.5 6 -0.5h3c0.666992 0 2 0.333008 4 1l71 14.5c30.667 6.33301 51.334 10.5 62.001 12.5l6 1v-6v-116v-4l-4 -1l-397 -96l-6 -1v6v113v4l4 1zM276.997 1293l255.499 -628.502
c58.333 -149.667 106.166 -283.167 143.499 -400.5c46 18.667 83 41.167 111 67.5s49.667 62.833 65 109.5s23 105.667 23 177v728v20h20h169h20v-20v-779c0 -122 13.5 -210.333 40.5 -265s71.167 -82 132.5 -82h36v-20v-180v-20h-34
c-155.333 -0 -258.666 69.333 -309.999 208c-117.333 -136.667 -301.666 -205 -552.999 -205c-88 0 -162.667 5.33301 -224 16l-17 3v17v177v23l23 -3c74.667 -10 148 -15 220 -15c26.667 0 53 0.666992 79 2c-33.333 108.667 -79 235.834 -137 381.501
s-140.667 342.834 -248 591.501l-8 17l16 9l149 81l20 10z" />
    <glyph glyph-name="uniFEFB" unicode="&#xfedf;&#xfe8e;" horiz-adv-x="1212" arabic-form="isolated" 
d="M178 236c76.667 -10 150.336 -14.999 221.003 -14.999c26.667 0 52.667 0.666992 78 2c-32.667 110.667 -78.334 239.167 -137.001 385.5s-141.334 342.166 -248.001 587.499l-8 17l16 9l149 81l20 10l8 -20l255.5 -628.5
c58.333 -149.667 106.166 -283.167 143.499 -400.5c46 18.667 83 41.167 111 67.5s49.667 62.833 65 109.5s23 105.667 23 177v728v20h20h169h20v-20v-729c0 -212.667 -57 -368.167 -171 -466.5s-286.333 -147.5 -517 -147.5c-88 0 -162.667 5.33301 -224 16l-17 3v17v177
v23z" />
    <glyph glyph-name="uniFEFC" unicode="&#xfee0;&#xfe8e;" horiz-adv-x="1273" arabic-form="final" 
d="M277 1293l255.499 -628.502c58.333 -149.667 106.166 -283.167 143.499 -400.5c46 18.667 83 41.167 111 67.5s49.667 62.833 65 109.5s23 105.667 23 177v728v20h20h169h20v-20v-779c0 -122 13.5 -210.333 40.5 -265s71.167 -82 132.5 -82h36v-20v-180v-20h-34
c-155.333 0 -258.666 69.333 -309.999 208c-117.333 -136.667 -301.666 -205 -552.999 -205c-88 0 -162.667 5.33301 -224 16l-17 3v17v177v23l23 -3c74.667 -10 148 -15 220 -15c26.667 0 53 0.666992 79 2c-33.333 108.667 -79 235.834 -137 381.501
s-140.667 342.834 -248 591.501l-8 17l16 9l149 81l20 10z" />
    <glyph glyph-name="uni0651064B" unicode="&#x64b;&#x651;" 
d="M329 1258v104v3l3 2l455 186l7 2v-7v-103v-3l-3 -2l-455 -187l-7 -2v7zM329 1470v104v3l3 2l455 186l7 2v-7v-103v-3l-3 -2l-455 -187l-7 -2v7zM620 1217c0 -6 0.167969 -14.6689 0.500977 -26.002s0.666016 -21.5 0.999023 -30.5s0.833008 -17.5 1.5 -25.5
c4.66699 -64.667 26.334 -97 65.001 -97c41.333 0 62 32 62 96c0 3.33301 -0.166992 7.16602 -0.5 11.499l-1 13.5c-0.333008 4.66699 -0.833008 9.66699 -1.5 15s-1.5 10.833 -2.5 16.5s-2 11.834 -3 18.501s-2.33301 13.5 -4 20.5s-3.16699 14.167 -4.5 21.5l-1 5l5 1
l88 14l5 1l1 -5c6 -20.667 10.5 -41.334 13.5 -62.001s4.5 -41 4.5 -61c0 -137.333 -50.667 -206.666 -152 -207.999c-10 0 -20.167 1.16699 -30.5 3.5s-20.333 5.5 -30 9.5s-18.5 9.16699 -26.5 15.5s-14.667 13.5 -20 21.5c-12 -34 -31.667 -58.167 -59 -72.5
s-58 -21.5 -92 -21.5c-48 0 -83.833 15.5 -107.5 46.5s-35.5 76.5 -35.5 136.5c0 35.333 4.33301 69 13 101l1 5l5 -1l78 -13l5 -1l-1 -5c-6 -26 -9 -53.333 -9 -82c0 -52.667 21 -79 63 -79c13.333 0 24.666 1.33301 33.999 4s17 7.83398 23 15.501
s10.667 15.334 14 23.001s5.83301 19.5 7.5 35.5s2.66699 30.667 3 44s0.5 32 0.5 56v6.5v6.5v6v6.5v7v6.5v5h5h77h5v-5z" />
    <glyph glyph-name="uni0651064C" unicode="&#x64c;&#x651;" 
d="M478 1701c0 49.333 15.8262 89.5029 47.4932 120.503s71.834 46.5 120.501 46.5c49.333 0 89.5 -15.333 120.5 -46s46.5 -71.334 46.5 -122.001c0 -36.667 -8.33301 -75.667 -25 -117l14 -2c4.66699 -0.666992 8.66699 -1 12 -1h10h5v-5v-76v-5h-5
c-11.333 0.666992 -22.833 1.66699 -34.5 3s-24.5 3 -38.5 5c-32 -74.667 -71.667 -130.667 -119 -168s-102.666 -56 -165.999 -56c-34 0 -64 7.5 -90 22.5s-47.667 36.5 -65 64.5s-30.5 61 -39.5 99s-13.833 80.667 -14.5 128v4l4 1l79 14l6 1v-6
c0.666992 -28.667 2.83398 -55.334 6.50098 -80.001s8.83398 -46.834 15.501 -66.501s14.834 -36.5 24.501 -50.5s20.834 -24.667 33.501 -32s26.334 -11 41.001 -11c70.667 0 135 50.333 193 151c-58.667 21.333 -103.667 46 -135 74s-47 64.667 -47 110zM699.993 1601
c8 18 14.168 35.334 18.501 52.001s6.5 32 6.5 46c0 22.667 -7.33301 41.5 -22 56.5s-32.334 22.5 -53.001 22.5c-24 0 -43.667 -7.33301 -59 -22s-23 -34.334 -23 -59.001c0 -40 44 -72 132 -96zM636.994 1211c0 -6 0.167969 -14.6689 0.500977 -26.002
s0.666016 -21.5 0.999023 -30.5s0.833008 -17.5 1.5 -25.5c4.66699 -64.667 26.334 -97 65.001 -97c41.333 0 62 32 62 96c0 3.33301 -0.166992 7.16602 -0.5 11.499l-1 13.5c-0.333008 4.66699 -0.833008 9.66699 -1.5 15s-1.5 10.833 -2.5 16.5s-2 11.834 -3 18.501
s-2.33301 13.5 -4 20.5s-3.16699 14.167 -4.5 21.5l-1 5l5 1l88 14l5 1l1 -5c6 -20.667 10.5 -41.334 13.5 -62.001s4.5 -41 4.5 -61c0 -137.333 -50.667 -206.666 -152 -207.999c-10 0 -20.167 1.16699 -30.5 3.5s-20.333 5.5 -30 9.5s-18.5 9.16699 -26.5 15.5
s-14.667 13.5 -20 21.5c-12 -34 -31.667 -58.167 -59 -72.5s-58 -21.5 -92 -21.5c-48 0 -83.833 15.5 -107.5 46.5s-35.5 76.5 -35.5 136.5c0 35.333 4.33301 69 13 101l1 5l5 -1l78 -13l5 -1l-1 -5c-6 -26 -9 -53.333 -9 -82c0 -52.667 21 -79 63 -79
c13.333 0 24.666 1.33301 33.999 4s17 7.83398 23 15.501s10.667 15.334 14 23.001s5.83301 19.5 7.5 35.5s2.66699 30.667 3 44s0.5 32 0.5 56v6.5v6.5v6v6.5v7v6.5v5h5h77h5v-5z" />
    <glyph glyph-name="uni064B0651" unicode="&#x64d;&#x651;" 
d="M538 1683c0 -6 0.167969 -14.6689 0.500977 -26.002s0.666016 -21.5 0.999023 -30.5s0.833008 -17.5 1.5 -25.5c4.66699 -64.667 26.334 -97 65.001 -97c41.333 0 62 32 62 96c0 3.33301 -0.166992 7.16602 -0.5 11.499l-1 13.5
c-0.333008 4.66699 -0.833008 9.66699 -1.5 15s-1.5 10.833 -2.5 16.5s-2 11.834 -3 18.501s-2.33301 13.5 -4 20.5s-3.16699 14.167 -4.5 21.5l-1 5l5 1l88 14l5 1l1 -5c6 -20.667 10.5 -41.334 13.5 -62.001s4.5 -41 4.5 -61c0 -137.333 -50.667 -206.666 -152 -207.999
c-10 0 -20.167 1.16699 -30.5 3.5s-20.333 5.5 -30 9.5s-18.5 9.16699 -26.5 15.5s-14.667 13.5 -20 21.5c-12 -34 -31.667 -58.167 -59 -72.5s-58 -21.5 -92 -21.5c-48 0 -83.833 15.5 -107.5 46.5s-35.5 76.5 -35.5 136.5c0 35.333 4.33301 69 13 101l1 5l5 -1l78 -13
l5 -1l-1 -5c-6 -26 -9 -53.333 -9 -82c0 -52.667 21 -79 63 -79c13.333 0 24.666 1.33301 33.999 4s17 7.83398 23 15.501s10.667 15.334 14 23.001s5.83301 19.5 7.5 35.5s2.66699 30.667 3 44s0.5 32 0.5 56v6.5v6.5v6v6.5v7v6.5v5h5h77h5v-5zM278.001 868.998v104v3l3 2
l455 186l7 2v-7v-103v-3l-3 -2l-455 -187l-7 -2v7zM278.001 1081v104v3l3 2l455 186l7 2v-7v-103v-3l-3 -2l-455 -187l-7 -2v7z" />
    <glyph glyph-name="uni0651064E" unicode="&#x64e;&#x651;" 
d="M313 1457v104v3l3 2l456 186l7 2v-7v-104v-3l-3 -2l-456 -186l-7 -2v7zM625 1425c0 -6 0.167969 -14.6689 0.500977 -26.002s0.666016 -21.5 0.999023 -30.5s0.833008 -17.5 1.5 -25.5c4.66699 -64.667 26.334 -97 65.001 -97c41.333 0 62 32 62 96
c0 3.33301 -0.166992 7.16602 -0.5 11.499l-1 13.5c-0.333008 4.66699 -0.833008 9.66699 -1.5 15s-1.5 10.833 -2.5 16.5s-2 11.834 -3 18.501s-2.33301 13.5 -4 20.5s-3.16699 14.167 -4.5 21.5l-1 5l5 1l88 14l5 1l1 -5c6 -20.667 10.5 -41.334 13.5 -62.001
s4.5 -41 4.5 -61c0 -137.333 -50.667 -206.666 -152 -207.999c-10 0 -20.167 1.16699 -30.5 3.5s-20.333 5.5 -30 9.5s-18.5 9.16699 -26.5 15.5s-14.667 13.5 -20 21.5c-12 -34 -31.667 -58.167 -59 -72.5s-58 -21.5 -92 -21.5c-48 0 -83.833 15.5 -107.5 46.5
s-35.5 76.5 -35.5 136.5c0 35.333 4.33301 69 13 101l1 5l5 -1l78 -13l5 -1l-1 -5c-6 -26 -9 -53.333 -9 -82c0 -52.667 21 -79 63 -79c13.333 0 24.666 1.33301 33.999 4s17 7.83398 23 15.501s10.667 15.334 14 23.001s5.83301 19.5 7.5 35.5s2.66699 30.667 3 44
s0.5 32 0.5 56v6.5v6.5v6v6.5v7v6.5v5h5h77h5v-5z" />
    <glyph glyph-name="uni0651064F" unicode="&#x64f;&#x651;" 
d="M759 1409c-26 0 -52.0029 2 -78.0029 6c-22 -30 -51.333 -55.833 -88 -77.5s-78.167 -38.334 -124.5 -50.001s-97.166 -19.167 -152.499 -22.5h-5v5v78v5h5c63.333 6 119.166 16.333 167.499 31s84.5 33 108.5 55c-50 10.667 -92.667 31.334 -128 62.001s-53 68 -53 112
c0 50 15.833 90.333 47.5 121s71.834 46 120.501 46s88.834 -15.5 120.501 -46.5s47.5 -71.5 47.5 -121.5c0 -18.667 -2 -37.667 -6 -57s-10 -38.666 -18 -57.999c6.66699 -0.666992 12.834 -1.33398 18.501 -2.00098s11.5 -1 17.5 -1h5v-5v-75v-5h-5zM632.997 1513
c8 18 14.166 35.332 18.499 51.999s6.5 32 6.5 46c0 22.667 -7.16699 41.334 -21.5 56.001s-32.166 22 -53.499 22c-24.667 0 -44.5 -7.16699 -59.5 -21.5s-22.5 -33.833 -22.5 -58.5c0 -40 44 -72 132 -96zM621.996 1218c0 -6 0.167969 -14.6689 0.500977 -26.002
s0.666016 -21.5 0.999023 -30.5s0.833008 -17.5 1.5 -25.5c4.66699 -64.667 26.334 -97 65.001 -97c41.333 0 62 32 62 96c0 3.33301 -0.166992 7.16602 -0.5 11.499l-1 13.5c-0.333008 4.66699 -0.833008 9.66699 -1.5 15s-1.5 10.833 -2.5 16.5s-2 11.834 -3 18.501
s-2.33301 13.5 -4 20.5s-3.16699 14.167 -4.5 21.5l-1 5l5 1l88 14l5 1l1 -5c6 -20.667 10.5 -41.334 13.5 -62.001s4.5 -41 4.5 -61c0 -137.333 -50.667 -206.666 -152 -207.999c-10 0 -20.167 1.16699 -30.5 3.5s-20.333 5.5 -30 9.5s-18.5 9.16699 -26.5 15.5
s-14.667 13.5 -20 21.5c-12 -34 -31.667 -58.167 -59 -72.5s-58 -21.5 -92 -21.5c-48 0 -83.833 15.5 -107.5 46.5s-35.5 76.5 -35.5 136.5c0 35.333 4.33301 69 13 101l1 5l5 -1l78 -13l5 -1l-1 -5c-6 -26 -9 -53.333 -9 -82c0 -52.667 21 -79 63 -79
c13.333 0 24.666 1.33301 33.999 4s17 7.83398 23 15.501s10.667 15.334 14 23.001s5.83301 19.5 7.5 35.5s2.66699 30.667 3 44s0.5 32 0.5 56v6.5v6.5v6v6.5v7v6.5v5h5h77h5v-5z" />
    <glyph glyph-name="uni064E0651" unicode="&#x650;&#x651;" 
d="M610 1630c0 -6 0.167969 -14.6689 0.500977 -26.002s0.666016 -21.5 0.999023 -30.5s0.833008 -17.5 1.5 -25.5c4.66699 -64.667 26.334 -97 65.001 -97c41.333 0 62 32 62 96c0 3.33301 -0.166992 7.16602 -0.5 11.499l-1 13.5
c-0.333008 4.66699 -0.833008 9.66699 -1.5 15s-1.5 10.833 -2.5 16.5s-2 11.834 -3 18.501s-2.33301 13.5 -4 20.5s-3.16699 14.167 -4.5 21.5l-1 5l5 1l88 14l5 1l1 -5c6 -20.667 10.5 -41.334 13.5 -62.001s4.5 -41 4.5 -61c0 -137.333 -50.667 -206.666 -152 -207.999
c-10 0 -20.167 1.16699 -30.5 3.5s-20.333 5.5 -30 9.5s-18.5 9.16699 -26.5 15.5s-14.667 13.5 -20 21.5c-12 -34 -31.667 -58.167 -59 -72.5s-58 -21.5 -92 -21.5c-48 0 -83.833 15.5 -107.5 46.5s-35.5 76.5 -35.5 136.5c0 35.333 4.33301 69 13 101l1 5l5 -1l78 -13
l5 -1l-1 -5c-6 -26 -9 -53.333 -9 -82c0 -52.667 21 -79 63 -79c13.333 0 24.666 1.33301 33.999 4s17 7.83398 23 15.501s10.667 15.334 14 23.001s5.83301 19.5 7.5 35.5s2.66699 30.667 3 44s0.5 32 0.5 56v6.5v6.5v6v6.5v7v6.5v5h5h77h5v-5zM349.001 998.998v104v3l3 2
l456 186l7 2v-7v-104v-3l-3 -2l-456 -186l-7 -2v7z" />
    <glyph glyph-name="uni0654064E" unicode="&#x64e;&#x654;" 
d="M319 1675v104v3l3 2l456 186l7 2v-7v-104v-3l-3 -2l-456 -186l-7 -2v7zM450 1321c-22.667 20.667 -39.0029 43.6689 -49.0029 69.002s-15 56 -15 92c0 63.333 20.333 114.666 61 153.999s89 59 145 59c10 0 19.833 -0.666992 29.5 -2s19.167 -3 28.5 -5
s18.5 -4.83301 27.5 -8.5s18 -7.66699 27 -12s17.833 -9.16602 26.5 -14.499l2 -1v-3l1 -119v-9l-8 5c-40 24 -80 36 -120 36c-26.667 0 -49.167 -7.66699 -67.5 -23s-27.5 -38.666 -27.5 -69.999c0 -10.667 1.66699 -20.334 5 -29.001s8.33301 -16.834 15 -24.501
s15.334 -15 26.001 -22s23.667 -13.167 39 -18.5c2.66699 -0.666992 4.83398 -1.33398 6.50098 -2.00098s3.5 -1.16699 5.5 -1.5s4 -0.5 6 -0.5h3c0.666992 0 2 0.333008 4 1l71 14.5c30.667 6.33301 51.334 10.5 62.001 12.5l6 1v-6v-116v-4l-4 -1l-397 -96l-6 -1v6v113v4
l4 1z" />
    <glyph glyph-name="uni0654064F" unicode="&#x64f;&#x654;" 
d="M697 1633c-26 0 -52.0029 2 -78.0029 6c-22 -30 -51.333 -55.833 -88 -77.5s-78.167 -38.334 -124.5 -50.001s-97.166 -19.167 -152.499 -22.5h-5v5v78v5h5c63.333 6 119.166 16.333 167.499 31s84.5 33 108.5 55c-50 10.667 -92.667 31.334 -128 62.001s-53 68 -53 112
c0 50 15.833 90.333 47.5 121s71.834 46 120.501 46s88.834 -15.5 120.501 -46.5s47.5 -71.5 47.5 -121.5c0 -18.667 -2 -37.667 -6 -57s-10 -38.666 -18 -57.999c6.66699 -0.666992 12.834 -1.33398 18.501 -2.00098s11.5 -1 17.5 -1h5v-5v-75v-5h-5zM570.997 1737
c8 18 14.166 35.332 18.499 51.999s6.5 32 6.5 46c0 22.667 -7.16699 41.334 -21.5 56.001s-32.166 22 -53.499 22c-24.667 0 -44.5 -7.16699 -59.5 -21.5s-22.5 -33.833 -22.5 -58.5c0 -40 44 -72 132 -96zM442.996 1103c-22.667 20.667 -39.0029 43.6689 -49.0029 69.002
s-15 56 -15 92c0 63.333 20.333 114.666 61 153.999s89 59 145 59c10 0 19.833 -0.666992 29.5 -2s19.167 -3 28.5 -5s18.5 -4.83301 27.5 -8.5s18 -7.66699 27 -12s17.833 -9.16602 26.5 -14.499l2 -1v-3l1 -119v-9l-8 5c-40 24 -80 36 -120 36
c-26.667 0 -49.167 -7.66699 -67.5 -23s-27.5 -38.666 -27.5 -69.999c0 -10.667 1.66699 -20.334 5 -29.001s8.33301 -16.834 15 -24.501s15.334 -15 26.001 -22s23.667 -13.167 39 -18.5c2.66699 -0.666992 4.83398 -1.33398 6.50098 -2.00098s3.5 -1.16699 5.5 -1.5
s4 -0.5 6 -0.5h3c0.666992 0 2 0.333008 4 1l71 14.5c30.667 6.33301 51.334 10.5 62.001 12.5l6 1v-6v-116v-4l-4 -1l-397 -96l-6 -1v6v113v4l4 1z" />
    <glyph glyph-name="LamAlefWasla" unicode="&#xfedf;&#xfb51;" horiz-adv-x="1212" 
d="M222 1453c36 0 65.835 0.831055 89.502 2.49805s44.834 4.33398 63.501 8.00098s33.167 8.83398 43.5 15.501s18 15.167 23 25.5s7.5 22.833 7.5 37.5c0 12.667 -2.33301 24.5 -7 35.5s-10.834 20.5 -18.501 28.5s-17.334 14.333 -29.001 19s-24.167 7 -37.5 7
c-24 0 -46.5 -6.16699 -67.5 -18.5s-41.833 -30.833 -62.5 -55.5s-45.334 -59.667 -74.001 -105h69zM-24.998 1435l17.001 81.9971c3.33301 -3.33301 7.66602 -7.16602 12.999 -11.499s14.333 -11.166 27 -20.499s23.667 -15.666 33 -18.999
c54.667 92 103.334 157 146.001 195s90 57 142 57c52.667 0 95.667 -16.167 129 -48.5s50 -73.5 50 -123.5c0 -65.333 -23 -111.333 -69 -138s-125.667 -40 -239 -40h-24c-40 0 -74.833 2.33301 -104.5 7s-54.834 12 -75.501 22s-35.667 22.667 -45 38zM178.003 235.995
c76.667 -10 150.336 -14.999 221.003 -14.999c26.667 0 52.667 0.666992 78 2c-32.667 110.667 -78.334 239.167 -137.001 385.5s-141.334 342.166 -248.001 587.499l-8 17l16 9l149 81l20 10l8 -20l255.5 -628.5c58.333 -149.667 106.166 -283.167 143.499 -400.5
c46 18.667 83 41.167 111 67.5s49.667 62.833 65 109.5s23 105.667 23 177v728v20h20h169h20v-20v-729c0 -212.667 -57 -368.167 -171 -466.5s-286.333 -147.5 -517 -147.5c-88 0 -162.667 5.33301 -224 16l-17 3v17v177v23z" />
    <glyph glyph-name="LamAlefWasla.fina" unicode="&#xfee0;&#xfb51;" horiz-adv-x="1273" 
d="M222 1453c36 0 65.835 0.831055 89.502 2.49805s44.834 4.33398 63.501 8.00098s33.167 8.83398 43.5 15.501s18 15.167 23 25.5s7.5 22.833 7.5 37.5c0 12.667 -2.33301 24.5 -7 35.5s-10.834 20.5 -18.501 28.5s-17.334 14.333 -29.001 19s-24.167 7 -37.5 7
c-24 0 -46.5 -6.16699 -67.5 -18.5s-41.833 -30.833 -62.5 -55.5s-45.334 -59.667 -74.001 -105h69zM-24.998 1435l17.001 81.9971c3.33301 -3.33301 7.66602 -7.16602 12.999 -11.499s14.333 -11.166 27 -20.499s23.667 -15.666 33 -18.999
c54.667 92 103.334 157 146.001 195s90 57 142 57c52.667 0 95.667 -16.167 129 -48.5s50 -73.5 50 -123.5c0 -65.333 -23 -111.333 -69 -138s-125.667 -40 -239 -40h-24c-40 0 -74.833 2.33301 -104.5 7s-54.834 12 -75.501 22s-35.667 22.667 -45 38zM277.003 1293
l255.499 -628.502c58.333 -149.667 106.166 -283.167 143.499 -400.5c46 18.667 83 41.167 111 67.5s49.667 62.833 65 109.5s23 105.667 23 177v728v20h20h169h20v-20v-779c0 -122 13.5 -210.333 40.5 -265s71.167 -82 132.5 -82h36v-20v-180v-20h-34
c-155.333 0 -258.666 69.333 -309.999 208c-117.333 -136.667 -301.666 -205 -552.999 -205c-88 0 -162.667 5.33301 -224 16l-17 3v17v177v23l23 -3c74.667 -10 148 -15 220 -15c26.667 0 53 0.666992 79 2c-33.333 108.667 -79 235.834 -137 381.501
s-140.667 342.834 -248 591.501l-8 17l16 9l149 81l20 10z" />
    <glyph glyph-name="uni066E.fina" unicode="&#x66e;" horiz-adv-x="1878" 
d="M985 0l-144.998 -0.000976562c-244.667 0 -432.834 42.333 -564.501 127s-197.5 210.334 -197.5 377.001c0 88.667 18.667 176 56 262l7 17l18 -6l153 -57l19 -7l-7 -19c-20.667 -54.667 -31 -109.667 -31 -165c0.666992 -206 179.667 -309 537 -309h150
c256 0 417.667 40.667 485 122c20 24 30 60.667 30 110c0 10 -0.166992 20.167 -0.5 30.5s-0.833008 21.333 -1.5 33s-1.16699 21.334 -1.5 29.001s-1 18.667 -2 33s-1.5 24.166 -1.5 29.499l-1 19l19 2l161 20l21 2l1 -21l16 -248c4 -56 19 -96.833 45 -122.5
s67 -38.5 123 -38.5h25v-20v-180v-20h-25c-136.667 0 -237.334 55 -302.001 165c-120 -110 -315.333 -165 -586 -165z" />
    <glyph glyph-name="uni066F.fina" unicode="&#x66f;" horiz-adv-x="1450" 
d="M362 435c-48 -126.667 -72.0029 -244.671 -72.0029 -354.004c0 -131.333 35.5 -228.833 106.5 -292.5s181.5 -95.5 331.5 -95.5c58.667 0 110.334 4.16699 155.001 12.5s82.667 20.5 114 36.5s57.666 36.667 78.999 62s38 53.833 50 85.5s20.667 68.834 26 111.501h-129
c-125.333 0 -220.666 26.5 -285.999 79.5s-98 131.833 -98 236.5c0 120.667 33.333 224.834 100 312.501s151.334 131.5 254.001 131.5c209.333 0 331 -180.333 365 -541h112v-20v-180v-20l-114 1c-15.333 -117.333 -46.5 -213.666 -93.5 -288.999
s-115.167 -132.833 -204.5 -172.5s-201.666 -59.5 -336.999 -59.5c-213.333 0 -373.833 50 -481.5 150s-161.5 248.667 -161.5 446c0 142.667 30.667 288.334 92 437.001l7 18l19 -7l155 -63l18 -8zM1155 220.996c-17.333 210 -76 315 -176 315
c-36 0 -67.5 -20.167 -94.5 -60.5s-40.5 -88.166 -40.5 -143.499c0 -36.667 13.333 -64.334 40 -83.001s69.667 -28 129 -28h142z" />
    <glyph glyph-name="uni067C.init" unicode="&#x67c;" horiz-adv-x="695" 
d="M199 -83c0 -24.667 8.66699 -45.5 26 -62.5s38.333 -25.5 63 -25.5s45.5 8.5 62.5 25.5s25.5 37.833 25.5 62.5s-8.5 45.667 -25.5 63s-37.833 26 -62.5 26s-45.667 -8.66699 -63 -26s-26 -38.333 -26 -63zM101 -83c0 51.333 18.333 95.333 55 132s80.667 55 132 55
s95.333 -18.333 132 -55s55 -80.667 55 -132s-18.333 -95.333 -55 -132s-80.667 -55 -132 -55s-95.333 18.333 -132 55s-55 80.667 -55 132zM328 1087l140 140l7 7l7 -7l141 -140l7 -7l-7 -7l-141 -142l-7 -7l-7 7l-140 142l-7 7zM-4 1087l140 140l7 7l7 -7l141 -140l7 -7
l-7 -7l-141 -142l-7 -7l-7 7l-140 142l-7 7zM545 765c32.667 -109.333 49 -218.336 49 -327.003c0 -151.333 -38 -262.166 -114 -332.499s-193 -105.5 -351 -105.5h-149v20v180v20h149c50.667 0 91 2.5 121 7.5s55.667 15.333 77 31s36 37.334 44 65.001
s12 64.834 12 111.501c0 86 -12 179 -36 279l-5 20l19 4l160 40l19 5z" />
    <glyph glyph-name="uni067C.medi" unicode="&#x67c;" horiz-adv-x="767" 
d="M199 -83c0 -24.667 8.66699 -45.5 26 -62.5s38.333 -25.5 63 -25.5s45.5 8.5 62.5 25.5s25.5 37.833 25.5 62.5s-8.5 45.667 -25.5 63s-37.833 26 -62.5 26s-45.667 -8.66699 -63 -26s-26 -38.333 -26 -63zM101 -83c0 51.333 18.333 95.333 55 132s80.667 55 132 55
s95.333 -18.333 132 -55s55 -80.667 55 -132s-18.333 -95.333 -55 -132s-80.667 -55 -132 -55s-95.333 18.333 -132 55s-55 80.667 -55 132zM330 1004l140 140l7 7l7 -7l141 -140l7 -7l-7 -7l-141 -142l-7 -7l-7 7l-140 142l-7 7zM-2 1004l140 140l7 7l7 -7l141 -140l7 -7
l-7 -7l-141 -142l-7 -7l-7 7l-140 142l-7 7zM763 0c-125.333 0 -216 42.667 -272 128c-76 -85.333 -196.667 -128 -362 -128h-149v20v180v20h151c97.333 0 163.5 12.833 198.5 38.5s52.833 75.167 53.5 148.5c0 54 -2.66699 121 -8 201l-1 19l19 2l164 19l21 2l1 -21
l16 -247c4 -56 19.5 -97 46.5 -123s68.167 -39 123.5 -39h22v-20v-180v-20h-24z" />
    <glyph glyph-name="uni067C.fina" unicode="&#x67c;" horiz-adv-x="1878" 
d="M809 -95c0 -24.667 8.66699 -45.5 26 -62.5s38.333 -25.5 63 -25.5s45.5 8.5 62.5 25.5s25.5 37.833 25.5 62.5s-8.5 45.667 -25.5 63s-37.833 26 -62.5 26s-45.667 -8.66699 -63 -26s-26 -38.333 -26 -63zM711 -95c0 51.333 18.333 95.333 55 132s80.667 55 132 55
s95.333 -18.333 132 -55s55 -80.667 55 -132s-18.333 -95.333 -55 -132s-80.667 -55 -132 -55s-95.333 18.333 -132 55s-55 80.667 -55 132zM929 886l140 140l7 7l7 -7l141 -140l7 -7l-7 -7l-141 -142l-7 -7l-7 7l-140 142l-7 7zM597 886l140 140l7 7l7 -7l141 -140l7 -7
l-7 -7l-141 -142l-7 -7l-7 7l-140 142l-7 7zM985 0l-144.998 -0.000976562c-244.667 0 -432.834 42.333 -564.501 127s-197.5 210.334 -197.5 377.001c0 88.667 18.667 176 56 262l7 17l18 -6l153 -57l19 -7l-7 -19c-20.667 -54.667 -31 -109.667 -31 -165
c0.666992 -206 179.667 -309 537 -309h150c256 0 417.667 40.667 485 122c20 24 30 60.667 30 110c0 10 -0.166992 20.167 -0.5 30.5s-0.833008 21.333 -1.5 33s-1.16699 21.334 -1.5 29.001s-1 18.667 -2 33s-1.5 24.166 -1.5 29.499l-1 19l19 2l161 20l21 2l1 -21l16 -248
c4 -56 19 -96.833 45 -122.5s67 -38.5 123 -38.5h25v-20v-180v-20h-25c-136.667 0 -237.334 55 -302.001 165c-120 -110 -315.333 -165 -586 -165z" />
    <glyph glyph-name="uni0681.init" unicode="&#x681;" horiz-adv-x="1334" 
d="M514 1162c-22.667 20.667 -39.0029 43.6689 -49.0029 69.002s-15 56 -15 92c0 63.333 20.333 114.666 61 153.999s89 59 145 59c10 0 19.833 -0.666992 29.5 -2s19.167 -3 28.5 -5s18.5 -4.83301 27.5 -8.5s18 -7.66699 27 -12s17.833 -9.16602 26.5 -14.499l2 -1v-3
l1 -119v-9l-8 5c-40 24 -80 36 -120 36c-26.667 0 -49.167 -7.66699 -67.5 -23s-27.5 -38.666 -27.5 -69.999c0 -10.667 1.66699 -20.334 5 -29.001s8.33301 -16.834 15 -24.501s15.334 -15 26.001 -22s23.667 -13.167 39 -18.5
c2.66699 -0.666992 4.83398 -1.33398 6.50098 -2.00098s3.5 -1.16699 5.5 -1.5s4 -0.5 6 -0.5h3c0.666992 0 2 0.333008 4 1l71 14.5c30.667 6.33301 51.334 10.5 62.001 12.5l6 1v-6v-116v-4l-4 -1l-397 -96l-6 -1v6v113v4l4 1zM-20.0029 20.002l-0.00292969 180v20h163
c49.333 0 98.166 3.83301 146.499 11.5s92.5 17 132.5 28s86.333 27.667 139 50s99 43.333 139 63l161 81.5l39 20c-60 26 -108 46 -144 60c-143.333 58.667 -230.333 88 -261 88c-32.667 0 -65.667 -9.83301 -99 -29.5s-62 -45.167 -86 -76.5l-27 -35l-10 -13l-15 7
l-151 75l-19 10l11 18l15 26c44.667 73.333 100 131 166 173s138 63 216 63c42 0 87.833 -8.33301 137.5 -25s107.834 -41 174.501 -73c103.333 -50.667 188.5 -87.334 255.5 -110.001s128.167 -35.334 183.5 -38.001l19 -1v-19l-2 -170v-18l-18 -2
c-25.333 -2.66699 -54.166 -9.66699 -86.499 -21s-71.166 -27.666 -116.499 -48.999s-103 -50.666 -173 -87.999c-70.667 -37.333 -131.167 -67.666 -181.5 -90.999s-106.666 -46.333 -168.999 -69s-124.5 -39.334 -186.5 -50.001s-126.333 -16 -193 -16h-160v20z" />
    <glyph glyph-name="uni0681.medi" unicode="&#x681;" horiz-adv-x="1351" 
d="M514 1162c-22.667 20.667 -39.0029 43.6689 -49.0029 69.002s-15 56 -15 92c0 63.333 20.333 114.666 61 153.999s89 59 145 59c10 0 19.833 -0.666992 29.5 -2s19.167 -3 28.5 -5s18.5 -4.83301 27.5 -8.5s18 -7.66699 27 -12s17.833 -9.16602 26.5 -14.499l2 -1v-3
l1 -119v-9l-8 5c-40 24 -80 36 -120 36c-26.667 0 -49.167 -7.66699 -67.5 -23s-27.5 -38.666 -27.5 -69.999c0 -10.667 1.66699 -20.334 5 -29.001s8.33301 -16.834 15 -24.501s15.334 -15 26.001 -22s23.667 -13.167 39 -18.5
c2.66699 -0.666992 4.83398 -1.33398 6.50098 -2.00098s3.5 -1.16699 5.5 -1.5s4 -0.5 6 -0.5h3c0.666992 0 2 0.333008 4 1l71 14.5c30.667 6.33301 51.334 10.5 62.001 12.5l6 1v-6v-116v-4l-4 -1l-397 -96l-6 -1v6v113v4l4 1zM1246 384.002
c-59.333 -6.66699 -120.332 -24.3301 -182.999 -52.9971c2.66699 -18.667 9.16699 -34.834 19.5 -48.501s25.666 -25.167 45.999 -34.5s46 -16.333 77 -21s68.167 -7 111.5 -7h54v-20v-180v-20h-58c-121.333 0 -216.666 19.333 -285.999 58s-112.333 100 -129 184
c-68.667 -36.667 -130.834 -68 -186.501 -94s-116.167 -51 -181.5 -75s-130.5 -42.167 -195.5 -54.5s-129.833 -18.5 -194.5 -18.5h-160v20v180v20h163c49.333 0 98.166 3.83301 146.499 11.5s92.5 17 132.5 28s86.333 27.667 139 50s99 43.333 139 63l161 81.5l39 20
c-60 26 -108 46 -144 60c-143.333 58.667 -230.333 88 -261 88c-32.667 0 -65.667 -9.83301 -99 -29.5s-62 -45.167 -86 -76.5l-27 -35l-10 -13l-15 7l-151 75l-19 10l11 18l15 26c44.667 73.333 100 131 166 173s138 63 216 63c42 0 87.833 -8.33301 137.5 -25
s107.834 -41 174.501 -73c103.333 -50.667 188.5 -87.334 255.5 -110.001s128.167 -35.334 183.5 -38.001l19 -1v-19l-2 -170v-18z" />
    <glyph glyph-name="uni0681.fina" unicode="&#x681;" horiz-adv-x="1378" 
d="M514 1182c-22.667 20.667 -39.0029 43.6689 -49.0029 69.002s-15 56 -15 92c0 63.333 20.333 114.666 61 153.999s89 59 145 59c10 0 19.833 -0.666992 29.5 -2s19.167 -3 28.5 -5s18.5 -4.83301 27.5 -8.5s18 -7.66699 27 -12s17.833 -9.16602 26.5 -14.499l2 -1v-3
l1 -119v-9l-8 5c-40 24 -80 36 -120 36c-26.667 0 -49.167 -7.66699 -67.5 -23s-27.5 -38.666 -27.5 -69.999c0 -10.667 1.66699 -20.334 5 -29.001s8.33301 -16.834 15 -24.501s15.334 -15 26.001 -22s23.667 -13.167 39 -18.5
c2.66699 -0.666992 4.83398 -1.33398 6.50098 -2.00098s3.5 -1.16699 5.5 -1.5s4 -0.5 6 -0.5h3c0.666992 0 2 0.333008 4 1l71 14.5c30.667 6.33301 51.334 10.5 62.001 12.5l6 1v-6v-116v-4l-4 -1l-397 -96l-6 -1v6v113v4l4 1zM1257 -578.998
c-136.667 -65.333 -294.331 -97.998 -472.998 -97.998c-104 0 -198.5 11 -283.5 33s-159.167 54.833 -222.5 98.5s-112.333 100.667 -147 171s-52 151.5 -52 243.5c0 162 60.167 305.5 180.5 430.5s290.833 216.833 511.5 275.5l-34 13
c-78 31.333 -136.333 53.833 -175 67.5s-67 20.5 -85 20.5c-16.667 0 -33.667 -2.66699 -51 -8s-33.833 -12.833 -49.5 -22.5s-30.834 -20.834 -45.501 -33.501s-27.667 -26.667 -39 -42l-27 -35l-10 -13l-15 7l-151 75l-19 10l11 18l15 26c44.667 73.333 100 131 166 173
s138 63 216 63c42 0 87.833 -8.33301 137.5 -25s107.834 -41 174.501 -73c103.333 -50.667 188.5 -87.334 255.5 -110.001s128.167 -35.334 183.5 -38.001l20 -1l-1 -20c-1.33301 -19.333 -3.5 -47.833 -6.5 -85.5s-5.16699 -65.834 -6.5 -84.501l-1 -18l-18 -1
c-48 -3.33301 -106.667 -9.66602 -176 -18.999c2 -40.667 7.83301 -73.834 17.5 -99.501s25.334 -45.834 47.001 -60.501s47.667 -24.834 78 -30.501s69.5 -8.5 117.5 -8.5h98v-20v-180v-20h-95c-75.333 0 -139.833 6.66699 -193.5 20s-99.834 34.833 -138.501 64.5
s-67.834 68.834 -87.501 117.501s-30.834 108.334 -33.501 179.001c-184 -54.667 -324.167 -126.167 -420.5 -214.5s-144.5 -182.166 -144.5 -281.499c0 -117.333 42 -205.166 126 -263.499s213 -87.5 387 -87.5c138.667 0 274 31 406 93l23 11l6 -25l35 -170l3 -15z" />
    <glyph glyph-name="uni0685.init" unicode="&#x685;" horiz-adv-x="1334" 
d="M467 1392l132 132l7 7l7 -7l133 -132l7 -7l-7 -7l-133 -133l-7 -7l-7 7l-132 133l-7 7zM639 1130l132 132l7 7l7 -7l133 -132l7 -7l-7 -7l-133 -133l-7 -7l-7 7l-132 133l-7 7zM299 1130l132 132l7 7l7 -7l133 -132l7 -7l-7 -7l-133 -133l-7 -7l-7 7l-132 133l-7 7z
M-20 20l-0.00292969 180v20h163c49.333 0 98.166 3.83301 146.499 11.5s92.5 17 132.5 28s86.333 27.667 139 50s99 43.333 139 63l161 81.5l39 20c-60 26 -108 46 -144 60c-143.333 58.667 -230.333 88 -261 88c-32.667 0 -65.667 -9.83301 -99 -29.5
s-62 -45.167 -86 -76.5l-27 -35l-10 -13l-15 7l-151 75l-19 10l11 18l15 26c44.667 73.333 100 131 166 173s138 63 216 63c42 0 87.833 -8.33301 137.5 -25s107.834 -41 174.501 -73c103.333 -50.667 188.5 -87.334 255.5 -110.001s128.167 -35.334 183.5 -38.001l19 -1
v-19l-2 -170v-18l-18 -2c-25.333 -2.66699 -54.166 -9.66699 -86.499 -21s-71.166 -27.666 -116.499 -48.999s-103 -50.666 -173 -87.999c-70.667 -37.333 -131.167 -67.666 -181.5 -90.999s-106.666 -46.333 -168.999 -69s-124.5 -39.334 -186.5 -50.001
s-126.333 -16 -193 -16h-160v20z" />
    <glyph glyph-name="uni0685.medi" unicode="&#x685;" horiz-adv-x="1351" 
d="M467 1392l132 132l7 7l7 -7l133 -132l7 -7l-7 -7l-133 -133l-7 -7l-7 7l-132 133l-7 7zM639 1130l132 132l7 7l7 -7l133 -132l7 -7l-7 -7l-133 -133l-7 -7l-7 7l-132 133l-7 7zM299 1130l132 132l7 7l7 -7l133 -132l7 -7l-7 -7l-133 -133l-7 -7l-7 7l-132 133l-7 7z
M1246 384c-59.333 -6.66699 -120.332 -24.3301 -182.999 -52.9971c2.66699 -18.667 9.16699 -34.834 19.5 -48.501s25.666 -25.167 45.999 -34.5s46 -16.333 77 -21s68.167 -7 111.5 -7h54v-20v-180v-20h-58c-121.333 0 -216.666 19.333 -285.999 58s-112.333 100 -129 184
c-68.667 -36.667 -130.834 -68 -186.501 -94s-116.167 -51 -181.5 -75s-130.5 -42.167 -195.5 -54.5s-129.833 -18.5 -194.5 -18.5h-160v20v180v20h163c49.333 0 98.166 3.83301 146.499 11.5s92.5 17 132.5 28s86.333 27.667 139 50s99 43.333 139 63l161 81.5l39 20
c-60 26 -108 46 -144 60c-143.333 58.667 -230.333 88 -261 88c-32.667 0 -65.667 -9.83301 -99 -29.5s-62 -45.167 -86 -76.5l-27 -35l-10 -13l-15 7l-151 75l-19 10l11 18l15 26c44.667 73.333 100 131 166 173s138 63 216 63c42 0 87.833 -8.33301 137.5 -25
s107.834 -41 174.501 -73c103.333 -50.667 188.5 -87.334 255.5 -110.001s128.167 -35.334 183.5 -38.001l19 -1v-19l-2 -170v-18z" />
    <glyph glyph-name="uni0685.fina" unicode="&#x685;" horiz-adv-x="1378" 
d="M497 1432l132 132l7 7l7 -7l133 -132l7 -7l-7 -7l-133 -133l-7 -7l-7 7l-132 133l-7 7zM669 1170l132 132l7 7l7 -7l133 -132l7 -7l-7 -7l-133 -133l-7 -7l-7 7l-132 133l-7 7zM329 1170l132 132l7 7l7 -7l133 -132l7 -7l-7 -7l-133 -133l-7 -7l-7 7l-132 133l-7 7z
M1257 -579c-136.667 -65.333 -294.331 -97.998 -472.998 -97.998c-104 0 -198.5 11 -283.5 33s-159.167 54.833 -222.5 98.5s-112.333 100.667 -147 171s-52 151.5 -52 243.5c0 162 60.167 305.5 180.5 430.5s290.833 216.833 511.5 275.5l-34 13
c-78 31.333 -136.333 53.833 -175 67.5s-67 20.5 -85 20.5c-16.667 0 -33.667 -2.66699 -51 -8s-33.833 -12.833 -49.5 -22.5s-30.834 -20.834 -45.501 -33.501s-27.667 -26.667 -39 -42l-27 -35l-10 -13l-15 7l-151 75l-19 10l11 18l15 26c44.667 73.333 100 131 166 173
s138 63 216 63c42 0 87.833 -8.33301 137.5 -25s107.834 -41 174.501 -73c103.333 -50.667 188.5 -87.334 255.5 -110.001s128.167 -35.334 183.5 -38.001l20 -1l-1 -20c-1.33301 -19.333 -3.5 -47.833 -6.5 -85.5s-5.16699 -65.834 -6.5 -84.501l-1 -18l-18 -1
c-48 -3.33301 -106.667 -9.66602 -176 -18.999c2 -40.667 7.83301 -73.834 17.5 -99.501s25.334 -45.834 47.001 -60.501s47.667 -24.834 78 -30.501s69.5 -8.5 117.5 -8.5h98v-20v-180v-20h-95c-75.333 0 -139.833 6.66699 -193.5 20s-99.834 34.833 -138.501 64.5
s-67.834 68.834 -87.501 117.501s-30.834 108.334 -33.501 179.001c-184 -54.667 -324.167 -126.167 -420.5 -214.5s-144.5 -182.166 -144.5 -281.499c0 -117.333 42 -205.166 126 -263.499s213 -87.5 387 -87.5c138.667 0 274 31 406 93l23 11l6 -25l35 -170l3 -15z" />
    <glyph glyph-name="uni0689.fina" unicode="&#x689;" horiz-adv-x="1055" 
d="M341 -91c0 -24.667 8.66699 -45.5 26 -62.5s38.333 -25.5 63 -25.5s45.5 8.5 62.5 25.5s25.5 37.833 25.5 62.5s-8.5 45.667 -25.5 63s-37.833 26 -62.5 26s-45.667 -8.66699 -63 -26s-26 -38.333 -26 -63zM243 -91c0 51.333 18.333 95.333 55 132s80.667 55 132 55
s95.333 -18.333 132 -55s55 -80.667 55 -132s-18.333 -95.333 -55 -132s-80.667 -55 -132 -55s-95.333 18.333 -132 55s-55 80.667 -55 132zM103 249c75.333 -18.667 143.332 -28 203.999 -28c218 0 327 48.667 327 146c0 28 -30 112 -90 252l-120 282l-7 18l17 8l162 74
l19 9l8 -19l208 -532c18.667 -48.667 36.667 -89 54 -121s34.333 -56.5 51 -73.5s32.5 -28.667 47.5 -35s31.5 -9.5 49.5 -9.5h42v-20v-180v-20h-42c-109.333 0 -197.666 50 -264.999 150c-95.333 -99.333 -244 -149 -446 -149c-82.667 0 -159 8.33301 -229 25l-15 4v16v183
v26z" />
    <glyph glyph-name="uni0693.fina" unicode="&#x693;" horiz-adv-x="860" 
d="M425 -438c0 -24.667 8.66699 -45.5 26 -62.5s38.333 -25.5 63 -25.5s45.5 8.5 62.5 25.5s25.5 37.833 25.5 62.5s-8.5 45.667 -25.5 63s-37.833 26 -62.5 26s-45.667 -8.66699 -63 -26s-26 -38.333 -26 -63zM327 -438c0 51.333 18.333 95.333 55 132s80.667 55 132 55
s95.333 -18.333 132 -55s55 -80.667 55 -132s-18.333 -95.333 -55 -132s-80.667 -55 -132 -55s-95.333 18.333 -132 55s-55 80.667 -55 132zM495 150c0 45.333 -6.50098 97.499 -19.501 156.499s-31.833 117.167 -56.5 174.5l-8 19l20 8l162 58l19 7l7 -19l61 -193
c16 -49.333 36.5 -85.166 61.5 -107.499s58.167 -33.5 99.5 -33.5h38v-20v-180v-20h-27c-73.333 -0 -126.333 11.333 -159 34c-19.333 -148.667 -83.166 -270.5 -191.499 -365.5s-257.5 -160.167 -447.5 -195.5l-16 -3l-6 15l-61 154l-9 23l24 4
c114 22 208.667 54.5 284 97.5s131.5 96.5 168.5 160.5s55.833 139.333 56.5 226z" />
    <glyph glyph-name="uni0695.fina" unicode="&#x695;" horiz-adv-x="860" 
d="M249 -908l-193 324l-5 8h9h124h3l1 -2l136 -233l137 233l1 2h3h124h9l-5 -8l-194 -324l-1 -2h-3h-142h-3zM495 150c0 45.333 -6.50098 97.499 -19.501 156.499s-31.833 117.167 -56.5 174.5l-8 19l20 8l162 58l19 7l7 -19l61 -193c16 -49.333 36.5 -85.166 61.5 -107.499
s58.167 -33.5 99.5 -33.5h38v-20v-180v-20h-27c-73.333 -0 -126.333 11.333 -159 34c-19.333 -148.667 -83.166 -270.5 -191.499 -365.5s-257.5 -160.167 -447.5 -195.5l-16 -3l-6 15l-61 154l-9 23l24 4c114 22 208.667 54.5 284 97.5s131.5 96.5 168.5 160.5
s55.833 139.333 56.5 226z" />
    <glyph glyph-name="uni0696.fina" unicode="&#x696;" horiz-adv-x="860" 
d="M385 -609l145 145l7 7l7 -7l147 -146l7 -7l-7 -7l-147 -147l-6 -6l-7 7l-146 147l-7 7zM47 19l145 145l7 7l7 -7l147 -146l7 -7l-7 -7l-147 -147l-6 -6l-7 7l-146 147l-7 7zM495 150c0 45.333 -6.50098 97.499 -19.501 156.499s-31.833 117.167 -56.5 174.5l-8 19l20 8
l162 58l19 7l7 -19l61 -193c16 -49.333 36.5 -85.166 61.5 -107.499s58.167 -33.5 99.5 -33.5h38v-20v-180v-20h-27c-73.333 -0 -126.333 11.333 -159 34c-19.333 -148.667 -83.166 -270.5 -191.499 -365.5s-257.5 -160.167 -447.5 -195.5l-16 -3l-6 15l-61 154l-9 23l24 4
c114 22 208.667 54.5 284 97.5s131.5 96.5 168.5 160.5s55.833 139.333 56.5 226z" />
    <glyph glyph-name="uni069A.init" unicode="&#x69a;" horiz-adv-x="1562" 
d="M765 -291l145 145l7 7l7 -7l147 -146l7 -7l-7 -7l-147 -147l-6 -6l-7 7l-146 147l-7 7zM705 993l145 145l7 7l7 -7l147 -146l7 -7l-7 -7l-147 -147l-6 -6l-7 7l-146 147l-7 7zM1153 220c79.333 0 119.003 67.334 119.003 202.001c0 68 -14.333 154.333 -43 259l-6 19
l20 5l168 45l18 5l6 -18c32.667 -104 49 -204 49 -300c0 -40 -2.5 -77.667 -7.5 -113s-12.833 -69.666 -23.5 -102.999s-24.834 -63.166 -42.501 -89.499s-38.334 -49.333 -62.001 -69s-52 -35 -85 -46s-69.5 -16.5 -109.5 -16.5c-111.333 0 -193.333 42.333 -246 127
c-70.667 -84.667 -161.334 -127 -272.001 -127c-126 0 -214.667 41.333 -266 124c-63.333 -82.667 -170.333 -124 -321 -124h-69v20v180v20h71c80 0 137 13.667 171 41s51 76.666 51 147.999c0 37.333 -3.33301 96 -10 176l-2 20l20 2l165 20l20 2l2 -21l16 -226
c2.66699 -33.333 9.83398 -62 21.501 -86s28.667 -42.667 51 -56s49.5 -20 81.5 -20c59.333 0 101.666 15.167 126.999 45.5s38 78.166 38 143.499c0 35.333 -3.33301 94 -10 176l-1 20l19 2l165 20l20 2l2 -21l16 -226c3.33301 -50.667 16.5 -90.334 39.5 -119.001
s56.167 -43 99.5 -43z" />
    <glyph glyph-name="uni069A.medi" unicode="&#x69a;" horiz-adv-x="1658" 
d="M765 -291l145 145l7 7l7 -7l147 -146l7 -7l-7 -7l-147 -147l-6 -6l-7 7l-146 147l-7 7zM705 993l145 145l7 7l7 -7l147 -146l7 -7l-7 -7l-147 -147l-6 -6l-7 7l-146 147l-7 7zM370 124c-63.333 -82.667 -170.33 -124 -320.997 -124h-69v20v180v20h71
c80 0 137 13.667 171 41s51 76.666 51 147.999c0 33.333 -3.33301 92 -10 176l-1 20l19 2l165 20l20 2l2 -21l16 -226c4 -51.333 18.667 -91.166 44 -119.499s62 -42.5 110 -42.5c59.333 0 101.666 15.167 126.999 45.5s38 78.166 38 143.499c0 31.333 -3.33301 90 -10 176
l-1 20l19 2l165 20l20 2l2 -21l16 -226c3.33301 -50.667 16.5 -90.334 39.5 -119.001s56.167 -43 99.5 -43c39.333 0 69 14.833 89 44.5s30 77.167 30 142.5c0 14.667 -0.333008 31.834 -1 51.501s-1.83398 41.834 -3.50098 66.501l-5.5 82l-1 19l19 2l165 20l21 2l1 -21
l16 -247c4 -56 19.333 -97 46 -123s66.334 -39 119.001 -39h30v-20v-180v-20h-28c-40 0 -76.5 4.16699 -109.5 12.5s-62.5 21.5 -88.5 39.5s-47 40.667 -63 68c-13.333 -20.667 -28.166 -38.5 -44.499 -53.5s-34.166 -27.333 -53.499 -37s-40.333 -17 -63 -22
s-47.334 -7.5 -74.001 -7.5c-54.667 0 -102.834 10.667 -144.501 32s-75.5 53 -101.5 95c-70.667 -84.667 -161.334 -127 -272.001 -127c-126.667 0.666992 -215.334 42 -266.001 124z" />
    <glyph glyph-name="uni069A.fina" unicode="&#x69a;" horiz-adv-x="2553" 
d="M1655 -291l145 145l7 7l7 -7l147 -146l7 -7l-7 -7l-147 -147l-6 -6l-7 7l-146 147l-7 7zM1595 993l145 145l7 7l7 -7l147 -146l7 -7l-7 -7l-147 -147l-6 -6l-7 7l-146 147l-7 7zM1531 0c-66.667 0 -123.336 13.667 -170.003 41
c-9.33301 -177.333 -67.333 -313.666 -174 -408.999c-113.333 -101.333 -268.666 -152 -465.999 -152c-212 0 -372.167 50 -480.5 150s-162.5 248.667 -162.5 446c0 142.667 30.667 288.334 92 437.001l7 18l19 -7l155 -63l18 -8l-7 -18c-48 -126.667 -72 -244.667 -72 -354
c0 -130.667 35.833 -228 107.5 -292s181.834 -96 330.501 -96c144.667 0 252.334 35.167 323.001 105.5s106 177.5 106 321.5c0 117.333 -29.333 237.333 -88 360l-10 21l20 6l171 59l19 7l6 -20l59 -183c16.667 -51.333 40.667 -89 72 -113s73.666 -36.333 126.999 -37
c59.333 0 101.666 15.167 126.999 45.5s38 78.166 38 143.499c0 31.333 -3.33301 90 -10 176l-1 20l19 2l165 20l20 2l2 -21l16 -226c3.33301 -50.667 16.5 -90.334 39.5 -119.001s56.167 -43 99.5 -43c39.333 0 69 14.833 89 44.5s30 77.167 30 142.5
c0 44 -3.33301 110.667 -10 200l-1 19l19 2l165 20l21 2l1 -21l16 -247c4 -56 19.333 -97 46 -123s66.334 -39 119.001 -39h30v-20v-180v-20h-28c-127.333 0 -214.333 40 -261 120c-52.667 -80 -131 -120 -235 -120c-54.667 0 -102.834 10.667 -144.501 32
s-75.5 53 -101.5 95c-35.333 -42.667 -75.666 -74.5 -120.999 -95.5s-95.666 -31.5 -150.999 -31.5z" />
    <glyph glyph-name="uni06A1.init" unicode="&#x6a1;" horiz-adv-x="918" 
d="M645 384c-56.667 -14.667 -116.329 -21.999 -178.996 -21.999c-112 0 -197.5 24.333 -256.5 73s-89.167 120.667 -90.5 216c0 45.333 4.83301 89.333 14.5 132s24.334 82 44.001 118s43.167 67.5 70.5 94.5s59.666 48.167 96.999 63.5s77.666 23 120.999 23
c65.333 0 122.666 -17 171.999 -51s88.333 -80.167 117 -138.5s50 -122 64 -191s21 -142.167 21 -219.5c0 -66 -4.83301 -123.5 -14.5 -172.5s-25 -91.5 -46 -127.5s-46.333 -65.667 -76 -89s-66.834 -41.833 -111.501 -55.5s-92.834 -23.334 -144.501 -29.001
s-112.5 -8.5 -182.5 -8.5h-285v20v180v20h296c124.667 0 215.5 11.667 272.5 35s89.167 66.333 96.5 129zM629.005 594.001c-4.66699 36 -11.333 69.332 -20 99.999s-19.667 59.334 -33 86.001s-30 47.667 -50 63s-42.333 23 -67 23c-36 0 -68.167 -18 -96.5 -54
s-42.5 -80.667 -42.5 -134c0 -36 12.5 -62.667 37.5 -80s65.5 -26 121.5 -26c47.333 0 97.333 7.33301 150 22z" />
    <glyph glyph-name="uni06A1.medi" unicode="&#x6a1;" horiz-adv-x="972" 
d="M511 681c-24 0 -55.332 -21.668 -93.999 -65.001s-58 -78.666 -58 -105.999s20.833 -67.5 62.5 -120.5s73.167 -79.5 94.5 -79.5c23.333 0 55.666 27.167 96.999 81.5s62 96.5 62 126.5c0 24.667 -19.333 58 -58 100s-74 63 -106 63zM743.001 224.999
c27.333 -3.33301 78.998 -5 154.998 -5h94v-20v-180v-20h-92c-156.667 0 -285.667 34.667 -387 104c-100.667 -69.333 -233.667 -104 -399 -104h-134v20v180v20h134c87.333 0 145.666 2 174.999 6c-46.667 50 -81.334 97.333 -104.001 142s-34 94 -34 148
c0 37.333 9.83301 78 29.5 122s45.334 85.167 77.001 123.5s70.334 70.333 116.001 96s91.834 38.5 138.501 38.5c64.667 0 126.334 -19.833 185.001 -59.5s104.5 -87.5 137.5 -143.5s49.5 -110 49.5 -162c0 -103.333 -47 -205.333 -141 -306z" />
    <glyph glyph-name="uni06A1.fina" unicode="&#x6a1;" horiz-adv-x="1962" 
d="M1501 681c-24 0 -55.332 -21.668 -93.999 -65.001s-58 -78.666 -58 -105.999s20.833 -67.5 62.5 -120.5s73.167 -79.5 94.5 -79.5c23.333 0 55.666 27.167 96.999 81.5s62 96.5 62 126.5c0 24.667 -19.167 58 -57.5 100s-73.833 63 -106.5 63zM960.001 219.999
l103.501 0.000976562c29.667 0 56.167 0.333008 79.5 1s43.5 1.16699 60.5 1.5s31.5 0.833008 43.5 1.5s22.333 1.66699 31 3c-46.667 49.333 -81.167 96.5 -103.5 141.5s-33.5 94.167 -33.5 147.5c0 50 16.167 104.333 48.5 163s77.166 109.5 134.499 152.5
s117 64.5 179 64.5c64.667 0 126.334 -19.833 185.001 -59.5s104.334 -87.5 137.001 -143.5s49 -110 49 -162c0 -30 -3 -58.333 -9 -85s-15.5 -52.334 -28.5 -77.001s-27.667 -48 -44 -70s-36.5 -46.333 -60.5 -73c26.667 -4 78.667 -6 156 -6h94v-20v-180v-20h-92
c-56.667 0 -108.334 4 -155.001 12s-88.667 19.667 -126 35s-73 34.666 -107 57.999c-111.333 -70 -290.333 -105 -537 -105h-125c-244.667 0 -432.834 42.333 -564.501 127s-197.5 210.334 -197.5 377.001c0 90 18.667 177.333 56 262l7 18l18 -7l153 -57l19 -7l-7 -19
c-20.667 -55.333 -31 -110.333 -31 -165c0.666992 -206 179.667 -309 537 -309h130z" />
    <glyph glyph-name="uni06AB.init" unicode="&#x6ab;" horiz-adv-x="950" 
d="M600 1061c0 -24.667 8.66699 -45.5 26 -62.5s38.333 -25.5 63 -25.5s45.5 8.5 62.5 25.5s25.5 37.833 25.5 62.5s-8.5 45.667 -25.5 63s-37.833 26 -62.5 26s-45.667 -8.66699 -63 -26s-26 -38.333 -26 -63zM502 1061c0 51.333 18.333 95.333 55 132s80.667 55 132 55
s95.333 -18.333 132 -55s55 -80.667 55 -132s-18.333 -95.333 -55 -132s-80.667 -55 -132 -55s-95.333 18.333 -132 55s-55 80.667 -55 132zM254 1001l65.001 -55.0039l64 -54.5l54 -46c24 -20.333 42.167 -36.166 54.5 -47.499l44 -40
c17 -15.333 31.667 -29.166 44 -41.499l35.5 -35.5c44 -48.667 76.833 -97.5 98.5 -146.5s32.5 -101.833 32.5 -158.5c0 -128 -47.333 -222.667 -142 -284s-240.667 -92 -438 -92h-186v20v180v20h185c132.667 0 226.834 14.333 282.501 43s83.5 72 83.5 130
c0 28.667 -7.83301 56.334 -23.5 83.001s-40.834 56 -75.501 88c-12 12 -24.667 23.833 -38 35.5l-35.5 31l-37 31.5l-33 27.5l-34.5 28l-31 25c-5.33301 4.33301 -16.333 12.833 -33 25.5s-26.334 20.334 -29.001 23.001c-80.667 62.667 -121 129.667 -121 201
c0 46.667 13 87 39 121s63.667 60.333 113 79l698 258v-29v-171v-14z" />
    <glyph glyph-name="uni06AB.medi" unicode="&#x6ab;" horiz-adv-x="1027" 
d="M600 1061c0 -24.667 8.66699 -45.5 26 -62.5s38.333 -25.5 63 -25.5s45.5 8.5 62.5 25.5s25.5 37.833 25.5 62.5s-8.5 45.667 -25.5 63s-37.833 26 -62.5 26s-45.667 -8.66699 -63 -26s-26 -38.333 -26 -63zM502 1061c0 51.333 18.333 95.333 55 132s80.667 55 132 55
s95.333 -18.333 132 -55s55 -80.667 55 -132s-18.333 -95.333 -55 -132s-80.667 -55 -132 -55s-95.333 18.333 -132 55s-55 80.667 -55 132zM254 1001l88.001 -74.502l88 -75l67 -58.5c27.333 -24 50 -44.667 68 -62l50 -50c58 -62.667 102 -136.667 132 -222
c56 -159.333 146.333 -239 271 -239h29v-20v-180v-20h-29c-140.667 0 -256.667 55.333 -348 166c-44 -57.333 -106 -99.333 -186 -126s-186 -40 -318 -40h-186v20v180v20h185c132.667 0 226.834 14.333 282.501 43s83.5 72 83.5 130c0 28.667 -7.83301 56.334 -23.5 83.001
s-40.834 56 -75.501 88c-12 12 -24.667 23.833 -38 35.5l-35.5 31l-37 31.5l-33 27.5l-34.5 28l-31 25c-5.33301 4.33301 -16.333 12.833 -33 25.5s-26.334 20.334 -29.001 23.001c-80.667 62.667 -121 129.667 -121 201c0 46.667 13 87 39 121s63.667 60.333 113 79
l698 258v-29v-171v-14z" />
    <glyph glyph-name="uni06AB.fina" unicode="&#x6ab;" horiz-adv-x="1941" 
d="M1515 1061c0 -24.667 8.66699 -45.5 26 -62.5s38.333 -25.5 63 -25.5s45.5 8.5 62.5 25.5s25.5 37.833 25.5 62.5s-8.5 45.667 -25.5 63s-37.833 26 -62.5 26s-45.667 -8.66699 -63 -26s-26 -38.333 -26 -63zM1417 1061c0 51.333 18.333 95.333 55 132s80.667 55 132 55
s95.333 -18.333 132 -55s55 -80.667 55 -132s-18.333 -95.333 -55 -132s-80.667 -55 -132 -55s-95.333 18.333 -132 55s-55 80.667 -55 132zM1169 1001l108.497 -92.001l106.5 -91l74.5 -67.5c29 -27 52.833 -50.167 71.5 -69.5c56.667 -61.333 100.667 -135.333 132 -222
c56 -159.333 146.333 -239 271 -239h28v-20v-180v-20h-28c-140 0 -256 55.333 -348 166c-46 -56.667 -114.667 -98.5 -206 -125.5s-207.666 -40.5 -348.999 -40.5h-192c-244 0 -431.667 42.333 -563 127s-197 210.334 -197 377.001c0 88.667 18.667 176 56 262l7 17l18 -6
l153 -57l19 -7l-7 -19c-20.667 -54.667 -31 -109.667 -31 -165c0.666992 -102.667 44.834 -179.834 132.501 -231.501s221.834 -77.5 402.501 -77.5h202c277.333 0 416 57.667 416 173c0 28.667 -7.83301 56.334 -23.5 83.001s-40.834 56 -75.501 88
c-67.333 63.333 -157.666 139 -270.999 227c-80.667 62.667 -121 129.667 -121 201c0 46.667 13 87 39 121s63.667 60 113 78l698 258v-28v-171v-14z" />
    <glyph glyph-name="uni06B5.init" unicode="&#x6b5;" horiz-adv-x="608" 
d="M297 1498l-193 324l-5 8h9h124h3l1 -2l136 -233l137 233l1 2h3h124h9l-5 -8l-194 -324l-1 -2h-3h-142h-3zM-20 20l0.00195312 180v20h81c81.333 0 136.666 15.5 165.999 46.5s44 83.167 44 156.5v923v20h20h169h20v-20v-922c0 -141.333 -32.833 -247.333 -98.5 -318
s-172.834 -106 -321.501 -106h-80v20z" />
    <glyph glyph-name="uni06B5.medi" unicode="&#x6b5;" horiz-adv-x="675" 
d="M296 1498l-193 324l-5 8h9h124h3l1 -2l136 -233l137 233l1 2h3h124h9l-5 -8l-194 -324l-1 -2h-3h-142h-3zM368 130c-34.667 -44 -77.832 -76.6689 -129.499 -98.002s-116.834 -32 -195.501 -32h-63v20v180v20h65c83.333 0 141.833 15 175.5 45s50.5 78 50.5 144v937v20
h20h169h20v-20v-937c0 -67.333 13.167 -115.666 39.5 -144.999s72.5 -44 138.5 -44h32v-20v-180v-20h-30c-46 0 -87 5.16699 -123 15.5s-67.167 24.833 -93.5 43.5s-51.5 42.334 -75.5 71.001z" />
    <glyph glyph-name="uni06B5.fina" unicode="&#x6b5;" horiz-adv-x="1439" 
d="M523 1051l-193 324l-5 8h9h124h3l1 -2l136 -233l137 233l1 2h3h124h9l-5 -8l-194 -324l-1 -2h-3h-142h-3zM354 371c-22.667 -57.333 -39.166 -110.499 -49.499 -159.499s-15.5 -100.833 -15.5 -155.5c0 -122.667 31.667 -213.834 95 -273.501s160.333 -89.5 291 -89.5
c122.667 0 214 32.5 274 97.5s90 164.167 90 297.5l2 1256v2v20h20h168h20v-20l-1 -933c0 -70 12.667 -119.667 38 -149s72.666 -44 141.999 -44h31v-20v-180v-20h-29c-42.667 0 -78.167 4.5 -106.5 13.5s-53.833 22.833 -76.5 41.5
c-9.33301 -187.333 -61.833 -330 -157.5 -428s-234.167 -147 -415.5 -147c-197.333 0 -346 48.167 -446 144.5s-150 239.833 -150 430.5c0 128 28 259.333 84 394l7 18l19 -7l155 -63l18 -8z" />
    <glyph glyph-name="uni06BC.init" unicode="&#x6bc;" horiz-adv-x="592" 
d="M149 -83c0 -24.667 8.66699 -45.5 26 -62.5s38.333 -25.5 63 -25.5s45.5 8.5 62.5 25.5s25.5 37.833 25.5 62.5s-8.5 45.667 -25.5 63s-37.833 26 -62.5 26s-45.667 -8.66699 -63 -26s-26 -38.333 -26 -63zM51 -83c0 51.333 18.333 95.333 55 132s80.667 55 132 55
s95.333 -18.333 132 -55s55 -80.667 55 -132s-18.333 -95.333 -55 -132s-80.667 -55 -132 -55s-95.333 18.333 -132 55s-55 80.667 -55 132zM119 1087l145 145l7 7l7 -7l147 -146l7 -7l-7 -7l-147 -147l-6 -6l-7 7l-146 147l-7 7zM465 765
c32.667 -109.333 49.001 -218.334 49.001 -327.001c0 -139.333 -35.333 -247.166 -106 -323.499s-173.667 -114.5 -309 -114.5h-119v20v180v20h119c73.333 0 125.666 16.167 156.999 48.5s47 87.833 47 166.5c0 86 -12 179 -36 279l-5 20l19 4l160 40l19 5z" />
    <glyph glyph-name="uni06BC.medi" unicode="&#x6bc;" horiz-adv-x="687" 
d="M149 -83c0 -24.667 8.66699 -45.5 26 -62.5s38.333 -25.5 63 -25.5s45.5 8.5 62.5 25.5s25.5 37.833 25.5 62.5s-8.5 45.667 -25.5 63s-37.833 26 -62.5 26s-45.667 -8.66699 -63 -26s-26 -38.333 -26 -63zM51 -83c0 51.333 18.333 95.333 55 132s80.667 55 132 55
s95.333 -18.333 132 -55s55 -80.667 55 -132s-18.333 -95.333 -55 -132s-80.667 -55 -132 -55s-95.333 18.333 -132 55s-55 80.667 -55 132zM174 1002l145 145l7 7l7 -7l147 -146l7 -7l-7 -7l-147 -147l-6 -6l-7 7l-146 147l-7 7zM683 0
c-125.333 0 -216.333 42.667 -273 128c-74 -85.333 -177 -128 -309 -128h-121v20v180v20h121c74.667 0 127 15 157 45s45 80.667 45 152c0 18.667 -2.66699 82 -8 190l-1 19l19 2l164 20l21 2l1 -21l16 -246c4 -56 19.5 -97.167 46.5 -123.5s68.167 -39.5 123.5 -39.5h22
v-20v-180v-20h-24z" />
    <glyph glyph-name="uni06BC.fina" unicode="&#x6bc;" horiz-adv-x="1528" 
d="M646 -616c0 -24.667 8.66699 -45.5 26 -62.5s38.333 -25.5 63 -25.5s45.5 8.5 62.5 25.5s25.5 37.833 25.5 62.5s-8.5 45.667 -25.5 63s-37.833 26 -62.5 26s-45.667 -8.66699 -63 -26s-26 -38.333 -26 -63zM548 -616c0 51.333 18.333 95.333 55 132s80.667 55 132 55
s95.333 -18.333 132 -55s55 -80.667 55 -132s-18.333 -95.333 -55 -132s-80.667 -55 -132 -55s-95.333 18.333 -132 55s-55 80.667 -55 132zM555 656l145 145l7 7l7 -7l147 -146l7 -7l-7 -7l-147 -147l-6 -6l-7 7l-146 147l-7 7zM1157 120
c0 117.333 -29.335 237.332 -88.002 359.999l-10 20l21 8l169 58l20 7l6 -19l72 -226c12.667 -38.667 30.834 -66.334 54.501 -83.001s59.167 -25 106.5 -25h40v-20v-180v-20h-36c-33.333 0 -62.5 3.16699 -87.5 9.5s-46.167 15.833 -63.5 28.5
c-7.33301 -119.333 -38.5 -221.166 -93.5 -305.499s-128.833 -147.5 -221.5 -189.5s-201 -63 -325 -63c-212.667 0 -373 50 -481 150s-162 248.667 -162 446c0 142.667 30.667 288.334 92 437.001l7 18l19 -7l155 -64l18 -7l-7 -18c-48 -126 -72 -244 -72 -354
c0 -130.667 36 -228 108 -292s182 -96 330 -96c144 0 251.333 35.167 322 105.5s106.334 177.5 107.001 321.5z" />
    <glyph glyph-name="uni06C2.init" unicode="&#x6c2;" horiz-adv-x="592" 
d="M173 1004c-22.667 20.667 -39.0029 43.6689 -49.0029 69.002s-15 56 -15 92c0 63.333 20.333 114.666 61 153.999s89 59 145 59c10 0 19.833 -0.666992 29.5 -2s19.167 -3 28.5 -5s18.5 -4.83301 27.5 -8.5s18 -7.66699 27 -12s17.833 -9.16602 26.5 -14.499l2 -1v-3
l1 -119v-9l-8 5c-40 24 -80 36 -120 36c-26.667 0 -49.167 -7.66699 -67.5 -23s-27.5 -38.666 -27.5 -69.999c0 -10.667 1.66699 -20.334 5 -29.001s8.33301 -16.834 15 -24.501s15.334 -15 26.001 -22s23.667 -13.167 39 -18.5
c2.66699 -0.666992 4.83398 -1.33398 6.50098 -2.00098s3.5 -1.16699 5.5 -1.5s4 -0.5 6 -0.5h3c0.666992 0 2 0.333008 4 1l71 14.5c30.667 6.33301 51.334 10.5 62.001 12.5l6 1v-6v-116v-4l-4 -1l-397 -96l-6 -1v6v113v4l4 1zM395.502 -126.855
c-23.999 -22.0791 -43.3184 -41.998 -57.958 -59.7568c-14.6396 -17.7598 -26.7588 -37.4395 -36.3584 -59.0381s-15.1191 -44.8779 -16.5596 -69.8369c64.3174 -4.31934 96.4766 -41.0381 96.4766 -110.155c0 -35.0391 -9.83984 -63.2383 -29.5186 -84.5967
c-19.6787 -21.3594 -47.0381 -32.0391 -82.0771 -32.0391c-42.7178 0 -74.7568 12.5996 -96.1162 37.7988c-21.3584 25.1982 -32.0381 59.1572 -32.0381 101.876c0 132.475 60.957 245.99 182.872 340.546l8.63965 6.47949l8.63965 -6.47949l53.2783 -42.4785
l13.6797 -10.7998zM464.997 765.002c32.667 -109.333 49.001 -218.334 49.001 -327.001c0 -139.333 -35.333 -247.166 -106 -323.499s-173.667 -114.5 -309 -114.5h-119v20v180v20h119c73.333 0 125.666 16.167 156.999 48.5s47 87.833 47 166.5c0 86 -12 179 -36 279l-5 20
l19 4l160 40l19 5z" />
    <glyph glyph-name="uni06C2.medi" unicode="&#x6c2;" horiz-adv-x="1002" 
d="M391 684c-22.667 20.667 -39.0029 43.6689 -49.0029 69.002s-15 56 -15 92c0 63.333 20.333 114.666 61 153.999s89 59 145 59c10 0 19.833 -0.666992 29.5 -2s19.167 -3 28.5 -5s18.5 -4.83301 27.5 -8.5s18 -7.66699 27 -12s17.833 -9.16602 26.5 -14.499l2 -1v-3
l1 -119v-9l-8 5c-40 24 -80 36 -120 36c-26.667 0 -49.167 -7.66699 -67.5 -23s-27.5 -38.666 -27.5 -69.999c0 -10.667 1.66699 -20.334 5 -29.001s8.33301 -16.834 15 -24.501s15.334 -15 26.001 -22s23.667 -13.167 39 -18.5
c2.66699 -0.666992 4.83398 -1.33398 6.50098 -2.00098s3.5 -1.16699 5.5 -1.5s4 -0.5 6 -0.5h3c0.666992 0 2 0.333008 4 1l71 14.5c30.667 6.33301 51.334 10.5 62.001 12.5l6 1v-6v-116v-4l-4 -1l-397 -96l-6 -1v6v113v4l4 1zM201.997 39.002
c-29.333 -14 -55.8311 -23.999 -79.498 -29.999s-50.167 -9 -79.5 -9h-63v20v180v20h65c29.333 0 55.666 2 78.999 6s43 8.66699 59 14s33.667 14.833 53 28.5s34.833 25.667 46.5 36l54.5 50.5c2.66699 2.66699 4.83398 4.66699 6.50098 6s3.66699 3.16602 6 5.49902
l6.5 6.5l6 6l15 14l14 -16l110 -122l13 -15l-15 -13l-25 -22c-12.667 -11.333 -23.667 -23.333 -33 -36c-34 -46.667 -48 -97.167 -42 -151.5s24.167 -106.5 54.5 -156.5s67.833 -91.667 112.5 -125c5.33301 152.667 43.666 271.5 114.999 356.5
s173.666 127.5 306.999 127.5h34v-20v-180v-20h-36c-78.667 0 -137.167 -25 -175.5 -75s-57.5 -128.333 -57.5 -235c0 -33.333 1.33301 -63.333 4 -90l1 -10l-7 -6l-121 -118l-10 -10l-13 6c-117.333 56 -211.833 132.667 -283.5 230s-112.167 213 -121.5 347z" />
    <glyph glyph-name="uni06C2.fina" unicode="&#x6c2;" horiz-adv-x="919" 
d="M319 888c-22.667 20.667 -39.0029 43.6689 -49.0029 69.002s-15 56 -15 92c0 63.333 20.333 114.666 61 153.999s89 59 145 59c10 0 19.833 -0.666992 29.5 -2s19.167 -3 28.5 -5s18.5 -4.83301 27.5 -8.5s18 -7.66699 27 -12s17.833 -9.16602 26.5 -14.499l2 -1v-3
l1 -119v-9l-8 5c-40 24 -80 36 -120 36c-26.667 0 -49.167 -7.66699 -67.5 -23s-27.5 -38.666 -27.5 -69.999c0 -10.667 1.66699 -20.334 5 -29.001s8.33301 -16.834 15 -24.501s15.334 -15 26.001 -22s23.667 -13.167 39 -18.5
c2.66699 -0.666992 4.83398 -1.33398 6.50098 -2.00098s3.5 -1.16699 5.5 -1.5s4 -0.5 6 -0.5h3c0.666992 0 2 0.333008 4 1l71 14.5c30.667 6.33301 51.334 10.5 62.001 12.5l6 1v-6v-116v-4l-4 -1l-397 -96l-6 -1v6v113v4l4 1zM238.997 -18.998l-146 35.998l-17 4l2 17
c8 81.333 25.167 159.666 51.5 234.999s57.833 140 94.5 194s77.5 97.167 122.5 129.5s89.167 48.5 132.5 48.5c38 0 71.667 -7.83301 101 -23.5s53.166 -36 71.499 -61s34.833 -52.5 49.5 -82.5s28.334 -60.167 41.001 -90.5s26 -58 40 -83s31.5 -45.333 52.5 -61
s44.833 -23.5 71.5 -23.5h33v-20v-180v-20h-32c-46.667 0 -89.5 7.33301 -128.5 22s-71.167 33.834 -96.5 57.501s-47.833 49.834 -67.5 78.501s-35.667 57.334 -48 86.001l-33 78.5c-9.66699 23.667 -18.667 42.834 -27 57.501s-16.5 22 -24.5 22
c-15.333 0 -33.5 -9.33301 -54.5 -28s-42.333 -44.334 -64 -77.001s-41.667 -75.5 -60 -128.5s-31.5 -110.167 -39.5 -171.5l-3 -22z" />
    <glyph glyph-name="uni06C3.fina" unicode="&#x6c3;" horiz-adv-x="919" 
d="M453 972l140 140l7 7l7 -7l141 -140l7 -7l-7 -7l-141 -142l-7 -7l-7 7l-140 142l-7 7zM121 972l140 140l7 7l7 -7l141 -140l7 -7l-7 -7l-141 -142l-7 -7l-7 7l-140 142l-7 7zM239 -19l-146 35.998l-17 4l2 17c8 81.333 25.167 159.666 51.5 234.999s57.833 140 94.5 194
s77.5 97.167 122.5 129.5s89.167 48.5 132.5 48.5c38 0 71.667 -7.83301 101 -23.5s53.166 -36 71.499 -61s34.833 -52.5 49.5 -82.5s28.334 -60.167 41.001 -90.5s26 -58 40 -83s31.5 -45.333 52.5 -61s44.833 -23.5 71.5 -23.5h33v-20v-180v-20h-32
c-46.667 0 -89.5 7.33301 -128.5 22s-71.167 33.834 -96.5 57.501s-47.833 49.834 -67.5 78.501s-35.667 57.334 -48 86.001l-33 78.5c-9.66699 23.667 -18.667 42.834 -27 57.501s-16.5 22 -24.5 22c-15.333 0 -33.5 -9.33301 -54.5 -28s-42.333 -44.334 -64 -77.001
s-41.667 -75.5 -60 -128.5s-31.5 -110.167 -39.5 -171.5l-3 -22z" />
    <glyph glyph-name="uni06CA.fina" unicode="&#x6ca;" horiz-adv-x="938" 
d="M416 1058l140 140l7 7l7 -7l141 -140l7 -7l-7 -7l-141 -142l-7 -7l-7 7l-140 142l-7 7zM84 1058l140 140l7 7l7 -7l141 -140l7 -7l-7 -7l-141 -142l-7 -7l-7 7l-140 142l-7 7zM874.878 0v220h83.4893v-220h-83.4893zM432 760c216 0 337.999 -179.999 365.999 -539.999h98
v-21v-179v-20h-113c-28.667 -138.667 -94.5 -253 -197.5 -343s-240.833 -151.667 -413.5 -185l-17 -3l-6 16l-60 154l-8 22l23 5c131.333 24.667 237 65.667 317 123s134.333 127.666 163 210.999h-122c-125.333 0 -220.666 26.5 -285.999 79.5s-98 131.833 -98 236.5
c0 78 14.667 150.667 44 218s71.333 121.833 126 163.5s116 62.5 184 62.5zM594.999 220.001c-17.333 210 -76.333 315 -177 315c-36 0 -67.5 -20.167 -94.5 -60.5s-40.5 -88.166 -40.5 -143.499c0 -36.667 13.333 -64.334 40 -83.001s69.667 -28 129 -28h143z" />
    <glyph glyph-name="uni06CD.fina" unicode="&#x6cd;" horiz-adv-x="1798" 
d="M38 157l36.001 168.999l3 11l10 4l316 126l7 3l8 -3l154 -63l17 -8l-6 -18c-35.333 -97.333 -53 -196.666 -53 -297.999c0 -130 35.167 -227 105.5 -291s178.166 -96 323.499 -96c78 0 153 10.5 225 31.5s130 48.5 174 82.5s66 69.333 66 106c0 24 -12 44.5 -36 61.5
s-60 25.5 -108 25.5h-123c-24 -0 -42.833 7.33301 -56.5 22s-22.834 33 -27.501 55l-22 93c-3.33301 14.667 -1.33301 26.334 6 35.001c7.33301 10 19.333 15 36 15h604h20v-20v-180v-20h-20h-88c7.33301 -18.667 12 -35 14 -49s3 -29 3 -45
c0 -82.667 -28.167 -156.334 -84.5 -221.001s-135.166 -114.834 -236.499 -150.501s-216.333 -53.5 -345 -53.5c-212 0 -371.833 50.333 -479.5 151s-161.5 250.334 -161.5 449.001c0 48 6.33301 102 19 162l-273 -109l-34 -14zM1673.11 -0.000976562v220h144.993v-220
h-144.993z" />
    <glyph glyph-name="uni06CE.init" unicode="&#x6ce;" horiz-adv-x="672" 
d="M301 949l-193 324l-5 8h9h124h3l1 -2l136 -233l137 233l1 2h3h124h9l-5 -8l-194 -324l-1 -2h-3h-142h-3zM260 -296l140 140l7 7l7 -7l141 -140l7 -7l-7 -7l-141 -142l-7 -7l-7 7l-140 142l-7 7zM-72 -296l140 140l7 7l7 -7l141 -140l7 -7l-7 -7l-141 -142l-7 -7l-7 7
l-140 142l-7 7zM545 765c32.667 -109.333 49 -218.336 49 -327.003c0 -151.333 -38 -262.166 -114 -332.499s-193 -105.5 -351 -105.5h-149v20v180v20h149c50.667 0 91 2.5 121 7.5s55.667 15.333 77 31s36 37.334 44 65.001s12 64.834 12 111.501c0 86 -12 179 -36 279
l-5 20l19 4l160 40l19 5z" />
    <glyph glyph-name="uni06CE.medi" unicode="&#x6ce;" horiz-adv-x="767" 
d="M350 839l-193 324l-5 8h9h124h3l1 -2l136 -233l137 233l1 2h3h124h9l-5 -8l-194 -324l-1 -2h-3h-142h-3zM260 -296l140 140l7 7l7 -7l141 -140l7 -7l-7 -7l-141 -142l-7 -7l-7 7l-140 142l-7 7zM-72 -296l140 140l7 7l7 -7l141 -140l7 -7l-7 -7l-141 -142l-7 -7l-7 7
l-140 142l-7 7zM763 0c-125.333 0 -216 42.667 -272 128c-76 -85.333 -196.667 -128 -362 -128h-149v20v180v20h151c97.333 0 163.5 12.833 198.5 38.5s52.833 75.167 53.5 148.5c0 54 -2.66699 121 -8 201l-1 19l19 2l164 19l21 2l1 -21l16 -247c4 -56 19.5 -97 46.5 -123
s68.167 -39 123.5 -39h22v-20v-180v-20h-24z" />
    <glyph glyph-name="uni06CE.fina" unicode="&#x6ce;" horiz-adv-x="1559" 
d="M549 532l-193 324l-5 8h9h124h3l1 -2l136 -233l137 233l1 2h3h124h9l-5 -8l-194 -324l-1 -2h-3h-142h-3zM1434.1 0v220h144.993v-220h-144.993zM1368 0c12 -31.333 17.999 -62.665 17.999 -93.998c0 -82.667 -28.167 -156.334 -84.5 -221.001
s-135.166 -114.834 -236.499 -150.501s-216.333 -53.5 -345 -53.5c-212 0 -371.833 50.333 -479.5 151s-161.5 250.334 -161.5 449.001c0 59.333 6.33301 123.666 19 192.999s30.667 130 54 182l8 18l18 -7l154 -63l17 -8l-6 -18c-35.333 -97.333 -53 -196.666 -53 -297.999
c0 -130 35.167 -227 105.5 -291s178.166 -96 323.499 -96c78 0 153 10.5 225 31.5s130 48.5 174 82.5s66 69.333 66 106c0 24 -12.167 44.5 -36.5 61.5s-60.166 25.5 -107.499 25.5h-133c-23.333 0 -39.833 5.16699 -49.5 15.5s-17.167 27.166 -22.5 50.499l-27 117
c-6 24.667 5.66699 37 35 37h614v-20v-180v-20h-89z" />
    <glyph glyph-name="uni06D0.init" unicode="&#x6d0;" horiz-adv-x="592" arabic-form="initial" 
d="M204 -400l-154 154l154 156l157 -156zM204 -712l-154 154l154 156l157 -156zM465 765c32.667 -109.333 49.001 -218.334 49.001 -327.001c0 -139.333 -35.333 -247.166 -106 -323.499s-173.667 -114.5 -309 -114.5h-119v20v180v20h119
c73.333 0 125.666 16.167 156.999 48.5s47 87.833 47 166.5c0 86 -12 179 -36 279l-5 20l19 4l160 40l19 5z" />
    <glyph glyph-name="uni06D0.medi" unicode="&#x6d0;" horiz-adv-x="687" arabic-form="medial" 
d="M204 -400l-154 154l154 156l157 -156zM204 -712l-154 154l154 156l157 -156zM683 0c-125.333 0 -216.333 42.667 -273 128c-74 -85.333 -177 -128 -309 -128h-121v20v180v20h121c74.667 0 127 15 157 45s45 80.667 45 152c0 18.667 -2.66699 82 -8 190l-1 19l19 2l164 20
l21 2l1 -21l16 -246c4 -56 19.5 -97.167 46.5 -123.5s68.167 -39.5 123.5 -39.5h22v-20v-180v-20h-24z" />
    <glyph glyph-name="uni06D0.fina" unicode="&#x6d0;" horiz-adv-x="1559" arabic-form="final" 
d="M728 -828l-154 154l154 156l157 -156zM728 -1140l-154 154l154 156l157 -156zM1368 0c12 -31.333 17.999 -62.665 17.999 -93.998c0 -82.667 -28.167 -156.334 -84.5 -221.001s-135.166 -114.834 -236.499 -150.501s-216.333 -53.5 -345 -53.5
c-212 0 -371.833 50.333 -479.5 151s-161.5 250.334 -161.5 449.001c0 59.333 6.33301 123.666 19 192.999s30.667 130 54 182l8 18l18 -7l154 -63l17 -8l-6 -18c-35.333 -97.333 -53 -196.666 -53 -297.999c0 -130 35.167 -227 105.5 -291s178.166 -96 323.499 -96
c78 0 153 10.5 225 31.5s130 48.5 174 82.5s66 69.333 66 106c0 24 -12.167 44.5 -36.5 61.5s-60.166 25.5 -107.499 25.5h-133c-23.333 0 -39.833 5.16699 -49.5 15.5s-17.167 27.166 -22.5 50.499l-27 117c-6 24.667 5.66699 37 35 37h614v-20v-180v-20h-89z
M1434.1 0.000976562v220h144.993v-220h-144.993z" />
    <glyph glyph-name="uni06D5.fina" unicode="&#x6d5;" horiz-adv-x="1038" 
d="M78 432c0 203.333 168.333 358.666 505 465.999l-5 28l-3 19l19 4l159 33l21 4l3 -21l82 -589c14 -104 70 -156 168 -156h31v-20v-180v-20h-35c-89.333 0 -161.833 19 -217.5 57s-94.167 93 -115.5 165c-78.667 -60 -165 -90 -259 -90
c-101.333 0 -185.5 25.333 -252.5 76s-100.5 125.334 -100.5 224.001zM615 696c-110.667 -42.667 -192.167 -84.668 -244.5 -126.001s-78.5 -83.333 -78.5 -126c0 -69.333 44.333 -104 133 -104c56 0 106 15.333 150 46s66 69.334 66 116.001
c0 19.333 -1.33301 37.333 -4 54z" />
    <glyph glyph-name="uniFB50" unicode="&#x671;" horiz-adv-x="465" arabic-form="isolated" 
d="M202 1373c36 0 65.835 0.831055 89.502 2.49805s44.834 4.33398 63.501 8.00098s33.167 8.83398 43.5 15.501s18 15.167 23 25.5s7.5 22.833 7.5 37.5c0 12.667 -2.33301 24.5 -7 35.5s-10.834 20.5 -18.501 28.5s-17.334 14.333 -29.001 19s-24.167 7 -37.5 7
c-24 0 -46.5 -6.16699 -67.5 -18.5s-41.833 -30.833 -62.5 -55.5s-45.334 -59.667 -74.001 -105h69zM-44.998 1355l17.001 81.9971c3.33301 -3.33301 7.66602 -7.16602 12.999 -11.499s14.333 -11.166 27 -20.499s23.667 -15.666 33 -18.999
c54.667 92 103.334 157 146.001 195s90 57 142 57c52.667 0 95.667 -16.167 129 -48.5s50 -73.5 50 -123.5c0 -65.333 -23 -111.333 -69 -138s-125.667 -40 -239 -40h-24c-40 0 -74.833 2.33301 -104.5 7s-54.834 12 -75.501 22s-35.667 22.667 -45 38zM148.003 1168.81h169
h20v-17.084v-1131.8v-17.083h-20h-169h-20v17.083v1131.8v17.084h20z" />
    <glyph glyph-name="uniFB51" unicode="&#x671;" horiz-adv-x="527" arabic-form="final" 
d="M202 1373c36 0 65.835 0.831055 89.502 2.49805s44.834 4.33398 63.501 8.00098s33.167 8.83398 43.5 15.501s18 15.167 23 25.5s7.5 22.833 7.5 37.5c0 12.667 -2.33301 24.5 -7 35.5s-10.834 20.5 -18.501 28.5s-17.334 14.333 -29.001 19s-24.167 7 -37.5 7
c-24 0 -46.5 -6.16699 -67.5 -18.5s-41.833 -30.833 -62.5 -55.5s-45.334 -59.667 -74.001 -105h69zM-44.998 1355l17.001 81.9971c3.33301 -3.33301 7.66602 -7.16602 12.999 -11.499s14.333 -11.166 27 -20.499s23.667 -15.666 33 -18.999
c54.667 92 103.334 157 146.001 195s90 57 142 57c52.667 0 95.667 -16.167 129 -48.5s50 -73.5 50 -123.5c0 -65.333 -23 -111.333 -69 -138s-125.667 -40 -239 -40h-24c-40 0 -74.833 2.33301 -104.5 7s-54.834 12 -75.501 22s-35.667 22.667 -45 38zM522.003 -0.00488281
c-130 0 -228.167 34.168 -294.5 102.501s-99.5 175.5 -99.5 321.5v723v20h20h169h20v-20v-723c0 -76.667 14.667 -129.834 44 -159.501s76.333 -44.5 141 -44.5h25v-20v-180v-20h-25z" />
    <glyph glyph-name="uniFB56" unicode="&#x67e;" horiz-adv-x="1777" arabic-form="isolated" 
d="M767 -523l132 133l7 7l7 -7l133 -133l7 -7l-7 -7l-133 -132l-7 -7l-7 7l-132 132l-7 7zM939 -261l132 133l7 7l7 -7l133 -133l7 -7l-7 -7l-133 -132l-7 -7l-7 7l-132 132l-7 7zM599 -261l132 133l7 7l7 -7l133 -133l7 -7l-7 -7l-133 -132l-7 -7l-7 7l-132 132l-7 7z
M975 0l-134.998 0.00292969c-244.667 0 -432.834 42.333 -564.501 127s-197.5 210.334 -197.5 377.001c0 88 18.667 175.333 56 262l7 17l18 -6l153 -57l19 -7l-7 -19c-20.667 -56 -31 -111 -31 -165c0.666992 -102.667 45 -179.834 133 -231.501s222.667 -77.5 404 -77.5
h138c51.333 0 90.833 0.333008 118.5 1s63 2.5 106 5.5s76 7.5 99 13.5s48.833 15 77.5 27s50.167 26.667 64.5 44s26.666 39.166 36.999 65.499s15.5 56.833 15.5 91.5c0 55.333 -12 135.666 -36 240.999l-4 19l19 4l160 40l18 5l6 -18c33.333 -100 50 -192 50 -276
c0 -59.333 -6.33301 -112.5 -19 -159.5s-30 -87.333 -52 -121s-50.5 -62.667 -85.5 -87s-71.667 -43.833 -110 -58.5s-83.5 -26.334 -135.5 -35.001s-102.833 -14.5 -152.5 -17.5s-106.167 -4.5 -169.5 -4.5z" />
    <glyph glyph-name="uniFB57" unicode="&#x67e;" horiz-adv-x="1878" arabic-form="final" 
d="M767 -523l132 133l7 7l7 -7l133 -133l7 -7l-7 -7l-133 -132l-7 -7l-7 7l-132 132l-7 7zM939 -261l132 133l7 7l7 -7l133 -133l7 -7l-7 -7l-133 -132l-7 -7l-7 7l-132 132l-7 7zM599 -261l132 133l7 7l7 -7l133 -133l7 -7l-7 -7l-133 -132l-7 -7l-7 7l-132 132l-7 7z
M985 0l-144.998 -0.000976562c-244.667 0 -432.834 42.333 -564.501 127s-197.5 210.334 -197.5 377.001c0 88.667 18.667 176 56 262l7 17l18 -6l153 -57l19 -7l-7 -19c-20.667 -54.667 -31 -109.667 -31 -165c0.666992 -206 179.667 -309 537 -309h150
c256 0 417.667 40.667 485 122c20 24 30 60.667 30 110c0 10 -0.166992 20.167 -0.5 30.5s-0.833008 21.333 -1.5 33s-1.16699 21.334 -1.5 29.001s-1 18.667 -2 33s-1.5 24.166 -1.5 29.499l-1 19l19 2l161 20l21 2l1 -21l16 -248c4 -56 19 -96.833 45 -122.5
s67 -38.5 123 -38.5h25v-20v-180v-20h-25c-136.667 0 -237.334 55 -302.001 165c-120 -110 -315.333 -165 -586 -165z" />
    <glyph glyph-name="uniFB58" unicode="&#x67e;" horiz-adv-x="672" arabic-form="initial" 
d="M97 -523l132 133l7 7l7 -7l133 -133l7 -7l-7 -7l-133 -132l-7 -7l-7 7l-132 132l-7 7zM269 -261l132 133l7 7l7 -7l133 -133l7 -7l-7 -7l-133 -132l-7 -7l-7 7l-132 132l-7 7zM-71 -261l132 133l7 7l7 -7l133 -133l7 -7l-7 -7l-133 -132l-7 -7l-7 7l-132 132l-7 7z
M545 765c32.667 -109.333 49 -218.336 49 -327.003c0 -151.333 -38 -262.166 -114 -332.499s-193 -105.5 -351 -105.5h-149v20v180v20h149c50.667 0 91 2.5 121 7.5s55.667 15.333 77 31s36 37.334 44 65.001s12 64.834 12 111.501c0 86 -12 179 -36 279l-5 20l19 4l160 40
l19 5z" />
    <glyph glyph-name="uniFB59" unicode="&#x67e;" horiz-adv-x="767" arabic-form="medial" 
d="M97 -523l132 133l7 7l7 -7l133 -133l7 -7l-7 -7l-133 -132l-7 -7l-7 7l-132 132l-7 7zM269 -261l132 133l7 7l7 -7l133 -133l7 -7l-7 -7l-133 -132l-7 -7l-7 7l-132 132l-7 7zM-71 -261l132 133l7 7l7 -7l133 -133l7 -7l-7 -7l-133 -132l-7 -7l-7 7l-132 132l-7 7zM763 0
c-125.333 0 -216 42.667 -272 128c-76 -85.333 -196.667 -128 -362 -128h-149v20v180v20h151c97.333 0 163.5 12.833 198.5 38.5s52.833 75.167 53.5 148.5c0 54 -2.66699 121 -8 201l-1 19l19 2l164 19l21 2l1 -21l16 -247c4 -56 19.5 -97 46.5 -123s68.167 -39 123.5 -39
h22v-20v-180v-20h-24z" />
    <glyph glyph-name="uniFB66" unicode="&#x679;" horiz-adv-x="1777" arabic-form="isolated" 
d="M862 836c78.667 0 136 7.5 172 22.5s54 35.833 54 62.5c0 20 -6.16699 36.167 -18.5 48.5s-28.833 18.5 -49.5 18.5c-26.667 0 -56.167 -13 -88.5 -39s-65.833 -64 -100.5 -114zM703 835l24 38v422v9v5v5h5h5h9h76h9h5h5v-5v-5v-9v-270c27.333 27.333 55.333 48 84 62
s58.667 21 90 21c56 0 101.833 -17.333 137.5 -52s53.5 -78.667 53.5 -132c0 -70 -29.5 -122.167 -88.5 -156.5s-143.833 -51.5 -254.5 -51.5h-249h-9h-5h-5v5v5v9v81v9v5v5h5h5h9h89zM975 0l-134.998 0.00292969c-244.667 0 -432.834 42.333 -564.501 127
s-197.5 210.334 -197.5 377.001c0 88 18.667 175.333 56 262l7 17l18 -6l153 -57l19 -7l-7 -19c-20.667 -56 -31 -111 -31 -165c0.666992 -102.667 45 -179.834 133 -231.501s222.667 -77.5 404 -77.5h138c51.333 0 90.833 0.333008 118.5 1s63 2.5 106 5.5s76 7.5 99 13.5
s48.833 15 77.5 27s50.167 26.667 64.5 44s26.666 39.166 36.999 65.499s15.5 56.833 15.5 91.5c0 55.333 -12 135.666 -36 240.999l-4 19l19 4l160 40l18 5l6 -18c33.333 -100 50 -192 50 -276c0 -59.333 -6.33301 -112.5 -19 -159.5s-30 -87.333 -52 -121
s-50.5 -62.667 -85.5 -87s-71.667 -43.833 -110 -58.5s-83.5 -26.334 -135.5 -35.001s-102.833 -14.5 -152.5 -17.5s-106.167 -4.5 -169.5 -4.5z" />
    <glyph glyph-name="uniFB67" unicode="&#x679;" horiz-adv-x="1878" arabic-form="final" 
d="M872 836c78.667 0 136 7.5 172 22.5s54 35.833 54 62.5c0 20 -6.16699 36.167 -18.5 48.5s-28.833 18.5 -49.5 18.5c-26.667 0 -56.167 -13 -88.5 -39s-65.833 -64 -100.5 -114zM713 835l24 38v422v9v5v5h5h5h9h76h9h5h5v-5v-5v-9v-270c27.333 27.333 55.333 48 84 62
s58.667 21 90 21c56 0 101.833 -17.333 137.5 -52s53.5 -78.667 53.5 -132c0 -70 -29.5 -122.167 -88.5 -156.5s-143.833 -51.5 -254.5 -51.5h-249h-9h-5h-5v5v5v9v81v9v5v5h5h5h9h89zM985 0l-144.998 -0.000976562c-244.667 0 -432.834 42.333 -564.501 127
s-197.5 210.334 -197.5 377.001c0 88.667 18.667 176 56 262l7 17l18 -6l153 -57l19 -7l-7 -19c-20.667 -54.667 -31 -109.667 -31 -165c0.666992 -206 179.667 -309 537 -309h150c256 0 417.667 40.667 485 122c20 24 30 60.667 30 110c0 10 -0.166992 20.167 -0.5 30.5
s-0.833008 21.333 -1.5 33s-1.16699 21.334 -1.5 29.001s-1 18.667 -2 33s-1.5 24.166 -1.5 29.499l-1 19l19 2l161 20l21 2l1 -21l16 -248c4 -56 19 -96.833 45 -122.5s67 -38.5 123 -38.5h25v-20v-180v-20h-25c-136.667 0 -237.334 55 -302.001 165
c-120 -110 -315.333 -165 -586 -165z" />
    <glyph glyph-name="uniFB68" unicode="&#x679;" horiz-adv-x="678" arabic-form="initial" 
d="M252 1026c78.667 0 136 7.5 172 22.5s54 35.833 54 62.5c0 20 -6.16699 36.167 -18.5 48.5s-28.833 18.5 -49.5 18.5c-26.667 0 -56.167 -13 -88.5 -39s-65.833 -64 -100.5 -114zM93 1025l24 38v422v9v5v5h5h5h9h76h9h5h5v-5v-5v-9v-270c27.333 27.333 55.333 48 84 62
s58.667 21 90 21c56 0 101.833 -17.333 137.5 -52s53.5 -78.667 53.5 -132c0 -70 -29.5 -122.167 -88.5 -156.5s-143.833 -51.5 -254.5 -51.5h-249h-9h-5h-5v5v5v9v81v9v5v5h5h5h9h89zM545 765c32.667 -109.333 49 -218.336 49 -327.003
c0 -151.333 -38 -262.166 -114 -332.499s-193 -105.5 -351 -105.5h-149v20v180v20h149c50.667 0 91 2.5 121 7.5s55.667 15.333 77 31s36 37.334 44 65.001s12 64.834 12 111.501c0 86 -12 179 -36 279l-5 20l19 4l160 40l19 5z" />
    <glyph glyph-name="uniFB69" unicode="&#x679;" horiz-adv-x="767" arabic-form="medial" 
d="M282 936c78.667 0 136 7.5 172 22.5s54 35.833 54 62.5c0 20 -6.16699 36.167 -18.5 48.5s-28.833 18.5 -49.5 18.5c-26.667 0 -56.167 -13 -88.5 -39s-65.833 -64 -100.5 -114zM123 935l24 38v422v9v5v5h5h5h9h76h9h5h5v-5v-5v-9v-270c27.333 27.333 55.333 48 84 62
s58.667 21 90 21c56 0 101.833 -17.333 137.5 -52s53.5 -78.667 53.5 -132c0 -70 -29.5 -122.167 -88.5 -156.5s-143.833 -51.5 -254.5 -51.5h-249h-9h-5h-5v5v5v9v81v9v5v5h5h5h9h89zM763 0c-125.333 0 -216 42.667 -272 128c-76 -85.333 -196.667 -128 -362 -128h-149v20
v180v20h151c97.333 0 163.5 12.833 198.5 38.5s52.833 75.167 53.5 148.5c0 54 -2.66699 121 -8 201l-1 19l19 2l164 19l21 2l1 -21l16 -247c4 -56 19.5 -97 46.5 -123s68.167 -39 123.5 -39h22v-20v-180v-20h-24z" />
    <glyph glyph-name="uniFB6B" unicode="&#x6a4;" horiz-adv-x="1962" arabic-form="final" 
d="M1341 1436l132 132l7 7l7 -7l133 -132l7 -7l-7 -7l-133 -133l-7 -7l-7 7l-132 133l-7 7zM1513 1174l132 132l7 7l7 -7l133 -132l7 -7l-7 -7l-133 -133l-7 -7l-7 7l-132 133l-7 7zM1173 1174l132 132l7 7l7 -7l133 -132l7 -7l-7 -7l-133 -133l-7 -7l-7 7l-132 133l-7 7z
M1501 681c-24 0 -55.332 -21.668 -93.999 -65.001s-58 -78.666 -58 -105.999s20.833 -67.5 62.5 -120.5s73.167 -79.5 94.5 -79.5c23.333 0 55.666 27.167 96.999 81.5s62 96.5 62 126.5c0 24.667 -19.167 58 -57.5 100s-73.833 63 -106.5 63zM960.001 219.999
l103.501 0.000976562c29.667 0 56.167 0.333008 79.5 1s43.5 1.16699 60.5 1.5s31.5 0.833008 43.5 1.5s22.333 1.66699 31 3c-46.667 49.333 -81.167 96.5 -103.5 141.5s-33.5 94.167 -33.5 147.5c0 50 16.167 104.333 48.5 163s77.166 109.5 134.499 152.5
s117 64.5 179 64.5c64.667 0 126.334 -19.833 185.001 -59.5s104.334 -87.5 137.001 -143.5s49 -110 49 -162c0 -30 -3 -58.333 -9 -85s-15.5 -52.334 -28.5 -77.001s-27.667 -48 -44 -70s-36.5 -46.333 -60.5 -73c26.667 -4 78.667 -6 156 -6h94v-20v-180v-20h-92
c-56.667 0 -108.334 4 -155.001 12s-88.667 19.667 -126 35s-73 34.666 -107 57.999c-111.333 -70 -290.333 -105 -537 -105h-125c-244.667 0 -432.834 42.333 -564.501 127s-197.5 210.334 -197.5 377.001c0 90 18.667 177.333 56 262l7 18l18 -7l153 -57l19 -7l-7 -19
c-20.667 -55.333 -31 -110.333 -31 -165c0.666992 -206 179.667 -309 537 -309h130z" />
    <glyph glyph-name="uniFB6C" unicode="&#x6a4;" horiz-adv-x="918" arabic-form="initial" 
d="M645 384c-56.667 -14.667 -116.329 -21.999 -178.996 -21.999c-112 0 -197.5 24.333 -256.5 73s-89.167 120.667 -90.5 216c0 45.333 4.83301 89.333 14.5 132s24.334 82 44.001 118s43.167 67.5 70.5 94.5s59.666 48.167 96.999 63.5s77.666 23 120.999 23
c65.333 0 122.666 -17 171.999 -51s88.333 -80.167 117 -138.5s50 -122 64 -191s21 -142.167 21 -219.5c0 -66 -4.83301 -123.5 -14.5 -172.5s-25 -91.5 -46 -127.5s-46.333 -65.667 -76 -89s-66.834 -41.833 -111.501 -55.5s-92.834 -23.334 -144.501 -29.001
s-112.5 -8.5 -182.5 -8.5h-285v20v180v20h296c124.667 0 215.5 11.667 272.5 35s89.167 66.333 96.5 129zM629.005 594.001c-4.66699 36 -11.333 69.332 -20 99.999s-19.667 59.334 -33 86.001s-30 47.667 -50 63s-42.333 23 -67 23c-36 0 -68.167 -18 -96.5 -54
s-42.5 -80.667 -42.5 -134c0 -36 12.5 -62.667 37.5 -80s65.5 -26 121.5 -26c47.333 0 97.333 7.33301 150 22zM281.006 1616l132 132l7 7l7 -7l133 -132l7 -7l-7 -7l-133 -133l-7 -7l-7 7l-132 133l-7 7zM453.006 1354l132 132l7 7l7 -7l133 -132l7 -7l-7 -7l-133 -133
l-7 -7l-7 7l-132 133l-7 7zM113.006 1354l132 132l7 7l7 -7l133 -132l7 -7l-7 -7l-133 -133l-7 -7l-7 7l-132 133l-7 7z" />
    <glyph glyph-name="uniFB6D" unicode="&#x6a4;" horiz-adv-x="972" arabic-form="medial" 
d="M365 1436l132 132l7 7l7 -7l133 -132l7 -7l-7 -7l-133 -133l-7 -7l-7 7l-132 133l-7 7zM537 1174l132 132l7 7l7 -7l133 -132l7 -7l-7 -7l-133 -133l-7 -7l-7 7l-132 133l-7 7zM197 1174l132 132l7 7l7 -7l133 -132l7 -7l-7 -7l-133 -133l-7 -7l-7 7l-132 133l-7 7z
M511 681c-24 0 -55.332 -21.668 -93.999 -65.001s-58 -78.666 -58 -105.999s20.833 -67.5 62.5 -120.5s73.167 -79.5 94.5 -79.5c23.333 0 55.666 27.167 96.999 81.5s62 96.5 62 126.5c0 24.667 -19.333 58 -58 100s-74 63 -106 63zM743.001 224.999
c27.333 -3.33301 78.998 -5 154.998 -5h94v-20v-180v-20h-92c-156.667 0 -285.667 34.667 -387 104c-100.667 -69.333 -233.667 -104 -399 -104h-134v20v180v20h134c87.333 0 145.666 2 174.999 6c-46.667 50 -81.334 97.333 -104.001 142s-34 94 -34 148
c0 37.333 9.83301 78 29.5 122s45.334 85.167 77.001 123.5s70.334 70.333 116.001 96s91.834 38.5 138.501 38.5c64.667 0 126.334 -19.833 185.001 -59.5s104.5 -87.5 137.5 -143.5s49.5 -110 49.5 -162c0 -103.333 -47 -205.333 -141 -306z" />
    <glyph glyph-name="uniFB7A" unicode="&#x686;" horiz-adv-x="1347" arabic-form="isolated" 
d="M673 -213l132 133l7 7l7 -7l133 -133l7 -7l-7 -7l-133 -132l-7 -7l-7 7l-132 132l-7 7zM845 49l132 133l7 7l7 -7l133 -133l7 -7l-7 -7l-133 -132l-7 -7l-7 7l-132 132l-7 7zM505 49l132 133l7 7l7 -7l133 -133l7 -7l-7 -7l-133 -132l-7 -7l-7 7l-132 132l-7 7zM771 575
l-33.999 13.001c-78 31.333 -136.333 53.833 -175 67.5s-67 20.5 -85 20.5c-16.667 0 -33.667 -2.66699 -51 -8s-33.833 -12.833 -49.5 -22.5s-30.834 -20.834 -45.501 -33.501s-27.667 -26.667 -39 -42l-27 -35l-10 -13l-15 7l-151 75l-19 10l11 18l15 26
c44.667 73.333 100 131 166 173s138 63 216 63c42 0 87.833 -8.33301 137.5 -25s107.834 -41 174.501 -73c103.333 -50.667 188.5 -87.334 255.5 -110.001s128.167 -35.334 183.5 -38.001l21 -1l-2 -21l-13 -170l-1 -17l-17 -1c-176 -14 -334.833 -46.833 -476.5 -98.5
s-253 -117.334 -334 -197.001s-121.5 -165.5 -121.5 -257.5c0 -117.333 42 -205.166 126 -263.499s213 -87.5 387 -87.5c138.667 0 274 31 406 93l23 11l6 -25l35 -170l3 -15l-14 -7c-136.667 -65.333 -294.334 -98 -473.001 -98c-104 0 -198.5 11 -283.5 33
s-159.167 54.833 -222.5 98.5s-112.333 100.667 -147 171s-52 151.5 -52 243.5c0 162.667 60 306.334 180 431.001s290.667 216.334 512 275.001z" />
    <glyph glyph-name="uniFB7B" unicode="&#x686;" horiz-adv-x="1378" arabic-form="final" 
d="M538.721 -252.566l119.077 119.979l6.31445 6.31543l6.31445 -6.31543l119.979 -119.979l6.31445 -6.31445l-6.31445 -6.31543l-119.979 -119.077l-6.31445 -6.31445l-6.31445 6.31445l-119.077 119.077l-6.31445 6.31543zM693.882 -16.2168l119.077 119.979
l6.31445 6.31445l6.31445 -6.31445l119.979 -119.979l6.31445 -6.31445l-6.31445 -6.31445l-119.979 -119.077l-6.31445 -6.31543l-6.31445 6.31543l-119.077 119.077l-6.31543 6.31445zM387.168 -16.2168l119.077 119.979l6.31445 6.31445l6.31445 -6.31445
l119.979 -119.979l6.31445 -6.31445l-6.31445 -6.31445l-119.979 -119.077l-6.31445 -6.31543l-6.31445 6.31543l-119.077 119.077l-6.31445 6.31445zM1257 -579c-136.667 -65.333 -294.331 -97.998 -472.998 -97.998c-104 0 -198.5 11 -283.5 33
s-159.167 54.833 -222.5 98.5s-112.333 100.667 -147 171s-52 151.5 -52 243.5c0 162 60.167 305.5 180.5 430.5s290.833 216.833 511.5 275.5l-34 13c-78 31.333 -136.333 53.833 -175 67.5s-67 20.5 -85 20.5c-16.667 0 -33.667 -2.66699 -51 -8
s-33.833 -12.833 -49.5 -22.5s-30.834 -20.834 -45.501 -33.501s-27.667 -26.667 -39 -42l-27 -35l-10 -13l-15 7l-151 75l-19 10l11 18l15 26c44.667 73.333 100 131 166 173s138 63 216 63c42 0 87.833 -8.33301 137.5 -25s107.834 -41 174.501 -73
c103.333 -50.667 188.5 -87.334 255.5 -110.001s128.167 -35.334 183.5 -38.001l20 -1l-1 -20c-1.33301 -19.333 -3.5 -47.833 -6.5 -85.5s-5.16699 -65.834 -6.5 -84.501l-1 -18l-18 -1c-48 -3.33301 -106.667 -9.66602 -176 -18.999
c2 -40.667 7.83301 -73.834 17.5 -99.501s25.334 -45.834 47.001 -60.501s47.667 -24.834 78 -30.501s69.5 -8.5 117.5 -8.5h98v-20v-180v-20h-95c-75.333 0 -139.833 6.66699 -193.5 20s-99.834 34.833 -138.501 64.5s-67.834 68.834 -87.501 117.501
s-30.834 108.334 -33.501 179.001c-184 -54.667 -324.167 -126.167 -420.5 -214.5s-144.5 -182.166 -144.5 -281.499c0 -117.333 42 -205.166 126 -263.499s213 -87.5 387 -87.5c138.667 0 274 31 406 93l23 11l6 -25l35 -170l3 -15z" />
    <glyph glyph-name="uniFB7C" unicode="&#x686;" horiz-adv-x="1334" arabic-form="initial" 
d="M497 -523l132 133l7 7l7 -7l133 -133l7 -7l-7 -7l-133 -132l-7 -7l-7 7l-132 132l-7 7zM669 -261l132 133l7 7l7 -7l133 -133l7 -7l-7 -7l-133 -132l-7 -7l-7 7l-132 132l-7 7zM329 -261l132 133l7 7l7 -7l133 -133l7 -7l-7 -7l-133 -132l-7 -7l-7 7l-132 132l-7 7z
M-20 20l-0.00292969 180v20h163c49.333 0 98.166 3.83301 146.499 11.5s92.5 17 132.5 28s86.333 27.667 139 50s99 43.333 139 63l161 81.5l39 20c-60 26 -108 46 -144 60c-143.333 58.667 -230.333 88 -261 88c-32.667 0 -65.667 -9.83301 -99 -29.5
s-62 -45.167 -86 -76.5l-27 -35l-10 -13l-15 7l-151 75l-19 10l11 18l15 26c44.667 73.333 100 131 166 173s138 63 216 63c42 0 87.833 -8.33301 137.5 -25s107.834 -41 174.501 -73c103.333 -50.667 188.5 -87.334 255.5 -110.001s128.167 -35.334 183.5 -38.001l19 -1
v-19l-2 -170v-18l-18 -2c-25.333 -2.66699 -54.166 -9.66699 -86.499 -21s-71.166 -27.666 -116.499 -48.999s-103 -50.666 -173 -87.999c-70.667 -37.333 -131.167 -67.666 -181.5 -90.999s-106.666 -46.333 -168.999 -69s-124.5 -39.334 -186.5 -50.001
s-126.333 -16 -193 -16h-160v20z" />
    <glyph glyph-name="uniFB7D" unicode="&#x686;" horiz-adv-x="1351" arabic-form="medial" 
d="M497 -523l132 133l7 7l7 -7l133 -133l7 -7l-7 -7l-133 -132l-7 -7l-7 7l-132 132l-7 7zM669 -261l132 133l7 7l7 -7l133 -133l7 -7l-7 -7l-133 -132l-7 -7l-7 7l-132 132l-7 7zM329 -261l132 133l7 7l7 -7l133 -133l7 -7l-7 -7l-133 -132l-7 -7l-7 7l-132 132l-7 7z
M1246 384c-59.333 -6.66699 -120.332 -24.3301 -182.999 -52.9971c2.66699 -18.667 9.16699 -34.834 19.5 -48.501s25.666 -25.167 45.999 -34.5s46 -16.333 77 -21s68.167 -7 111.5 -7h54v-20v-180v-20h-58c-121.333 0 -216.666 19.333 -285.999 58s-112.333 100 -129 184
c-68.667 -36.667 -130.834 -68 -186.501 -94s-116.167 -51 -181.5 -75s-130.5 -42.167 -195.5 -54.5s-129.833 -18.5 -194.5 -18.5h-160v20v180v20h163c49.333 0 98.166 3.83301 146.499 11.5s92.5 17 132.5 28s86.333 27.667 139 50s99 43.333 139 63l161 81.5l39 20
c-60 26 -108 46 -144 60c-143.333 58.667 -230.333 88 -261 88c-32.667 0 -65.667 -9.83301 -99 -29.5s-62 -45.167 -86 -76.5l-27 -35l-10 -13l-15 7l-151 75l-19 10l11 18l15 26c44.667 73.333 100 131 166 173s138 63 216 63c42 0 87.833 -8.33301 137.5 -25
s107.834 -41 174.501 -73c103.333 -50.667 188.5 -87.334 255.5 -110.001s128.167 -35.334 183.5 -38.001l19 -1v-19l-2 -170v-18z" />
    <glyph glyph-name="uniFB88" unicode="&#x688;" horiz-adv-x="963" arabic-form="isolated" 
d="M377 1318c78.667 0 136 7.5 172 22.5s54 35.833 54 62.5c0 20 -6.16699 36.167 -18.5 48.5s-28.833 18.5 -49.5 18.5c-26.667 0 -56.167 -13 -88.5 -39s-65.833 -64 -100.5 -114zM218 1317l24 38v422v9v5v5h5h5h9h76h9h5h5v-5v-5v-9v-270c27.333 27.333 55.333 48 84 62
s58.667 21 90 21c56 0 101.833 -17.333 137.5 -52s53.5 -78.667 53.5 -132c0 -70 -29.5 -122.167 -88.5 -156.5s-143.833 -51.5 -254.5 -51.5h-249h-9h-5h-5v5v5v9v81v9v5v5h5h5h9h89zM102 247c84 -17.333 155.668 -26.001 215.001 -26.001c234.667 0 352 54.333 352 163
c0 57.333 -33.833 122.833 -101.5 196.5s-168.834 152.834 -303.501 237.501l-17 11l11 17l98 148l11 16l16 -10c334.667 -200 502 -404.333 502 -613c0 -128 -47 -224.167 -141 -288.5s-232 -96.5 -414 -96.5c-81.333 0 -160 8 -236 24l-16 4v16v181v24z" />
    <glyph glyph-name="uniFB89" unicode="&#x688;" horiz-adv-x="1055" arabic-form="final" 
d="M103 249c75.333 -18.667 143.332 -28 203.999 -28c218 0 327 48.667 327 146c0 28 -30 112 -90 252l-120 282l-7 18l17 8l162 74l19 9l8 -19l208 -532c18.667 -48.667 36.667 -89 54 -121s34.333 -56.5 51 -73.5s32.5 -28.667 47.5 -35s31.5 -9.5 49.5 -9.5h42v-20v-180
v-20h-42c-109.333 0 -197.666 50 -264.999 150c-95.333 -99.333 -244 -149 -446 -149c-82.667 0 -159 8.33301 -229 25l-15 4v16v183v26zM426.999 1308c78.667 0 136 7.5 172 22.5s54 35.833 54 62.5c0 20 -6.16699 36.167 -18.5 48.5s-28.833 18.5 -49.5 18.5
c-26.667 0 -56.167 -13 -88.5 -39s-65.833 -64 -100.5 -114zM267.999 1307l24 38v422v9v5v5h5h5h9h76h9h5h5v-5v-5v-9v-270c27.333 27.333 55.333 48 84 62s58.667 21 90 21c56 0 101.833 -17.333 137.5 -52s53.5 -78.667 53.5 -132c0 -70 -29.5 -122.167 -88.5 -156.5
s-143.833 -51.5 -254.5 -51.5h-249h-9h-5h-5v5v5v9v81v9v5v5h5h5h9h89z" />
    <glyph glyph-name="uniFB8A" unicode="&#x698;" horiz-adv-x="810" arabic-form="isolated" 
d="M310 1143l132 132l7 7l7 -7l133 -132l7 -7l-7 -7l-133 -133l-7 -7l-7 7l-132 133l-7 7zM482 881l132 132l7 7l7 -7l133 -132l7 -7l-7 -7l-133 -133l-7 -7l-7 7l-132 133l-7 7zM142 881l132 132l7 7l7 -7l133 -132l7 -7l-7 -7l-133 -133l-7 -7l-7 7l-132 133l-7 7z
M619 554c55.333 -138 83 -270.999 83 -398.999c0 -186 -54.5 -336.167 -163.5 -450.5s-270.5 -191.833 -484.5 -232.5l-17 -3l-6 16l-60 154l-8 22l23 5c170.667 32 298 88.167 382 168.5s126.333 185.5 127 315.5c0 45.333 -6.5 97.666 -19.5 156.999
s-31.5 117.333 -55.5 174l-9 20l20 7l162 58l18 6z" />
    <glyph glyph-name="uniFB8B" unicode="&#x698;" horiz-adv-x="860" arabic-form="final" 
d="M309 1143l132 132l7 7l7 -7l133 -132l7 -7l-7 -7l-133 -133l-7 -7l-7 7l-132 133l-7 7zM481 881l132 132l7 7l7 -7l133 -132l7 -7l-7 -7l-133 -133l-7 -7l-7 7l-132 133l-7 7zM141 881l132 132l7 7l7 -7l133 -132l7 -7l-7 -7l-133 -133l-7 -7l-7 7l-132 133l-7 7z
M495 150c0 45.333 -6.50098 97.499 -19.501 156.499s-31.833 117.167 -56.5 174.5l-8 19l20 8l162 58l19 7l7 -19l61 -193c16 -49.333 36.5 -85.166 61.5 -107.499s58.167 -33.5 99.5 -33.5h38v-20v-180v-20h-27c-73.333 -0 -126.333 11.333 -159 34
c-19.333 -148.667 -83.166 -270.5 -191.499 -365.5s-257.5 -160.167 -447.5 -195.5l-16 -3l-6 15l-61 154l-9 23l24 4c114 22 208.667 54.5 284 97.5s131.5 96.5 168.5 160.5s55.833 139.333 56.5 226z" />
    <glyph glyph-name="uniFB8C" unicode="&#x691;" horiz-adv-x="810" arabic-form="isolated" 
d="M411 871c78.667 0 136 7.5 172 22.5s54 35.833 54 62.5c0 20 -6.16699 36.167 -18.5 48.5s-28.833 18.5 -49.5 18.5c-26.667 0 -56.167 -13 -88.5 -39s-65.833 -64 -100.5 -114zM252 870l24 38v422v9v5v5h5h5h9h76h9h5h5v-5v-5v-9v-270c27.333 27.333 55.333 48 84 62
s58.667 21 90 21c56 0 101.833 -17.333 137.5 -52s53.5 -78.667 53.5 -132c0 -70 -29.5 -122.167 -88.5 -156.5s-143.833 -51.5 -254.5 -51.5h-249h-9h-5h-5v5v5v9v81v9v5v5h5h5h9h89zM619 554c55.333 -138 83 -270.999 83 -398.999c0 -186 -54.5 -336.167 -163.5 -450.5
s-270.5 -191.833 -484.5 -232.5l-17 -3l-6 16l-60 154l-8 22l23 5c170.667 32 298 88.167 382 168.5s126.333 185.5 127 315.5c0 45.333 -6.5 97.666 -19.5 156.999s-31.5 117.333 -55.5 174l-9 20l20 7l162 58l18 6z" />
    <glyph glyph-name="uniFB8D" unicode="&#x691;" horiz-adv-x="860" arabic-form="final" 
d="M495 150c0 45.333 -6.50098 97.499 -19.501 156.499s-31.833 117.167 -56.5 174.5l-8 19l20 8l162 58l19 7l7 -19l61 -193c16 -49.333 36.5 -85.166 61.5 -107.499s58.167 -33.5 99.5 -33.5h38v-20v-180v-20h-27c-73.333 -0 -126.333 11.333 -159 34
c-19.333 -148.667 -83.166 -270.5 -191.499 -365.5s-257.5 -160.167 -447.5 -195.5l-16 -3l-6 15l-61 154l-9 23l24 4c114 22 208.667 54.5 284 97.5s131.5 96.5 168.5 160.5s55.833 139.333 56.5 226zM420.999 870.999c78.667 0 136 7.5 172 22.5s54 35.833 54 62.5
c0 20 -6.16699 36.167 -18.5 48.5s-28.833 18.5 -49.5 18.5c-26.667 0 -56.167 -13 -88.5 -39s-65.833 -64 -100.5 -114zM261.999 869.999l24 38v422v9v5v5h5h5h9h76h9h5h5v-5v-5v-9v-270c27.333 27.333 55.333 48 84 62s58.667 21 90 21c56 0 101.833 -17.333 137.5 -52
s53.5 -78.667 53.5 -132c0 -70 -29.5 -122.167 -88.5 -156.5s-143.833 -51.5 -254.5 -51.5h-249h-9h-5h-5v5v5v9v81v9v5v5h5h5h9h89z" />
    <glyph glyph-name="uniFB8E" unicode="&#x6a9;" horiz-adv-x="1865" arabic-form="isolated" 
d="M1169 1001l52 -44l51.5 -43.5l44.5 -38l45 -39l38.5 -34l39 -35l32 -29.5c12.333 -11.333 23 -21.666 32 -30.999l25.5 -27c88.667 -96.667 133 -198.334 133 -305.001c0 -250 -210.333 -375 -631 -375h-191c-244.667 -0 -432.834 42.333 -564.501 127
s-197.5 210.334 -197.5 377.001c0 90 18.667 177.333 56 262l7 18l18 -7l153 -57l19 -7l-7 -19c-20.667 -55.333 -31 -110.333 -31 -165c0.666992 -206 179.667 -309 537 -309h200c142 0 246.833 14.833 314.5 44.5s101.5 72.167 101.5 127.5c0 8.66699 -0.666992 17 -2 25
s-3.16602 16 -5.49902 24s-5.5 16 -9.5 24s-8.5 16 -13.5 24s-11 16.167 -18 24.5s-14.5 16.666 -22.5 24.999l-26 26.5l-30.5 27.5l-29.5 26l-29 25l-28 23.5l-28 23l-27 21.5l-26.5 21l-25.5 20l-25 19.5l-24 19c-80.667 62.667 -121 129.667 -121 201
c0 96 50.667 162.333 152 199l698 258v-28v-171v-14z" />
    <glyph glyph-name="uniFB8F" unicode="&#x6a9;" horiz-adv-x="1941" arabic-form="final" 
d="M1169 1001l108.497 -92.001l106.5 -91l74.5 -67.5c29 -27 52.833 -50.167 71.5 -69.5c56.667 -61.333 100.667 -135.333 132 -222c56 -159.333 146.333 -239 271 -239h28v-20v-180v-20h-28c-140 0 -256 55.333 -348 166c-46 -56.667 -114.667 -98.5 -206 -125.5
s-207.666 -40.5 -348.999 -40.5h-192c-244 0 -431.667 42.333 -563 127s-197 210.334 -197 377.001c0 88.667 18.667 176 56 262l7 17l18 -6l153 -57l19 -7l-7 -19c-20.667 -54.667 -31 -109.667 -31 -165c0.666992 -102.667 44.834 -179.834 132.501 -231.501
s221.834 -77.5 402.501 -77.5h202c277.333 0 416 57.667 416 173c0 28.667 -7.83301 56.334 -23.5 83.001s-40.834 56 -75.501 88c-67.333 63.333 -157.666 139 -270.999 227c-80.667 62.667 -121 129.667 -121 201c0 46.667 13 87 39 121s63.667 60 113 78l698 258v-28
v-171v-14z" />
    <glyph glyph-name="uniFB90" unicode="&#x6a9;" horiz-adv-x="950" arabic-form="initial" 
d="M254 1001l65.001 -55.0039l64 -54.5l54 -46c24 -20.333 42.167 -36.166 54.5 -47.499l44 -40c17 -15.333 31.667 -29.166 44 -41.499l35.5 -35.5c44 -48.667 76.833 -97.5 98.5 -146.5s32.5 -101.833 32.5 -158.5c0 -128 -47.333 -222.667 -142 -284
s-240.667 -92 -438 -92h-186v20v180v20h185c132.667 0 226.834 14.333 282.501 43s83.5 72 83.5 130c0 28.667 -7.83301 56.334 -23.5 83.001s-40.834 56 -75.501 88c-12 12 -24.667 23.833 -38 35.5l-35.5 31l-37 31.5l-33 27.5l-34.5 28l-31 25
c-5.33301 4.33301 -16.333 12.833 -33 25.5s-26.334 20.334 -29.001 23.001c-80.667 62.667 -121 129.667 -121 201c0 46.667 13 87 39 121s63.667 60.333 113 79l698 258v-29v-171v-14z" />
    <glyph glyph-name="uniFB91" unicode="&#x6a9;" horiz-adv-x="1027" arabic-form="medial" 
d="M254 1001l88.001 -74.502l88 -75l67 -58.5c27.333 -24 50 -44.667 68 -62l50 -50c58 -62.667 102 -136.667 132 -222c56 -159.333 146.333 -239 271 -239h29v-20v-180v-20h-29c-140.667 0 -256.667 55.333 -348 166c-44 -57.333 -106 -99.333 -186 -126
s-186 -40 -318 -40h-186v20v180v20h185c132.667 0 226.834 14.333 282.501 43s83.5 72 83.5 130c0 28.667 -7.83301 56.334 -23.5 83.001s-40.834 56 -75.501 88c-12 12 -24.667 23.833 -38 35.5l-35.5 31l-37 31.5l-33 27.5l-34.5 28l-31 25
c-5.33301 4.33301 -16.333 12.833 -33 25.5s-26.334 20.334 -29.001 23.001c-80.667 62.667 -121 129.667 -121 201c0 46.667 13 87 39 121s63.667 60.333 113 79l698 258v-29v-171v-14z" />
    <glyph glyph-name="uniFB92" unicode="&#x6af;" horiz-adv-x="1865" arabic-form="isolated" 
d="M1796.41 1554.07l-777.851 -288.885v124.113l777.851 288.886v-124.114zM1169 1001l52 -44l51.5 -43.5l44.5 -38l45 -39l38.5 -34l39 -35l32 -29.5c12.333 -11.333 23 -21.666 32 -30.999l25.5 -27c88.667 -96.667 133 -198.334 133 -305.001
c0 -250 -210.333 -375 -631 -375h-191c-244.667 -0 -432.834 42.333 -564.501 127s-197.5 210.334 -197.5 377.001c0 90 18.667 177.333 56 262l7 18l18 -7l153 -57l19 -7l-7 -19c-20.667 -55.333 -31 -110.333 -31 -165c0.666992 -206 179.667 -309 537 -309h200
c142 0 246.833 14.833 314.5 44.5s101.5 72.167 101.5 127.5c0 8.66699 -0.666992 17 -2 25s-3.16602 16 -5.49902 24s-5.5 16 -9.5 24s-8.5 16 -13.5 24s-11 16.167 -18 24.5s-14.5 16.666 -22.5 24.999l-26 26.5l-30.5 27.5l-29.5 26l-29 25l-28 23.5l-28 23l-27 21.5
l-26.5 21l-25.5 20l-25 19.5l-24 19c-80.667 62.667 -121 129.667 -121 201c0 96 50.667 162.333 152 199l698 258v-28v-171v-14z" />
    <glyph glyph-name="uniFB93" unicode="&#x6af;" horiz-adv-x="1941" arabic-form="final" 
d="M1796.41 1554.07l-777.851 -288.885v124.113l777.851 288.886v-124.114zM1169 1001l108.497 -92.001l106.5 -91l74.5 -67.5c29 -27 52.833 -50.167 71.5 -69.5c56.667 -61.333 100.667 -135.333 132 -222c56 -159.333 146.333 -239 271 -239h28v-20v-180v-20h-28
c-140 0 -256 55.333 -348 166c-46 -56.667 -114.667 -98.5 -206 -125.5s-207.666 -40.5 -348.999 -40.5h-192c-244 0 -431.667 42.333 -563 127s-197 210.334 -197 377.001c0 88.667 18.667 176 56 262l7 17l18 -6l153 -57l19 -7l-7 -19
c-20.667 -54.667 -31 -109.667 -31 -165c0.666992 -102.667 44.834 -179.834 132.501 -231.501s221.834 -77.5 402.501 -77.5h202c277.333 0 416 57.667 416 173c0 28.667 -7.83301 56.334 -23.5 83.001s-40.834 56 -75.501 88c-67.333 63.333 -157.666 139 -270.999 227
c-80.667 62.667 -121 129.667 -121 201c0 46.667 13 87 39 121s63.667 60 113 78l698 258v-28v-171v-14z" />
    <glyph glyph-name="uniFB94" unicode="&#x6af;" horiz-adv-x="950" arabic-form="initial" 
d="M254 1001l65.001 -55.0039l64 -54.5l54 -46c24 -20.333 42.167 -36.166 54.5 -47.499l44 -40c17 -15.333 31.667 -29.166 44 -41.499l35.5 -35.5c44 -48.667 76.833 -97.5 98.5 -146.5s32.5 -101.833 32.5 -158.5c0 -128 -47.333 -222.667 -142 -284
s-240.667 -92 -438 -92h-186v20v180v20h185c132.667 0 226.834 14.333 282.501 43s83.5 72 83.5 130c0 28.667 -7.83301 56.334 -23.5 83.001s-40.834 56 -75.501 88c-12 12 -24.667 23.833 -38 35.5l-35.5 31l-37 31.5l-33 27.5l-34.5 28l-31 25
c-5.33301 4.33301 -16.333 12.833 -33 25.5s-26.334 20.334 -29.001 23.001c-80.667 62.667 -121 129.667 -121 201c0 46.667 13 87 39 121s63.667 60.333 113 79l698 258v-29v-171v-14zM881.411 1557.07l-777.851 -288.885v124.113l777.851 288.886v-124.114z" />
    <glyph glyph-name="uniFB95" unicode="&#x6af;" horiz-adv-x="1027" arabic-form="medial" 
d="M881.41 1557.07l-777.851 -288.885v124.113l777.851 288.886v-124.114zM254 1001l88.001 -74.502l88 -75l67 -58.5c27.333 -24 50 -44.667 68 -62l50 -50c58 -62.667 102 -136.667 132 -222c56 -159.333 146.333 -239 271 -239h29v-20v-180v-20h-29
c-140.667 0 -256.667 55.333 -348 166c-44 -57.333 -106 -99.333 -186 -126s-186 -40 -318 -40h-186v20v180v20h185c132.667 0 226.834 14.333 282.501 43s83.5 72 83.5 130c0 28.667 -7.83301 56.334 -23.5 83.001s-40.834 56 -75.501 88c-12 12 -24.667 23.833 -38 35.5
l-35.5 31l-37 31.5l-33 27.5l-34.5 28l-31 25c-5.33301 4.33301 -16.333 12.833 -33 25.5s-26.334 20.334 -29.001 23.001c-80.667 62.667 -121 129.667 -121 201c0 46.667 13 87 39 121s63.667 60.333 113 79l698 258v-29v-171v-14z" />
    <glyph glyph-name="uniFB9E" unicode="&#x6ba;" horiz-adv-x="1447" arabic-form="isolated" 
d="M1081 578l169 57.999l18 6l7 -18c62.667 -160 94 -314.667 94 -464c0 -195.333 -57.833 -345.833 -173.5 -451.5s-273.834 -158.5 -474.501 -158.5c-212 0 -372.167 50.167 -480.5 150.5s-162.5 248.833 -162.5 445.5c0 142.667 30.667 288.334 92 437.001l7 18l19 -7
l155 -63l18 -8l-7 -18c-48 -126.667 -72 -244.667 -72 -354c0 -130.667 36 -228 108 -292s182 -96 330 -96c144 0 251.333 35.167 322 105.5s106.334 177.5 107.001 321.5c0 118 -29.333 238 -88 360l-10 21z" />
    <glyph glyph-name="uniFB9F" unicode="&#x6ba;" horiz-adv-x="1528" arabic-form="final" 
d="M1157 120c0 117.333 -29.335 237.332 -88.002 359.999l-10 20l21 8l169 58l20 7l6 -19l72 -226c12.667 -38.667 30.834 -66.334 54.501 -83.001s59.167 -25 106.5 -25h40v-20v-180v-20h-36c-33.333 0 -62.5 3.16699 -87.5 9.5s-46.167 15.833 -63.5 28.5
c-7.33301 -119.333 -38.5 -221.166 -93.5 -305.499s-128.833 -147.5 -221.5 -189.5s-201 -63 -325 -63c-212.667 0 -373 50 -481 150s-162 248.667 -162 446c0 142.667 30.667 288.334 92 437.001l7 18l19 -7l155 -64l18 -7l-7 -18c-48 -126 -72 -244 -72 -354
c0 -130.667 36 -228 108 -292s182 -96 330 -96c144 0 251.333 35.167 322 105.5s106.334 177.5 107.001 321.5z" />
    <glyph glyph-name="uniFBA7" unicode="&#x6c1;" horiz-adv-x="919" arabic-form="final" 
d="M239 -19l-146 35.998l-17 4l2 17c8 81.333 25.167 159.666 51.5 234.999s57.833 140 94.5 194s77.5 97.167 122.5 129.5s89.167 48.5 132.5 48.5c38 0 71.667 -7.83301 101 -23.5s53.166 -36 71.499 -61s34.833 -52.5 49.5 -82.5s28.334 -60.167 41.001 -90.5
s26 -58 40 -83s31.5 -45.333 52.5 -61s44.833 -23.5 71.5 -23.5h33v-20v-180v-20h-32c-46.667 0 -89.5 7.33301 -128.5 22s-71.167 33.834 -96.5 57.501s-47.833 49.834 -67.5 78.501s-35.667 57.334 -48 86.001l-33 78.5c-9.66699 23.667 -18.667 42.834 -27 57.501
s-16.5 22 -24.5 22c-15.333 0 -33.5 -9.33301 -54.5 -28s-42.333 -44.334 -64 -77.001s-41.667 -75.5 -60 -128.5s-31.5 -110.167 -39.5 -171.5l-3 -22z" />
    <glyph glyph-name="uniFBA8" unicode="&#x6c1;" horiz-adv-x="592" arabic-form="initial" 
d="M395.505 -126.857c-23.999 -22.0791 -43.3184 -41.998 -57.958 -59.7568c-14.6396 -17.7598 -26.7588 -37.4395 -36.3584 -59.0381s-15.1191 -44.8779 -16.5596 -69.8369c64.3174 -4.31934 96.4766 -41.0381 96.4766 -110.155
c0 -35.0391 -9.83984 -63.2383 -29.5186 -84.5967c-19.6787 -21.3594 -47.0381 -32.0391 -82.0771 -32.0391c-42.7178 0 -74.7568 12.5996 -96.1162 37.7988c-21.3584 25.1982 -32.0381 59.1572 -32.0381 101.876c0 132.475 60.957 245.99 182.872 340.546l8.63965 6.47949
l8.63965 -6.47949l53.2783 -42.4785l13.6797 -10.7998zM465 765c32.667 -109.333 49.001 -218.334 49.001 -327.001c0 -139.333 -35.333 -247.166 -106 -323.499s-173.667 -114.5 -309 -114.5h-119v20v180v20h119c73.333 0 125.666 16.167 156.999 48.5s47 87.833 47 166.5
c0 86 -12 179 -36 279l-5 20l19 4l160 40l19 5z" />
    <glyph glyph-name="uniFBA9" unicode="&#x6c1;" horiz-adv-x="1002" arabic-form="medial" 
d="M202 39c-29.333 -14 -55.8311 -23.999 -79.498 -29.999s-50.167 -9 -79.5 -9h-63v20v180v20h65c29.333 0 55.666 2 78.999 6s43 8.66699 59 14s33.667 14.833 53 28.5s34.833 25.667 46.5 36l54.5 50.5c2.66699 2.66699 4.83398 4.66699 6.50098 6
s3.66699 3.16602 6 5.49902l6.5 6.5l6 6l15 14l14 -16l110 -122l13 -15l-15 -13l-25 -22c-12.667 -11.333 -23.667 -23.333 -33 -36c-34 -46.667 -48 -97.167 -42 -151.5s24.167 -106.5 54.5 -156.5s67.833 -91.667 112.5 -125c5.33301 152.667 43.666 271.5 114.999 356.5
s173.666 127.5 306.999 127.5h34v-20v-180v-20h-36c-78.667 0 -137.167 -25 -175.5 -75s-57.5 -128.333 -57.5 -235c0 -33.333 1.33301 -63.333 4 -90l1 -10l-7 -6l-121 -118l-10 -10l-13 6c-117.333 56 -211.833 132.667 -283.5 230s-112.167 213 -121.5 347z" />
    <glyph glyph-name="uniFBAA" unicode="&#x6be;" horiz-adv-x="1487" arabic-form="isolated" 
d="M47 220h72v-220h-24zM621 282c49.333 20.667 86.832 49.167 112.499 85.5s38.834 74.833 39.501 115.5c0 48.667 -13.167 85.667 -39.5 111s-63.5 38 -111.5 38c-49.333 0 -88.5 -13 -117.5 -39s-43.5 -61 -43.5 -105c0 -42.667 13.667 -82.5 41 -119.5
s67 -65.833 119 -86.5zM711.999 989c234.667 -114.667 409.5 -221.499 524.5 -320.499s172.5 -197.5 172.5 -295.5c0 -116.667 -37.5 -206.334 -112.5 -269.001s-174.833 -94 -299.5 -94c-42 0 -88.5 3.33301 -139.5 10s-97.833 15 -140.5 25s-80.667 20.333 -114 31
c-60 -22 -126.833 -40.167 -200.5 -54.5s-143.5 -21.5 -209.5 -21.5h-95v20v180v20h83c73.333 0 130.333 1.66699 171 5c-67.333 69.333 -101 156.333 -101 261c0 40.667 6.16699 79 18.5 115s29.333 67.333 51 94s47.167 49.834 76.5 69.501s61.333 34.667 96 45
s70.667 16.166 108 17.499l8 16l76 138l10 16zM933.999 644.001c19.333 -38 29 -85.002 29 -141.002c0 -108.667 -37 -202.667 -111 -282c46 -4 88.667 -6 128 -6c74 0 128.167 12.5 162.5 37.5s51.5 64.167 51.5 117.5c0 34.667 -21.667 75.334 -65 122.001
s-108.333 97.334 -195 152.001z" />
    <glyph glyph-name="uniFBAB" unicode="&#x6be;" horiz-adv-x="1120" arabic-form="final" 
d="M47 220h72v-220h-24zM725 -538c-224.667 107.333 -360.337 286.667 -407.004 538h-220v20v180v20h205c2.66699 50 6.5 96.167 11.5 138.5s12 85 21 128s19.833 81.5 32.5 115.5s28.334 66 47.001 96s39.667 54.833 63 74.5s51 35.167 83 46.5s67 17 105 17
c86.667 0 155.334 -30.667 206.001 -92s76 -140.333 76 -237c0 -76 -19.667 -150.5 -59 -223.5s-92.166 -134.833 -158.499 -185.5s-137.166 -83 -212.499 -97c24 -111.333 79.333 -199.333 166 -264c2 64.667 13.167 126 33.5 184s47.833 109.333 82.5 154
s78.5 80 131.5 106s111.167 39 174.5 39h34v-20v-180v-20h-36c-78.667 0 -137.167 -25 -175.5 -75s-57.5 -128.333 -57.5 -235c0 -33.333 1.33301 -63.333 4 -90l1 -10l-7 -6l-121 -118l-10 -10zM505.997 221.001c45.333 5.33301 86.5 21.167 123.5 47.5
s66.167 60.5 87.5 102.5s32 87.333 32 136c0 39.333 -7.83301 68.333 -23.5 87s-36.167 28 -61.5 28c-45.333 0 -81 -32 -107 -96s-43 -165.667 -51 -305z" />
    <glyph glyph-name="uniFBAC" unicode="&#x6be;" horiz-adv-x="1369" arabic-form="initial" 
d="M503 282c49.333 20.667 86.832 49.167 112.499 85.5s38.834 74.833 39.501 115.5c0 48.667 -13.167 85.667 -39.5 111s-63.5 38 -111.5 38c-49.333 0 -88.5 -13 -117.5 -39s-43.5 -61 -43.5 -105c0 -42.667 13.667 -82.5 41 -119.5s67 -65.833 119 -86.5zM593.999 989
c234.667 -114.667 409.5 -221.499 524.5 -320.499s172.5 -197.5 172.5 -295.5c0 -116.667 -37.5 -206.334 -112.5 -269.001s-174.833 -94 -299.5 -94c-42 0 -88.5 3.33301 -139.5 10s-97.833 15 -140.5 25s-80.667 20.333 -114 31c-60 -22 -126.833 -40.167 -200.5 -54.5
s-143.5 -21.5 -209.5 -21.5h-95v20v180v20h83c73.333 0 130.333 1.66699 171 5c-67.333 69.333 -101 156.333 -101 261c0 40.667 6.16699 79 18.5 115s29.333 67.333 51 94s47.167 49.834 76.5 69.501s61.333 34.667 96 45s70.667 16.166 108 17.499l8 16l76 138l10 16z
M815.999 644.001c19.333 -38 29 -85.002 29 -141.002c0 -108.667 -37 -202.667 -111 -282c46 -4 88.667 -6 128 -6c74 0 128.167 12.5 162.5 37.5s51.5 64.167 51.5 117.5c0 34.667 -21.667 75.334 -65 122.001s-108.333 97.334 -195 152.001z" />
    <glyph glyph-name="uniFBAD" unicode="&#x6be;" horiz-adv-x="1002" arabic-form="medial" 
d="M607 -538c-224.667 107.333 -360.337 286.667 -407.004 538h-220v20v180v20h205c2.66699 50 6.5 96.167 11.5 138.5s12 85 21 128s19.833 81.5 32.5 115.5s28.334 66 47.001 96s39.667 54.833 63 74.5s51 35.167 83 46.5s67 17 105 17
c86.667 0 155.334 -30.667 206.001 -92s76 -140.333 76 -237c0 -76 -19.667 -150.5 -59 -223.5s-92.166 -134.833 -158.499 -185.5s-137.166 -83 -212.499 -97c24 -111.333 79.333 -199.333 166 -264c2 64.667 13.167 126 33.5 184s47.833 109.333 82.5 154
s78.5 80 131.5 106s111.167 39 174.5 39h34v-20v-180v-20h-36c-78.667 0 -137.167 -25 -175.5 -75s-57.5 -128.333 -57.5 -235c0 -33.333 1.33301 -63.333 4 -90l1 -10l-7 -6l-121 -118l-10 -10zM387.997 221.001c45.333 5.33301 86.5 21.167 123.5 47.5
s66.167 60.5 87.5 102.5s32 87.333 32 136c0 39.333 -7.83301 68.333 -23.5 87s-36.167 28 -61.5 28c-45.333 0 -81 -32 -107 -96s-43 -165.667 -51 -305z" />
    <glyph glyph-name="uniFBAE" unicode="&#x6d2;" horiz-adv-x="1744" arabic-form="isolated" 
d="M775 461c-8 10 -21.168 27.4971 -39.501 52.4971l-45.5 61.5c-12 16 -27 34.5 -45 55.5s-35 39.167 -51 54.5l-33.5 -51.5l-30 -46.5l-30 -43c-12.333 -17.333 -26.5 -35.333 -42.5 -54c-24 -29.333 -46.5 -55.166 -67.5 -77.499s-37.167 -38.666 -48.5 -48.999
s-21.166 -18.666 -29.499 -24.999l-17 -13c-3 -2.33301 -4.5 -4.5 -4.5 -6.5c0 -6.66699 4.5 -13.667 13.5 -21s22 -14.5 39 -21.5s37 -13.833 60 -20.5s49.667 -12.667 80 -18s62.166 -10.166 95.499 -14.499s69.833 -7.66602 109.5 -9.99902s79.5 -3.5 119.5 -3.5
c78.667 0 161.167 2.33301 247.5 7s162.5 10.167 228.5 16.5s126.5 12.833 181.5 19.5s97.5 12.334 127.5 17.001l44 7l22 3l1 -22l6 -178l1 -18l-18 -3l-127.5 -16c-53 -6.66699 -153.167 -15.334 -300.5 -26.001s-284.333 -16 -411 -16
c-37.333 0 -72.666 0.5 -105.999 1.5s-70 2.83301 -110 5.5s-77 6.33398 -111 11.001s-68.833 11 -104.5 19s-67.834 17.333 -96.501 28s-56 23.667 -82 39s-47.667 32.333 -65 51s-31.166 40.5 -41.499 65.5s-15.5 52.167 -15.5 81.5c0 28.667 4.66699 54.667 14 78
s22.833 44.666 40.5 63.999s36.167 37.333 55.5 54s42 37.5 68 62.5s48.667 50.167 68 75.5c23.333 30 46.166 62 68.499 96l51.5 79c12 18.667 25.167 36.5 39.5 53.5s29.333 29 45 36s34.167 10.5 55.5 10.5c22 0 45.5 -6.33301 70.5 -19s48.833 -29.667 71.5 -51
s44.834 -44 66.501 -68s41.5 -48.833 59.5 -74.5s33 -47.834 45 -66.501s21.667 -34.334 29 -47.001l7 -14l-12 -11l-117 -103l-16 -14z" />
    <glyph glyph-name="uniFBAF" unicode="&#x6d2;" horiz-adv-x="1576" arabic-form="final" 
d="M1200.77 0v220h395.005v-220h-395.005zM656 0c-44 0 -88.501 -6.5 -133.501 -19.5s-83.167 -28.333 -114.5 -46s-57.333 -34.5 -78 -50.5s-33.667 -28.333 -39 -37c4 -25.333 57.667 -49.5 161 -72.5s222 -34.5 356 -34.5c213.333 0 388.333 20 525 60l20 7l21 8l5 -23
l38 -166l5 -18l-18 -5c-4 -1.33301 -9.33301 -2.83301 -16 -4.5l-42 -10c-21.333 -5 -43.833 -9.83301 -67.5 -14.5s-53.5 -9.66699 -89.5 -15s-72.5 -10 -109.5 -14s-79.333 -7.33301 -127 -10s-95.167 -4 -142.5 -4c-49.333 0 -95.333 0.833008 -138 2.5
s-89.667 5 -141 10s-97.666 12 -138.999 21s-82.166 21.167 -122.499 36.5s-74 33.333 -101 54s-48.833 46.167 -65.5 76.5s-25 64.166 -25 101.499c0 42.667 17.167 87.334 51.5 134.001s78.333 88.5 132 125.5s116.167 67.5 187.5 91.5s141.666 36 210.999 36h567v-20
v-180v-20h-571z" />
    <glyph glyph-name="uniFBB0" unicode="&#x6d3;" horiz-adv-x="1744" arabic-form="isolated" 
d="M527 1156c-22.667 20.667 -39.0029 43.6689 -49.0029 69.002s-15 56 -15 92c0 63.333 20.333 114.666 61 153.999s89 59 145 59c10 0 19.833 -0.666992 29.5 -2s19.167 -3 28.5 -5s18.5 -4.83301 27.5 -8.5s18 -7.66699 27 -12s17.833 -9.16602 26.5 -14.499l2 -1v-3
l1 -119v-9l-8 5c-40 24 -80 36 -120 36c-26.667 0 -49.167 -7.66699 -67.5 -23s-27.5 -38.666 -27.5 -69.999c0 -10.667 1.66699 -20.334 5 -29.001s8.33301 -16.834 15 -24.501s15.334 -15 26.001 -22s23.667 -13.167 39 -18.5
c2.66699 -0.666992 4.83398 -1.33398 6.50098 -2.00098s3.5 -1.16699 5.5 -1.5s4 -0.5 6 -0.5h3c0.666992 0 2 0.333008 4 1l71 14.5c30.667 6.33301 51.334 10.5 62.001 12.5l6 1v-6v-116v-4l-4 -1l-397 -96l-6 -1v6v113v4l4 1zM774.997 461.002
c-8 10 -21.168 27.4971 -39.501 52.4971l-45.5 61.5c-12 16 -27 34.5 -45 55.5s-35 39.167 -51 54.5l-33.5 -51.5l-30 -46.5l-30 -43c-12.333 -17.333 -26.5 -35.333 -42.5 -54c-24 -29.333 -46.5 -55.166 -67.5 -77.499s-37.167 -38.666 -48.5 -48.999
s-21.166 -18.666 -29.499 -24.999l-17 -13c-3 -2.33301 -4.5 -4.5 -4.5 -6.5c0 -6.66699 4.5 -13.667 13.5 -21s22 -14.5 39 -21.5s37 -13.833 60 -20.5s49.667 -12.667 80 -18s62.166 -10.166 95.499 -14.499s69.833 -7.66602 109.5 -9.99902s79.5 -3.5 119.5 -3.5
c78.667 0 161.167 2.33301 247.5 7s162.5 10.167 228.5 16.5s126.5 12.833 181.5 19.5s97.5 12.334 127.5 17.001l44 7l22 3l1 -22l6 -178l1 -18l-18 -3l-127.5 -16c-53 -6.66699 -153.167 -15.334 -300.5 -26.001s-284.333 -16 -411 -16
c-37.333 0 -72.666 0.5 -105.999 1.5s-70 2.83301 -110 5.5s-77 6.33398 -111 11.001s-68.833 11 -104.5 19s-67.834 17.333 -96.501 28s-56 23.667 -82 39s-47.667 32.333 -65 51s-31.166 40.5 -41.499 65.5s-15.5 52.167 -15.5 81.5c0 28.667 4.66699 54.667 14 78
s22.833 44.666 40.5 63.999s36.167 37.333 55.5 54s42 37.5 68 62.5s48.667 50.167 68 75.5c23.333 30 46.166 62 68.499 96l51.5 79c12 18.667 25.167 36.5 39.5 53.5s29.333 29 45 36s34.167 10.5 55.5 10.5c22 0 45.5 -6.33301 70.5 -19s48.833 -29.667 71.5 -51
s44.834 -44 66.501 -68s41.5 -48.833 59.5 -74.5s33 -47.834 45 -66.501s21.667 -34.334 29 -47.001l7 -14l-12 -11l-117 -103l-16 -14z" />
    <glyph glyph-name="uniFBB1" unicode="&#x6d3;" horiz-adv-x="1576" arabic-form="final" 
d="M1200.77 0v220h395.005v-220h-395.005zM656 0c-44 0 -88.501 -6.5 -133.501 -19.5s-83.167 -28.333 -114.5 -46s-57.333 -34.5 -78 -50.5s-33.667 -28.333 -39 -37c4 -25.333 57.667 -49.5 161 -72.5s222 -34.5 356 -34.5c213.333 0 388.333 20 525 60l20 7l21 8l5 -23
l38 -166l5 -18l-18 -5c-4 -1.33301 -9.33301 -2.83301 -16 -4.5l-42 -10c-21.333 -5 -43.833 -9.83301 -67.5 -14.5s-53.5 -9.66699 -89.5 -15s-72.5 -10 -109.5 -14s-79.333 -7.33301 -127 -10s-95.167 -4 -142.5 -4c-49.333 0 -95.333 0.833008 -138 2.5
s-89.667 5 -141 10s-97.666 12 -138.999 21s-82.166 21.167 -122.499 36.5s-74 33.333 -101 54s-48.833 46.167 -65.5 76.5s-25 64.166 -25 101.499c0 42.667 17.167 87.334 51.5 134.001s78.333 88.5 132 125.5s116.167 67.5 187.5 91.5s141.666 36 210.999 36h567v-20
v-180v-20h-571zM518.999 528c-22.667 20.667 -39.0029 43.6689 -49.0029 69.002s-15 56 -15 92c0 63.333 20.333 114.666 61 153.999s89 59 145 59c10 0 19.833 -0.666992 29.5 -2s19.167 -3 28.5 -5s18.5 -4.83301 27.5 -8.5s18 -7.66699 27 -12
s17.833 -9.16602 26.5 -14.499l2 -1v-3l1 -119v-9l-8 5c-40 24 -80 36 -120 36c-26.667 0 -49.167 -7.66699 -67.5 -23s-27.5 -38.666 -27.5 -69.999c0 -10.667 1.66699 -20.334 5 -29.001s8.33301 -16.834 15 -24.501s15.334 -15 26.001 -22s23.667 -13.167 39 -18.5
c2.66699 -0.666992 4.83398 -1.33398 6.50098 -2.00098s3.5 -1.16699 5.5 -1.5s4 -0.5 6 -0.5h3c0.666992 0 2 0.333008 4 1l71 14.5c30.667 6.33301 51.334 10.5 62.001 12.5l6 1v-6v-116v-4l-4 -1l-397 -96l-6 -1v6v113v4l4 1z" />
    <glyph glyph-name="uniFBDA" unicode="&#x6c6;" horiz-adv-x="938" arabic-form="final" 
d="M348 936l-193 324l-5 8h9h124h3l1 -2l136 -233l137 233l1 2h3h124h9l-5 -8l-194 -324l-1 -2h-3h-142h-3zM874.878 0v220h83.4893v-220h-83.4893zM432 760c216 0 337.999 -179.999 365.999 -539.999h98v-21v-179v-20h-113c-28.667 -138.667 -94.5 -253 -197.5 -343
s-240.833 -151.667 -413.5 -185l-17 -3l-6 16l-60 154l-8 22l23 5c131.333 24.667 237 65.667 317 123s134.333 127.666 163 210.999h-122c-125.333 0 -220.666 26.5 -285.999 79.5s-98 131.833 -98 236.5c0 78 14.667 150.667 44 218s71.333 121.833 126 163.5
s116 62.5 184 62.5zM594.999 220.001c-17.333 210 -76.333 315 -177 315c-36 0 -67.5 -20.167 -94.5 -60.5s-40.5 -88.166 -40.5 -143.499c0 -36.667 13.333 -64.334 40 -83.001s69.667 -28 129 -28h143z" />
    <glyph glyph-name="uniFBE8" unicode="&#x649;" horiz-adv-x="672" arabic-form="initial" 
d="M545 765c32.667 -109.333 49 -218.336 49 -327.003c0 -151.333 -38 -262.166 -114 -332.499s-193 -105.5 -351 -105.5h-149v20v180v20h149c50.667 0 91 2.5 121 7.5s55.667 15.333 77 31s36 37.334 44 65.001s12 64.834 12 111.501c0 86 -12 179 -36 279l-5 20l19 4
l160 40l19 5z" />
    <glyph glyph-name="uniFBE9" unicode="&#x649;" horiz-adv-x="767" arabic-form="medial" 
d="M763 0c-125.333 0 -216 42.667 -272 128c-76 -85.333 -196.667 -128 -362 -128h-149v20v180v20h151c97.333 0 163.5 12.833 198.5 38.5s52.833 75.167 53.5 148.5c0 54 -2.66699 121 -8 201l-1 19l19 2l164 19l21 2l1 -21l16 -247c4 -56 19.5 -97 46.5 -123
s68.167 -39 123.5 -39h22v-20v-180v-20h-24z" />
    <glyph glyph-name="uniFBFC" unicode="&#x6cc;" horiz-adv-x="1477" arabic-form="isolated" 
d="M380 487c-60.667 -147.333 -90.999 -275.666 -90.999 -384.999c0 -130.667 35.667 -228.167 107 -292.5s180.666 -96.833 327.999 -97.5c79.333 0 154.666 10.667 225.999 32s130.333 52.666 177 93.999s70 88 70 140c0 25.333 -26.333 38 -79 38h-144
c-85.333 0 -151 23 -197 69s-69 112 -69 198c0 68.667 13.333 132.5 40 191.5s62.5 108 107.5 147s96.5 69.667 154.5 92s118.667 33.5 182 33.5c72 0 134.667 -11.333 188 -34l15 -6l-3 -16l-32 -165l-5 -22l-21 7c-43.333 13.333 -90.666 20 -141.999 20
c-40.667 0 -78.5 -7 -113.5 -21s-64 -32.333 -87 -55s-41.167 -47.834 -54.5 -75.501s-20 -55.5 -20 -83.5c0 -27.333 3.66699 -44.833 11 -52.5s26 -11.5 56 -11.5h180c73.333 0 130.833 -19.833 172.5 -59.5s62.5 -91.167 62.5 -154.5
c0 -108.667 -29.167 -202.5 -87.5 -281.5s-138.333 -138 -240 -177s-219.167 -58.5 -352.5 -58.5c-211.333 0 -371 50.167 -479 150.5s-162 249.5 -162 447.5c0 138.667 36.667 294.334 110 467.001l7 18l19 -7l155 -63l18 -8z" />
    <glyph glyph-name="uniFBFD" unicode="&#x6cc;" horiz-adv-x="1559" arabic-form="final" 
d="M1434.1 0v220h144.993v-220h-144.993zM1368 0c12 -31.333 17.999 -62.665 17.999 -93.998c0 -82.667 -28.167 -156.334 -84.5 -221.001s-135.166 -114.834 -236.499 -150.501s-216.333 -53.5 -345 -53.5c-212 0 -371.833 50.333 -479.5 151
s-161.5 250.334 -161.5 449.001c0 59.333 6.33301 123.666 19 192.999s30.667 130 54 182l8 18l18 -7l154 -63l17 -8l-6 -18c-35.333 -97.333 -53 -196.666 -53 -297.999c0 -130 35.167 -227 105.5 -291s178.166 -96 323.499 -96c78 0 153 10.5 225 31.5s130 48.5 174 82.5
s66 69.333 66 106c0 24 -12.167 44.5 -36.5 61.5s-60.166 25.5 -107.499 25.5h-133c-23.333 0 -39.833 5.16699 -49.5 15.5s-17.167 27.166 -22.5 50.499l-27 117c-6 24.667 5.66699 37 35 37h614v-20v-180v-20h-89z" />
    <glyph glyph-name="uniFBFE" unicode="&#x6cc;" horiz-adv-x="672" arabic-form="initial" 
d="M260 -296l140 140l7 7l7 -7l141 -140l7 -7l-7 -7l-141 -142l-7 -7l-7 7l-140 142l-7 7zM-72 -296l140 140l7 7l7 -7l141 -140l7 -7l-7 -7l-141 -142l-7 -7l-7 7l-140 142l-7 7zM545 765c32.667 -109.333 49 -218.336 49 -327.003c0 -151.333 -38 -262.166 -114 -332.499
s-193 -105.5 -351 -105.5h-149v20v180v20h149c50.667 0 91 2.5 121 7.5s55.667 15.333 77 31s36 37.334 44 65.001s12 64.834 12 111.501c0 86 -12 179 -36 279l-5 20l19 4l160 40l19 5z" />
    <glyph glyph-name="uniFBFF" unicode="&#x6cc;" horiz-adv-x="767" arabic-form="medial" 
d="M260 -296l140 140l7 7l7 -7l141 -140l7 -7l-7 -7l-141 -142l-7 -7l-7 7l-140 142l-7 7zM-72 -296l140 140l7 7l7 -7l141 -140l7 -7l-7 -7l-141 -142l-7 -7l-7 7l-140 142l-7 7zM763 0c-125.333 0 -216 42.667 -272 128c-76 -85.333 -196.667 -128 -362 -128h-149v20v180
v20h151c97.333 0 163.5 12.833 198.5 38.5s52.833 75.167 53.5 148.5c0 54 -2.66699 121 -8 201l-1 19l19 2l164 19l21 2l1 -21l16 -247c4 -56 19.5 -97 46.5 -123s68.167 -39 123.5 -39h22v-20v-180v-20h-24z" />
    <glyph glyph-name="uniFDFC" unicode="&#xfdfc;" horiz-adv-x="3189" arabic-form="isolated" 
d="M2019 -267l140 140l7 7l7 -7l141 -140l7 -7l-7 -7l-141 -142l-7 -7l-7 7l-140 142l-7 7zM1687 -267l140 140l7 7l7 -7l141 -140l7 -7l-7 -7l-141 -142l-7 -7l-7 7l-140 142l-7 7zM354 371c-22.667 -57.333 -39.168 -110.5 -49.501 -159.5s-15.5 -100.833 -15.5 -155.5
c0 -122.667 31.667 -213.834 95 -273.501s160.333 -89.5 291 -89.5c122 0 212.833 32.333 272.5 97s89.834 164 90.501 298l3 1258v20h20h168h20v-20l-1 -1219c0 -214 -48.167 -375.333 -144.5 -484s-239.5 -163 -429.5 -163c-196.667 0 -345.167 48.5 -445.5 145.5
s-150.5 240.833 -150.5 431.5c0 126.667 28 257.334 84 392.001l7 18l19 -7l155 -63l18 -8zM3007 495c55.333 -138 83 -270.999 83 -398.999c0 -186 -54.5 -336.167 -163.5 -450.5s-270.5 -191.833 -484.5 -232.5l-17 -3l-6 16l-60 154l-8 22l23 5
c170.667 32 298 88.167 382 168.5s126.333 185.5 127 315.5c0 45.333 -6.5 97.666 -19.5 156.999s-31.5 117.333 -55.5 174l-9 20l20 7l162 58l18 6zM2426 765.001c32.667 -109.333 49 -218.336 49 -327.003c0 -151.333 -38 -262.166 -114 -332.499s-193 -105.5 -351 -105.5
h-149v20v180v20h149c50.667 0 91 2.5 121 7.5s55.667 15.333 77 31s36 37.334 44 65.001s12 64.834 12 111.501c0 86 -12 179 -36 279l-5 20l19 4l160 40l19 5zM1878 -0.00195312c-130 0 -228.167 34.334 -294.5 103.001s-99.5 176 -99.5 322v921v20h20h169h20v-20v-922
c0 -76.667 14.667 -129.834 44 -159.501s76.333 -44.5 141 -44.5h25v-20v-180v-20h-25z" />
    <glyph glyph-name="uniFE80" unicode="&#x621;" horiz-adv-x="830" arabic-form="isolated" 
d="M456 304l122.001 27.5l124 27.5l20 5l4 -21l26 -169l3 -20l-21 -3c-164 -20.667 -372.667 -100.334 -626 -239.001l-30 -16v34v173v10l9 6c55.333 38.667 109 69.334 161 92.001c-100 61.333 -150 142.333 -150 243c0 106 32.333 191.5 97 256.5
s147.334 97.5 248.001 97.5c95.333 0 175 -31.667 239 -95l10 -9l-5 -13l-55 -134l-10 -23l-20 15c-50.667 34.667 -99.334 52 -146.001 52c-48.667 0 -86.834 -12.667 -114.501 -38s-41.5 -61.333 -41.5 -108c0 -52 52 -102.333 156 -151z" />
    <glyph glyph-name="uniFE81" unicode="&#x622;" horiz-adv-x="465" arabic-form="isolated" 
d="M128 1408c-53.333 0 -110 -36 -170 -108l-5 -7l-7 6l-101 91l-4 5l3 6c36.667 52 75.834 92.5 117.501 121.5s85.834 43.5 132.501 43.5c29.333 0 69.166 -8.5 119.499 -25.5s88.833 -25.5 115.5 -25.5c46 0 104 17.667 174 53l8 4l3 -7l66 -122l3 -7l-6 -4
c-36.667 -22.667 -73.334 -40 -110.001 -52s-74 -18 -112 -18c-28.667 0 -67.5 7.66699 -116.5 23s-85.833 23 -110.5 23zM148 1228.27h169h20v-17.9824v-1191.4v-17.9834h-20h-169h-20v17.9834v1191.4v17.9824h20z" />
    <glyph glyph-name="uniFE82" unicode="&#x622;" horiz-adv-x="527" arabic-form="final" 
d="M225 1408c-53.333 0 -110 -36 -170 -108l-5 -7l-7 6l-101 91l-4 5l3 6c36.667 52 75.834 92.5 117.501 121.5s85.834 43.5 132.501 43.5c29.333 0 69.166 -8.5 119.499 -25.5s88.833 -25.5 115.5 -25.5c46 0 104 17.667 174 53l8 4l3 -7l66 -122l3 -7l-6 -4
c-36.667 -22.667 -73.334 -40 -110.001 -52s-74 -18 -112 -18c-28.667 0 -67.5 7.66699 -116.5 23s-85.833 23 -110.5 23zM522 0c-130 0 -228.167 34.168 -294.5 102.501s-99.5 175.5 -99.5 321.5v723v20h20h169h20v-20v-723c0 -76.667 14.667 -129.834 44 -159.501
s76.333 -44.5 141 -44.5h25v-20v-180v-20h-25z" />
    <glyph glyph-name="uniFE83" unicode="&#x623;" horiz-adv-x="465" arabic-form="isolated" 
d="M114 1385c-22.667 20.667 -39.0029 43.6689 -49.0029 69.002s-15 56 -15 92c0 63.333 20.333 114.666 61 153.999s89 59 145 59c10 0 19.833 -0.666992 29.5 -2s19.167 -3 28.5 -5s18.5 -4.83301 27.5 -8.5s18 -7.66699 27 -12s17.833 -9.16602 26.5 -14.499l2 -1v-3
l1 -119v-9l-8 5c-40 24 -80 36 -120 36c-26.667 0 -49.167 -7.66699 -67.5 -23s-27.5 -38.666 -27.5 -69.999c0 -10.667 1.66699 -20.334 5 -29.001s8.33301 -16.834 15 -24.501s15.334 -15 26.001 -22s23.667 -13.167 39 -18.5
c2.66699 -0.666992 4.83398 -1.33398 6.50098 -2.00098s3.5 -1.16699 5.5 -1.5s4 -0.5 6 -0.5h3c0.666992 0 2 0.333008 4 1l71 14.5c30.667 6.33301 51.334 10.5 62.001 12.5l6 1v-6v-116v-4l-4 -1l-397 -96l-6 -1v6v113v4l4 1zM147.997 1168.82h169h20v-17.084v-1131.8
v-17.083h-20h-169h-20v17.083v1131.8v17.084h20z" />
    <glyph glyph-name="uniFE84" unicode="&#x623;" horiz-adv-x="527" arabic-form="final" 
d="M114 1385c-22.667 20.667 -39.0029 43.6689 -49.0029 69.002s-15 56 -15 92c0 63.333 20.333 114.666 61 153.999s89 59 145 59c10 0 19.833 -0.666992 29.5 -2s19.167 -3 28.5 -5s18.5 -4.83301 27.5 -8.5s18 -7.66699 27 -12s17.833 -9.16602 26.5 -14.499l2 -1v-3
l1 -119v-9l-8 5c-40 24 -80 36 -120 36c-26.667 0 -49.167 -7.66699 -67.5 -23s-27.5 -38.666 -27.5 -69.999c0 -10.667 1.66699 -20.334 5 -29.001s8.33301 -16.834 15 -24.501s15.334 -15 26.001 -22s23.667 -13.167 39 -18.5
c2.66699 -0.666992 4.83398 -1.33398 6.50098 -2.00098s3.5 -1.16699 5.5 -1.5s4 -0.5 6 -0.5h3c0.666992 0 2 0.333008 4 1l71 14.5c30.667 6.33301 51.334 10.5 62.001 12.5l6 1v-6v-116v-4l-4 -1l-397 -96l-6 -1v6v113v4l4 1zM521.997 0.00195312
c-130 0 -228.167 34.168 -294.5 102.501s-99.5 175.5 -99.5 321.5v723v20h20h169h20v-20v-723c0 -76.667 14.667 -129.834 44 -159.501s76.333 -44.5 141 -44.5h25v-20v-180v-20h-25z" />
    <glyph glyph-name="uniFE85" unicode="&#x624;" horiz-adv-x="880" arabic-form="isolated" 
d="M302 1002c-22.667 20.667 -39.0029 43.6689 -49.0029 69.002s-15 56 -15 92c0 63.333 20.333 114.666 61 153.999s89 59 145 59c10 0 19.833 -0.666992 29.5 -2s19.167 -3 28.5 -5s18.5 -4.83301 27.5 -8.5s18 -7.66699 27 -12s17.833 -9.16602 26.5 -14.499l2 -1v-3
l1 -119v-9l-8 5c-40 24 -80 36 -120 36c-26.667 0 -49.167 -7.66699 -67.5 -23s-27.5 -38.666 -27.5 -69.999c0 -10.667 1.66699 -20.334 5 -29.001s8.33301 -16.834 15 -24.501s15.334 -15 26.001 -22s23.667 -13.167 39 -18.5
c2.66699 -0.666992 4.83398 -1.33398 6.50098 -2.00098s3.5 -1.16699 5.5 -1.5s4 -0.5 6 -0.5h3c0.666992 0 2 0.333008 4 1l71 14.5c30.667 6.33301 51.334 10.5 62.001 12.5l6 1v-6v-116v-4l-4 -1l-397 -96l-6 -1v6v113v4l4 1zM587.997 9.00195
c-64 -7.33301 -107.665 -11.0029 -130.998 -11.0029c-124 0 -218.167 26.667 -282.5 80s-96.5 132.666 -96.5 237.999c0 78 14.333 150.667 43 218s70 121.833 124 163.5s115 62.5 183 62.5c63.333 0 119.666 -16.667 168.999 -50s88.5 -77.666 117.5 -132.999
s50.833 -116.166 65.5 -182.499s22 -135.833 22 -208.5c0 -192 -53.333 -349 -160 -471s-263.334 -203 -470.001 -243l-17 -3l-6 16l-60 154l-8 22l23 5c132 24.667 238.333 66.334 319 125.001s135.667 131.334 165 218.001zM594.999 233.999
c-15.333 200.667 -73.667 300.999 -175 300.999c-37.333 0 -69.5 -20.167 -96.5 -60.5s-40.5 -88.166 -40.5 -143.499c0 -39.333 13.833 -69 41.5 -89s72.167 -30 133.5 -30c40 0 85.667 7.33301 137 22z" />
    <glyph glyph-name="uniFE86" unicode="&#x624;" horiz-adv-x="938" arabic-form="final" 
d="M874.878 0v220h83.4893v-220h-83.4893zM432 760c216 0 337.999 -179.999 365.999 -539.999h98v-21v-179v-20h-113c-28.667 -138.667 -94.5 -253 -197.5 -343s-240.833 -151.667 -413.5 -185l-17 -3l-6 16l-60 154l-8 22l23 5c131.333 24.667 237 65.667 317 123
s134.333 127.666 163 210.999h-122c-125.333 0 -220.666 26.5 -285.999 79.5s-98 131.833 -98 236.5c0 78 14.667 150.667 44 218s71.333 121.833 126 163.5s116 62.5 184 62.5zM594.999 220.001c-17.333 210 -76.333 315 -177 315c-36 0 -67.5 -20.167 -94.5 -60.5
s-40.5 -88.166 -40.5 -143.499c0 -36.667 13.333 -64.334 40 -83.001s69.667 -28 129 -28h143zM301.999 982.001c-22.667 20.667 -39.0029 43.6689 -49.0029 69.002s-15 56 -15 92c0 63.333 20.333 114.666 61 153.999s89 59 145 59c10 0 19.833 -0.666992 29.5 -2
s19.167 -3 28.5 -5s18.5 -4.83301 27.5 -8.5s18 -7.66699 27 -12s17.833 -9.16602 26.5 -14.499l2 -1v-3l1 -119v-9l-8 5c-40 24 -80 36 -120 36c-26.667 0 -49.167 -7.66699 -67.5 -23s-27.5 -38.666 -27.5 -69.999c0 -10.667 1.66699 -20.334 5 -29.001
s8.33301 -16.834 15 -24.501s15.334 -15 26.001 -22s23.667 -13.167 39 -18.5c2.66699 -0.666992 4.83398 -1.33398 6.50098 -2.00098s3.5 -1.16699 5.5 -1.5s4 -0.5 6 -0.5h3c0.666992 0 2 0.333008 4 1l71 14.5c30.667 6.33301 51.334 10.5 62.001 12.5l6 1v-6v-116v-4
l-4 -1l-397 -96l-6 -1v6v113v4l4 1z" />
    <glyph glyph-name="uniFE87" unicode="&#x625;" horiz-adv-x="465" arabic-form="isolated" 
d="M99 -489c-22.667 20.667 -39.0029 43.6689 -49.0029 69.002s-15 56 -15 92c0 63.333 20.333 114.666 61 153.999s89 59 145 59c10 0 19.833 -0.666992 29.5 -2s19.167 -3 28.5 -5s18.5 -4.83301 27.5 -8.5s18 -7.66699 27 -12s17.833 -9.16602 26.5 -14.499l2 -1v-3
l1 -119v-9l-8 5c-40 24 -80 36 -120 36c-26.667 0 -49.167 -7.66699 -67.5 -23s-27.5 -38.666 -27.5 -69.999c0 -10.667 1.66699 -20.334 5 -29.001s8.33301 -16.834 15 -24.501s15.334 -15 26.001 -22s23.667 -13.167 39 -18.5
c2.66699 -0.666992 4.83398 -1.33398 6.50098 -2.00098s3.5 -1.16699 5.5 -1.5s4 -0.5 6 -0.5h3c0.666992 0 2 0.333008 4 1l71 14.5c30.667 6.33301 51.334 10.5 62.001 12.5l6 1v-6v-116v-4l-4 -1l-397 -96l-6 -1v6v113v4l4 1zM148.997 1366h169h20v-20v-1325v-20h-20
h-169h-20v20v1325v20h20z" />
    <glyph glyph-name="uniFE88" unicode="&#x625;" horiz-adv-x="527" arabic-form="final" 
d="M522 0c-130 0 -228.167 34.334 -294.5 103.001s-99.5 176 -99.5 322v921v20h20h169h20v-20v-922c0 -76.667 14.667 -129.834 44 -159.501s76.333 -44.5 141 -44.5h25v-20v-180v-20h-25zM198 -502.999c-22.667 20.667 -39.0029 43.6689 -49.0029 69.002s-15 56 -15 92
c0 63.333 20.333 114.666 61 153.999s89 59 145 59c10 0 19.833 -0.666992 29.5 -2s19.167 -3 28.5 -5s18.5 -4.83301 27.5 -8.5s18 -7.66699 27 -12s17.833 -9.16602 26.5 -14.499l2 -1v-3l1 -119v-9l-8 5c-40 24 -80 36 -120 36c-26.667 0 -49.167 -7.66699 -67.5 -23
s-27.5 -38.666 -27.5 -69.999c0 -10.667 1.66699 -20.334 5 -29.001s8.33301 -16.834 15 -24.501s15.334 -15 26.001 -22s23.667 -13.167 39 -18.5c2.66699 -0.666992 4.83398 -1.33398 6.50098 -2.00098s3.5 -1.16699 5.5 -1.5s4 -0.5 6 -0.5h3c0.666992 0 2 0.333008 4 1
l71 14.5c30.667 6.33301 51.334 10.5 62.001 12.5l6 1v-6v-116v-4l-4 -1l-397 -96l-6 -1v6v113v4l4 1z" />
    <glyph glyph-name="uniFE89" unicode="&#x626;" horiz-adv-x="1477" arabic-form="isolated" 
d="M476 790c-22.667 20.667 -39.0029 43.6689 -49.0029 69.002s-15 56 -15 92c0 63.333 20.333 114.666 61 153.999s89 59 145 59c10 0 19.833 -0.666992 29.5 -2s19.167 -3 28.5 -5s18.5 -4.83301 27.5 -8.5s18 -7.66699 27 -12s17.833 -9.16602 26.5 -14.499l2 -1v-3
l1 -119v-9l-8 5c-40 24 -80 36 -120 36c-26.667 0 -49.167 -7.66699 -67.5 -23s-27.5 -38.666 -27.5 -69.999c0 -10.667 1.66699 -20.334 5 -29.001s8.33301 -16.834 15 -24.501s15.334 -15 26.001 -22s23.667 -13.167 39 -18.5
c2.66699 -0.666992 4.83398 -1.33398 6.50098 -2.00098s3.5 -1.16699 5.5 -1.5s4 -0.5 6 -0.5h3c0.666992 0 2 0.333008 4 1l71 14.5c30.667 6.33301 51.334 10.5 62.001 12.5l6 1v-6v-116v-4l-4 -1l-397 -96l-6 -1v6v113v4l4 1zM379.997 487.002
c-60.667 -147.333 -90.999 -275.666 -90.999 -384.999c0 -130.667 35.667 -228.167 107 -292.5s180.666 -96.833 327.999 -97.5c79.333 0 154.666 10.667 225.999 32s130.333 52.666 177 93.999s70 88 70 140c0 25.333 -26.333 38 -79 38h-144c-85.333 0 -151 23 -197 69
s-69 112 -69 198c0 68.667 13.333 132.5 40 191.5s62.5 108 107.5 147s96.5 69.667 154.5 92s118.667 33.5 182 33.5c72 0 134.667 -11.333 188 -34l15 -6l-3 -16l-32 -165l-5 -22l-21 7c-43.333 13.333 -90.666 20 -141.999 20c-40.667 0 -78.5 -7 -113.5 -21
s-64 -32.333 -87 -55s-41.167 -47.834 -54.5 -75.501s-20 -55.5 -20 -83.5c0 -27.333 3.66699 -44.833 11 -52.5s26 -11.5 56 -11.5h180c73.333 0 130.833 -19.833 172.5 -59.5s62.5 -91.167 62.5 -154.5c0 -108.667 -29.167 -202.5 -87.5 -281.5s-138.333 -138 -240 -177
s-219.167 -58.5 -352.5 -58.5c-211.333 0 -371 50.167 -479 150.5s-162 249.5 -162 447.5c0 138.667 36.667 294.334 110 467.001l7 18l19 -7l155 -63l18 -8z" />
    <glyph glyph-name="uniFE8A" unicode="&#x626;" horiz-adv-x="1559" arabic-form="final" 
d="M1434.1 0v220h144.993v-220h-144.993zM1368 0c12 -31.333 17.999 -62.665 17.999 -93.998c0 -82.667 -28.167 -156.334 -84.5 -221.001s-135.166 -114.834 -236.499 -150.501s-216.333 -53.5 -345 -53.5c-212 0 -371.833 50.333 -479.5 151
s-161.5 250.334 -161.5 449.001c0 59.333 6.33301 123.666 19 192.999s30.667 130 54 182l8 18l18 -7l154 -63l17 -8l-6 -18c-35.333 -97.333 -53 -196.666 -53 -297.999c0 -130 35.167 -227 105.5 -291s178.166 -96 323.499 -96c78 0 153 10.5 225 31.5s130 48.5 174 82.5
s66 69.333 66 106c0 24 -12.167 44.5 -36.5 61.5s-60.166 25.5 -107.499 25.5h-133c-23.333 0 -39.833 5.16699 -49.5 15.5s-17.167 27.166 -22.5 50.499l-27 117c-6 24.667 5.66699 37 35 37h614v-20v-180v-20h-89zM504.999 597.001
c-22.667 20.667 -39.0029 43.6689 -49.0029 69.002s-15 56 -15 92c0 63.333 20.333 114.666 61 153.999s89 59 145 59c10 0 19.833 -0.666992 29.5 -2s19.167 -3 28.5 -5s18.5 -4.83301 27.5 -8.5s18 -7.66699 27 -12s17.833 -9.16602 26.5 -14.499l2 -1v-3l1 -119v-9l-8 5
c-40 24 -80 36 -120 36c-26.667 0 -49.167 -7.66699 -67.5 -23s-27.5 -38.666 -27.5 -69.999c0 -10.667 1.66699 -20.334 5 -29.001s8.33301 -16.834 15 -24.501s15.334 -15 26.001 -22s23.667 -13.167 39 -18.5c2.66699 -0.666992 4.83398 -1.33398 6.50098 -2.00098
s3.5 -1.16699 5.5 -1.5s4 -0.5 6 -0.5h3c0.666992 0 2 0.333008 4 1l71 14.5c30.667 6.33301 51.334 10.5 62.001 12.5l6 1v-6v-116v-4l-4 -1l-397 -96l-6 -1v6v113v4l4 1z" />
    <glyph glyph-name="uniFE8B" unicode="&#x626;" horiz-adv-x="592" arabic-form="initial" 
d="M465 765c32.667 -109.333 49.001 -218.334 49.001 -327.001c0 -139.333 -35.333 -247.166 -106 -323.499s-173.667 -114.5 -309 -114.5h-119v20v180v20h119c73.333 0 125.666 16.167 156.999 48.5s47 87.833 47 166.5c0 86 -12 179 -36 279l-5 20l19 4l160 40l19 5z
M173.001 993.999c-22.667 20.667 -39.0029 43.6689 -49.0029 69.002s-15 56 -15 92c0 63.333 20.333 114.666 61 153.999s89 59 145 59c10 0 19.833 -0.666992 29.5 -2s19.167 -3 28.5 -5s18.5 -4.83301 27.5 -8.5s18 -7.66699 27 -12s17.833 -9.16602 26.5 -14.499l2 -1v-3
l1 -119v-9l-8 5c-40 24 -80 36 -120 36c-26.667 0 -49.167 -7.66699 -67.5 -23s-27.5 -38.666 -27.5 -69.999c0 -10.667 1.66699 -20.334 5 -29.001s8.33301 -16.834 15 -24.501s15.334 -15 26.001 -22s23.667 -13.167 39 -18.5
c2.66699 -0.666992 4.83398 -1.33398 6.50098 -2.00098s3.5 -1.16699 5.5 -1.5s4 -0.5 6 -0.5h3c0.666992 0 2 0.333008 4 1l71 14.5c30.667 6.33301 51.334 10.5 62.001 12.5l6 1v-6v-116v-4l-4 -1l-397 -96l-6 -1v6v113v4l4 1z" />
    <glyph glyph-name="uniFE8C" unicode="&#x626;" horiz-adv-x="687" arabic-form="medial" 
d="M683 0c-125.333 0 -216.333 42.667 -273 128c-74 -85.333 -177 -128 -309 -128h-121v20v180v20h121c74.667 0 127 15 157 45s45 80.667 45 152c0 18.667 -2.66699 82 -8 190l-1 19l19 2l164 20l21 2l1 -21l16 -246c4 -56 19.5 -97.167 46.5 -123.5
s68.167 -39.5 123.5 -39.5h22v-20v-180v-20h-24zM200 888c-22.667 20.667 -39.0029 43.6689 -49.0029 69.002s-15 56 -15 92c0 63.333 20.333 114.666 61 153.999s89 59 145 59c10 0 19.833 -0.666992 29.5 -2s19.167 -3 28.5 -5s18.5 -4.83301 27.5 -8.5
s18 -7.66699 27 -12s17.833 -9.16602 26.5 -14.499l2 -1v-3l1 -119v-9l-8 5c-40 24 -80 36 -120 36c-26.667 0 -49.167 -7.66699 -67.5 -23s-27.5 -38.666 -27.5 -69.999c0 -10.667 1.66699 -20.334 5 -29.001s8.33301 -16.834 15 -24.501s15.334 -15 26.001 -22
s23.667 -13.167 39 -18.5c2.66699 -0.666992 4.83398 -1.33398 6.50098 -2.00098s3.5 -1.16699 5.5 -1.5s4 -0.5 6 -0.5h3c0.666992 0 2 0.333008 4 1l71 14.5c30.667 6.33301 51.334 10.5 62.001 12.5l6 1v-6v-116v-4l-4 -1l-397 -96l-6 -1v6v113v4l4 1z" />
    <glyph glyph-name="uniFE8D" unicode="&#x627;" horiz-adv-x="465" arabic-form="isolated" 
d="M148 1366h169h20v-20v-1325v-20h-20h-169h-20v20v1325v20h20z" />
    <glyph glyph-name="uniFE8E" unicode="&#x627;" horiz-adv-x="527" arabic-form="final" 
d="M522 0c-130 0 -228.167 34.334 -294.5 103.001s-99.5 176 -99.5 322v921v20h20h169h20v-20v-922c0 -76.667 14.667 -129.834 44 -159.501s76.333 -44.5 141 -44.5h25v-20v-180v-20h-25z" />
    <glyph glyph-name="uniFE8F" unicode="&#x628;" horiz-adv-x="1777" arabic-form="isolated" 
d="M774 -296l145 145l7 7l7 -7l147 -146l7 -7l-7 -7l-147 -147l-6 -6l-7 7l-146 147l-7 7zM975 0l-134.998 0.00292969c-244.667 0 -432.834 42.333 -564.501 127s-197.5 210.334 -197.5 377.001c0 88 18.667 175.333 56 262l7 17l18 -6l153 -57l19 -7l-7 -19
c-20.667 -56 -31 -111 -31 -165c0.666992 -102.667 45 -179.834 133 -231.501s222.667 -77.5 404 -77.5h138c51.333 0 90.833 0.333008 118.5 1s63 2.5 106 5.5s76 7.5 99 13.5s48.833 15 77.5 27s50.167 26.667 64.5 44s26.666 39.166 36.999 65.499s15.5 56.833 15.5 91.5
c0 55.333 -12 135.666 -36 240.999l-4 19l19 4l160 40l18 5l6 -18c33.333 -100 50 -192 50 -276c0 -59.333 -6.33301 -112.5 -19 -159.5s-30 -87.333 -52 -121s-50.5 -62.667 -85.5 -87s-71.667 -43.833 -110 -58.5s-83.5 -26.334 -135.5 -35.001
s-102.833 -14.5 -152.5 -17.5s-106.167 -4.5 -169.5 -4.5z" />
    <glyph glyph-name="uniFE90" unicode="&#x628;" horiz-adv-x="1878" arabic-form="final" 
d="M750 -296l145 145l7 7l7 -7l147 -146l7 -7l-7 -7l-147 -147l-6 -6l-7 7l-146 147l-7 7zM985 0l-144.998 -0.000976562c-244.667 0 -432.834 42.333 -564.501 127s-197.5 210.334 -197.5 377.001c0 88.667 18.667 176 56 262l7 17l18 -6l153 -57l19 -7l-7 -19
c-20.667 -54.667 -31 -109.667 -31 -165c0.666992 -206 179.667 -309 537 -309h150c256 0 417.667 40.667 485 122c20 24 30 60.667 30 110c0 10 -0.166992 20.167 -0.5 30.5s-0.833008 21.333 -1.5 33s-1.16699 21.334 -1.5 29.001s-1 18.667 -2 33
s-1.5 24.166 -1.5 29.499l-1 19l19 2l161 20l21 2l1 -21l16 -248c4 -56 19 -96.833 45 -122.5s67 -38.5 123 -38.5h25v-20v-180v-20h-25c-136.667 0 -237.334 55 -302.001 165c-120 -110 -315.333 -165 -586 -165z" />
    <glyph glyph-name="uniFE91" unicode="&#x628;" horiz-adv-x="592" arabic-form="initial" 
d="M52 -296l145 145l7 7l7 -7l147 -146l7 -7l-7 -7l-147 -147l-6 -6l-7 7l-146 147l-7 7zM465 765c32.667 -109.333 49.001 -218.334 49.001 -327.001c0 -139.333 -35.333 -247.166 -106 -323.499s-173.667 -114.5 -309 -114.5h-119v20v180v20h119
c73.333 0 125.666 16.167 156.999 48.5s47 87.833 47 166.5c0 86 -12 179 -36 279l-5 20l19 4l160 40l19 5z" />
    <glyph glyph-name="uniFE92" unicode="&#x628;" horiz-adv-x="687" arabic-form="medial" 
d="M52 -296l145 145l7 7l7 -7l147 -146l7 -7l-7 -7l-147 -147l-6 -6l-7 7l-146 147l-7 7zM683 0c-125.333 0 -216.333 42.667 -273 128c-74 -85.333 -177 -128 -309 -128h-121v20v180v20h121c74.667 0 127 15 157 45s45 80.667 45 152c0 18.667 -2.66699 82 -8 190l-1 19
l19 2l164 20l21 2l1 -21l16 -246c4 -56 19.5 -97.167 46.5 -123.5s68.167 -39.5 123.5 -39.5h22v-20v-180v-20h-24z" />
    <glyph glyph-name="uniFE93" unicode="&#x629;" horiz-adv-x="922" arabic-form="isolated" 
d="M448 629c-57.333 -52 -98.833 -98.833 -124.5 -140.5s-38.5 -81.5 -38.5 -119.5c0 -51.333 13.333 -89 40 -113s71.667 -36 135 -36c64 0 109.5 12 136.5 36s40.5 62 40.5 114c0 68.667 -63 155 -189 259zM381 968c104 -76 190 -148.333 258 -217
s119.167 -135.167 153.5 -199.5s51.5 -126.833 51.5 -187.5c0 -104.667 -34.667 -190.5 -104 -257.5s-162.333 -101.167 -279 -102.5c-120.667 0 -214.667 31.333 -282 94s-101 151.334 -101 266.001c0 137.333 70 276.666 210 417.999l-29 25l-14 12l11 15l97 130l12 16z
M453 1275l140 140l7 7l7 -7l141 -140l7 -7l-7 -7l-141 -142l-7 -7l-7 7l-140 142l-7 7zM121 1275l140 140l7 7l7 -7l141 -140l7 -7l-7 -7l-141 -142l-7 -7l-7 7l-140 142l-7 7z" />
    <glyph glyph-name="uniFE94" unicode="&#x629;" horiz-adv-x="1038" arabic-form="final" 
d="M598 1268l140 140l7 7l7 -7l141 -140l7 -7l-7 -7l-141 -142l-7 -7l-7 7l-140 142l-7 7zM266 1268l140 140l7 7l7 -7l141 -140l7 -7l-7 -7l-141 -142l-7 -7l-7 7l-140 142l-7 7zM78 432c0 203.333 168.333 358.666 505 465.999l-5 28l-3 19l19 4l159 33l21 4l3 -21
l82 -589c14 -104 70 -156 168 -156h31v-20v-180v-20h-35c-89.333 0 -161.833 19 -217.5 57s-94.167 93 -115.5 165c-78.667 -60 -165 -90 -259 -90c-101.333 0 -185.5 25.333 -252.5 76s-100.5 125.334 -100.5 224.001zM615 696
c-110.667 -42.667 -192.167 -84.668 -244.5 -126.001s-78.5 -83.333 -78.5 -126c0 -69.333 44.333 -104 133 -104c56 0 106 15.333 150 46s66 69.334 66 116.001c0 19.333 -1.33301 37.333 -4 54z" />
    <glyph glyph-name="uniFE95" unicode="&#x62a;" horiz-adv-x="1777" arabic-form="isolated" 
d="M975 0l-134.998 0.00292969c-244.667 0 -432.834 42.333 -564.501 127s-197.5 210.334 -197.5 377.001c0 88 18.667 175.333 56 262l7 17l18 -6l153 -57l19 -7l-7 -19c-20.667 -56 -31 -111 -31 -165c0.666992 -102.667 45 -179.834 133 -231.501
s222.667 -77.5 404 -77.5h138c51.333 0 90.833 0.333008 118.5 1s63 2.5 106 5.5s76 7.5 99 13.5s48.833 15 77.5 27s50.167 26.667 64.5 44s26.666 39.166 36.999 65.499s15.5 56.833 15.5 91.5c0 55.333 -12 135.666 -36 240.999l-4 19l19 4l160 40l18 5l6 -18
c33.333 -100 50 -192 50 -276c0 -59.333 -6.33301 -112.5 -19 -159.5s-30 -87.333 -52 -121s-50.5 -62.667 -85.5 -87s-71.667 -43.833 -110 -58.5s-83.5 -26.334 -135.5 -35.001s-102.833 -14.5 -152.5 -17.5s-106.167 -4.5 -169.5 -4.5zM914.002 887.003l140 140l7 7l7 -7
l141 -140l7 -7l-7 -7l-141 -142l-7 -7l-7 7l-140 142l-7 7zM582.002 887.003l140 140l7 7l7 -7l141 -140l7 -7l-7 -7l-141 -142l-7 -7l-7 7l-140 142l-7 7z" />
    <glyph glyph-name="uniFE96" unicode="&#x62a;" horiz-adv-x="1878" arabic-form="final" 
d="M929 886l140 140l7 7l7 -7l141 -140l7 -7l-7 -7l-141 -142l-7 -7l-7 7l-140 142l-7 7zM597 886l140 140l7 7l7 -7l141 -140l7 -7l-7 -7l-141 -142l-7 -7l-7 7l-140 142l-7 7zM985 0l-144.998 -0.000976562c-244.667 0 -432.834 42.333 -564.501 127
s-197.5 210.334 -197.5 377.001c0 88.667 18.667 176 56 262l7 17l18 -6l153 -57l19 -7l-7 -19c-20.667 -54.667 -31 -109.667 -31 -165c0.666992 -206 179.667 -309 537 -309h150c256 0 417.667 40.667 485 122c20 24 30 60.667 30 110c0 10 -0.166992 20.167 -0.5 30.5
s-0.833008 21.333 -1.5 33s-1.16699 21.334 -1.5 29.001s-1 18.667 -2 33s-1.5 24.166 -1.5 29.499l-1 19l19 2l161 20l21 2l1 -21l16 -248c4 -56 19 -96.833 45 -122.5s67 -38.5 123 -38.5h25v-20v-180v-20h-25c-136.667 0 -237.334 55 -302.001 165
c-120 -110 -315.333 -165 -586 -165z" />
    <glyph glyph-name="uniFE97" unicode="&#x62a;" horiz-adv-x="695" arabic-form="initial" 
d="M328 1087l140 140l7 7l7 -7l141 -140l7 -7l-7 -7l-141 -142l-7 -7l-7 7l-140 142l-7 7zM-4 1087l140 140l7 7l7 -7l141 -140l7 -7l-7 -7l-141 -142l-7 -7l-7 7l-140 142l-7 7zM545 765c32.667 -109.333 49 -218.336 49 -327.003c0 -151.333 -38 -262.166 -114 -332.499
s-193 -105.5 -351 -105.5h-149v20v180v20h149c50.667 0 91 2.5 121 7.5s55.667 15.333 77 31s36 37.334 44 65.001s12 64.834 12 111.501c0 86 -12 179 -36 279l-5 20l19 4l160 40l19 5z" />
    <glyph glyph-name="uniFE98" unicode="&#x62a;" horiz-adv-x="767" arabic-form="medial" 
d="M330 1004l140 140l7 7l7 -7l141 -140l7 -7l-7 -7l-141 -142l-7 -7l-7 7l-140 142l-7 7zM-2 1004l140 140l7 7l7 -7l141 -140l7 -7l-7 -7l-141 -142l-7 -7l-7 7l-140 142l-7 7zM763 0c-125.333 0 -216 42.667 -272 128c-76 -85.333 -196.667 -128 -362 -128h-149v20v180
v20h151c97.333 0 163.5 12.833 198.5 38.5s52.833 75.167 53.5 148.5c0 54 -2.66699 121 -8 201l-1 19l19 2l164 19l21 2l1 -21l16 -247c4 -56 19.5 -97 46.5 -123s68.167 -39 123.5 -39h22v-20v-180v-20h-24z" />
    <glyph glyph-name="uniFE99" unicode="&#x62b;" horiz-adv-x="1777" arabic-form="isolated" 
d="M975 0l-134.998 0.00292969c-244.667 0 -432.834 42.333 -564.501 127s-197.5 210.334 -197.5 377.001c0 88 18.667 175.333 56 262l7 17l18 -6l153 -57l19 -7l-7 -19c-20.667 -56 -31 -111 -31 -165c0.666992 -102.667 45 -179.834 133 -231.501
s222.667 -77.5 404 -77.5h138c51.333 0 90.833 0.333008 118.5 1s63 2.5 106 5.5s76 7.5 99 13.5s48.833 15 77.5 27s50.167 26.667 64.5 44s26.666 39.166 36.999 65.499s15.5 56.833 15.5 91.5c0 55.333 -12 135.666 -36 240.999l-4 19l19 4l160 40l18 5l6 -18
c33.333 -100 50 -192 50 -276c0 -59.333 -6.33301 -112.5 -19 -159.5s-30 -87.333 -52 -121s-50.5 -62.667 -85.5 -87s-71.667 -43.833 -110 -58.5s-83.5 -26.334 -135.5 -35.001s-102.833 -14.5 -152.5 -17.5s-106.167 -4.5 -169.5 -4.5zM755.002 1074l132 132l7 7l7 -7
l133 -132l7 -7l-7 -7l-133 -133l-7 -7l-7 7l-132 133l-7 7zM927.002 812.003l132 132l7 7l7 -7l133 -132l7 -7l-7 -7l-133 -133l-7 -7l-7 7l-132 133l-7 7zM587.002 812.003l132 132l7 7l7 -7l133 -132l7 -7l-7 -7l-133 -133l-7 -7l-7 7l-132 133l-7 7z" />
    <glyph glyph-name="uniFE9A" unicode="&#x62b;" horiz-adv-x="1878" arabic-form="final" 
d="M766 1075l132 132l7 7l7 -7l133 -132l7 -7l-7 -7l-133 -133l-7 -7l-7 7l-132 133l-7 7zM938 813l132 132l7 7l7 -7l133 -132l7 -7l-7 -7l-133 -133l-7 -7l-7 7l-132 133l-7 7zM598 813l132 132l7 7l7 -7l133 -132l7 -7l-7 -7l-133 -133l-7 -7l-7 7l-132 133l-7 7zM985 0
l-144.998 -0.000976562c-244.667 0 -432.834 42.333 -564.501 127s-197.5 210.334 -197.5 377.001c0 88.667 18.667 176 56 262l7 17l18 -6l153 -57l19 -7l-7 -19c-20.667 -54.667 -31 -109.667 -31 -165c0.666992 -206 179.667 -309 537 -309h150
c256 0 417.667 40.667 485 122c20 24 30 60.667 30 110c0 10 -0.166992 20.167 -0.5 30.5s-0.833008 21.333 -1.5 33s-1.16699 21.334 -1.5 29.001s-1 18.667 -2 33s-1.5 24.166 -1.5 29.499l-1 19l19 2l161 20l21 2l1 -21l16 -248c4 -56 19 -96.833 45 -122.5
s67 -38.5 123 -38.5h25v-20v-180v-20h-25c-136.667 0 -237.334 55 -302.001 165c-120 -110 -315.333 -165 -586 -165z" />
    <glyph glyph-name="uniFE9B" unicode="&#x62b;" horiz-adv-x="678" arabic-form="initial" 
d="M160 1319l132 132l7 7l7 -7l133 -132l7 -7l-7 -7l-133 -133l-7 -7l-7 7l-132 133l-7 7zM332 1057l132 132l7 7l7 -7l133 -132l7 -7l-7 -7l-133 -133l-7 -7l-7 7l-132 133l-7 7zM-8 1057l132 132l7 7l7 -7l133 -132l7 -7l-7 -7l-133 -133l-7 -7l-7 7l-132 133l-7 7z
M545 765c32.667 -109.333 49 -218.336 49 -327.003c0 -151.333 -38 -262.166 -114 -332.499s-193 -105.5 -351 -105.5h-149v20v180v20h149c50.667 0 91 2.5 121 7.5s55.667 15.333 77 31s36 37.334 44 65.001s12 64.834 12 111.501c0 86 -12 179 -36 279l-5 20l19 4l160 40
l19 5z" />
    <glyph glyph-name="uniFE9C" unicode="&#x62b;" horiz-adv-x="767" arabic-form="medial" 
d="M161 1221l132 132l7 7l7 -7l133 -132l7 -7l-7 -7l-133 -133l-7 -7l-7 7l-132 133l-7 7zM333 959l132 132l7 7l7 -7l133 -132l7 -7l-7 -7l-133 -133l-7 -7l-7 7l-132 133l-7 7zM-7 959l132 132l7 7l7 -7l133 -132l7 -7l-7 -7l-133 -133l-7 -7l-7 7l-132 133l-7 7zM763 0
c-125.333 0 -216 42.667 -272 128c-76 -85.333 -196.667 -128 -362 -128h-149v20v180v20h151c97.333 0 163.5 12.833 198.5 38.5s52.833 75.167 53.5 148.5c0 54 -2.66699 121 -8 201l-1 19l19 2l164 19l21 2l1 -21l16 -247c4 -56 19.5 -97 46.5 -123s68.167 -39 123.5 -39
h22v-20v-180v-20h-24z" />
    <glyph glyph-name="uniFE9D" unicode="&#x62c;" horiz-adv-x="1347" arabic-form="isolated" 
d="M771 575l-33.999 13.001c-78 31.333 -136.333 53.833 -175 67.5s-67 20.5 -85 20.5c-16.667 0 -33.667 -2.66699 -51 -8s-33.833 -12.833 -49.5 -22.5s-30.834 -20.834 -45.501 -33.501s-27.667 -26.667 -39 -42l-27 -35l-10 -13l-15 7l-151 75l-19 10l11 18l15 26
c44.667 73.333 100 131 166 173s138 63 216 63c42 0 87.833 -8.33301 137.5 -25s107.834 -41 174.501 -73c103.333 -50.667 188.5 -87.334 255.5 -110.001s128.167 -35.334 183.5 -38.001l21 -1l-2 -21l-13 -170l-1 -17l-17 -1c-176 -14 -334.833 -46.833 -476.5 -98.5
s-253 -117.334 -334 -197.001s-121.5 -165.5 -121.5 -257.5c0 -117.333 42 -205.166 126 -263.499s213 -87.5 387 -87.5c138.667 0 274 31 406 93l23 11l6 -25l35 -170l3 -15l-14 -7c-136.667 -65.333 -294.334 -98 -473.001 -98c-104 0 -198.5 11 -283.5 33
s-159.167 54.833 -222.5 98.5s-112.333 100.667 -147 171s-52 151.5 -52 243.5c0 162.667 60 306.334 180 431.001s290.667 216.334 512 275.001zM651.001 -50.999l145 145l7 7l7 -7l147 -146l7 -7l-7 -7l-147 -147l-6 -6l-7 7l-146 147l-7 7z" />
    <glyph glyph-name="uniFE9E" unicode="&#x62c;" horiz-adv-x="1378" arabic-form="final" 
d="M556 -92l145 145l7 7l7 -7l147 -146l7 -7l-7 -7l-147 -147l-6 -6l-7 7l-146 147l-7 7zM1257 -579c-136.667 -65.333 -294.331 -97.998 -472.998 -97.998c-104 0 -198.5 11 -283.5 33s-159.167 54.833 -222.5 98.5s-112.333 100.667 -147 171s-52 151.5 -52 243.5
c0 162 60.167 305.5 180.5 430.5s290.833 216.833 511.5 275.5l-34 13c-78 31.333 -136.333 53.833 -175 67.5s-67 20.5 -85 20.5c-16.667 0 -33.667 -2.66699 -51 -8s-33.833 -12.833 -49.5 -22.5s-30.834 -20.834 -45.501 -33.501s-27.667 -26.667 -39 -42l-27 -35
l-10 -13l-15 7l-151 75l-19 10l11 18l15 26c44.667 73.333 100 131 166 173s138 63 216 63c42 0 87.833 -8.33301 137.5 -25s107.834 -41 174.501 -73c103.333 -50.667 188.5 -87.334 255.5 -110.001s128.167 -35.334 183.5 -38.001l20 -1l-1 -20
c-1.33301 -19.333 -3.5 -47.833 -6.5 -85.5s-5.16699 -65.834 -6.5 -84.501l-1 -18l-18 -1c-48 -3.33301 -106.667 -9.66602 -176 -18.999c2 -40.667 7.83301 -73.834 17.5 -99.501s25.334 -45.834 47.001 -60.501s47.667 -24.834 78 -30.501s69.5 -8.5 117.5 -8.5h98v-20
v-180v-20h-95c-75.333 0 -139.833 6.66699 -193.5 20s-99.834 34.833 -138.501 64.5s-67.834 68.834 -87.501 117.501s-30.834 108.334 -33.501 179.001c-184 -54.667 -324.167 -126.167 -420.5 -214.5s-144.5 -182.166 -144.5 -281.499
c0 -117.333 42 -205.166 126 -263.499s213 -87.5 387 -87.5c138.667 0 274 31 406 93l23 11l6 -25l35 -170l3 -15z" />
    <glyph glyph-name="uniFE9F" unicode="&#x62c;" horiz-adv-x="1334" arabic-form="initial" 
d="M482 -296l145 145l7 7l7 -7l147 -146l7 -7l-7 -7l-147 -147l-6 -6l-7 7l-146 147l-7 7zM-20 20l-0.00292969 180v20h163c49.333 0 98.166 3.83301 146.499 11.5s92.5 17 132.5 28s86.333 27.667 139 50s99 43.333 139 63l161 81.5l39 20c-60 26 -108 46 -144 60
c-143.333 58.667 -230.333 88 -261 88c-32.667 0 -65.667 -9.83301 -99 -29.5s-62 -45.167 -86 -76.5l-27 -35l-10 -13l-15 7l-151 75l-19 10l11 18l15 26c44.667 73.333 100 131 166 173s138 63 216 63c42 0 87.833 -8.33301 137.5 -25s107.834 -41 174.501 -73
c103.333 -50.667 188.5 -87.334 255.5 -110.001s128.167 -35.334 183.5 -38.001l19 -1v-19l-2 -170v-18l-18 -2c-25.333 -2.66699 -54.166 -9.66699 -86.499 -21s-71.166 -27.666 -116.499 -48.999s-103 -50.666 -173 -87.999
c-70.667 -37.333 -131.167 -67.666 -181.5 -90.999s-106.666 -46.333 -168.999 -69s-124.5 -39.334 -186.5 -50.001s-126.333 -16 -193 -16h-160v20z" />
    <glyph glyph-name="uniFEA0" unicode="&#x62c;" horiz-adv-x="1351" arabic-form="medial" 
d="M482 -296l145 145l7 7l7 -7l147 -146l7 -7l-7 -7l-147 -147l-6 -6l-7 7l-146 147l-7 7zM1246 384c-59.333 -6.66699 -120.332 -24.3301 -182.999 -52.9971c2.66699 -18.667 9.16699 -34.834 19.5 -48.501s25.666 -25.167 45.999 -34.5s46 -16.333 77 -21
s68.167 -7 111.5 -7h54v-20v-180v-20h-58c-121.333 0 -216.666 19.333 -285.999 58s-112.333 100 -129 184c-68.667 -36.667 -130.834 -68 -186.501 -94s-116.167 -51 -181.5 -75s-130.5 -42.167 -195.5 -54.5s-129.833 -18.5 -194.5 -18.5h-160v20v180v20h163
c49.333 0 98.166 3.83301 146.499 11.5s92.5 17 132.5 28s86.333 27.667 139 50s99 43.333 139 63l161 81.5l39 20c-60 26 -108 46 -144 60c-143.333 58.667 -230.333 88 -261 88c-32.667 0 -65.667 -9.83301 -99 -29.5s-62 -45.167 -86 -76.5l-27 -35l-10 -13l-15 7
l-151 75l-19 10l11 18l15 26c44.667 73.333 100 131 166 173s138 63 216 63c42 0 87.833 -8.33301 137.5 -25s107.834 -41 174.501 -73c103.333 -50.667 188.5 -87.334 255.5 -110.001s128.167 -35.334 183.5 -38.001l19 -1v-19l-2 -170v-18z" />
    <glyph glyph-name="uniFEA1" unicode="&#x62d;" horiz-adv-x="1347" arabic-form="isolated" 
d="M771 575l-33.999 13.001c-78 31.333 -136.333 53.833 -175 67.5s-67 20.5 -85 20.5c-16.667 0 -33.667 -2.66699 -51 -8s-33.833 -12.833 -49.5 -22.5s-30.834 -20.834 -45.501 -33.501s-27.667 -26.667 -39 -42l-27 -35l-10 -13l-15 7l-151 75l-19 10l11 18l15 26
c44.667 73.333 100 131 166 173s138 63 216 63c42 0 87.833 -8.33301 137.5 -25s107.834 -41 174.501 -73c103.333 -50.667 188.5 -87.334 255.5 -110.001s128.167 -35.334 183.5 -38.001l21 -1l-2 -21l-13 -170l-1 -17l-17 -1c-176 -14 -334.833 -46.833 -476.5 -98.5
s-253 -117.334 -334 -197.001s-121.5 -165.5 -121.5 -257.5c0 -117.333 42 -205.166 126 -263.499s213 -87.5 387 -87.5c138.667 0 274 31 406 93l23 11l6 -25l35 -170l3 -15l-14 -7c-136.667 -65.333 -294.334 -98 -473.001 -98c-104 0 -198.5 11 -283.5 33
s-159.167 54.833 -222.5 98.5s-112.333 100.667 -147 171s-52 151.5 -52 243.5c0 162.667 60 306.334 180 431.001s290.667 216.334 512 275.001z" />
    <glyph glyph-name="uniFEA2" unicode="&#x62d;" horiz-adv-x="1378" arabic-form="final" 
d="M1257 -579c-136.667 -65.333 -294.331 -97.998 -472.998 -97.998c-104 0 -198.5 11 -283.5 33s-159.167 54.833 -222.5 98.5s-112.333 100.667 -147 171s-52 151.5 -52 243.5c0 162 60.167 305.5 180.5 430.5s290.833 216.833 511.5 275.5l-34 13
c-78 31.333 -136.333 53.833 -175 67.5s-67 20.5 -85 20.5c-16.667 0 -33.667 -2.66699 -51 -8s-33.833 -12.833 -49.5 -22.5s-30.834 -20.834 -45.501 -33.501s-27.667 -26.667 -39 -42l-27 -35l-10 -13l-15 7l-151 75l-19 10l11 18l15 26c44.667 73.333 100 131 166 173
s138 63 216 63c42 0 87.833 -8.33301 137.5 -25s107.834 -41 174.501 -73c103.333 -50.667 188.5 -87.334 255.5 -110.001s128.167 -35.334 183.5 -38.001l20 -1l-1 -20c-1.33301 -19.333 -3.5 -47.833 -6.5 -85.5s-5.16699 -65.834 -6.5 -84.501l-1 -18l-18 -1
c-48 -3.33301 -106.667 -9.66602 -176 -18.999c2 -40.667 7.83301 -73.834 17.5 -99.501s25.334 -45.834 47.001 -60.501s47.667 -24.834 78 -30.501s69.5 -8.5 117.5 -8.5h98v-20v-180v-20h-95c-75.333 0 -139.833 6.66699 -193.5 20s-99.834 34.833 -138.501 64.5
s-67.834 68.834 -87.501 117.501s-30.834 108.334 -33.501 179.001c-184 -54.667 -324.167 -126.167 -420.5 -214.5s-144.5 -182.166 -144.5 -281.499c0 -117.333 42 -205.166 126 -263.499s213 -87.5 387 -87.5c138.667 0 274 31 406 93l23 11l6 -25l35 -170l3 -15z" />
    <glyph glyph-name="uniFEA3" unicode="&#x62d;" horiz-adv-x="1334" arabic-form="initial" 
d="M-20 20l-0.00292969 180v20h163c49.333 0 98.166 3.83301 146.499 11.5s92.5 17 132.5 28s86.333 27.667 139 50s99 43.333 139 63l161 81.5l39 20c-60 26 -108 46 -144 60c-143.333 58.667 -230.333 88 -261 88c-32.667 0 -65.667 -9.83301 -99 -29.5
s-62 -45.167 -86 -76.5l-27 -35l-10 -13l-15 7l-151 75l-19 10l11 18l15 26c44.667 73.333 100 131 166 173s138 63 216 63c42 0 87.833 -8.33301 137.5 -25s107.834 -41 174.501 -73c103.333 -50.667 188.5 -87.334 255.5 -110.001s128.167 -35.334 183.5 -38.001l19 -1
v-19l-2 -170v-18l-18 -2c-25.333 -2.66699 -54.166 -9.66699 -86.499 -21s-71.166 -27.666 -116.499 -48.999s-103 -50.666 -173 -87.999c-70.667 -37.333 -131.167 -67.666 -181.5 -90.999s-106.666 -46.333 -168.999 -69s-124.5 -39.334 -186.5 -50.001
s-126.333 -16 -193 -16h-160v20z" />
    <glyph glyph-name="uniFEA4" unicode="&#x62d;" horiz-adv-x="1351" arabic-form="medial" 
d="M1246 384c-59.333 -6.66699 -120.332 -24.3301 -182.999 -52.9971c2.66699 -18.667 9.16699 -34.834 19.5 -48.501s25.666 -25.167 45.999 -34.5s46 -16.333 77 -21s68.167 -7 111.5 -7h54v-20v-180v-20h-58c-121.333 0 -216.666 19.333 -285.999 58
s-112.333 100 -129 184c-68.667 -36.667 -130.834 -68 -186.501 -94s-116.167 -51 -181.5 -75s-130.5 -42.167 -195.5 -54.5s-129.833 -18.5 -194.5 -18.5h-160v20v180v20h163c49.333 0 98.166 3.83301 146.499 11.5s92.5 17 132.5 28s86.333 27.667 139 50
s99 43.333 139 63l161 81.5l39 20c-60 26 -108 46 -144 60c-143.333 58.667 -230.333 88 -261 88c-32.667 0 -65.667 -9.83301 -99 -29.5s-62 -45.167 -86 -76.5l-27 -35l-10 -13l-15 7l-151 75l-19 10l11 18l15 26c44.667 73.333 100 131 166 173s138 63 216 63
c42 0 87.833 -8.33301 137.5 -25s107.834 -41 174.501 -73c103.333 -50.667 188.5 -87.334 255.5 -110.001s128.167 -35.334 183.5 -38.001l19 -1v-19l-2 -170v-18z" />
    <glyph glyph-name="uniFEA5" unicode="&#x62e;" horiz-adv-x="1347" arabic-form="isolated" 
d="M413 1231l145 145l7 7l7 -7l147 -146l7 -7l-7 -7l-147 -147l-6 -6l-7 7l-146 147l-7 7zM771 575l-33.999 13.001c-78 31.333 -136.333 53.833 -175 67.5s-67 20.5 -85 20.5c-16.667 0 -33.667 -2.66699 -51 -8s-33.833 -12.833 -49.5 -22.5
s-30.834 -20.834 -45.501 -33.501s-27.667 -26.667 -39 -42l-27 -35l-10 -13l-15 7l-151 75l-19 10l11 18l15 26c44.667 73.333 100 131 166 173s138 63 216 63c42 0 87.833 -8.33301 137.5 -25s107.834 -41 174.501 -73c103.333 -50.667 188.5 -87.334 255.5 -110.001
s128.167 -35.334 183.5 -38.001l21 -1l-2 -21l-13 -170l-1 -17l-17 -1c-176 -14 -334.833 -46.833 -476.5 -98.5s-253 -117.334 -334 -197.001s-121.5 -165.5 -121.5 -257.5c0 -117.333 42 -205.166 126 -263.499s213 -87.5 387 -87.5c138.667 0 274 31 406 93l23 11l6 -25
l35 -170l3 -15l-14 -7c-136.667 -65.333 -294.334 -98 -473.001 -98c-104 0 -198.5 11 -283.5 33s-159.167 54.833 -222.5 98.5s-112.333 100.667 -147 171s-52 151.5 -52 243.5c0 162.667 60 306.334 180 431.001s290.667 216.334 512 275.001z" />
    <glyph glyph-name="uniFEA6" unicode="&#x62e;" horiz-adv-x="1378" arabic-form="final" 
d="M413 1231l145 145l7 7l7 -7l147 -146l7 -7l-7 -7l-147 -147l-6 -6l-7 7l-146 147l-7 7zM1257 -579c-136.667 -65.333 -294.331 -97.998 -472.998 -97.998c-104 0 -198.5 11 -283.5 33s-159.167 54.833 -222.5 98.5s-112.333 100.667 -147 171s-52 151.5 -52 243.5
c0 162 60.167 305.5 180.5 430.5s290.833 216.833 511.5 275.5l-34 13c-78 31.333 -136.333 53.833 -175 67.5s-67 20.5 -85 20.5c-16.667 0 -33.667 -2.66699 -51 -8s-33.833 -12.833 -49.5 -22.5s-30.834 -20.834 -45.501 -33.501s-27.667 -26.667 -39 -42l-27 -35
l-10 -13l-15 7l-151 75l-19 10l11 18l15 26c44.667 73.333 100 131 166 173s138 63 216 63c42 0 87.833 -8.33301 137.5 -25s107.834 -41 174.501 -73c103.333 -50.667 188.5 -87.334 255.5 -110.001s128.167 -35.334 183.5 -38.001l20 -1l-1 -20
c-1.33301 -19.333 -3.5 -47.833 -6.5 -85.5s-5.16699 -65.834 -6.5 -84.501l-1 -18l-18 -1c-48 -3.33301 -106.667 -9.66602 -176 -18.999c2 -40.667 7.83301 -73.834 17.5 -99.501s25.334 -45.834 47.001 -60.501s47.667 -24.834 78 -30.501s69.5 -8.5 117.5 -8.5h98v-20
v-180v-20h-95c-75.333 0 -139.833 6.66699 -193.5 20s-99.834 34.833 -138.501 64.5s-67.834 68.834 -87.501 117.501s-30.834 108.334 -33.501 179.001c-184 -54.667 -324.167 -126.167 -420.5 -214.5s-144.5 -182.166 -144.5 -281.499
c0 -117.333 42 -205.166 126 -263.499s213 -87.5 387 -87.5c138.667 0 274 31 406 93l23 11l6 -25l35 -170l3 -15z" />
    <glyph glyph-name="uniFEA7" unicode="&#x62e;" horiz-adv-x="1334" arabic-form="initial" 
d="M422 1179l145 145l7 7l7 -7l147 -146l7 -7l-7 -7l-147 -147l-6 -6l-7 7l-146 147l-7 7zM-20 20l-0.00292969 180v20h163c49.333 0 98.166 3.83301 146.499 11.5s92.5 17 132.5 28s86.333 27.667 139 50s99 43.333 139 63l161 81.5l39 20c-60 26 -108 46 -144 60
c-143.333 58.667 -230.333 88 -261 88c-32.667 0 -65.667 -9.83301 -99 -29.5s-62 -45.167 -86 -76.5l-27 -35l-10 -13l-15 7l-151 75l-19 10l11 18l15 26c44.667 73.333 100 131 166 173s138 63 216 63c42 0 87.833 -8.33301 137.5 -25s107.834 -41 174.501 -73
c103.333 -50.667 188.5 -87.334 255.5 -110.001s128.167 -35.334 183.5 -38.001l19 -1v-19l-2 -170v-18l-18 -2c-25.333 -2.66699 -54.166 -9.66699 -86.499 -21s-71.166 -27.666 -116.499 -48.999s-103 -50.666 -173 -87.999
c-70.667 -37.333 -131.167 -67.666 -181.5 -90.999s-106.666 -46.333 -168.999 -69s-124.5 -39.334 -186.5 -50.001s-126.333 -16 -193 -16h-160v20z" />
    <glyph glyph-name="uniFEA8" unicode="&#x62e;" horiz-adv-x="1351" arabic-form="medial" 
d="M422 1179l145 145l7 7l7 -7l147 -146l7 -7l-7 -7l-147 -147l-6 -6l-7 7l-146 147l-7 7zM1246 384c-59.333 -6.66699 -120.332 -24.3301 -182.999 -52.9971c2.66699 -18.667 9.16699 -34.834 19.5 -48.501s25.666 -25.167 45.999 -34.5s46 -16.333 77 -21
s68.167 -7 111.5 -7h54v-20v-180v-20h-58c-121.333 0 -216.666 19.333 -285.999 58s-112.333 100 -129 184c-68.667 -36.667 -130.834 -68 -186.501 -94s-116.167 -51 -181.5 -75s-130.5 -42.167 -195.5 -54.5s-129.833 -18.5 -194.5 -18.5h-160v20v180v20h163
c49.333 0 98.166 3.83301 146.499 11.5s92.5 17 132.5 28s86.333 27.667 139 50s99 43.333 139 63l161 81.5l39 20c-60 26 -108 46 -144 60c-143.333 58.667 -230.333 88 -261 88c-32.667 0 -65.667 -9.83301 -99 -29.5s-62 -45.167 -86 -76.5l-27 -35l-10 -13l-15 7
l-151 75l-19 10l11 18l15 26c44.667 73.333 100 131 166 173s138 63 216 63c42 0 87.833 -8.33301 137.5 -25s107.834 -41 174.501 -73c103.333 -50.667 188.5 -87.334 255.5 -110.001s128.167 -35.334 183.5 -38.001l19 -1v-19l-2 -170v-18z" />
    <glyph glyph-name="uniFEA9" unicode="&#x62f;" horiz-adv-x="963" arabic-form="isolated" 
d="M102 247c84 -17.333 155.668 -26.001 215.001 -26.001c234.667 0 352 54.333 352 163c0 57.333 -33.833 122.833 -101.5 196.5s-168.834 152.834 -303.501 237.501l-17 11l11 17l98 148l11 16l16 -10c334.667 -200 502 -404.333 502 -613
c0 -128 -47 -224.167 -141 -288.5s-232 -96.5 -414 -96.5c-81.333 0 -160 8 -236 24l-16 4v16v181v24z" />
    <glyph glyph-name="uniFEAA" unicode="&#x62f;" horiz-adv-x="1055" arabic-form="final" 
d="M103 249c75.333 -18.667 143.332 -28 203.999 -28c218 0 327 48.667 327 146c0 28 -30 112 -90 252l-120 282l-7 18l17 8l162 74l19 9l8 -19l208 -532c18.667 -48.667 36.667 -89 54 -121s34.333 -56.5 51 -73.5s32.5 -28.667 47.5 -35s31.5 -9.5 49.5 -9.5h42v-20v-180
v-20h-42c-109.333 0 -197.666 50 -264.999 150c-95.333 -99.333 -244 -149 -446 -149c-82.667 0 -159 8.33301 -229 25l-15 4v16v183v26z" />
    <glyph glyph-name="uniFEAB" unicode="&#x630;" horiz-adv-x="963" arabic-form="isolated" 
d="M195 1327l145 145l7 7l7 -7l147 -146l7 -7l-7 -7l-147 -147l-6 -6l-7 7l-146 147l-7 7zM102 247c84 -17.333 155.668 -26.001 215.001 -26.001c234.667 0 352 54.333 352 163c0 57.333 -33.833 122.833 -101.5 196.5s-168.834 152.834 -303.501 237.501l-17 11l11 17
l98 148l11 16l16 -10c334.667 -200 502 -404.333 502 -613c0 -128 -47 -224.167 -141 -288.5s-232 -96.5 -414 -96.5c-81.333 0 -160 8 -236 24l-16 4v16v181v24z" />
    <glyph glyph-name="uniFEAC" unicode="&#x630;" horiz-adv-x="1055" arabic-form="final" 
d="M344 1321l145 145l7 7l7 -7l147 -146l7 -7l-7 -7l-147 -147l-6 -6l-7 7l-146 147l-7 7zM103 249c75.333 -18.667 143.332 -28 203.999 -28c218 0 327 48.667 327 146c0 28 -30 112 -90 252l-120 282l-7 18l17 8l162 74l19 9l8 -19l208 -532
c18.667 -48.667 36.667 -89 54 -121s34.333 -56.5 51 -73.5s32.5 -28.667 47.5 -35s31.5 -9.5 49.5 -9.5h42v-20v-180v-20h-42c-109.333 0 -197.666 50 -264.999 150c-95.333 -99.333 -244 -149 -446 -149c-82.667 0 -159 8.33301 -229 25l-15 4v16v183v26z" />
    <glyph glyph-name="uniFEAD" unicode="&#x631;" horiz-adv-x="780" arabic-form="isolated" 
d="M619 554c55.333 -138 83 -270.999 83 -398.999c0 -186 -54.5 -336.167 -163.5 -450.5s-270.5 -191.833 -484.5 -232.5l-17 -3l-6 16l-60 154l-8 22l23 5c170.667 32 298 88.167 382 168.5s126.333 185.5 127 315.5c0 45.333 -6.5 97.666 -19.5 156.999
s-31.5 117.333 -55.5 174l-9 20l20 7l162 58l18 6z" />
    <glyph glyph-name="uniFEAE" unicode="&#x631;" horiz-adv-x="860" arabic-form="final" 
d="M495 150c0 45.333 -6.50098 97.499 -19.501 156.499s-31.833 117.167 -56.5 174.5l-8 19l20 8l162 58l19 7l7 -19l61 -193c16 -49.333 36.5 -85.166 61.5 -107.499s58.167 -33.5 99.5 -33.5h38v-20v-180v-20h-27c-73.333 -0 -126.333 11.333 -159 34
c-19.333 -148.667 -83.166 -270.5 -191.499 -365.5s-257.5 -160.167 -447.5 -195.5l-16 -3l-6 15l-61 154l-9 23l24 4c114 22 208.667 54.5 284 97.5s131.5 96.5 168.5 160.5s55.833 139.333 56.5 226z" />
    <glyph glyph-name="uniFEAF" unicode="&#x632;" horiz-adv-x="780" arabic-form="isolated" 
d="M307 939l145 145l7 7l7 -7l147 -146l7 -7l-7 -7l-147 -147l-6 -6l-7 7l-146 147l-7 7zM619 554c55.333 -138 83 -270.999 83 -398.999c0 -186 -54.5 -336.167 -163.5 -450.5s-270.5 -191.833 -484.5 -232.5l-17 -3l-6 16l-60 154l-8 22l23 5
c170.667 32 298 88.167 382 168.5s126.333 185.5 127 315.5c0 45.333 -6.5 97.666 -19.5 156.999s-31.5 117.333 -55.5 174l-9 20l20 7l162 58l18 6z" />
    <glyph glyph-name="uniFEB0" unicode="&#x632;" horiz-adv-x="860" arabic-form="final" 
d="M308 937l145 145l7 7l7 -7l147 -146l7 -7l-7 -7l-147 -147l-6 -6l-7 7l-146 147l-7 7zM496 150c0 45.333 -6.50098 97.499 -19.501 156.499s-31.833 117.167 -56.5 174.5l-8 19l20 8l162 58l19 7l7 -19l61 -193c16 -49.333 36.5 -85.166 61.5 -107.499
s58.167 -33.5 99.5 -33.5h38v-20v-180v-20h-27c-73.333 -0 -126.333 11.333 -159 34c-19.333 -148.667 -83.166 -270.5 -191.499 -365.5s-257.5 -160.167 -447.5 -195.5l-16 -3l-6 15l-61 154l-9 23l24 4c114 22 208.667 54.5 284 97.5s131.5 96.5 168.5 160.5
s55.833 139.333 56.5 226z" />
    <glyph glyph-name="uniFEB1" unicode="&#x633;" horiz-adv-x="2456" arabic-form="isolated" 
d="M1531 0c-66.667 0 -123.332 13.6709 -169.999 41.0039c-9.33301 -177.333 -67.333 -313.666 -174 -408.999c-113.333 -101.333 -268.666 -152 -465.999 -152c-212 0 -372.167 50 -480.5 150s-162.5 248.667 -162.5 446c0 142.667 30.667 288.334 92 437.001l7 18l19 -7
l155 -63l18 -8l-7 -18c-48 -126.667 -72 -244.667 -72 -354c0 -130.667 35.833 -228 107.5 -292s181.834 -96 330.501 -96c144.667 0 252.334 35.167 323.001 105.5s106 177.5 106 321.5c0 117.333 -29.333 237.333 -88 360l-10 21l20 6l171 59l19 7l6 -20l59 -183
c16.667 -51.333 40.667 -89 72 -113s73.666 -36.333 126.999 -37c59.333 0 101.666 15.167 126.999 45.5s38 78.166 38 143.499c0 31.333 -3.33301 90 -10 176l-1 20l19 2l165 20l20 2l2 -21l16 -226c3.33301 -50.667 16.333 -90.334 39 -119.001s55.667 -43 99 -43
c79.333 0 119 67.333 119 202c0 69.333 -14.333 155.666 -43 258.999l-6 19l20 5l168 45l18 5l6 -18c32.667 -104 49 -204 49 -300c0 -48 -3.5 -92.833 -10.5 -134.5s-18.833 -81.334 -35.5 -119.001s-37.334 -69.834 -62 -96.501c-24.667 -26.667 -56 -47.834 -94 -63.501
s-80.667 -23.5 -128 -23.5c-110.667 -0 -192.334 42.333 -245.001 127c-70.667 -84.667 -161.334 -127 -272.001 -127z" />
    <glyph glyph-name="uniFEB2" unicode="&#x633;" horiz-adv-x="2553" arabic-form="final" 
d="M1531 0c-66.667 0 -123.336 13.667 -170.003 41c-9.33301 -177.333 -67.333 -313.666 -174 -408.999c-113.333 -101.333 -268.666 -152 -465.999 -152c-212 0 -372.167 50 -480.5 150s-162.5 248.667 -162.5 446c0 142.667 30.667 288.334 92 437.001l7 18l19 -7l155 -63
l18 -8l-7 -18c-48 -126.667 -72 -244.667 -72 -354c0 -130.667 35.833 -228 107.5 -292s181.834 -96 330.501 -96c144.667 0 252.334 35.167 323.001 105.5s106 177.5 106 321.5c0 117.333 -29.333 237.333 -88 360l-10 21l20 6l171 59l19 7l6 -20l59 -183
c16.667 -51.333 40.667 -89 72 -113s73.666 -36.333 126.999 -37c59.333 0 101.666 15.167 126.999 45.5s38 78.166 38 143.499c0 31.333 -3.33301 90 -10 176l-1 20l19 2l165 20l20 2l2 -21l16 -226c3.33301 -50.667 16.5 -90.334 39.5 -119.001s56.167 -43 99.5 -43
c39.333 0 69 14.833 89 44.5s30 77.167 30 142.5c0 44 -3.33301 110.667 -10 200l-1 19l19 2l165 20l21 2l1 -21l16 -247c4 -56 19.333 -97 46 -123s66.334 -39 119.001 -39h30v-20v-180v-20h-28c-127.333 0 -214.333 40 -261 120c-52.667 -80 -131 -120 -235 -120
c-54.667 0 -102.834 10.667 -144.501 32s-75.5 53 -101.5 95c-35.333 -42.667 -75.666 -74.5 -120.999 -95.5s-95.666 -31.5 -150.999 -31.5z" />
    <glyph glyph-name="uniFEB3" unicode="&#x633;" horiz-adv-x="1562" arabic-form="initial" 
d="M1153 220c79.333 0 119.003 67.334 119.003 202.001c0 68 -14.333 154.333 -43 259l-6 19l20 5l168 45l18 5l6 -18c32.667 -104 49 -204 49 -300c0 -40 -2.5 -77.667 -7.5 -113s-12.833 -69.666 -23.5 -102.999s-24.834 -63.166 -42.501 -89.499
s-38.334 -49.333 -62.001 -69s-52 -35 -85 -46s-69.5 -16.5 -109.5 -16.5c-111.333 0 -193.333 42.333 -246 127c-70.667 -84.667 -161.334 -127 -272.001 -127c-126 0 -214.667 41.333 -266 124c-63.333 -82.667 -170.333 -124 -321 -124h-69v20v180v20h71
c80 0 137 13.667 171 41s51 76.666 51 147.999c0 37.333 -3.33301 96 -10 176l-2 20l20 2l165 20l20 2l2 -21l16 -226c2.66699 -33.333 9.83398 -62 21.501 -86s28.667 -42.667 51 -56s49.5 -20 81.5 -20c59.333 0 101.666 15.167 126.999 45.5s38 78.166 38 143.499
c0 35.333 -3.33301 94 -10 176l-1 20l19 2l165 20l20 2l2 -21l16 -226c3.33301 -50.667 16.5 -90.334 39.5 -119.001s56.167 -43 99.5 -43z" />
    <glyph glyph-name="uniFEB4" unicode="&#x633;" horiz-adv-x="1658" arabic-form="medial" 
d="M370 124c-63.333 -82.667 -170.33 -124 -320.997 -124h-69v20v180v20h71c80 0 137 13.667 171 41s51 76.666 51 147.999c0 33.333 -3.33301 92 -10 176l-1 20l19 2l165 20l20 2l2 -21l16 -226c4 -51.333 18.667 -91.166 44 -119.499s62 -42.5 110 -42.5
c59.333 0 101.666 15.167 126.999 45.5s38 78.166 38 143.499c0 31.333 -3.33301 90 -10 176l-1 20l19 2l165 20l20 2l2 -21l16 -226c3.33301 -50.667 16.5 -90.334 39.5 -119.001s56.167 -43 99.5 -43c39.333 0 69 14.833 89 44.5s30 77.167 30 142.5
c0 14.667 -0.333008 31.834 -1 51.501s-1.83398 41.834 -3.50098 66.501l-5.5 82l-1 19l19 2l165 20l21 2l1 -21l16 -247c4 -56 19.333 -97 46 -123s66.334 -39 119.001 -39h30v-20v-180v-20h-28c-40 0 -76.5 4.16699 -109.5 12.5s-62.5 21.5 -88.5 39.5s-47 40.667 -63 68
c-13.333 -20.667 -28.166 -38.5 -44.499 -53.5s-34.166 -27.333 -53.499 -37s-40.333 -17 -63 -22s-47.334 -7.5 -74.001 -7.5c-54.667 0 -102.834 10.667 -144.501 32s-75.5 53 -101.5 95c-70.667 -84.667 -161.334 -127 -272.001 -127
c-126.667 0.666992 -215.334 42 -266.001 124z" />
    <glyph glyph-name="uniFEB5" unicode="&#x634;" horiz-adv-x="2456" arabic-form="isolated" 
d="M1605 1231l132 132l7 7l7 -7l133 -132l7 -7l-7 -7l-133 -133l-7 -7l-7 7l-132 133l-7 7zM1777 969l132 132l7 7l7 -7l133 -132l7 -7l-7 -7l-133 -133l-7 -7l-7 7l-132 133l-7 7zM1437 969l132 132l7 7l7 -7l133 -132l7 -7l-7 -7l-133 -133l-7 -7l-7 7l-132 133l-7 7z
M1531 0c-66.667 0 -123.332 13.6709 -169.999 41.0039c-9.33301 -177.333 -67.333 -313.666 -174 -408.999c-113.333 -101.333 -268.666 -152 -465.999 -152c-212 0 -372.167 50 -480.5 150s-162.5 248.667 -162.5 446c0 142.667 30.667 288.334 92 437.001l7 18l19 -7
l155 -63l18 -8l-7 -18c-48 -126.667 -72 -244.667 -72 -354c0 -130.667 35.833 -228 107.5 -292s181.834 -96 330.501 -96c144.667 0 252.334 35.167 323.001 105.5s106 177.5 106 321.5c0 117.333 -29.333 237.333 -88 360l-10 21l20 6l171 59l19 7l6 -20l59 -183
c16.667 -51.333 40.667 -89 72 -113s73.666 -36.333 126.999 -37c59.333 0 101.666 15.167 126.999 45.5s38 78.166 38 143.499c0 31.333 -3.33301 90 -10 176l-1 20l19 2l165 20l20 2l2 -21l16 -226c3.33301 -50.667 16.333 -90.334 39 -119.001s55.667 -43 99 -43
c79.333 0 119 67.333 119 202c0 69.333 -14.333 155.666 -43 258.999l-6 19l20 5l168 45l18 5l6 -18c32.667 -104 49 -204 49 -300c0 -48 -3.5 -92.833 -10.5 -134.5s-18.833 -81.334 -35.5 -119.001s-37.334 -69.834 -62 -96.501c-24.667 -26.667 -56 -47.834 -94 -63.501
s-80.667 -23.5 -128 -23.5c-110.667 -0 -192.334 42.333 -245.001 127c-70.667 -84.667 -161.334 -127 -272.001 -127z" />
    <glyph glyph-name="uniFEB6" unicode="&#x634;" horiz-adv-x="2553" arabic-form="final" 
d="M1605 1231l132 132l7 7l7 -7l133 -132l7 -7l-7 -7l-133 -133l-7 -7l-7 7l-132 133l-7 7zM1777 969l132 132l7 7l7 -7l133 -132l7 -7l-7 -7l-133 -133l-7 -7l-7 7l-132 133l-7 7zM1437 969l132 132l7 7l7 -7l133 -132l7 -7l-7 -7l-133 -133l-7 -7l-7 7l-132 133l-7 7z
M1531 0c-66.667 0 -123.336 13.667 -170.003 41c-9.33301 -177.333 -67.333 -313.666 -174 -408.999c-113.333 -101.333 -268.666 -152 -465.999 -152c-212 0 -372.167 50 -480.5 150s-162.5 248.667 -162.5 446c0 142.667 30.667 288.334 92 437.001l7 18l19 -7l155 -63
l18 -8l-7 -18c-48 -126.667 -72 -244.667 -72 -354c0 -130.667 35.833 -228 107.5 -292s181.834 -96 330.501 -96c144.667 0 252.334 35.167 323.001 105.5s106 177.5 106 321.5c0 117.333 -29.333 237.333 -88 360l-10 21l20 6l171 59l19 7l6 -20l59 -183
c16.667 -51.333 40.667 -89 72 -113s73.666 -36.333 126.999 -37c59.333 0 101.666 15.167 126.999 45.5s38 78.166 38 143.499c0 31.333 -3.33301 90 -10 176l-1 20l19 2l165 20l20 2l2 -21l16 -226c3.33301 -50.667 16.5 -90.334 39.5 -119.001s56.167 -43 99.5 -43
c39.333 0 69 14.833 89 44.5s30 77.167 30 142.5c0 44 -3.33301 110.667 -10 200l-1 19l19 2l165 20l21 2l1 -21l16 -247c4 -56 19.333 -97 46 -123s66.334 -39 119.001 -39h30v-20v-180v-20h-28c-127.333 0 -214.333 40 -261 120c-52.667 -80 -131 -120 -235 -120
c-54.667 0 -102.834 10.667 -144.501 32s-75.5 53 -101.5 95c-35.333 -42.667 -75.666 -74.5 -120.999 -95.5s-95.666 -31.5 -150.999 -31.5z" />
    <glyph glyph-name="uniFEB7" unicode="&#x634;" horiz-adv-x="1562" arabic-form="initial" 
d="M711 1231l132 132l7 7l7 -7l133 -132l7 -7l-7 -7l-133 -133l-7 -7l-7 7l-132 133l-7 7zM883 969l132 132l7 7l7 -7l133 -132l7 -7l-7 -7l-133 -133l-7 -7l-7 7l-132 133l-7 7zM543 969l132 132l7 7l7 -7l133 -132l7 -7l-7 -7l-133 -133l-7 -7l-7 7l-132 133l-7 7z
M1153 220c79.333 0 119.003 67.334 119.003 202.001c0 68 -14.333 154.333 -43 259l-6 19l20 5l168 45l18 5l6 -18c32.667 -104 49 -204 49 -300c0 -40 -2.5 -77.667 -7.5 -113s-12.833 -69.666 -23.5 -102.999s-24.834 -63.166 -42.501 -89.499
s-38.334 -49.333 -62.001 -69s-52 -35 -85 -46s-69.5 -16.5 -109.5 -16.5c-111.333 0 -193.333 42.333 -246 127c-70.667 -84.667 -161.334 -127 -272.001 -127c-126 0 -214.667 41.333 -266 124c-63.333 -82.667 -170.333 -124 -321 -124h-69v20v180v20h71
c80 0 137 13.667 171 41s51 76.666 51 147.999c0 37.333 -3.33301 96 -10 176l-2 20l20 2l165 20l20 2l2 -21l16 -226c2.66699 -33.333 9.83398 -62 21.501 -86s28.667 -42.667 51 -56s49.5 -20 81.5 -20c59.333 0 101.666 15.167 126.999 45.5s38 78.166 38 143.499
c0 35.333 -3.33301 94 -10 176l-1 20l19 2l165 20l20 2l2 -21l16 -226c3.33301 -50.667 16.5 -90.334 39.5 -119.001s56.167 -43 99.5 -43z" />
    <glyph glyph-name="uniFEB8" unicode="&#x634;" horiz-adv-x="1658" arabic-form="medial" 
d="M711 1231l132 132l7 7l7 -7l133 -132l7 -7l-7 -7l-133 -133l-7 -7l-7 7l-132 133l-7 7zM883 969l132 132l7 7l7 -7l133 -132l7 -7l-7 -7l-133 -133l-7 -7l-7 7l-132 133l-7 7zM543 969l132 132l7 7l7 -7l133 -132l7 -7l-7 -7l-133 -133l-7 -7l-7 7l-132 133l-7 7z
M370 124c-63.333 -82.667 -170.33 -124 -320.997 -124h-69v20v180v20h71c80 0 137 13.667 171 41s51 76.666 51 147.999c0 33.333 -3.33301 92 -10 176l-1 20l19 2l165 20l20 2l2 -21l16 -226c4 -51.333 18.667 -91.166 44 -119.499s62 -42.5 110 -42.5
c59.333 0 101.666 15.167 126.999 45.5s38 78.166 38 143.499c0 31.333 -3.33301 90 -10 176l-1 20l19 2l165 20l20 2l2 -21l16 -226c3.33301 -50.667 16.5 -90.334 39.5 -119.001s56.167 -43 99.5 -43c39.333 0 69 14.833 89 44.5s30 77.167 30 142.5
c0 14.667 -0.333008 31.834 -1 51.501s-1.83398 41.834 -3.50098 66.501l-5.5 82l-1 19l19 2l165 20l21 2l1 -21l16 -247c4 -56 19.333 -97 46 -123s66.334 -39 119.001 -39h30v-20v-180v-20h-28c-40 0 -76.5 4.16699 -109.5 12.5s-62.5 21.5 -88.5 39.5s-47 40.667 -63 68
c-13.333 -20.667 -28.166 -38.5 -44.499 -53.5s-34.166 -27.333 -53.499 -37s-40.333 -17 -63 -22s-47.334 -7.5 -74.001 -7.5c-54.667 0 -102.834 10.667 -144.501 32s-75.5 53 -101.5 95c-70.667 -84.667 -161.334 -127 -272.001 -127
c-126.667 0.666992 -215.334 42 -266.001 124z" />
    <glyph glyph-name="uniFEB9" unicode="&#x635;" horiz-adv-x="2575" arabic-form="isolated" 
d="M1753 221c350.667 0 526.001 70.667 526.001 212c0 50 -16.167 91.167 -48.5 123.5s-74.5 48.5 -126.5 48.5c-68 0 -140.833 -32.333 -218.5 -97s-158.834 -160.667 -243.501 -288zM1157 120c0 118 -29.334 237.999 -88.001 359.999l-10 21l22 7l169 58l19 7l6 -20
l59 -183c11.333 -35.333 23.5 -62.5 36.5 -81.5s25.833 -31.167 38.5 -36.5c114 191.333 227.833 335 341.5 431s229.5 144 347.5 144c75.333 0 143.5 -16.833 204.5 -50.5s108.667 -80 143 -139s51.5 -124.167 51.5 -195.5c-0.666992 -148 -63.5 -258.667 -188.5 -332
s-308.833 -110 -551.5 -110h-51c-148.667 0 -263.667 15.667 -345 47c-5.33301 -124 -35.5 -228.833 -90.5 -314.5s-128.833 -149.167 -221.5 -190.5s-202 -62 -328 -62c-212 0 -372.167 50 -480.5 150s-162.5 248.667 -162.5 446c0 142.667 30.667 288.334 92 437.001l7 18
l19 -7l155 -63l18 -8l-7 -18c-48 -126.667 -72 -244.667 -72 -354c0 -130.667 36 -228 108 -292s182 -96 330 -96c144 0 251.333 35.167 322 105.5s106.334 177.5 107.001 321.5z" />
    <glyph glyph-name="uniFEBA" unicode="&#x635;" horiz-adv-x="2610" arabic-form="final" 
d="M1753 221c350.667 0 526.001 70.667 526.001 212c0 50 -16.167 91.167 -48.5 123.5s-74.5 48.5 -126.5 48.5c-68 0 -140.833 -32.333 -218.5 -97s-158.834 -160.667 -243.501 -288zM1157 120c0 118 -29.334 237.999 -88.001 359.999l-10 21l22 7l169 58l19 7l6 -20
l59 -183c21.333 -68 46.333 -107.333 75 -118c230 383.333 459 575 687 575c116.667 0 212.667 -36.333 288 -109s113 -164.667 113 -276c0 -71.333 -22.333 -142.333 -67 -213c38.667 -6 95.334 -9 170 -9h30v-20v-180v-20h-29c-150 0 -264.667 29.667 -344 89
c-116 -59.333 -282.667 -89 -500 -89h-51c-148.667 0 -263.667 15.667 -345 47c-5.33301 -124 -35.5 -228.833 -90.5 -314.5s-128.833 -149.167 -221.5 -190.5s-202 -62 -328 -62c-212 0 -372.167 50 -480.5 150s-162.5 248.667 -162.5 446
c0 142.667 30.667 288.334 92 437.001l7 18l19 -7l155 -63l18 -8l-7 -18c-48 -126.667 -72 -244.667 -72 -354c0 -130.667 36 -228 108 -292s182 -96 330 -96c144 0 251.333 35.167 322 105.5s106.334 177.5 107.001 321.5z" />
    <glyph glyph-name="uniFEBB" unicode="&#x635;" horiz-adv-x="1654" arabic-form="initial" 
d="M832 221c178.667 0 311 18.167 397 54.5s129 88.833 129 157.5c0 50 -16.167 91.167 -48.5 123.5s-74.5 48.5 -126.5 48.5c-138 0 -292 -128.333 -462 -385zM489 254c230 382 458.668 573.001 686.001 573.001c77.333 0 146.5 -16.667 207.5 -50
s108.5 -79.333 142.5 -138s51 -124.334 51 -197.001c-0.666992 -148 -63.5 -258.667 -188.5 -332s-308.833 -110 -551.5 -110h-51c-232.667 0 -385.334 44.667 -458.001 134c-37.333 -46 -79.666 -79.833 -126.999 -101.5s-107.333 -32.5 -180 -32.5h-40v20l1 180v20h39
c81.333 0 135.5 13.667 162.5 41s40.5 76.333 40.5 147c0 24.667 -2.66699 91 -8 199l-1 19l19 2l164 20l20 2l2 -21l18 -246c5.33301 -70.667 22.666 -113.667 51.999 -129z" />
    <glyph glyph-name="uniFEBC" unicode="&#x635;" horiz-adv-x="1689" arabic-form="medial" 
d="M832 221c178.667 0 311 18.167 397 54.5s129 88.833 129 157.5c0 50 -16.167 91.167 -48.5 123.5s-74.5 48.5 -126.5 48.5c-138 0 -292 -128.333 -462 -385zM489 254c115.333 190.667 229.831 333.834 343.498 429.501s228.167 143.5 343.5 143.5
c117.333 0 213.333 -36.5 288 -109.5s112 -165.5 112 -277.5c0 -69.333 -22.667 -139.666 -68 -210.999c38 -6 95 -9 171 -9h30v-20v-180v-20h-30c-149.333 0 -263.666 29.667 -342.999 89c-116 -59.333 -282.667 -89 -500 -89h-51c-118 0 -214.333 10.333 -289 31
s-130.667 53.667 -168 99c-37.333 -45.333 -79.666 -78.333 -126.999 -99s-107.666 -31 -180.999 -31h-40v20v180v20h39c56 0 98.833 6.66699 128.5 20s49.667 32.666 60 57.999s15.5 61.666 15.5 108.999c0 25.333 -2.66699 92 -8 200l-1 19l19 2l164 20l20 2l2 -21
l18 -246c5.33301 -70.667 22.666 -113.667 51.999 -129z" />
    <glyph glyph-name="uniFEBD" unicode="&#x636;" horiz-adv-x="2575" arabic-form="isolated" 
d="M1906 1181l145 145l7 7l7 -7l147 -146l7 -7l-7 -7l-147 -147l-6 -6l-7 7l-146 147l-7 7zM1753 221c350.667 0 526.001 70.667 526.001 212c0 50 -16.167 91.167 -48.5 123.5s-74.5 48.5 -126.5 48.5c-68 0 -140.833 -32.333 -218.5 -97s-158.834 -160.667 -243.501 -288z
M1157 120c0 118 -29.334 237.999 -88.001 359.999l-10 21l22 7l169 58l19 7l6 -20l59 -183c11.333 -35.333 23.5 -62.5 36.5 -81.5s25.833 -31.167 38.5 -36.5c114 191.333 227.833 335 341.5 431s229.5 144 347.5 144c75.333 0 143.5 -16.833 204.5 -50.5
s108.667 -80 143 -139s51.5 -124.167 51.5 -195.5c-0.666992 -148 -63.5 -258.667 -188.5 -332s-308.833 -110 -551.5 -110h-51c-148.667 0 -263.667 15.667 -345 47c-5.33301 -124 -35.5 -228.833 -90.5 -314.5s-128.833 -149.167 -221.5 -190.5s-202 -62 -328 -62
c-212 0 -372.167 50 -480.5 150s-162.5 248.667 -162.5 446c0 142.667 30.667 288.334 92 437.001l7 18l19 -7l155 -63l18 -8l-7 -18c-48 -126.667 -72 -244.667 -72 -354c0 -130.667 36 -228 108 -292s182 -96 330 -96c144 0 251.333 35.167 322 105.5
s106.334 177.5 107.001 321.5z" />
    <glyph glyph-name="uniFEBE" unicode="&#x636;" horiz-adv-x="2610" arabic-form="final" 
d="M1906 1191l145 145l7 7l7 -7l147 -146l7 -7l-7 -7l-147 -147l-6 -6l-7 7l-146 147l-7 7zM1753 221c350.667 0 526.001 70.667 526.001 212c0 50 -16.167 91.167 -48.5 123.5s-74.5 48.5 -126.5 48.5c-68 0 -140.833 -32.333 -218.5 -97s-158.834 -160.667 -243.501 -288z
M1157 120c0 118 -29.334 237.999 -88.001 359.999l-10 21l22 7l169 58l19 7l6 -20l59 -183c21.333 -68 46.333 -107.333 75 -118c230 383.333 459 575 687 575c116.667 0 212.667 -36.333 288 -109s113 -164.667 113 -276c0 -71.333 -22.333 -142.333 -67 -213
c38.667 -6 95.334 -9 170 -9h30v-20v-180v-20h-29c-150 0 -264.667 29.667 -344 89c-116 -59.333 -282.667 -89 -500 -89h-51c-148.667 0 -263.667 15.667 -345 47c-5.33301 -124 -35.5 -228.833 -90.5 -314.5s-128.833 -149.167 -221.5 -190.5s-202 -62 -328 -62
c-212 0 -372.167 50 -480.5 150s-162.5 248.667 -162.5 446c0 142.667 30.667 288.334 92 437.001l7 18l19 -7l155 -63l18 -8l-7 -18c-48 -126.667 -72 -244.667 -72 -354c0 -130.667 36 -228 108 -292s182 -96 330 -96c144 0 251.333 35.167 322 105.5
s106.334 177.5 107.001 321.5z" />
    <glyph glyph-name="uniFEBF" unicode="&#x636;" horiz-adv-x="1654" arabic-form="initial" 
d="M985 1191l145 145l7 7l7 -7l147 -146l7 -7l-7 -7l-147 -147l-6 -6l-7 7l-146 147l-7 7zM832 221c178.667 0 311 18.167 397 54.5s129 88.833 129 157.5c0 50 -16.167 91.167 -48.5 123.5s-74.5 48.5 -126.5 48.5c-138 0 -292 -128.333 -462 -385zM489 254
c230 382 458.668 573.001 686.001 573.001c77.333 0 146.5 -16.667 207.5 -50s108.5 -79.333 142.5 -138s51 -124.334 51 -197.001c-0.666992 -148 -63.5 -258.667 -188.5 -332s-308.833 -110 -551.5 -110h-51c-232.667 0 -385.334 44.667 -458.001 134
c-37.333 -46 -79.666 -79.833 -126.999 -101.5s-107.333 -32.5 -180 -32.5h-40v20l1 180v20h39c81.333 0 135.5 13.667 162.5 41s40.5 76.333 40.5 147c0 24.667 -2.66699 91 -8 199l-1 19l19 2l164 20l20 2l2 -21l18 -246c5.33301 -70.667 22.666 -113.667 51.999 -129z
" />
    <glyph glyph-name="uniFEC0" unicode="&#x636;" horiz-adv-x="1689" arabic-form="medial" 
d="M985 1191l145 145l7 7l7 -7l147 -146l7 -7l-7 -7l-147 -147l-6 -6l-7 7l-146 147l-7 7zM832 221c178.667 0 311 18.167 397 54.5s129 88.833 129 157.5c0 50 -16.167 91.167 -48.5 123.5s-74.5 48.5 -126.5 48.5c-138 0 -292 -128.333 -462 -385zM489 254
c115.333 190.667 229.831 333.834 343.498 429.501s228.167 143.5 343.5 143.5c117.333 0 213.333 -36.5 288 -109.5s112 -165.5 112 -277.5c0 -69.333 -22.667 -139.666 -68 -210.999c38 -6 95 -9 171 -9h30v-20v-180v-20h-30c-149.333 0 -263.666 29.667 -342.999 89
c-116 -59.333 -282.667 -89 -500 -89h-51c-118 0 -214.333 10.333 -289 31s-130.667 53.667 -168 99c-37.333 -45.333 -79.666 -78.333 -126.999 -99s-107.666 -31 -180.999 -31h-40v20v180v20h39c56 0 98.833 6.66699 128.5 20s49.667 32.666 60 57.999
s15.5 61.666 15.5 108.999c0 25.333 -2.66699 92 -8 200l-1 19l19 2l164 20l20 2l2 -21l18 -246c5.33301 -70.667 22.666 -113.667 51.999 -129z" />
    <glyph glyph-name="uniFEC1" unicode="&#x637;" horiz-adv-x="1471" arabic-form="isolated" 
d="M649 222c350.667 0 526 70.667 526 212c0 50 -16.167 91.167 -48.5 123.5s-74.5 48.5 -126.5 48.5c-138 0 -292 -128.333 -462 -385zM309 220c6.66699 11.333 28.001 45.333 64.001 102v1024v20h20h169h20v-20v-736c128.667 144.667 265 217 409 217
c118 0 214.5 -36.333 289.5 -109s112.5 -164.667 112.5 -276c-1.33301 -148 -64.333 -258.667 -189 -332s-308.334 -110 -551.001 -110h-555h-20v20v180v20h20h211z" />
    <glyph glyph-name="uniFEC2" unicode="&#x637;" horiz-adv-x="1510" arabic-form="final" 
d="M649 222c350.667 0 526 70.667 526 212c0 50 -16 91.167 -48 123.5s-74 48.5 -126 48.5c-138 0 -292.333 -128.333 -463 -385zM1324 227c35.333 -4.66699 94 -6.99902 176 -6.99902h30v-20v-180v-20h-29c-149.333 0 -263.333 29.333 -342 88
c-57.333 -27.333 -130 -48.833 -218 -64.5s-184 -23.5 -288 -23.5h-555h-20v20v180v20h20h211l31 49.5l33 52.5v1024v20h20h169h20v-20v-735c128 144 264.667 216 410 216c116.667 0 212.5 -36.333 287.5 -109s112.5 -164.667 112.5 -276
c0 -68.667 -22.667 -140.334 -68 -215.001z" />
    <glyph glyph-name="uniFEC3" unicode="&#x637;" horiz-adv-x="1293" arabic-form="initial" 
d="M471 222c350.667 0 526 70.667 526 212c0 50 -16.167 91.167 -48.5 123.5s-74.5 48.5 -126.5 48.5c-138 0 -292 -128.333 -462 -385zM404 610c130 144.667 268.333 217 415 217c114.667 0 209.334 -36.667 284.001 -110s112 -165 112 -275
c0 -294.667 -246.333 -442 -739 -442h-496v20v180v20h149l32 48.5c15.333 23 26.666 40.5 33.999 52.5v1025v20h20h169h20v-20v-736z" />
    <glyph glyph-name="uniFEC4" unicode="&#x637;" horiz-adv-x="1332" arabic-form="medial" 
d="M471 222c350.667 0 526 70.667 526 212c0 50 -16.167 91.167 -48.5 123.5s-74.5 48.5 -126.5 48.5c-138 0 -292 -128.333 -462 -385zM1146 227c35.333 -4.66699 94.001 -7 176.001 -7h30v-20v-180v-20h-31c-147.333 0 -260.666 29.667 -339.999 89
c-57.333 -27.333 -130 -49 -218 -65s-183.667 -24 -287 -24h-496v20v180v20h151c6.66699 11.333 28 45.333 64 102v1024v20h20h169h20v-20v-736c131.333 144.667 268.666 217 411.999 217c115.333 0 210.666 -36.667 285.999 -110s113 -165 113 -275
c0 -68 -23 -139.667 -69 -215z" />
    <glyph glyph-name="uniFEC5" unicode="&#x638;" horiz-adv-x="1471" arabic-form="isolated" 
d="M818 1191l145 145l7 7l7 -7l147 -146l7 -7l-7 -7l-147 -147l-6 -6l-7 7l-146 147l-7 7zM649 222c350.667 0 526 70.667 526 212c0 50 -16.167 91.167 -48.5 123.5s-74.5 48.5 -126.5 48.5c-138 0 -292 -128.333 -462 -385zM309 220
c6.66699 11.333 28.001 45.333 64.001 102v1024v20h20h169h20v-20v-736c128.667 144.667 265 217 409 217c118 0 214.5 -36.333 289.5 -109s112.5 -164.667 112.5 -276c-1.33301 -148 -64.333 -258.667 -189 -332s-308.334 -110 -551.001 -110h-555h-20v20v180v20h20h211z
" />
    <glyph glyph-name="uniFEC6" unicode="&#x638;" horiz-adv-x="1510" arabic-form="final" 
d="M817 1191l145 145l7 7l7 -7l147 -146l7 -7l-7 -7l-147 -147l-6 -6l-7 7l-146 147l-7 7zM649 222c350.667 0 526 70.667 526 212c0 50 -16 91.167 -48 123.5s-74 48.5 -126 48.5c-138 0 -292.333 -128.333 -463 -385zM1324 227c35.333 -4.66699 94 -6.99902 176 -6.99902
h30v-20v-180v-20h-29c-149.333 0 -263.333 29.333 -342 88c-57.333 -27.333 -130 -48.833 -218 -64.5s-184 -23.5 -288 -23.5h-555h-20v20v180v20h20h211l31 49.5l33 52.5v1024v20h20h169h20v-20v-735c128 144 264.667 216 410 216c116.667 0 212.5 -36.333 287.5 -109
s112.5 -164.667 112.5 -276c0 -68.667 -22.667 -140.334 -68 -215.001z" />
    <glyph glyph-name="uniFEC7" unicode="&#x638;" horiz-adv-x="1293" arabic-form="initial" 
d="M642 1191l145 145l7 7l7 -7l147 -146l7 -7l-7 -7l-147 -147l-6 -6l-7 7l-146 147l-7 7zM471 222c350.667 0 526 70.667 526 212c0 50 -16.167 91.167 -48.5 123.5s-74.5 48.5 -126.5 48.5c-138 0 -292 -128.333 -462 -385zM404 610c130 144.667 268.333 217 415 217
c114.667 0 209.334 -36.667 284.001 -110s112 -165 112 -275c0 -294.667 -246.333 -442 -739 -442h-496v20v180v20h149l32 48.5c15.333 23 26.666 40.5 33.999 52.5v1025v20h20h169h20v-20v-736z" />
    <glyph glyph-name="uniFEC8" unicode="&#x638;" horiz-adv-x="1332" arabic-form="medial" 
d="M642 1191l145 145l7 7l7 -7l147 -146l7 -7l-7 -7l-147 -147l-6 -6l-7 7l-146 147l-7 7zM471 222c350.667 0 526 70.667 526 212c0 50 -16.167 91.167 -48.5 123.5s-74.5 48.5 -126.5 48.5c-138 0 -292 -128.333 -462 -385zM1146 227
c35.333 -4.66699 94.001 -7 176.001 -7h30v-20v-180v-20h-31c-147.333 0 -260.666 29.667 -339.999 89c-57.333 -27.333 -130 -49 -218 -65s-183.667 -24 -287 -24h-496v20v180v20h151c6.66699 11.333 28 45.333 64 102v1024v20h20h169h20v-20v-736
c131.333 144.667 268.666 217 411.999 217c115.333 0 210.666 -36.667 285.999 -110s113 -165 113 -275c0 -68 -23 -139.667 -69 -215z" />
    <glyph glyph-name="uniFEC9" unicode="&#x639;" horiz-adv-x="1306" arabic-form="isolated" 
d="M958 786c-97.333 56.667 -178.332 85.002 -242.999 85.002c-56 0 -103.333 -16.667 -142 -50s-58 -77 -58 -131c0 -8 0.5 -16 1.5 -24s2 -15.167 3 -21.5s3 -13.5 6 -21.5l7 -19c1.66699 -4.66699 5.16699 -11 10.5 -19s9 -13.667 11 -17s6.5 -9.66602 13.5 -18.999
l13.5 -18c2 -2.66699 7.33301 -9.33398 16 -20.001s14 -17.334 16 -20.001c117.333 20 217 30 299 30c56 0 117 -3.33301 183 -10l21 -2l-3 -21l-23 -171l-3 -18l-18 1c-28.667 1.33301 -61.334 2 -98.001 2c-232 0 -404.5 -38 -517.5 -114s-169.5 -184.333 -169.5 -325
c0 -102.667 40.667 -182.5 122 -239.5s201.333 -85.5 360 -85.5c132.667 0 265.667 30.667 399 92l23 11l5 -25l35 -170l3 -15l-14 -7c-132.667 -65.333 -286.667 -98 -462 -98c-75.333 0 -146.5 6.83301 -213.5 20.5s-128.833 34.667 -185.5 63
s-105.5 63.166 -146.5 104.499s-73.167 91.166 -96.5 149.499s-35 122.5 -35 192.5c0 76.667 11 149.334 33 218.001s58 133 108 193s112 108.333 186 145c-68.667 88 -103 185 -103 291c0 102.667 40.5 192.667 121.5 270s174.833 116 281.5 116s220 -41 340 -123l14 -10
l-7 -15l-66 -146l-9 -20z" />
    <glyph glyph-name="uniFECA" unicode="&#x639;" horiz-adv-x="1199" arabic-form="final" 
d="M1077 -588c-110.667 -50 -239.997 -74.998 -387.997 -74.998c-118 0 -222.333 17.667 -313 53s-163 90 -217 164s-81 163.333 -81 268c0 195.333 110 366.666 330 513.999c-173.333 107.333 -260 211.666 -260 312.999c0 42 14.667 79 44 111s67.833 56.833 115.5 74.5
s97.5 30.667 149.5 39s105 12.5 159 12.5c44 0 86.167 -2 126.5 -6s81.166 -11.5 122.499 -22.5s77 -25 107 -42s54.5 -39.5 73.5 -67.5s28.5 -59.667 28.5 -95c0 -94.667 -96 -204 -288 -328c38.667 -24 76 -43.5 112 -58.5s75.667 -26.5 119 -34.5s90.666 -12 141.999 -12
h60v-20v-180v-20h-60c-94.667 -0 -186.334 16.833 -275.001 50.5s-183 85.167 -283 154.5c-210.667 -120 -316 -247.667 -316 -383c0 -82.667 35.333 -149 106 -199s171.667 -75 303 -75c108 0 218.667 23.333 332 70l23 10l5 -24l35 -170l3 -16zM604.003 460.002
c54.667 30 102.334 58.498 143.001 85.498s69.5 47.833 86.5 62.5s25.5 24.667 25.5 30c0 4 -6.83301 8.33301 -20.5 13s-40.334 9.33398 -80.001 14.001s-87.5 7 -143.5 7c-56.667 0 -104.5 -2.66699 -143.5 -8s-65.5 -11.166 -79.5 -17.499s-21 -12.833 -21 -19.5
c0 -6 7.83301 -16.167 23.5 -30.5s42 -33.833 79 -58.5s80.5 -50.667 130.5 -78z" />
    <glyph glyph-name="uniFECB" unicode="&#x639;" horiz-adv-x="1057" arabic-form="initial" 
d="M965 148c-316.667 -98.667 -610.004 -148.001 -880.004 -148.001h-105v20v180v20h257c-27.333 37.333 -48.5 75.166 -63.5 113.499s-22.5 82.5 -22.5 132.5c0 80 17.333 153.5 52 220.5s85.334 120.833 152.001 161.5s143.334 61 230.001 61c144 0 263 -47.667 357 -143
l10 -10l-6 -12l-66 -147l-10 -24l-21 16c-79.333 64.667 -156.666 97.334 -231.999 98.001c-74.667 0 -136 -21.833 -184 -65.5s-72 -97.5 -72 -161.5c0 -11.333 1.66699 -24 5 -38s9.33301 -30.833 18 -50.5s23.334 -39.167 44.001 -58.5s45.667 -35.666 75 -48.999
c10 -5.33301 17.667 -7.33301 23 -6l428 108l25 7v-26v-180v-15z" />
    <glyph glyph-name="uniFECC" unicode="&#x639;" horiz-adv-x="1141" arabic-form="medial" 
d="M784 252c54 -21.333 140.998 -32.0059 260.998 -32.0059h46v-20v-180v-20h-46c-64 0 -123.5 5.16699 -178.5 15.5s-102.5 23.833 -142.5 40.5s-79 37.667 -117 63c-57.333 -38 -127.166 -67.333 -209.499 -88s-185.833 -31 -310.5 -31h-107v20v180v20h110
c164.667 0 274 10.333 328 31c-43.333 27.333 -81 53.333 -113 78s-60.167 50.5 -84.5 77.5s-42.666 54.833 -54.999 83.5s-18.5 58.334 -18.5 89.001c0 34.667 9.5 65.834 28.5 93.501s43.667 50.334 74 68.001s66 32.334 107 44.001s82.167 19.834 123.5 24.501
s83.666 7 126.999 7c52 0 102.833 -4 152.5 -12s97.834 -20.667 144.501 -38s84.334 -42.166 113.001 -74.499s43 -69.833 43 -112.5c0 -50.667 -24.333 -104 -73 -160s-116.334 -111.667 -203.001 -167zM603.998 372.994c54 30 107.167 64.334 159.5 103.001
s78.5 65.334 78.5 80.001c0 6.66699 -6.83301 13.167 -20.5 19.5s-39.5 12.333 -77.5 18s-84.667 8.5 -140 8.5s-102 -2.66699 -140 -8s-64 -11.333 -78 -18s-21 -13.334 -21 -20.001c0 -16 25.667 -43.333 77 -82s105.333 -72.334 162 -101.001zM1069.38 -0.00488281v220
h91.5479v-220h-91.5479z" />
    <glyph glyph-name="uniFECD" unicode="&#x63a;" horiz-adv-x="1306" arabic-form="isolated" 
d="M528 1419l145 145l7 7l7 -7l147 -146l7 -7l-7 -7l-147 -147l-6 -6l-7 7l-146 147l-7 7zM958 786c-97.333 56.667 -178.332 85.002 -242.999 85.002c-56 0 -103.333 -16.667 -142 -50s-58 -77 -58 -131c0 -8 0.5 -16 1.5 -24s2 -15.167 3 -21.5s3 -13.5 6 -21.5l7 -19
c1.66699 -4.66699 5.16699 -11 10.5 -19s9 -13.667 11 -17s6.5 -9.66602 13.5 -18.999l13.5 -18c2 -2.66699 7.33301 -9.33398 16 -20.001s14 -17.334 16 -20.001c117.333 20 217 30 299 30c56 0 117 -3.33301 183 -10l21 -2l-3 -21l-23 -171l-3 -18l-18 1
c-28.667 1.33301 -61.334 2 -98.001 2c-232 0 -404.5 -38 -517.5 -114s-169.5 -184.333 -169.5 -325c0 -102.667 40.667 -182.5 122 -239.5s201.333 -85.5 360 -85.5c132.667 0 265.667 30.667 399 92l23 11l5 -25l35 -170l3 -15l-14 -7
c-132.667 -65.333 -286.667 -98 -462 -98c-75.333 0 -146.5 6.83301 -213.5 20.5s-128.833 34.667 -185.5 63s-105.5 63.166 -146.5 104.499s-73.167 91.166 -96.5 149.499s-35 122.5 -35 192.5c0 76.667 11 149.334 33 218.001s58 133 108 193s112 108.333 186 145
c-68.667 88 -103 185 -103 291c0 102.667 40.5 192.667 121.5 270s174.833 116 281.5 116s220 -41 340 -123l14 -10l-7 -15l-66 -146l-9 -20z" />
    </font>
</defs>
</svg>
