<?xml version="1.0" standalone="no"?>
<!DOCTYPE svg PUBLIC "-//W3C//DTD SVG 1.1//EN" "http://www.w3.org/Graphics/SVG/1.1/DTD/svg11.dtd" >
<svg>
<metadata>
Created by FontForge 20090914 at Sat Oct 17 13:41:41 2020
 By www-data
Copyright (c) 2003 by Bitstream, Inc. All Rights Reserved.
DejaVu changes are in public domain
Changes by Saber Rastikerdar are in public domain.
Non-Arabic (Latin) glyphs and data are imported from Roboto font under the Apache License, Version 2.0.
</metadata>
<defs>
<font id="Vazir" horiz-adv-x="0" >
  <font-face 
    font-family="Vazir"
    font-weight="400"
    font-stretch="normal"
    units-per-em="2048"
    panose-1="2 11 6 3 3 8 4 2 2 4"
    ascent="1638"
    descent="-410"
    x-height="1082"
    cap-height="1456"
    bbox="-985 -1096 3070 2341"
    underline-thickness="100"
    underline-position="-400"
    unicode-range="U+0002-U+FFFD"
  />
<missing-glyph horiz-adv-x="908" 
d="M808 0h-708v1456h708v-1456zM754 84v1287l-274 -643zM154 1359v-1263l268 632zM194 54h515l-258 606zM451 796l258 606h-515z" />
    <glyph glyph-name="uni0622" unicode="&#x627;&#x653;" horiz-adv-x="465" 
d="M129 1416c-55.333 0 -113.998 -37 -175.998 -111l-101 91c76 107.333 157 161.333 243 162c28 0 67.167 -8.5 117.5 -25.5s89.5 -25.5 117.5 -25.5c47.333 0 106.666 18 177.999 54l66 -122c-74.667 -46 -147.334 -69 -218.001 -69c-27.333 0 -65.5 7.66699 -114.5 23
s-86.5 23 -112.5 23zM148.002 1228.27h169v-1227.37h-169v1227.37z" />
    <glyph glyph-name="uni0623" unicode="&#x627;&#x654;" horiz-adv-x="465" 
d="M125 1382c-24.667 20.667 -42.5029 43.834 -53.5029 69.501s-16.5 57.167 -16.5 94.5c0 62 19.833 112.167 59.5 150.5s86.834 57.5 141.501 57.5c24 0 47.333 -3.5 70 -10.5s44.667 -17.167 66 -30.5l1 -119c-41.333 24.667 -82.333 37 -123 37
c-18 0 -34.167 -3.16699 -48.5 -9.5s-26.5 -17 -36.5 -32s-15 -33.833 -15 -56.5c0.666992 -14.667 3.83398 -27.834 9.50098 -39.501s15 -22.5 28 -32.5s29.833 -19 50.5 -27c4 -1.33301 7.5 -2.33301 10.5 -3s6.16699 -1 9.5 -1h2.5c1 0 1.83301 0.166992 2.5 0.5
s1.66699 0.5 3 0.5l71 14.5c30.667 6.33301 51.334 10.5 62.001 12.5v-116l-397 -96v113zM147.997 1168.82h169v-1165.96h-169v1165.96z" />
    <glyph glyph-name="uni0624" unicode="&#x648;&#x654;" horiz-adv-x="880" 
d="M313 979c-24.667 20.667 -42.5029 43.834 -53.5029 69.501s-16.5 57.167 -16.5 94.5c0 62 19.833 112.167 59.5 150.5s86.834 57.5 141.501 57.5c24 0 47.333 -3.5 70 -10.5s44.667 -17.167 66 -30.5l1 -119c-41.333 24.667 -82.333 37 -123 37
c-18 0 -34.167 -3.16699 -48.5 -9.5s-26.5 -17 -36.5 -32s-15 -33.833 -15 -56.5c0.666992 -14.667 3.83398 -27.834 9.50098 -39.501s15 -22.5 28 -32.5s29.833 -19 50.5 -27c4 -1.33301 7.5 -2.33301 10.5 -3s6.16699 -1 9.5 -1h2.5c1 0 1.83301 0.166992 2.5 0.5
s1.66699 0.5 3 0.5l71 14.5c30.667 6.33301 51.334 10.5 62.001 12.5v-116l-397 -96v113zM615.997 13c-78.667 -10 -131.666 -15.001 -158.999 -15.001c-239.333 0 -359 99.333 -359 298c0 116 31.167 215.667 93.5 299s141.166 125 236.499 125
c58.667 0 111.167 -15.667 157.5 -47s83.5 -73.5 111.5 -126.5s49.167 -111.833 63.5 -176.5s21.5 -132.667 21.5 -204c0 -187.333 -51.667 -340.166 -155 -458.499s-256.333 -196.833 -459 -235.5l-60 154c142 26.667 255.5 73.167 340.5 139.5
s140.833 148.833 167.5 247.5zM615.998 198.999c-14 224 -79.333 336 -196 336c-45.333 0 -82.833 -22.5 -112.5 -67.5s-44.5 -97.167 -44.5 -156.5c0 -92.667 65 -139 195 -139c46 0 98.667 9 158 27z" />
    <glyph glyph-name="uni0625" unicode="&#x627;&#x655;" horiz-adv-x="465" 
d="M110 -492c-24.667 20.667 -42.5029 43.834 -53.5029 69.501s-16.5 57.167 -16.5 94.5c0 62 19.833 112.167 59.5 150.5s86.834 57.5 141.501 57.5c24 0 47.333 -3.5 70 -10.5s44.667 -17.167 66 -30.5l1 -119c-41.333 24.667 -82.333 37 -123 37
c-18 0 -34.167 -3.16699 -48.5 -9.5s-26.5 -17 -36.5 -32s-15 -33.833 -15 -56.5c0.666992 -14.667 3.83398 -27.834 9.50098 -39.501s15 -22.5 28 -32.5s29.833 -19 50.5 -27c4 -1.33301 7.5 -2.33301 10.5 -3s6.16699 -1 9.5 -1h2.5c1 0 1.83301 0.166992 2.5 0.5
s1.66699 0.5 3 0.5l71 14.5c30.667 6.33301 51.334 10.5 62.001 12.5v-116l-397 -96v113zM148.997 1366h169v-1365h-169v1365z" />
    <glyph glyph-name="uni0626" unicode="&#x64a;&#x654;" horiz-adv-x="1477" 
d="M487 787c-24.667 20.667 -42.5029 43.834 -53.5029 69.501s-16.5 57.167 -16.5 94.5c0 62 19.833 112.167 59.5 150.5s86.834 57.5 141.501 57.5c24 0 47.333 -3.5 70 -10.5s44.667 -17.167 66 -30.5l1 -119c-41.333 24.667 -82.333 37 -123 37
c-18 0 -34.167 -3.16699 -48.5 -9.5s-26.5 -17 -36.5 -32s-15 -33.833 -15 -56.5c0.666992 -14.667 3.83398 -27.834 9.50098 -39.501s15 -22.5 28 -32.5s29.833 -19 50.5 -27c4 -1.33301 7.5 -2.33301 10.5 -3s6.16699 -1 9.5 -1h2.5c1 0 1.83301 0.166992 2.5 0.5
s1.66699 0.5 3 0.5l71 14.5c30.667 6.33301 51.334 10.5 62.001 12.5v-116l-397 -96v113zM360.997 475c-61.333 -150 -92.002 -281.001 -92.002 -393.001c0 -272 151.667 -408.667 455 -410c80.667 0 157.834 10.667 231.501 32s135.667 54.333 186 99
s75.5 96.334 75.5 155.001c0 38.667 -33 58 -99 58h-144c-80.667 0 -141.834 21 -183.501 63s-62.5 103.333 -62.5 184c0 66 12.833 127 38.5 183s59.834 102.833 102.501 140.5s92 67.167 148 88.5s114.333 32 175 32c69.333 0 129.333 -10.667 180 -32l-32 -165
c-45.333 14 -94.666 21 -147.999 21c-42.667 0 -82.834 -7.5 -120.501 -22.5s-69 -34.667 -94 -59s-44.667 -51.666 -59 -81.999s-21.5 -60.833 -21.5 -91.5s5.83301 -52.334 17.5 -65.001s34.834 -19 69.501 -19h180c68.667 0 121.667 -17.833 159 -53.5
s56 -82.5 56 -140.5c0 -156.667 -60 -278.667 -180 -366s-280 -131 -480 -131c-414 0 -621 192.667 -621 578c0 136 36 289 108 459z" />
    <glyph glyph-name="uni06C0" unicode="&#x647;&#x654;" horiz-adv-x="922" 
d="M169 1248c39.333 -8.66699 78.666 -12.999 117.999 -12.999c104.667 0 177.667 16.667 219 50c30.667 24.667 46 50.667 46 78c0 15.333 -11.667 23.333 -35 24l-100 2c-79.333 2 -119 43 -119 123c0 82 35.833 145.667 107.5 191s161.167 68.666 268.5 69.999l-9 -130
c-78.667 -1.33301 -137.5 -12.333 -176.5 -33s-61.167 -52 -66.5 -94l109 -4c46 -1.33301 81.333 -13.5 106 -36.5s37 -56.833 37 -101.5c0 -52.667 -24 -105.667 -72 -159c-66 -72 -173.333 -108 -322 -108c-39.333 0 -82.666 3.66699 -129.999 11zM447 635.001
c-121.333 -106.667 -181.999 -202 -181.999 -286c0 -56.667 15.667 -99 47 -127s80.666 -42 147.999 -42c68 0 117.833 14 149.5 42s47.5 70.667 47.5 128c0 77.333 -70 172.333 -210 285zM369.001 932.001c303.333 -222 454.999 -418 454.999 -588
c0 -99.333 -32.667 -180.5 -98 -243.5s-153.666 -95.167 -264.999 -96.5c-116 0 -205.5 29.5 -268.5 88.5s-94.5 142.833 -94.5 251.5c0 136 73 275.667 219 419l-45 39z" />
    <glyph glyph-name="uniFBA5.fina" unicode="&#xfeea;&#x654;" horiz-adv-x="1038" arabic-form="final" 
d="M313 1179c39.333 -8.66699 78.666 -12.999 117.999 -12.999c104.667 0 177.667 16.667 219 50c30.667 24.667 46 50.667 46 78c0 15.333 -11.667 23.333 -35 24l-100 2c-79.333 2 -119 43 -119 123c0 82 35.833 145.667 107.5 191s161.167 68.666 268.5 69.999l-9 -130
c-78.667 -1.33301 -137.5 -12.333 -176.5 -33s-61.167 -52 -66.5 -94l109 -4c46 -1.33301 81.333 -13.5 106 -36.5s37 -56.833 37 -101.5c0 -52.667 -24 -105.667 -72 -159c-66 -72 -173.333 -108 -322 -108c-39.333 0 -82.666 3.66699 -129.999 11zM98 412.001
c0 196.667 168.998 347.333 506.998 452l-7 45l159 33l82 -589c7.33301 -55.333 27 -98 59 -128s75 -45 129 -45h31v-180h-35c-179.333 0 -286.666 79 -321.999 237c-81.333 -70 -171.333 -105 -270 -105c-97.333 0 -177.166 23.5 -239.499 70.5s-93.5 116.833 -93.5 209.5z
M630.998 703c-120.667 -44.667 -210.666 -89.5 -269.999 -134.5s-89 -93.167 -89 -144.5c0 -40.667 13.167 -71.5 39.5 -92.5s64.166 -31.5 113.499 -31.5c60 0 114.333 16.833 163 50.5s73 77.5 73 131.5c0 20 -1.33301 39 -4 57z" />
    <glyph glyph-name="uniFDF2" unicode="&#x627;&#xfedf;&#xfee0;&#xfeea;" horiz-adv-x="2513" arabic-form="isolated" 
d="M1259 1543v362h88v-362h-88zM1340 1450c2 -53.333 3.00098 -80.6631 3.00098 -81.9961c5.33301 -68 28.666 -102 69.999 -102c44.667 0 67 33.667 67 101c0 24 -5.66699 63.333 -17 118l88 14c12 -40.667 18 -81.334 18 -122.001c0 -134 -49 -201.667 -147 -203
c-22.667 0 -44.334 5.16699 -65.001 15.5s-35.334 24.166 -44.001 41.499c-9.33301 -36 -27.666 -61.833 -54.999 -77.5s-58.666 -23.5 -93.999 -23.5c-46.667 0 -81.334 15 -104.001 45s-34 74.333 -34 133c0 12 0.5 23.833 1.5 35.5s2.5 22.834 4.5 33.501
s4.33301 21 7 31l78 -13c-6 -26.667 -9 -54.334 -9 -83.001c0 -56 22.667 -84 68 -84c14 0 26 1.5 36 4.5s18.167 8.5 24.5 16.5s11.333 16.167 15 24.5s6.33398 20.666 8.00098 36.999s2.66699 31.166 3 44.499s0.5 32 0.5 56v39h77zM98.001 412.003
c0 196.667 168.998 347.333 506.998 452l-7 45l159 33l82 -589c7.33301 -55.333 27 -98 59 -128s75 -45 129 -45h31v-180h-35c-179.333 0 -286.666 79 -321.999 237c-81.333 -70 -171.333 -105 -270 -105c-97.333 0 -177.166 23.5 -239.499 70.5s-93.5 116.833 -93.5 209.5z
M630.999 703.002c-120.667 -44.667 -210.666 -89.5 -269.999 -134.5s-89 -93.167 -89 -144.5c0 -40.667 13.167 -71.5 39.5 -92.5s64.166 -31.5 113.499 -31.5c60 0 114.333 16.833 163 50.5s73 77.5 73 131.5c0 20 -1.33301 39 -4 57zM1310 123.002
c-23.333 -46 -54.667 -78 -94 -96s-91 -27 -155 -27h-41v180h43c30.667 0 56.167 3.66699 76.5 11s36.333 16.5 48 27.5s20.5 28.167 26.5 51.5s9.66699 46 11 68s2 52.333 2 91v620h169v-620c0 -38.667 0.666992 -68.834 2 -90.501s4.5 -44.167 9.5 -67.5
s12.667 -40.666 23 -51.999s24.5 -20.666 42.5 -27.999s40.667 -11 68 -11h42v-180h-39c-60 0 -108 9.16699 -144 27.5s-66 50.166 -90 95.499zM1546 0.00195312v179.999h30c62 0 104 18 126 54s33 92.333 33 169v799h169v-797c0 -135.333 -24.833 -236.666 -74.5 -303.999
s-134.5 -101 -254.5 -101h-29zM2195 1366h169v-1365h-169v1365z" />
    <glyph glyph-name="uniFE70" unicode="&#x20;&#x64b;" horiz-adv-x="791" arabic-form="isolated" 
d="M166 1076v104l455 186v-103zM166 1288v104l455 186v-103z" />
    <glyph glyph-name="uniFE71" unicode="&#x640;&#x64b;" horiz-adv-x="791" arabic-form="medial" 
d="M486 0v180h326v-180h-326zM228 0v180h326v-180h-326zM-20 0v180h326v-180h-326zM190 1103v104l455 186v-103zM190 1315v104l455 186v-103z" />
    <glyph glyph-name="uniFE72" unicode="&#x20;&#x64c;" horiz-adv-x="791" arabic-form="isolated" 
d="M319 1497c0 48 15.333 87 46 117s69.667 45 117 45c48 0 87 -14.833 117 -44.5s45 -69.167 45 -118.5c0 -38 -9 -78.333 -27 -121c15.333 -2.66699 29.666 -4 42.999 -4v-76c-25.333 1.33301 -50.666 4.33301 -75.999 9c-31.333 -75.333 -70.5 -131.666 -117.5 -168.999
s-101.833 -56 -164.5 -56c-64.667 0 -114.5 27.667 -149.5 83s-53.167 130.666 -54.5 225.999l79 14c1.33301 -74.667 12.833 -134.167 34.5 -178.5s52.167 -66.5 91.5 -66.5c74 0 140.667 53 200 159c-59.333 20.667 -104.833 45 -136.5 73s-47.5 64 -47.5 108zM539 1391
c18 42 26.999 76.667 26.999 104c0 24 -7.83301 44 -23.5 60s-34.5 24 -56.5 24c-25.333 0 -46.166 -7.83301 -62.499 -23.5s-24.5 -36.5 -24.5 -62.5c0 -43.333 46.667 -77.333 140 -102z" />
    <glyph glyph-name="uniFE74" unicode="&#x20;&#x64d;" horiz-adv-x="791" arabic-form="isolated" 
d="M174 -440v104l456 186v-104zM174 -228v104l456 186v-104z" />
    <glyph glyph-name="uniFE76" unicode="&#x20;&#x64e;" horiz-adv-x="791" arabic-form="isolated" 
d="M156 1343v104l456 186v-104z" />
    <glyph glyph-name="uniFE77" unicode="&#x640;&#x64e;" horiz-adv-x="791" arabic-form="medial" 
d="M486 0v180h326v-180h-326zM228 0v180h326v-180h-326zM-20 0v180h326v-180h-326zM165 1349v104l456 186v-104z" />
    <glyph glyph-name="uniFE78" unicode="&#x20;&#x64f;" horiz-adv-x="791" arabic-form="isolated" 
d="M595 1262c-27.333 0 -53.999 2.00098 -79.999 6.00098c-64.667 -90 -185.667 -140 -363 -150v78c144 13.333 239.333 44.666 286 93.999c-50 9.33301 -93.5 29.166 -130.5 59.499s-55.5 67.5 -55.5 111.5c0 48.667 15.333 87.834 46 117.501s69.667 44.5 117 44.5
c48 0 87.167 -15 117.5 -45s45.5 -69.333 45.5 -118c0 -37.333 -8.66699 -77 -26 -119c17.333 -2.66699 31.666 -4 42.999 -4v-75zM472.001 1355c18 42 27 76.667 27 104c0 24 -7.66699 43.833 -23 59.5s-34.333 23.5 -57 23.5c-26 0 -47 -7.66699 -63 -23s-24 -36 -24 -62
c0 -43.333 46.667 -77.333 140 -102z" />
    <glyph glyph-name="uniFE79" unicode="&#x640;&#x64f;" horiz-adv-x="791" arabic-form="medial" 
d="M486 0v180h326v-180h-326zM228 0v180h326v-180h-326zM-20 0v180h326v-180h-326zM595 1181c-27.333 0 -53.999 2.00098 -79.999 6.00098c-64.667 -90 -185.667 -140 -363 -150v78c144 13.333 239.333 44.666 286 93.999c-50 9.33301 -93.5 29.166 -130.5 59.499
s-55.5 67.5 -55.5 111.5c0 48.667 15.333 87.834 46 117.501s69.667 44.5 117 44.5c48 0 87.167 -15 117.5 -45s45.5 -69.333 45.5 -118c0 -37.333 -8.66699 -77 -26 -119c17.333 -2.66699 31.666 -4 42.999 -4v-75zM472.001 1274c18 42 27 76.667 27 104
c0 24 -7.66699 43.833 -23 59.5s-34.333 23.5 -57 23.5c-26 0 -47 -7.66699 -63 -23s-24 -36 -24 -62c0 -43.333 46.667 -77.333 140 -102z" />
    <glyph glyph-name="uniFE7A" unicode="&#x20;&#x650;" horiz-adv-x="791" arabic-form="isolated" 
d="M176 -334v104l455 186v-103z" />
    <glyph glyph-name="uniFE7B" unicode="&#x640;&#x650;" horiz-adv-x="791" arabic-form="medial" 
d="M486 0v180h326v-180h-326zM228 0v180h326v-180h-326zM-20 0v180h326v-180h-326zM182 -452v104l455 186v-103z" />
    <glyph glyph-name="uniFE7C" unicode="&#x20;&#x651;" horiz-adv-x="791" arabic-form="isolated" 
d="M426 1569c2 -53.333 3.00098 -80.6631 3.00098 -81.9961c5.33301 -68 28.666 -102 69.999 -102c44.667 0 67 33.667 67 101c0 24 -5.66699 63.333 -17 118l88 14c12 -40.667 18 -81.334 18 -122.001c0 -134 -49 -201.667 -147 -203
c-22.667 0 -44.334 5.16699 -65.001 15.5s-35.334 24.166 -44.001 41.499c-9.33301 -36 -27.666 -61.833 -54.999 -77.5s-58.666 -23.5 -93.999 -23.5c-46.667 0 -81.334 15 -104.001 45s-34 74.333 -34 133c0 12 0.5 23.833 1.5 35.5s2.5 22.834 4.5 33.501
s4.33301 21 7 31l78 -13c-6 -26.667 -9 -54.334 -9 -83.001c0 -56 22.667 -84 68 -84c14 0 26 1.5 36 4.5s18.167 8.5 24.5 16.5s11.333 16.167 15 24.5s6.33398 20.666 8.00098 36.999s2.66699 31.166 3 44.499s0.5 32 0.5 56v39h77z" />
    <glyph glyph-name="uniFE7D" unicode="&#x640;&#x651;" horiz-adv-x="791" arabic-form="medial" 
d="M486 0v180h326v-180h-326zM228 0v180h326v-180h-326zM-20 0v180h326v-180h-326zM437 1568c2 -53.333 3.00098 -80.6631 3.00098 -81.9961c5.33301 -68 28.666 -102 69.999 -102c44.667 0 67 33.667 67 101c0 24 -5.66699 63.333 -17 118l88 14
c12 -40.667 18 -81.334 18 -122.001c0 -134 -49 -201.667 -147 -203c-22.667 0 -44.334 5.16699 -65.001 15.5s-35.334 24.166 -44.001 41.499c-9.33301 -36 -27.666 -61.833 -54.999 -77.5s-58.666 -23.5 -93.999 -23.5c-46.667 0 -81.334 15 -104.001 45
s-34 74.333 -34 133c0 12 0.5 23.833 1.5 35.5s2.5 22.834 4.5 33.501s4.33301 21 7 31l78 -13c-6 -26.667 -9 -54.334 -9 -83.001c0 -56 22.667 -84 68 -84c14 0 26 1.5 36 4.5s18.167 8.5 24.5 16.5s11.333 16.167 15 24.5s6.33398 20.666 8.00098 36.999
s2.66699 31.166 3 44.499s0.5 32 0.5 56v39h77z" />
    <glyph glyph-name="uniFE7E" unicode="&#x20;&#x652;" horiz-adv-x="791" arabic-form="isolated" 
d="M319 1452c0 -26 9.16699 -48 27.5 -66s40.5 -27 66.5 -27s48 9 66 27s27 40 27 66s-9 48.167 -27 66.5s-40 27.5 -66 27.5s-48.167 -9.16699 -66.5 -27.5s-27.5 -40.5 -27.5 -66.5zM240 1452c0 47.333 17 88 51 122s74.667 51 122 51s88 -17 122 -51s51 -74.667 51 -122
s-17 -88 -51 -122s-74.667 -51 -122 -51s-88 17 -122 51s-51 74.667 -51 122z" />
    <glyph glyph-name="uniFE7F" unicode="&#x640;&#x652;" horiz-adv-x="791" arabic-form="medial" 
d="M486 0v180h326v-180h-326zM228 0v180h326v-180h-326zM-20 0v180h326v-180h-326zM309 1462c0 -26 9.16699 -48 27.5 -66s40.5 -27 66.5 -27s48 9 66 27s27 40 27 66s-9 48.167 -27 66.5s-40 27.5 -66 27.5s-48.167 -9.16699 -66.5 -27.5s-27.5 -40.5 -27.5 -66.5z
M230 1462c0 47.333 17 88 51 122s74.667 51 122 51s88 -17 122 -51s51 -74.667 51 -122s-17 -88 -51 -122s-74.667 -51 -122 -51s-88 17 -122 51s-51 74.667 -51 122z" />
    <glyph glyph-name="uniFEF5" unicode="&#xfedf;&#xfe82;" horiz-adv-x="1212" arabic-form="isolated" 
d="M225 1466c-55.333 0 -113.998 -37 -175.998 -111l-101 91c76 107.333 157 161.333 243 162c28 0 67.167 -8.5 117.5 -25.5s89.5 -25.5 117.5 -25.5c47.333 0 106.666 18 177.999 54l66 -122c-74.667 -46 -147.334 -69 -218.001 -69c-27.333 0 -65.5 7.66699 -114.5 23
s-86.5 23 -112.5 23zM175.002 196c78 -10 152.669 -15.001 224.002 -15.001c37.333 0 72 1 104 3c-79.333 274 -210.333 620.667 -393 1040l149 81c179.333 -433.333 313.666 -795.666 402.999 -1087c54 17.333 97.5 40.5 130.5 69.5s58.333 69 76 120
s26.5 114.5 26.5 190.5v768h169v-769c0 -208 -54.667 -359 -164 -453s-277.333 -141 -504 -141c-86.667 0 -160.334 5.33301 -221.001 16v177z" />
    <glyph glyph-name="uniFEF6" unicode="&#xfee0;&#xfe82;" horiz-adv-x="1273" arabic-form="final" 
d="M225 1466c-55.333 0 -113.998 -37 -175.998 -111l-101 91c76 107.333 157 161.333 243 162c28 0 67.167 -8.5 117.5 -25.5s89.5 -25.5 117.5 -25.5c47.333 0 106.666 18 177.999 54l66 -122c-74.667 -46 -147.334 -69 -218.001 -69c-27.333 0 -65.5 7.66699 -114.5 23
s-86.5 23 -112.5 23zM259.002 1305c179.333 -433.333 313.67 -795.667 403.003 -1087c54 17.333 97.5 40.5 130.5 69.5s58.333 69 76 120s26.5 114.5 26.5 190.5v768h169v-819c0 -125.333 14.833 -217.833 44.5 -277.5s79.167 -89.5 148.5 -89.5h36v-180h-39
c-80.667 -0 -144.834 18.833 -192.501 56.5s-82.834 95.167 -105.501 172.5c-111.333 -150.667 -298 -226 -560 -226c-86.667 0 -160.334 5.33301 -221.001 16v177c76 -10 150.333 -15 223 -15c37.333 0 72.333 1 105 3c-81.333 275.333 -212.333 622 -393 1040z" />
    <glyph glyph-name="uniFEF7" unicode="&#xfedf;&#xfe84;" horiz-adv-x="1212" arabic-form="isolated" 
d="M88 1498c-24.667 20.667 -42.5029 43.834 -53.5029 69.501s-16.5 57.167 -16.5 94.5c0 62 19.833 112.167 59.5 150.5s86.834 57.5 141.501 57.5c24 0 47.333 -3.5 70 -10.5s44.667 -17.167 66 -30.5l1 -119c-41.333 24.667 -82.333 37 -123 37
c-18 0 -34.167 -3.16699 -48.5 -9.5s-26.5 -17 -36.5 -32s-15 -33.833 -15 -56.5c0.666992 -14.667 3.83398 -27.834 9.50098 -39.501s15 -22.5 28 -32.5s29.833 -19 50.5 -27c4 -1.33301 7.5 -2.33301 10.5 -3s6.16699 -1 9.5 -1h2.5c1 0 1.83301 0.166992 2.5 0.5
s1.66699 0.5 3 0.5l71 14.5c30.667 6.33301 51.334 10.5 62.001 12.5v-116l-397 -96v113zM174.997 196c78 -10 152.669 -15.001 224.002 -15.001c37.333 0 72 1 104 3c-79.333 274 -210.333 620.667 -393 1040l149 81c179.333 -433.333 313.666 -795.666 402.999 -1087
c54 17.333 97.5 40.5 130.5 69.5s58.333 69 76 120s26.5 114.5 26.5 190.5v768h169v-769c0 -208 -54.667 -359 -164 -453s-277.333 -141 -504 -141c-86.667 0 -160.334 5.33301 -221.001 16v177z" />
    <glyph glyph-name="uniFEF8" unicode="&#xfee0;&#xfe84;" horiz-adv-x="1273" arabic-form="final" 
d="M259 1305c179.333 -433.333 313.67 -795.667 403.003 -1087c54 17.333 97.5 40.5 130.5 69.5s58.333 69 76 120s26.5 114.5 26.5 190.5v768h169v-819c0 -125.333 14.833 -217.833 44.5 -277.5s79.167 -89.5 148.5 -89.5h36v-180h-39
c-80.667 -0 -144.834 18.833 -192.501 56.5s-82.834 95.167 -105.501 172.5c-111.333 -150.667 -298 -226 -560 -226c-86.667 0 -160.334 5.33301 -221.001 16v177c76 -10 150.333 -15 223 -15c37.333 0 72.333 1 105 3c-81.333 275.333 -212.333 622 -393 1040z
M88.0039 1498c-24.667 20.667 -42.5029 43.834 -53.5029 69.501s-16.5 57.167 -16.5 94.5c0 62 19.833 112.167 59.5 150.5s86.834 57.5 141.501 57.5c24 0 47.333 -3.5 70 -10.5s44.667 -17.167 66 -30.5l1 -119c-41.333 24.667 -82.333 37 -123 37
c-18 0 -34.167 -3.16699 -48.5 -9.5s-26.5 -17 -36.5 -32s-15 -33.833 -15 -56.5c0.666992 -14.667 3.83398 -27.834 9.50098 -39.501s15 -22.5 28 -32.5s29.833 -19 50.5 -27c4 -1.33301 7.5 -2.33301 10.5 -3s6.16699 -1 9.5 -1h2.5c1 0 1.83301 0.166992 2.5 0.5
s1.66699 0.5 3 0.5l71 14.5c30.667 6.33301 51.334 10.5 62.001 12.5v-116l-397 -96v113z" />
    <glyph glyph-name="uniFEF9" unicode="&#xfedf;&#xfe88;" horiz-adv-x="1212" arabic-form="isolated" 
d="M180 -504c-24.667 20.667 -42.5029 43.834 -53.5029 69.501s-16.5 57.167 -16.5 94.5c0 62 19.833 112.167 59.5 150.5s86.834 57.5 141.501 57.5c24 0 47.333 -3.5 70 -10.5s44.667 -17.167 66 -30.5l1 -119c-41.333 24.667 -82.333 37 -123 37
c-18 0 -34.167 -3.16699 -48.5 -9.5s-26.5 -17 -36.5 -32s-15 -33.833 -15 -56.5c0.666992 -14.667 3.83398 -27.834 9.50098 -39.501s15 -22.5 28 -32.5s29.833 -19 50.5 -27c4 -1.33301 7.5 -2.33301 10.5 -3s6.16699 -1 9.5 -1h2.5c1 0 1.83301 0.166992 2.5 0.5
s1.66699 0.5 3 0.5l71 14.5c30.667 6.33301 51.334 10.5 62.001 12.5v-116l-397 -96v113zM174.997 196c78 -10 152.669 -15.001 224.002 -15.001c37.333 0 72 1 104 3c-79.333 274 -210.333 620.667 -393 1040l149 81c179.333 -433.333 313.666 -795.666 402.999 -1087
c54 17.333 97.5 40.5 130.5 69.5s58.333 69 76 120s26.5 114.5 26.5 190.5v768h169v-769c0 -208 -54.667 -359 -164 -453s-277.333 -141 -504 -141c-86.667 0 -160.334 5.33301 -221.001 16v177z" />
    <glyph glyph-name="uniFEFA" unicode="&#xfee0;&#xfe88;" horiz-adv-x="1273" arabic-form="final" 
d="M180 -504c-24.667 20.667 -42.5029 43.834 -53.5029 69.501s-16.5 57.167 -16.5 94.5c0 62 19.833 112.167 59.5 150.5s86.834 57.5 141.501 57.5c24 0 47.333 -3.5 70 -10.5s44.667 -17.167 66 -30.5l1 -119c-41.333 24.667 -82.333 37 -123 37
c-18 0 -34.167 -3.16699 -48.5 -9.5s-26.5 -17 -36.5 -32s-15 -33.833 -15 -56.5c0.666992 -14.667 3.83398 -27.834 9.50098 -39.501s15 -22.5 28 -32.5s29.833 -19 50.5 -27c4 -1.33301 7.5 -2.33301 10.5 -3s6.16699 -1 9.5 -1h2.5c1 0 1.83301 0.166992 2.5 0.5
s1.66699 0.5 3 0.5l71 14.5c30.667 6.33301 51.334 10.5 62.001 12.5v-116l-397 -96v113zM258.997 1305c179.333 -433.333 313.67 -795.667 403.003 -1087c54 17.333 97.5 40.5 130.5 69.5s58.333 69 76 120s26.5 114.5 26.5 190.5v768h169v-819
c0 -125.333 14.833 -217.833 44.5 -277.5s79.167 -89.5 148.5 -89.5h36v-180h-39c-80.667 -0 -144.834 18.833 -192.501 56.5s-82.834 95.167 -105.501 172.5c-111.333 -150.667 -298 -226 -560 -226c-86.667 0 -160.334 5.33301 -221.001 16v177
c76 -10 150.333 -15 223 -15c37.333 0 72.333 1 105 3c-81.333 275.333 -212.333 622 -393 1040z" />
    <glyph glyph-name="uniFEFB" unicode="&#xfedf;&#xfe8e;" horiz-adv-x="1212" arabic-form="isolated" 
d="M175 196c78 -10 152.669 -15.001 224.002 -15.001c37.333 0 72 1 104 3c-79.333 274 -210.333 620.667 -393 1040l149 81c179.333 -433.333 313.666 -795.666 402.999 -1087c54 17.333 97.5 40.5 130.5 69.5s58.333 69 76 120s26.5 114.5 26.5 190.5v768h169v-769
c0 -208 -54.667 -359 -164 -453s-277.333 -141 -504 -141c-86.667 0 -160.334 5.33301 -221.001 16v177z" />
    <glyph glyph-name="uniFEFC" unicode="&#xfee0;&#xfe8e;" horiz-adv-x="1273" arabic-form="final" 
d="M259 1305c179.333 -433.333 313.67 -795.667 403.003 -1087c54 17.333 97.5 40.5 130.5 69.5s58.333 69 76 120s26.5 114.5 26.5 190.5v768h169v-819c0 -125.333 14.833 -217.833 44.5 -277.5s79.167 -89.5 148.5 -89.5h36v-180h-39
c-80.667 -0 -144.834 18.833 -192.501 56.5s-82.834 95.167 -105.501 172.5c-111.333 -150.667 -298 -226 -560 -226c-86.667 0 -160.334 5.33301 -221.001 16v177c76 -10 150.333 -15 223 -15c37.333 0 72.333 1 105 3c-81.333 275.333 -212.333 622 -393 1040z" />
    <glyph glyph-name="uni0651064B" unicode="&#x64b;&#x651;" horiz-adv-x="3" 
d="M334 1258v104l455 186v-103zM334 1470v104l455 186v-103zM615 1217c2 -53.333 3.00098 -80.6631 3.00098 -81.9961c5.33301 -68 28.666 -102 69.999 -102c44.667 0 67 33.667 67 101c0 24 -5.66699 63.333 -17 118l88 14c12 -40.667 18 -81.334 18 -122.001
c0 -134 -49 -201.667 -147 -203c-22.667 0 -44.334 5.16699 -65.001 15.5s-35.334 24.166 -44.001 41.499c-9.33301 -36 -27.666 -61.833 -54.999 -77.5s-58.666 -23.5 -93.999 -23.5c-46.667 0 -81.334 15 -104.001 45s-34 74.333 -34 133c0 12 0.5 23.833 1.5 35.5
s2.5 22.834 4.5 33.501s4.33301 21 7 31l78 -13c-6 -26.667 -9 -54.334 -9 -83.001c0 -56 22.667 -84 68 -84c14 0 26 1.5 36 4.5s18.167 8.5 24.5 16.5s11.333 16.167 15 24.5s6.33398 20.666 8.00098 36.999s2.66699 31.166 3 44.499s0.5 32 0.5 56v39h77z" />
    <glyph glyph-name="uni0651064C" unicode="&#x64c;&#x651;" horiz-adv-x="3" 
d="M483 1701c0 48 15.333 87 46 117s69.667 45 117 45c48 0 87 -14.833 117 -44.5s45 -69.167 45 -118.5c0 -38 -9 -78.333 -27 -121c15.333 -2.66699 29.666 -4 42.999 -4v-76c-25.333 1.33301 -50.666 4.33301 -75.999 9c-31.333 -75.333 -70.5 -131.666 -117.5 -168.999
s-101.833 -56 -164.5 -56c-64.667 0 -114.5 27.667 -149.5 83s-53.167 130.666 -54.5 225.999l79 14c1.33301 -74.667 12.833 -134.167 34.5 -178.5s52.167 -66.5 91.5 -66.5c74 0 140.667 53 200 159c-59.333 20.667 -104.833 45 -136.5 73s-47.5 64 -47.5 108zM703 1595
c18 42 26.999 76.667 26.999 104c0 24 -7.83301 44 -23.5 60s-34.5 24 -56.5 24c-25.333 0 -46.166 -7.83301 -62.499 -23.5s-24.5 -36.5 -24.5 -62.5c0 -43.333 46.667 -77.333 140 -102zM631.999 1211c2 -53.333 3.00098 -80.6631 3.00098 -81.9961
c5.33301 -68 28.666 -102 69.999 -102c44.667 0 67 33.667 67 101c0 24 -5.66699 63.333 -17 118l88 14c12 -40.667 18 -81.334 18 -122.001c0 -134 -49 -201.667 -147 -203c-22.667 0 -44.334 5.16699 -65.001 15.5s-35.334 24.166 -44.001 41.499
c-9.33301 -36 -27.666 -61.833 -54.999 -77.5s-58.666 -23.5 -93.999 -23.5c-46.667 0 -81.334 15 -104.001 45s-34 74.333 -34 133c0 12 0.5 23.833 1.5 35.5s2.5 22.834 4.5 33.501s4.33301 21 7 31l78 -13c-6 -26.667 -9 -54.334 -9 -83.001c0 -56 22.667 -84 68 -84
c14 0 26 1.5 36 4.5s18.167 8.5 24.5 16.5s11.333 16.167 15 24.5s6.33398 20.666 8.00098 36.999s2.66699 31.166 3 44.499s0.5 32 0.5 56v39h77z" />
    <glyph glyph-name="uni064B0651" unicode="&#x64d;&#x651;" horiz-adv-x="3" 
d="M533 1683c2 -53.333 3.00098 -80.6631 3.00098 -81.9961c5.33301 -68 28.666 -102 69.999 -102c44.667 0 67 33.667 67 101c0 24 -5.66699 63.333 -17 118l88 14c12 -40.667 18 -81.334 18 -122.001c0 -134 -49 -201.667 -147 -203
c-22.667 0 -44.334 5.16699 -65.001 15.5s-35.334 24.166 -44.001 41.499c-9.33301 -36 -27.666 -61.833 -54.999 -77.5s-58.666 -23.5 -93.999 -23.5c-46.667 0 -81.334 15 -104.001 45s-34 74.333 -34 133c0 12 0.5 23.833 1.5 35.5s2.5 22.834 4.5 33.501
s4.33301 21 7 31l78 -13c-6 -26.667 -9 -54.334 -9 -83.001c0 -56 22.667 -84 68 -84c14 0 26 1.5 36 4.5s18.167 8.5 24.5 16.5s11.333 16.167 15 24.5s6.33398 20.666 8.00098 36.999s2.66699 31.166 3 44.499s0.5 32 0.5 56v39h77zM283.001 869.003v104l455 186v-103z
M283.001 1081v104l455 186v-103z" />
    <glyph glyph-name="uni0651064E" unicode="&#x64e;&#x651;" horiz-adv-x="3" 
d="M318 1457v104l456 186v-104zM620 1425c2 -53.333 3.00098 -80.6631 3.00098 -81.9961c5.33301 -68 28.666 -102 69.999 -102c44.667 0 67 33.667 67 101c0 24 -5.66699 63.333 -17 118l88 14c12 -40.667 18 -81.334 18 -122.001c0 -134 -49 -201.667 -147 -203
c-22.667 0 -44.334 5.16699 -65.001 15.5s-35.334 24.166 -44.001 41.499c-9.33301 -36 -27.666 -61.833 -54.999 -77.5s-58.666 -23.5 -93.999 -23.5c-46.667 0 -81.334 15 -104.001 45s-34 74.333 -34 133c0 12 0.5 23.833 1.5 35.5s2.5 22.834 4.5 33.501
s4.33301 21 7 31l78 -13c-6 -26.667 -9 -54.334 -9 -83.001c0 -56 22.667 -84 68 -84c14 0 26 1.5 36 4.5s18.167 8.5 24.5 16.5s11.333 16.167 15 24.5s6.33398 20.666 8.00098 36.999s2.66699 31.166 3 44.499s0.5 32 0.5 56v39h77z" />
    <glyph glyph-name="uni0651064F" unicode="&#x64f;&#x651;" horiz-adv-x="3" 
d="M759 1414c-27.333 0 -53.999 2.00098 -79.999 6.00098c-64.667 -90 -185.667 -140 -363 -150v78c144 13.333 239.333 44.666 286 93.999c-50 9.33301 -93.5 29.166 -130.5 59.499s-55.5 67.5 -55.5 111.5c0 48.667 15.333 87.834 46 117.501s69.667 44.5 117 44.5
c48 0 87.167 -15 117.5 -45s45.5 -69.333 45.5 -118c0 -37.333 -8.66699 -77 -26 -119c17.333 -2.66699 31.666 -4 42.999 -4v-75zM636.001 1507c18 42 27 76.667 27 104c0 24 -7.66699 43.833 -23 59.5s-34.333 23.5 -57 23.5c-26 0 -47 -7.66699 -63 -23s-24 -36 -24 -62
c0 -43.333 46.667 -77.333 140 -102zM617.001 1218c2 -53.333 3.00098 -80.6631 3.00098 -81.9961c5.33301 -68 28.666 -102 69.999 -102c44.667 0 67 33.667 67 101c0 24 -5.66699 63.333 -17 118l88 14c12 -40.667 18 -81.334 18 -122.001c0 -134 -49 -201.667 -147 -203
c-22.667 0 -44.334 5.16699 -65.001 15.5s-35.334 24.166 -44.001 41.499c-9.33301 -36 -27.666 -61.833 -54.999 -77.5s-58.666 -23.5 -93.999 -23.5c-46.667 0 -81.334 15 -104.001 45s-34 74.333 -34 133c0 12 0.5 23.833 1.5 35.5s2.5 22.834 4.5 33.501
s4.33301 21 7 31l78 -13c-6 -26.667 -9 -54.334 -9 -83.001c0 -56 22.667 -84 68 -84c14 0 26 1.5 36 4.5s18.167 8.5 24.5 16.5s11.333 16.167 15 24.5s6.33398 20.666 8.00098 36.999s2.66699 31.166 3 44.499s0.5 32 0.5 56v39h77z" />
    <glyph glyph-name="uni064E0651" unicode="&#x650;&#x651;" horiz-adv-x="3" 
d="M605 1630c2 -53.333 3.00098 -80.6631 3.00098 -81.9961c5.33301 -68 28.666 -102 69.999 -102c44.667 0 67 33.667 67 101c0 24 -5.66699 63.333 -17 118l88 14c12 -40.667 18 -81.334 18 -122.001c0 -134 -49 -201.667 -147 -203
c-22.667 0 -44.334 5.16699 -65.001 15.5s-35.334 24.166 -44.001 41.499c-9.33301 -36 -27.666 -61.833 -54.999 -77.5s-58.666 -23.5 -93.999 -23.5c-46.667 0 -81.334 15 -104.001 45s-34 74.333 -34 133c0 12 0.5 23.833 1.5 35.5s2.5 22.834 4.5 33.501
s4.33301 21 7 31l78 -13c-6 -26.667 -9 -54.334 -9 -83.001c0 -56 22.667 -84 68 -84c14 0 26 1.5 36 4.5s18.167 8.5 24.5 16.5s11.333 16.167 15 24.5s6.33398 20.666 8.00098 36.999s2.66699 31.166 3 44.499s0.5 32 0.5 56v39h77zM354.001 999.003v104l456 186v-104z
" />
    <glyph glyph-name="uni0654064E" unicode="&#x64e;&#x654;" horiz-adv-x="3" 
d="M324 1675v104l456 186v-104zM461 1318c-24.667 20.667 -42.5029 43.834 -53.5029 69.501s-16.5 57.167 -16.5 94.5c0 62 19.833 112.167 59.5 150.5s86.834 57.5 141.501 57.5c24 0 47.333 -3.5 70 -10.5s44.667 -17.167 66 -30.5l1 -119
c-41.333 24.667 -82.333 37 -123 37c-18 0 -34.167 -3.16699 -48.5 -9.5s-26.5 -17 -36.5 -32s-15 -33.833 -15 -56.5c0.666992 -14.667 3.83398 -27.834 9.50098 -39.501s15 -22.5 28 -32.5s29.833 -19 50.5 -27c4 -1.33301 7.5 -2.33301 10.5 -3s6.16699 -1 9.5 -1h2.5
c1 0 1.83301 0.166992 2.5 0.5s1.66699 0.5 3 0.5l71 14.5c30.667 6.33301 51.334 10.5 62.001 12.5v-116l-397 -96v113z" />
    <glyph glyph-name="uni0654064F" unicode="&#x64f;&#x654;" horiz-adv-x="3" 
d="M697 1638c-27.333 0 -53.999 2.00098 -79.999 6.00098c-64.667 -90 -185.667 -140 -363 -150v78c144 13.333 239.333 44.666 286 93.999c-50 9.33301 -93.5 29.166 -130.5 59.499s-55.5 67.5 -55.5 111.5c0 48.667 15.333 87.834 46 117.501s69.667 44.5 117 44.5
c48 0 87.167 -15 117.5 -45s45.5 -69.333 45.5 -118c0 -37.333 -8.66699 -77 -26 -119c17.333 -2.66699 31.666 -4 42.999 -4v-75zM574.001 1731c18 42 27 76.667 27 104c0 24 -7.66699 43.833 -23 59.5s-34.333 23.5 -57 23.5c-26 0 -47 -7.66699 -63 -23s-24 -36 -24 -62
c0 -43.333 46.667 -77.333 140 -102zM454.001 1100c-24.667 20.667 -42.5029 43.834 -53.5029 69.501s-16.5 57.167 -16.5 94.5c0 62 19.833 112.167 59.5 150.5s86.834 57.5 141.501 57.5c24 0 47.333 -3.5 70 -10.5s44.667 -17.167 66 -30.5l1 -119
c-41.333 24.667 -82.333 37 -123 37c-18 0 -34.167 -3.16699 -48.5 -9.5s-26.5 -17 -36.5 -32s-15 -33.833 -15 -56.5c0.666992 -14.667 3.83398 -27.834 9.50098 -39.501s15 -22.5 28 -32.5s29.833 -19 50.5 -27c4 -1.33301 7.5 -2.33301 10.5 -3s6.16699 -1 9.5 -1h2.5
c1 0 1.83301 0.166992 2.5 0.5s1.66699 0.5 3 0.5l71 14.5c30.667 6.33301 51.334 10.5 62.001 12.5v-116l-397 -96v113z" />
    <glyph glyph-name="LamAlefWasla" unicode="&#xfedf;&#xfb51;" horiz-adv-x="1212" 
d="M222 1453c36 0 65.835 0.831055 89.502 2.49805s44.834 4.33398 63.501 8.00098s33.167 8.83398 43.5 15.501s18 15.167 23 25.5s7.5 22.833 7.5 37.5c0 12.667 -2.33301 24.5 -7 35.5s-10.834 20.5 -18.501 28.5s-17.334 14.333 -29.001 19s-24.167 7 -37.5 7
c-24 0 -46.5 -6.16699 -67.5 -18.5s-41.833 -30.833 -62.5 -55.5s-45.334 -59.667 -74.001 -105h69zM-24.998 1435l17.001 81.9971c3.33301 -3.33301 7.66602 -7.16602 12.999 -11.499s14.333 -11.166 27 -20.499s23.667 -15.666 33 -18.999
c54.667 92 103.334 157 146.001 195s90 57 142 57c52.667 0 95.667 -16.167 129 -48.5s50 -73.5 50 -123.5c0 -65.333 -23 -111.333 -69 -138s-125.667 -40 -239 -40h-24c-40 0 -74.833 2.33301 -104.5 7s-54.834 12 -75.501 22s-35.667 22.667 -45 38zM175.003 195.995
c78 -10 152.669 -15.001 224.002 -15.001c37.333 0 72 1 104 3c-79.333 274 -210.333 620.667 -393 1040l149 81c179.333 -433.333 313.666 -795.666 402.999 -1087c54 17.333 97.5 40.5 130.5 69.5s58.333 69 76 120s26.5 114.5 26.5 190.5v768h169v-769
c0 -208 -54.667 -359 -164 -453s-277.333 -141 -504 -141c-86.667 0 -160.334 5.33301 -221.001 16v177z" />
    <glyph glyph-name="LamAlefWasla.fina" unicode="&#xfee0;&#xfb51;" horiz-adv-x="1273" 
d="M222 1453c36 0 65.835 0.831055 89.502 2.49805s44.834 4.33398 63.501 8.00098s33.167 8.83398 43.5 15.501s18 15.167 23 25.5s7.5 22.833 7.5 37.5c0 12.667 -2.33301 24.5 -7 35.5s-10.834 20.5 -18.501 28.5s-17.334 14.333 -29.001 19s-24.167 7 -37.5 7
c-24 0 -46.5 -6.16699 -67.5 -18.5s-41.833 -30.833 -62.5 -55.5s-45.334 -59.667 -74.001 -105h69zM-24.998 1435l17.001 81.9971c3.33301 -3.33301 7.66602 -7.16602 12.999 -11.499s14.333 -11.166 27 -20.499s23.667 -15.666 33 -18.999
c54.667 92 103.334 157 146.001 195s90 57 142 57c52.667 0 95.667 -16.167 129 -48.5s50 -73.5 50 -123.5c0 -65.333 -23 -111.333 -69 -138s-125.667 -40 -239 -40h-24c-40 0 -74.833 2.33301 -104.5 7s-54.834 12 -75.501 22s-35.667 22.667 -45 38zM259.003 1305
c179.333 -433.333 313.67 -795.667 403.003 -1087c54 17.333 97.5 40.5 130.5 69.5s58.333 69 76 120s26.5 114.5 26.5 190.5v768h169v-819c0 -125.333 14.833 -217.833 44.5 -277.5s79.167 -89.5 148.5 -89.5h36v-180h-39c-80.667 0 -144.834 18.833 -192.501 56.5
s-82.834 95.167 -105.501 172.5c-111.333 -150.667 -298 -226 -560 -226c-86.667 0 -160.334 5.33301 -221.001 16v177c76 -10 150.333 -15 223 -15c37.333 0 72.333 1 105 3c-81.333 275.333 -212.333 622 -393 1040z" />
    <glyph glyph-name="uni066E.fina" unicode="&#x66e;" horiz-adv-x="1878" 
d="M985 0l-145.001 0.000976562c-241.333 0 -425.333 40.667 -552 122s-190 202 -190 362c0 86 18 170.667 54 254l153 -57c-21.333 -56.667 -32 -114 -32 -172c0.666992 -219.333 186.334 -329 557.001 -329h150c262 0 428.667 43 500 129c23.333 28 35 69 35 123
c0 26 -2.33301 78 -7 156l161 20l16 -248c4 -60.667 21.167 -105.834 51.5 -135.501s75.833 -44.5 136.5 -44.5h25v-180h-25c-137.333 -0 -236.333 59.333 -297 178c-112.667 -118.667 -309.667 -178 -591 -178z" />
    <glyph glyph-name="uni066F.fina" unicode="&#x66f;" horiz-adv-x="1450" 
d="M343 422c-48.667 -128.667 -72.999 -249.001 -72.999 -361.001c0 -272 152.667 -408 458 -408c151.333 0 260.666 28 327.999 84s106.666 144 117.999 264h-151c-242.667 0 -364 98.667 -364 296c0 116.667 31.667 216.5 95 299.5s143 124.5 239 124.5
c200.667 0 316.334 -180.333 347.001 -541h130v-180h-132c-20 -177.333 -77.833 -308.333 -173.5 -393s-243.5 -127 -443.5 -127c-209.333 0 -365.5 47.833 -468.5 143.5s-154.5 239.834 -154.5 432.501c0 140 30 283 90 429zM1176 180.999
c-15.333 236.667 -81 355 -197 355c-44 0 -80.833 -22.5 -110.5 -67.5s-44.5 -97.167 -44.5 -156.5c0 -87.333 63 -131 189 -131h163z" />
    <glyph glyph-name="uni067C.init" unicode="&#x67c;" horiz-adv-x="695" 
d="M194 -83c0 -26 9.16699 -48 27.5 -66s40.5 -27 66.5 -27s48 9 66 27s27 40 27 66s-9 48.167 -27 66.5s-40 27.5 -66 27.5s-48.167 -9.16699 -66.5 -27.5s-27.5 -40.5 -27.5 -66.5zM106 -83c0 50 17.833 92.833 53.5 128.5s78.5 53.5 128.5 53.5
s92.833 -17.833 128.5 -53.5s53.5 -78.5 53.5 -128.5s-17.833 -92.833 -53.5 -128.5s-78.5 -53.5 -128.5 -53.5s-92.833 17.833 -128.5 53.5s-53.5 78.5 -53.5 128.5zM335 1040l140 140l141 -140l-141 -142zM3 1040l140 140l141 -140l-141 -142zM526 738
c32 -107.333 48.001 -214.667 48.001 -322c0 -146 -35.833 -251.833 -107.5 -317.5s-184.167 -98.5 -337.5 -98.5h-149v180h149c52 0 94.167 3 126.5 9s60.166 17.5 83.499 34.5s39.833 40.667 49.5 71s14.5 69.833 14.5 118.5c0 88 -12.333 183 -37 285z" />
    <glyph glyph-name="uni067C.medi" unicode="&#x67c;" horiz-adv-x="767" 
d="M194 -83c0 -26 9.16699 -48 27.5 -66s40.5 -27 66.5 -27s48 9 66 27s27 40 27 66s-9 48.167 -27 66.5s-40 27.5 -66 27.5s-48.167 -9.16699 -66.5 -27.5s-27.5 -40.5 -27.5 -66.5zM106 -83c0 50 17.833 92.833 53.5 128.5s78.5 53.5 128.5 53.5
s92.833 -17.833 128.5 -53.5s53.5 -78.5 53.5 -128.5s-17.833 -92.833 -53.5 -128.5s-78.5 -53.5 -128.5 -53.5s-92.833 17.833 -128.5 53.5s-53.5 78.5 -53.5 128.5zM336 957l140 140l141 -140l-141 -142zM4 957l140 140l141 -140l-141 -142zM787 0l-24 -0.000976562
c-68 0 -123.5 11.833 -166.5 35.5s-77.5 59.5 -103.5 107.5c-68 -95.333 -189.333 -143 -364 -143h-149v180h151c100.667 0 171 14.833 211 44.5s60.333 83.834 61 162.501c0 54.667 -2.66699 122 -8 202l164 19l16 -247c8 -120.667 71.333 -181 190 -181h22v-180z" />
    <glyph glyph-name="uni067C.fina" unicode="&#x67c;" horiz-adv-x="1878" 
d="M804 -95c0 -26 9.16699 -48 27.5 -66s40.5 -27 66.5 -27s48 9 66 27s27 40 27 66s-9 48.167 -27 66.5s-40 27.5 -66 27.5s-48.167 -9.16699 -66.5 -27.5s-27.5 -40.5 -27.5 -66.5zM716 -95c0 50 17.833 92.833 53.5 128.5s78.5 53.5 128.5 53.5
s92.833 -17.833 128.5 -53.5s53.5 -78.5 53.5 -128.5s-17.833 -92.833 -53.5 -128.5s-78.5 -53.5 -128.5 -53.5s-92.833 17.833 -128.5 53.5s-53.5 78.5 -53.5 128.5zM936 859l140 140l141 -140l-141 -142zM604 859l140 140l141 -140l-141 -142zM985 0l-145.001 0.000976562
c-241.333 0 -425.333 40.667 -552 122s-190 202 -190 362c0 86 18 170.667 54 254l153 -57c-21.333 -56.667 -32 -114 -32 -172c0.666992 -219.333 186.334 -329 557.001 -329h150c262 0 428.667 43 500 129c23.333 28 35 69 35 123c0 26 -2.33301 78 -7 156l161 20l16 -248
c4 -60.667 21.167 -105.834 51.5 -135.501s75.833 -44.5 136.5 -44.5h25v-180h-25c-137.333 -0 -236.333 59.333 -297 178c-112.667 -118.667 -309.667 -178 -591 -178z" />
    <glyph glyph-name="uni0681.init" unicode="&#x681;" horiz-adv-x="1334" 
d="M525 1119c-24.667 20.667 -42.5029 43.834 -53.5029 69.501s-16.5 57.167 -16.5 94.5c0 62 19.833 112.167 59.5 150.5s86.834 57.5 141.501 57.5c24 0 47.333 -3.5 70 -10.5s44.667 -17.167 66 -30.5l1 -119c-41.333 24.667 -82.333 37 -123 37
c-18 0 -34.167 -3.16699 -48.5 -9.5s-26.5 -17 -36.5 -32s-15 -33.833 -15 -56.5c0.666992 -14.667 3.83398 -27.834 9.50098 -39.501s15 -22.5 28 -32.5s29.833 -19 50.5 -27c4 -1.33301 7.5 -2.33301 10.5 -3s6.16699 -1 9.5 -1h2.5c1 0 1.83301 0.166992 2.5 0.5
s1.66699 0.5 3 0.5l71 14.5c30.667 6.33301 51.334 10.5 62.001 12.5v-116l-397 -96v113zM-20.0029 0l0.000976562 179.998h163c118 0 227.167 17.833 327.5 53.5s233.5 96.5 399.5 182.5l78 41c-8 2.66699 -17.833 6.5 -29.5 11.5l-60.5 25.5l-95 39
c-78.667 32 -137.667 54.833 -177 68.5s-69.666 20.5 -90.999 20.5c-36.667 0 -72.834 -10.667 -108.501 -32s-66.5 -48.666 -92.5 -81.999l-27 -35l-151 75l15 26c43.333 70 96.5 125.167 159.5 165.5s131.5 60.5 205.5 60.5c69.333 0 170.333 -32 303 -96
c104.667 -50.667 191 -87.667 259 -111s130.667 -36.333 188 -39l-2 -170c-39.333 -4.66699 -86.833 -18.667 -142.5 -42s-135.834 -62.666 -240.501 -117.999c-144 -76 -269.333 -132.333 -376 -169s-221.667 -55 -345 -55h-160z" />
    <glyph glyph-name="uni0681.medi" unicode="&#x681;" horiz-adv-x="1351" 
d="M525 1119c-24.667 20.667 -42.5029 43.834 -53.5029 69.501s-16.5 57.167 -16.5 94.5c0 62 19.833 112.167 59.5 150.5s86.834 57.5 141.501 57.5c24 0 47.333 -3.5 70 -10.5s44.667 -17.167 66 -30.5l1 -119c-41.333 24.667 -82.333 37 -123 37
c-18 0 -34.167 -3.16699 -48.5 -9.5s-26.5 -17 -36.5 -32s-15 -33.833 -15 -56.5c0.666992 -14.667 3.83398 -27.834 9.50098 -39.501s15 -22.5 28 -32.5s29.833 -19 50.5 -27c4 -1.33301 7.5 -2.33301 10.5 -3s6.16699 -1 9.5 -1h2.5c1 0 1.83301 0.166992 2.5 0.5
s1.66699 0.5 3 0.5l71 14.5c30.667 6.33301 51.334 10.5 62.001 12.5v-116l-397 -96v113zM1244 384c-65.333 -7.33301 -132.667 -27.668 -202 -61.001c2 -50 25.167 -86.333 69.5 -109s112.833 -34 205.5 -34h54v-180h-58c-124.667 0 -219.834 20.167 -285.501 60.5
s-103.834 104.5 -114.501 192.5c-149.333 -81.333 -284.666 -143.833 -405.999 -187.5s-243.666 -65.5 -366.999 -65.5h-160v180h163c118 0 227.167 17.833 327.5 53.5s233.5 96.5 399.5 182.5l78 41c-8 2.66699 -17.833 6.5 -29.5 11.5l-60.5 25.5l-95 39
c-78.667 32 -137.667 54.833 -177 68.5s-69.666 20.5 -90.999 20.5c-36.667 0 -72.834 -10.667 -108.501 -32s-66.5 -48.666 -92.5 -81.999l-27 -35l-151 75l15 26c43.333 70 96.5 125.167 159.5 165.5s131.5 60.5 205.5 60.5c69.333 0 170.333 -32 303 -96
c104.667 -50.667 191 -87.667 259 -111s130.667 -36.333 188 -39z" />
    <glyph glyph-name="uni0681.fina" unicode="&#x681;" horiz-adv-x="1378" 
d="M525 1139c-24.667 20.667 -42.5029 43.834 -53.5029 69.501s-16.5 57.167 -16.5 94.5c0 62 19.833 112.167 59.5 150.5s86.834 57.5 141.501 57.5c24 0 47.333 -3.5 70 -10.5s44.667 -17.167 66 -30.5l1 -119c-41.333 24.667 -82.333 37 -123 37
c-18 0 -34.167 -3.16699 -48.5 -9.5s-26.5 -17 -36.5 -32s-15 -33.833 -15 -56.5c0.666992 -14.667 3.83398 -27.834 9.50098 -39.501s15 -22.5 28 -32.5s29.833 -19 50.5 -27c4 -1.33301 7.5 -2.33301 10.5 -3s6.16699 -1 9.5 -1h2.5c1 0 1.83301 0.166992 2.5 0.5
s1.66699 0.5 3 0.5l71 14.5c30.667 6.33301 51.334 10.5 62.001 12.5v-116l-397 -96v113zM1248 -581c-134 -64 -288.664 -96 -463.997 -96c-102.667 0 -195.334 10.667 -278.001 32s-154.667 53.166 -216 95.499s-108.5 97.166 -141.5 164.499s-49.5 145.333 -49.5 234
c0 164 63.833 308.667 191.5 434s309.5 214.333 545.5 267l-91 37c-46 18.667 -77.833 31.334 -95.5 38.001l-68.5 25.5c-28 10.333 -49.5 17.166 -64.5 20.499s-28.167 5 -39.5 5c-36.667 0 -72.834 -10.667 -108.501 -32s-66.5 -48.666 -92.5 -81.999l-27 -35l-151 75
l15 26c43.333 70 96.5 125.167 159.5 165.5s131.5 60.5 205.5 60.5c69.333 0 170.333 -32 303 -96c104.667 -50.667 191 -87.667 259 -111s130.667 -36.333 188 -39c-1.33301 -19.333 -3.5 -47.666 -6.5 -84.999s-5.16699 -65.666 -6.5 -84.999
c-50 -3.33301 -115 -10.333 -195 -21c0.666992 -90 25.167 -152 73.5 -186s123.833 -51 226.5 -51h78v-180h-75c-154 0 -267.833 29.167 -341.5 87.5s-110.834 158.166 -111.501 299.499c-195.333 -54.667 -345 -128.5 -449 -221.5s-156 -193.167 -156 -300.5
c0 -247.333 177.667 -371 533 -371c142 0 280.333 31.667 415 95z" />
    <glyph glyph-name="uni0685.init" unicode="&#x685;" horiz-adv-x="1334" 
d="M474 1345l132 132l133 -132l-133 -133zM646 1083l132 132l133 -132l-133 -133zM306 1083l132 132l133 -132l-133 -133zM-20 0l0.000976562 179.998h163c118 0 227.167 17.833 327.5 53.5s233.5 96.5 399.5 182.5l78 41c-8 2.66699 -17.833 6.5 -29.5 11.5l-60.5 25.5
l-95 39c-78.667 32 -137.667 54.833 -177 68.5s-69.666 20.5 -90.999 20.5c-36.667 0 -72.834 -10.667 -108.501 -32s-66.5 -48.666 -92.5 -81.999l-27 -35l-151 75l15 26c43.333 70 96.5 125.167 159.5 165.5s131.5 60.5 205.5 60.5c69.333 0 170.333 -32 303 -96
c104.667 -50.667 191 -87.667 259 -111s130.667 -36.333 188 -39l-2 -170c-39.333 -4.66699 -86.833 -18.667 -142.5 -42s-135.834 -62.666 -240.501 -117.999c-144 -76 -269.333 -132.333 -376 -169s-221.667 -55 -345 -55h-160z" />
    <glyph glyph-name="uni0685.medi" unicode="&#x685;" horiz-adv-x="1351" 
d="M474 1345l132 132l133 -132l-133 -133zM646 1083l132 132l133 -132l-133 -133zM306 1083l132 132l133 -132l-133 -133zM1244 384c-65.333 -7.33301 -132.667 -27.668 -202 -61.001c2 -50 25.167 -86.333 69.5 -109s112.833 -34 205.5 -34h54v-180h-58
c-124.667 0 -219.834 20.167 -285.501 60.5s-103.834 104.5 -114.501 192.5c-149.333 -81.333 -284.666 -143.833 -405.999 -187.5s-243.666 -65.5 -366.999 -65.5h-160v180h163c118 0 227.167 17.833 327.5 53.5s233.5 96.5 399.5 182.5l78 41
c-8 2.66699 -17.833 6.5 -29.5 11.5l-60.5 25.5l-95 39c-78.667 32 -137.667 54.833 -177 68.5s-69.666 20.5 -90.999 20.5c-36.667 0 -72.834 -10.667 -108.501 -32s-66.5 -48.666 -92.5 -81.999l-27 -35l-151 75l15 26c43.333 70 96.5 125.167 159.5 165.5
s131.5 60.5 205.5 60.5c69.333 0 170.333 -32 303 -96c104.667 -50.667 191 -87.667 259 -111s130.667 -36.333 188 -39z" />
    <glyph glyph-name="uni0685.fina" unicode="&#x685;" horiz-adv-x="1378" 
d="M504 1385l132 132l133 -132l-133 -133zM676 1123l132 132l133 -132l-133 -133zM336 1123l132 132l133 -132l-133 -133zM1248 -581c-134 -64 -288.664 -96 -463.997 -96c-102.667 0 -195.334 10.667 -278.001 32s-154.667 53.166 -216 95.499
s-108.5 97.166 -141.5 164.499s-49.5 145.333 -49.5 234c0 164 63.833 308.667 191.5 434s309.5 214.333 545.5 267l-91 37c-46 18.667 -77.833 31.334 -95.5 38.001l-68.5 25.5c-28 10.333 -49.5 17.166 -64.5 20.499s-28.167 5 -39.5 5
c-36.667 0 -72.834 -10.667 -108.501 -32s-66.5 -48.666 -92.5 -81.999l-27 -35l-151 75l15 26c43.333 70 96.5 125.167 159.5 165.5s131.5 60.5 205.5 60.5c69.333 0 170.333 -32 303 -96c104.667 -50.667 191 -87.667 259 -111s130.667 -36.333 188 -39
c-1.33301 -19.333 -3.5 -47.666 -6.5 -84.999s-5.16699 -65.666 -6.5 -84.999c-50 -3.33301 -115 -10.333 -195 -21c0.666992 -90 25.167 -152 73.5 -186s123.833 -51 226.5 -51h78v-180h-75c-154 0 -267.833 29.167 -341.5 87.5s-110.834 158.166 -111.501 299.499
c-195.333 -54.667 -345 -128.5 -449 -221.5s-156 -193.167 -156 -300.5c0 -247.333 177.667 -371 533 -371c142 0 280.333 31.667 415 95z" />
    <glyph glyph-name="uni0689.fina" unicode="&#x689;" horiz-adv-x="1055" 
d="M336 -91c0 -26 9.16699 -48 27.5 -66s40.5 -27 66.5 -27s48 9 66 27s27 40 27 66s-9 48.167 -27 66.5s-40 27.5 -66 27.5s-48.167 -9.16699 -66.5 -27.5s-27.5 -40.5 -27.5 -66.5zM248 -91c0 50 17.833 92.833 53.5 128.5s78.5 53.5 128.5 53.5
s92.833 -17.833 128.5 -53.5s53.5 -78.5 53.5 -128.5s-17.833 -92.833 -53.5 -128.5s-78.5 -53.5 -128.5 -53.5s-92.833 17.833 -128.5 53.5s-53.5 78.5 -53.5 128.5zM98 209c77.333 -18.667 147 -28.002 209 -28.002c231.333 0 347 55.333 347 166
c0 30.667 -30.333 117.334 -91 260.001l-120 282l161 74l208 -531c37.333 -95.333 72.833 -161.166 106.5 -197.499s71.834 -54.5 114.501 -54.5h42v-180h-42c-110 0 -197.333 54 -262 162c-90.667 -107.333 -240.334 -161 -449.001 -161c-81.333 0 -156 8.33301 -224 25
v183z" />
    <glyph glyph-name="uni0693.fina" unicode="&#x693;" horiz-adv-x="860" 
d="M420 -438c0 -26 9.16699 -48 27.5 -66s40.5 -27 66.5 -27s48 9 66 27s27 40 27 66s-9 48.167 -27 66.5s-40 27.5 -66 27.5s-48.167 -9.16699 -66.5 -27.5s-27.5 -40.5 -27.5 -66.5zM332 -438c0 50 17.833 92.833 53.5 128.5s78.5 53.5 128.5 53.5
s92.833 -17.833 128.5 -53.5s53.5 -78.5 53.5 -128.5s-17.833 -92.833 -53.5 -128.5s-78.5 -53.5 -128.5 -53.5s-92.833 17.833 -128.5 53.5s-53.5 78.5 -53.5 128.5zM515 130c0 47.333 -6.66699 101.002 -20 161.002s-32.333 119.333 -57 178l162 58l61 -192
c11.333 -34.667 25 -63.334 41 -86.001s35.5 -39.834 58.5 -51.501s49.833 -17.5 80.5 -17.5h39v-180h-28c-49.333 0 -87 4.5 -113 13.5s-46.667 23.167 -62 42.5c-11.333 -154 -69.833 -280.667 -175.5 -380s-256.167 -167.333 -451.5 -204l-60 154
c348 66.667 523 234.667 525 504z" />
    <glyph glyph-name="uni0695.fina" unicode="&#x695;" horiz-adv-x="860" 
d="M253 -905l-193 324h124l140 -240l141 240h124l-194 -324h-142zM515 130c0 47.333 -6.66699 101.002 -20 161.002s-32.333 119.333 -57 178l162 58l61 -192c11.333 -34.667 25 -63.334 41 -86.001s35.5 -39.834 58.5 -51.501s49.833 -17.5 80.5 -17.5h39v-180h-28
c-49.333 0 -87 4.5 -113 13.5s-46.667 23.167 -62 42.5c-11.333 -154 -69.833 -280.667 -175.5 -380s-256.167 -167.333 -451.5 -204l-60 154c348 66.667 523 234.667 525 504z" />
    <glyph glyph-name="uni0696.fina" unicode="&#x696;" horiz-adv-x="860" 
d="M392 -616l145 145l147 -146l-146 -145zM54 12l145 145l147 -146l-146 -145zM515 130c0 47.333 -6.66699 101.002 -20 161.002s-32.333 119.333 -57 178l162 58l61 -192c11.333 -34.667 25 -63.334 41 -86.001s35.5 -39.834 58.5 -51.501s49.833 -17.5 80.5 -17.5h39v-180
h-28c-49.333 0 -87 4.5 -113 13.5s-46.667 23.167 -62 42.5c-11.333 -154 -69.833 -280.667 -175.5 -380s-256.167 -167.333 -451.5 -204l-60 154c348 66.667 523 234.667 525 504z" />
    <glyph glyph-name="uni069A.init" unicode="&#x69a;" horiz-adv-x="1562" 
d="M772 -298l145 145l147 -146l-146 -145zM712 946l145 145l147 -146l-146 -145zM1153 180c92.667 0 139.002 73.998 139.002 221.998c0 70 -14.667 158 -44 264l168 45c32 -102 48 -200 48 -294c0 -47.333 -3.33301 -91.166 -10 -131.499s-17.834 -78.166 -33.501 -113.499
s-35.167 -65.5 -58.5 -90.5s-52.666 -44.833 -87.999 -59.5s-75.333 -22 -120 -22c-114.667 0 -195.667 47.667 -243 143c-69.333 -95.333 -161 -143 -275 -143c-132.667 0 -220.667 47.667 -264 143c-55.333 -95.333 -163 -143 -323 -143h-69v180h71
c84 0 145.333 15.667 184 47s58 85.333 58 162c0 38 -3.33301 97.333 -10 178l165 20l16 -226c4 -55.333 20.667 -99.333 50 -132s70.666 -49 123.999 -49c64.667 0 111.667 17.5 141 52.5s44 87.167 44 156.5c0 36 -3.33301 95.333 -10 178l165 20l16 -226
c4 -54.667 19.167 -98.5 45.5 -131.5s64.166 -49.5 113.499 -49.5z" />
    <glyph glyph-name="uni069A.medi" unicode="&#x69a;" horiz-adv-x="1658" 
d="M772 -298l145 145l147 -146l-146 -145zM712 946l145 145l147 -146l-146 -145zM372 143c-56.667 -95.333 -164.33 -143.001 -322.997 -143.001h-69v180h71c84 0 145.333 15.667 184 47s58 85.333 58 162c0 34 -3.33301 93.333 -10 178l165 20l16 -226
c4 -55.333 20.667 -99.333 50 -132s70.666 -49 123.999 -49c64.667 0 111.667 17.5 141 52.5s44 87.167 44 156.5c0 32 -3.33301 91.333 -10 178l165 20l16 -226c4 -54.667 19.167 -98.5 45.5 -131.5s64.166 -49.5 113.499 -49.5c92.667 0 139 69 139 207
c0 44.667 -3.33301 111.667 -10 201l165 20l16 -247c8 -120.667 69.667 -181 185 -181h30v-180h-28c-138 0 -224.333 47.667 -259 143c-25.333 -49.333 -57 -85.5 -95 -108.5s-85.333 -34.5 -142 -34.5c-114.667 0 -195.667 47.667 -243 143
c-68.667 -95.333 -160.334 -143 -275.001 -143c-133.333 0.666992 -221.333 48.334 -264 143.001z" />
    <glyph glyph-name="uni069A.fina" unicode="&#x69a;" horiz-adv-x="2553" 
d="M1662 -298l145 145l147 -146l-146 -145zM1602 946l145 145l147 -146l-146 -145zM1531 0c-76.667 0 -139.665 19.334 -188.998 58.001c-2.66699 -187.333 -58.334 -330.5 -167.001 -429.5s-260 -148.5 -454 -148.5c-415.333 0 -623 192 -623 576c0 140 30 283 90 429
l155 -63c-48.667 -128.667 -73 -249 -73 -361c0 -272 152.667 -408 458 -408c298.667 0 448.334 149 449.001 447c0 120.667 -30 243.667 -90 369l169 58l59 -183c18 -55.333 44.5 -96.333 79.5 -123s81.167 -40.334 138.5 -41.001c64.667 0 111.667 17.5 141 52.5
s44 87.167 44 156.5c0 32 -3.33301 91.333 -10 178l165 20l16 -226c4 -54.667 19.167 -98.5 45.5 -131.5s64.166 -49.5 113.499 -49.5c92.667 0 139 69 139 207c0 44.667 -3.33301 111.667 -10 201l165 20l16 -247c8 -120.667 69.667 -181 185 -181h30v-180h-28
c-138 0 -224.333 47.667 -259 143c-25.333 -49.333 -57 -85.5 -95 -108.5s-85.333 -34.5 -142 -34.5c-114.667 0 -195.667 47.667 -243 143c-68.667 -95.333 -160.334 -143 -275.001 -143z" />
    <glyph glyph-name="uni06A1.init" unicode="&#x6a1;" horiz-adv-x="918" 
d="M667 391c-63.333 -19.333 -130.333 -28.9971 -201 -28.9971c-216 0 -325 89.667 -327 269c0 115.333 29.667 212.666 89 291.999s138.666 119 237.999 119c48.667 0 93 -10.667 133 -32s73.5 -50.166 100.5 -86.499s49.667 -79.333 68 -129
s31.666 -102.334 39.999 -158.001s12.5 -113.834 12.5 -174.501c0 -76.667 -6.83301 -141.667 -20.5 -195s-33.667 -97.5 -60 -132.5s-62.5 -62.333 -108.5 -82s-97.667 -33.334 -155 -41.001s-127.666 -11.5 -210.999 -11.5h-285v180h296c66.667 0 122.5 3 167.5 9
s85 16.5 120 31.5s60.833 36.5 77.5 64.5s25.334 63.333 26.001 106zM651 559.003c-4.66699 38 -11.168 73.333 -19.501 106s-19.666 65 -33.999 97s-33.333 57.333 -57 76s-50.834 28 -81.501 28c-43.333 0 -80.666 -20.167 -111.999 -60.5s-47 -89.5 -47 -147.5
c0 -84 59.667 -126 179 -126c54 0 111.333 9 172 27z" />
    <glyph glyph-name="uni06A1.medi" unicode="&#x6a1;" horiz-adv-x="972" 
d="M511 681c-31.333 0 -67.832 -23.334 -109.499 -70.001s-62.5 -87 -62.5 -121c0 -33.333 22.167 -78.333 66.5 -135s81.166 -85 110.499 -85c32 0 69.833 29 113.5 87s65.5 105 65.5 141c0 30.667 -20.833 68.834 -62.5 114.501s-82.167 68.5 -121.5 68.5z
M704.001 193.999c24.667 -9.33301 89.333 -14.0029 194 -14.0029h94v-180h-92c-159.333 0 -288.333 36.333 -387 109c-98.667 -72.667 -231.667 -109 -399 -109h-134v180h134c122 0 193.333 5 214 15c-54.667 54.667 -94.5 104.834 -119.5 150.501
s-37.5 95.834 -37.5 150.501c0 46.667 15.5 97.834 46.5 153.501s73.5 104 127.5 145s109.667 61.5 167 61.5c46 0 91.167 -11.333 135.5 -34s82 -51 113 -85s56 -71.333 75 -112s28.5 -78.667 28.5 -114c0 -106 -53.333 -211.667 -160 -317z" />
    <glyph glyph-name="uni06A1.fina" unicode="&#x6a1;" horiz-adv-x="1962" 
d="M1501 681c-31.333 0 -67.832 -23.332 -109.499 -69.999s-62.5 -87 -62.5 -121c0 -33.333 22.167 -78.333 66.5 -135s81.166 -85 110.499 -85c32 0 69.833 29 113.5 87s65.5 105 65.5 141c0 31.333 -20.667 69.666 -62 114.999s-82 68 -122 68zM960.001 180.001
c126.667 0 212.667 0.996094 258 2.99609s79 5.66699 101 11c-54.667 54.667 -94.667 105 -120 151s-38 96.333 -38 151c0 34.667 9.5 72.834 28.5 114.501s43.667 80.667 74 117s67 66.833 110 91.5s86.167 37 129.5 37c60.667 0 118.667 -18.833 174 -56.5
s98.666 -83.167 129.999 -136.5s47 -104 47 -152c0 -59.333 -12.333 -111.666 -37 -156.999s-65.667 -98.666 -123 -159.999c28 -9.33301 92.667 -14 194 -14h94v-180h-92c-85.333 -0 -158.5 8.83301 -219.5 26.5s-116.833 45.167 -167.5 82.5
c-107.333 -72.667 -286.666 -109 -537.999 -109h-125c-241.333 0 -425.333 40.667 -552 122s-190 202 -190 362c0 87.333 18 172 54 254l153 -57c-21.333 -57.333 -32 -114.666 -32 -171.999c1.33301 -219.333 187 -329 557 -329h130z" />
    <glyph glyph-name="uni06AB.init" unicode="&#x6ab;" horiz-adv-x="950" 
d="M595 1061c0 -26 9.16699 -48 27.5 -66s40.5 -27 66.5 -27s48 9 66 27s27 40 27 66s-9 48.167 -27 66.5s-40 27.5 -66 27.5s-48.167 -9.16699 -66.5 -27.5s-27.5 -40.5 -27.5 -66.5zM507 1061c0 50 17.833 92.833 53.5 128.5s78.5 53.5 128.5 53.5
s92.833 -17.833 128.5 -53.5s53.5 -78.5 53.5 -128.5s-17.833 -92.833 -53.5 -128.5s-78.5 -53.5 -128.5 -53.5s-92.833 17.833 -128.5 53.5s-53.5 78.5 -53.5 128.5zM215 988l55 -46.5l54 -46l48.5 -40.5c21.667 -18 37.667 -31.667 48 -41l41.5 -36.5l41.5 -36.5l34.5 -32
l34 -33l28 -29c84 -90.667 126 -187.667 126 -291c0 -121.333 -44.667 -211 -134 -269s-231.333 -87 -426 -87h-186v180h185c135.333 0 233.5 15.833 294.5 47.5s91.5 80.167 91.5 145.5c0 32 -8.5 62.5 -25.5 91.5s-43.5 60.5 -79.5 94.5c-60 56 -151 132 -273 228
c-75.333 58.667 -113 120.334 -113 185.001c0 85.333 46.333 145.666 139 180.999l690 256v-171z" />
    <glyph glyph-name="uni06AB.medi" unicode="&#x6ab;" horiz-adv-x="1027" 
d="M595 1061c0 -26 9.16699 -48 27.5 -66s40.5 -27 66.5 -27s48 9 66 27s27 40 27 66s-9 48.167 -27 66.5s-40 27.5 -66 27.5s-48.167 -9.16699 -66.5 -27.5s-27.5 -40.5 -27.5 -66.5zM507 1061c0 50 17.833 92.833 53.5 128.5s78.5 53.5 128.5 53.5
s92.833 -17.833 128.5 -53.5s53.5 -78.5 53.5 -128.5s-17.833 -92.833 -53.5 -128.5s-78.5 -53.5 -128.5 -53.5s-92.833 17.833 -128.5 53.5s-53.5 78.5 -53.5 128.5zM669 179c-40 -61.333 -99.333 -106.5 -178 -135.5s-187 -43.5 -325 -43.5h-186v180h185
c135.333 0 233.5 15.833 294.5 47.5s91.5 80.167 91.5 145.5c0 32 -8.5 62.5 -25.5 91.5s-43.5 60.5 -79.5 94.5c-60 56 -151 132 -273 228c-75.333 58.667 -113 120.334 -113 185.001c0 85.333 46.333 145.666 139 180.999l690 256v-171l-674 -250l55 -46.5l54 -46
l48.5 -40.5c21.667 -18 37.667 -31.667 48 -41l41.5 -36.5l41.5 -36.5l34.5 -32l34 -33l28 -29c56 -60 98.667 -131.667 128 -215c59.333 -168 156 -252 290 -252h29v-180h-29c-142.667 0 -259 59.667 -349 179z" />
    <glyph glyph-name="uni06AB.fina" unicode="&#x6ab;" horiz-adv-x="1941" 
d="M1510 1061c0 -26 9.16699 -48 27.5 -66s40.5 -27 66.5 -27s48 9 66 27s27 40 27 66s-9 48.167 -27 66.5s-40 27.5 -66 27.5s-48.167 -9.16699 -66.5 -27.5s-27.5 -40.5 -27.5 -66.5zM1422 1061c0 50 17.833 92.833 53.5 128.5s78.5 53.5 128.5 53.5
s92.833 -17.833 128.5 -53.5s53.5 -78.5 53.5 -128.5s-17.833 -92.833 -53.5 -128.5s-78.5 -53.5 -128.5 -53.5s-92.833 17.833 -128.5 53.5s-53.5 78.5 -53.5 128.5zM305 681c-21.333 -56.667 -32 -114 -32 -172c0.666992 -219.333 185.667 -329 555 -329h202
c290.667 0 436 64.333 436 193c0 32 -8.5 62.5 -25.5 91.5s-43.5 60.5 -79.5 94.5c-68 63.333 -159 139.333 -273 228c-75.333 58.667 -113 120.334 -113 185.001c0 85.333 46.333 145.666 139 180.999l690 256v-171l-675 -250l81 -68l79.5 -67l65.5 -56l64.5 -56.5
l49.5 -46.5c18 -17.333 33.333 -33 46 -47c55.333 -59.333 98 -131 128 -215c59.333 -168 156 -252 290 -252h28v-180h-28c-142 0 -258.333 59.667 -349 179c-79.333 -119.333 -264 -179 -554 -179h-192c-240.667 0 -424.167 40.667 -550.5 122s-189.5 202 -189.5 362
c0 86 18 170.667 54 254z" />
    <glyph glyph-name="uni06B5.init" unicode="&#x6b5;" horiz-adv-x="608" 
d="M301 1501l-193 324h124l140 -240l141 240h124l-194 -324h-142zM-20 0v180h81c86 0 145.833 17.833 179.5 53.5s50.5 92.167 50.5 169.5v963h169v-962c0 -136.667 -30.667 -238.167 -92 -304.5s-164 -99.5 -308 -99.5h-80z" />
    <glyph glyph-name="uni06B5.medi" unicode="&#x6b5;" horiz-adv-x="675" 
d="M300 1501l-193 324h124l140 -240l141 240h124l-194 -324h-142zM368 143c-34.667 -48.667 -77.001 -84.667 -127.001 -108s-116 -35 -198 -35h-63v180h65c87.333 0 150 17 188 51s57.333 86.667 58 158v977h169v-977c0 -71.333 15.333 -124 46 -158
s81.334 -51 152.001 -51h32v-180h-30c-70 0 -127.167 11.5 -171.5 34.5s-84.5 59.167 -120.5 108.5z" />
    <glyph glyph-name="uni06B5.fina" unicode="&#x6b5;" horiz-adv-x="1439" 
d="M527 1054l-193 324h124l140 -240l141 240h124l-194 -324h-142zM335 358c-44 -112 -66 -219.333 -66 -322c0 -255.333 135.333 -383 406 -383c256 0 384 138.333 384 415l2 1296v2h168l-1 -973c0 -74 14.833 -128 44.5 -162s81.5 -51 155.5 -51h31v-180h-29
c-50 0 -88.833 6 -116.5 18s-56.167 32 -85.5 60c-5.33301 -398.667 -190 -598 -554 -598c-384 0 -576 185 -576 555c0 125.333 27.333 254 82 386z" />
    <glyph glyph-name="uni06BC.init" unicode="&#x6bc;" horiz-adv-x="592" 
d="M144 -83c0 -26 9.16699 -48 27.5 -66s40.5 -27 66.5 -27s48 9 66 27s27 40 27 66s-9 48.167 -27 66.5s-40 27.5 -66 27.5s-48.167 -9.16699 -66.5 -27.5s-27.5 -40.5 -27.5 -66.5zM56 -83c0 50 17.833 92.833 53.5 128.5s78.5 53.5 128.5 53.5
s92.833 -17.833 128.5 -53.5s53.5 -78.5 53.5 -128.5s-17.833 -92.833 -53.5 -128.5s-78.5 -53.5 -128.5 -53.5s-92.833 17.833 -128.5 53.5s-53.5 78.5 -53.5 128.5zM126 1040l145 145l147 -146l-146 -145zM446 738c32 -107.333 48 -214.667 48 -322
c0 -134.667 -33.333 -237.667 -100 -309s-165 -107 -295 -107h-119v180h119c78 0 134.833 18.167 170.5 54.5s53.5 95.833 53.5 178.5c0 88 -12.333 183 -37 285z" />
    <glyph glyph-name="uni06BC.medi" unicode="&#x6bc;" horiz-adv-x="687" 
d="M144 -83c0 -26 9.16699 -48 27.5 -66s40.5 -27 66.5 -27s48 9 66 27s27 40 27 66s-9 48.167 -27 66.5s-40 27.5 -66 27.5s-48.167 -9.16699 -66.5 -27.5s-27.5 -40.5 -27.5 -66.5zM56 -83c0 50 17.833 92.833 53.5 128.5s78.5 53.5 128.5 53.5
s92.833 -17.833 128.5 -53.5s53.5 -78.5 53.5 -128.5s-17.833 -92.833 -53.5 -128.5s-78.5 -53.5 -128.5 -53.5s-92.833 17.833 -128.5 53.5s-53.5 78.5 -53.5 128.5zM181 955l145 145l147 -146l-146 -145zM707 0l-23.998 -0.000976562c-128.667 0 -219 47.667 -271 143
c-68.667 -95.333 -172.334 -143 -311.001 -143h-121v180h121c79.333 0 136.166 17.333 170.499 52s51.5 89.667 51.5 165c0 18.667 -2.66699 82.334 -8 191.001l164 20l16 -246c8 -121.333 71.333 -182 190 -182h22v-180z" />
    <glyph glyph-name="uni06BC.fina" unicode="&#x6bc;" horiz-adv-x="1528" 
d="M641 -616c0 -26 9.16699 -48 27.5 -66s40.5 -27 66.5 -27s48 9 66 27s27 40 27 66s-9 48.167 -27 66.5s-40 27.5 -66 27.5s-48.167 -9.16699 -66.5 -27.5s-27.5 -40.5 -27.5 -66.5zM553 -616c0 50 17.833 92.833 53.5 128.5s78.5 53.5 128.5 53.5
s92.833 -17.833 128.5 -53.5s53.5 -78.5 53.5 -128.5s-17.833 -92.833 -53.5 -128.5s-78.5 -53.5 -128.5 -53.5s-92.833 17.833 -128.5 53.5s-53.5 78.5 -53.5 128.5zM562 609l145 145l147 -146l-146 -145zM1177 100c0 120 -30.002 243 -90.002 369l169 58l39.5 -124
l32.5 -102c13.333 -41.333 34 -71.833 62 -91.5s67.333 -29.5 118 -29.5h40v-180h-36c-41.333 -0 -74.666 4.83301 -99.999 14.5s-48.666 24.5 -69.999 44.5c-2.66699 -186 -59 -329 -169 -429s-260.667 -150 -452 -150c-415.333 0 -623 192 -623 576c0 140 30 283 90 429
l155 -63c-48.667 -128 -73 -248.333 -73 -361c0 -272 152.667 -408 458 -408c298 0 447.667 149 449 447z" />
    <glyph glyph-name="uni06C2.init" unicode="&#x6c2;" horiz-adv-x="592" 
d="M184 961c-24.667 20.667 -42.5029 43.834 -53.5029 69.501s-16.5 57.167 -16.5 94.5c0 62 19.833 112.167 59.5 150.5s86.834 57.5 141.501 57.5c24 0 47.333 -3.5 70 -10.5s44.667 -17.167 66 -30.5l1 -119c-41.333 24.667 -82.333 37 -123 37
c-18 0 -34.167 -3.16699 -48.5 -9.5s-26.5 -17 -36.5 -32s-15 -33.833 -15 -56.5c0.666992 -14.667 3.83398 -27.834 9.50098 -39.501s15 -22.5 28 -32.5s29.833 -19 50.5 -27c4 -1.33301 7.5 -2.33301 10.5 -3s6.16699 -1 9.5 -1h2.5c1 0 1.83301 0.166992 2.5 0.5
s1.66699 0.5 3 0.5l71 14.5c30.667 6.33301 51.334 10.5 62.001 12.5v-116l-397 -96v113zM386.143 -130.457c-39.8389 -36.4785 -69.2373 -70.5566 -88.1963 -102.235c-18.96 -31.6787 -28.4395 -68.6377 -28.4395 -110.876c35.0391 0 59.998 -7.91992 74.877 -23.7588
c14.8799 -15.8389 22.3193 -40.0781 22.3193 -72.7168c0 -31.6787 -8.39941 -56.6377 -25.1992 -74.877c-16.7988 -18.2393 -40.7979 -27.3594 -71.9971 -27.3594c-75.8369 0 -113.755 41.7588 -113.755 125.275c0 128.154 59.0371 237.83 177.112 329.026zM445.997 738
c32 -107.333 48 -214.667 48 -322c0 -134.667 -33.333 -237.667 -100 -309s-165 -107 -295 -107h-119v180h119c78 0 134.833 18.167 170.5 54.5s53.5 95.833 53.5 178.5c0 88 -12.333 183 -37 285z" />
    <glyph glyph-name="uni06C2.medi" unicode="&#x6c2;" horiz-adv-x="1002" 
d="M402 641c-24.667 20.667 -42.5029 43.834 -53.5029 69.501s-16.5 57.167 -16.5 94.5c0 62 19.833 112.167 59.5 150.5s86.834 57.5 141.501 57.5c24 0 47.333 -3.5 70 -10.5s44.667 -17.167 66 -30.5l1 -119c-41.333 24.667 -82.333 37 -123 37
c-18 0 -34.167 -3.16699 -48.5 -9.5s-26.5 -17 -36.5 -32s-15 -33.833 -15 -56.5c0.666992 -14.667 3.83398 -27.834 9.50098 -39.501s15 -22.5 28 -32.5s29.833 -19 50.5 -27c4 -1.33301 7.5 -2.33301 10.5 -3s6.16699 -1 9.5 -1h2.5c1 0 1.83301 0.166992 2.5 0.5
s1.66699 0.5 3 0.5l71 14.5c30.667 6.33301 51.334 10.5 62.001 12.5v-116l-397 -96v113zM220.997 50c-38.667 -18.667 -70.001 -31.667 -94.001 -39s-52 -11 -84 -11h-63v180h65c50.667 0 94.5 6.5 131.5 19.5s65 26.833 84 41.5s50.167 42.334 93.5 83.001l22 20l110 -122
l-25 -22c-34.667 -30.667 -58.5 -66.167 -71.5 -106.5s-15.833 -80.333 -8.5 -120s20.833 -78.667 40.5 -117s43.834 -72.833 72.501 -103.5s59 -55.334 91 -74.001c0 160 34 283.5 102 370.5s168.333 130.5 301 130.5h34v-180h-36c-168.667 0 -253 -110 -253 -330
c0 -34 1.33301 -64.667 4 -92l-121 -118c-118.667 56.667 -213.167 134.667 -283.5 234s-107.5 218 -111.5 356z" />
    <glyph glyph-name="uni06C2.fina" unicode="&#x6c2;" horiz-adv-x="919" 
d="M330 845c-24.667 20.667 -42.5029 43.834 -53.5029 69.501s-16.5 57.167 -16.5 94.5c0 62 19.833 112.167 59.5 150.5s86.834 57.5 141.501 57.5c24 0 47.333 -3.5 70 -10.5s44.667 -17.167 66 -30.5l1 -119c-41.333 24.667 -82.333 37 -123 37
c-18 0 -34.167 -3.16699 -48.5 -9.5s-26.5 -17 -36.5 -32s-15 -33.833 -15 -56.5c0.666992 -14.667 3.83398 -27.834 9.50098 -39.501s15 -22.5 28 -32.5s29.833 -19 50.5 -27c4 -1.33301 7.5 -2.33301 10.5 -3s6.16699 -1 9.5 -1h2.5c1 0 1.83301 0.166992 2.5 0.5
s1.66699 0.5 3 0.5l71 14.5c30.667 6.33301 51.334 10.5 62.001 12.5v-116l-397 -96v113zM243.997 -20l-146.007 35.9932c8 80.667 25 157.834 51 231.501s56.833 136.334 92.5 188.001s74.334 92.834 116.001 123.501s82.167 46 121.5 46
c34.667 0 65.334 -7.83301 92.001 -23.5s48.334 -36 65.001 -61s32 -52.5 46 -82.5l41 -90.5c13.333 -30.333 27.666 -58 42.999 -83s34.833 -45.333 58.5 -61s50.834 -23.5 81.501 -23.5h33v-180h-32c-45.333 0 -86.166 7.33301 -122.499 22s-66.166 33.834 -89.499 57.501
s-44.166 49.834 -62.499 78.501s-33.666 57.334 -45.999 86.001l-34 78.5c-10.333 23.667 -21.333 42.834 -33 57.501s-24.167 22 -37.5 22c-44 0 -90.667 -40 -140 -120s-82 -180.667 -98 -302z" />
    <glyph glyph-name="uni06C3.fina" unicode="&#x6c3;" horiz-adv-x="919" 
d="M460 925l140 140l141 -140l-141 -142zM128 925l140 140l141 -140l-141 -142zM244 -20l-146.007 35.9932c8 80.667 25 157.834 51 231.501s56.833 136.334 92.5 188.001s74.334 92.834 116.001 123.501s82.167 46 121.5 46c34.667 0 65.334 -7.83301 92.001 -23.5
s48.334 -36 65.001 -61s32 -52.5 46 -82.5l41 -90.5c13.333 -30.333 27.666 -58 42.999 -83s34.833 -45.333 58.5 -61s50.834 -23.5 81.501 -23.5h33v-180h-32c-45.333 0 -86.166 7.33301 -122.499 22s-66.166 33.834 -89.499 57.501s-44.166 49.834 -62.499 78.501
s-33.666 57.334 -45.999 86.001l-34 78.5c-10.333 23.667 -21.333 42.834 -33 57.501s-24.167 22 -37.5 22c-44 0 -90.667 -40 -140 -120s-82 -180.667 -98 -302z" />
    <glyph glyph-name="uni06CA.fina" unicode="&#x6ca;" horiz-adv-x="938" 
d="M423 1031l140 140l141 -140l-141 -142zM91 1031l140 140l141 -140l-141 -142zM874.878 0v180h83.4893v-180h-83.4893zM432 720c207.333 0 322.999 -180 346.999 -540h117v-180h-129c-26 -138.667 -89.167 -253 -189.5 -343s-236.833 -151.667 -409.5 -185l-60 154
c140.667 26.667 253.334 72.167 338.001 136.5s139.667 143.5 165 237.5h-149c-242.667 0 -364 98.667 -364 296c0 116 31.833 215.667 95.5 299s143.167 125 238.5 125zM615.999 180c-15.333 236.667 -81.333 355 -198 355c-44 0 -80.833 -22.5 -110.5 -67.5
s-44.5 -97.167 -44.5 -156.5c0 -87.333 63 -131 189 -131h164z" />
    <glyph glyph-name="uni06CD.fina" unicode="&#x6cd;" horiz-adv-x="1798" 
d="M58 133l36.001 169l316 126l154 -63c-36 -100 -54 -201.667 -54 -305c0 -271.333 149.667 -407 449 -407c79.333 0 156.166 10.5 230.499 31.5s135.333 50.167 183 87.5s71.5 77.666 71.5 120.999c0 30.667 -14.333 56.167 -43 76.5s-69 30.5 -121 30.5h-123
c-34 0 -55.667 20.667 -65 62l-22 92c-4 17.333 3.66699 26 23 26h604v-180h-119c18.667 -38 28 -76 28 -114c0 -117.333 -59.667 -214.166 -179 -290.499s-275 -114.5 -467 -114.5c-414 0 -621 193.333 -621 580c0 52 8.66699 117 26 195zM1673.11 0v180h144.993v-180
h-144.993z" />
    <glyph glyph-name="uni06CE.init" unicode="&#x6ce;" horiz-adv-x="672" 
d="M305 952l-193 324h124l140 -240l141 240h124l-194 -324h-142zM267 -303l140 140l141 -140l-141 -142zM-65 -303l140 140l141 -140l-141 -142zM526 738c32 -107.333 48.001 -214.667 48.001 -322c0 -146 -35.833 -251.833 -107.5 -317.5s-184.167 -98.5 -337.5 -98.5h-149
v180h149c52 0 94.167 3 126.5 9s60.166 17.5 83.499 34.5s39.833 40.667 49.5 71s14.5 69.833 14.5 118.5c0 88 -12.333 183 -37 285z" />
    <glyph glyph-name="uni06CE.medi" unicode="&#x6ce;" horiz-adv-x="767" 
d="M354 842l-193 324h124l140 -240l141 240h124l-194 -324h-142zM267 -303l140 140l141 -140l-141 -142zM-65 -303l140 140l141 -140l-141 -142zM787 0l-24 -0.000976562c-68 0 -123.5 11.833 -166.5 35.5s-77.5 59.5 -103.5 107.5c-68 -95.333 -189.333 -143 -364 -143
h-149v180h151c100.667 0 171 14.833 211 44.5s60.333 83.834 61 162.501c0 54.667 -2.66699 122 -8 202l164 19l16 -247c8 -120.667 71.333 -181 190 -181h22v-180z" />
    <glyph glyph-name="uni06CE.fina" unicode="&#x6ce;" horiz-adv-x="1559" 
d="M553 535l-193 324h124l140 -240l141 240h124l-194 -324h-142zM324 365c-36 -100 -53.999 -201.666 -53.999 -304.999c0 -271.333 149.667 -407 449 -407c79.333 0 156.166 10.5 230.499 31.5s135.333 50.167 183 87.5s71.5 77.666 71.5 120.999
c0 30.667 -14.333 56.167 -43 76.5s-69 30.5 -121 30.5h-123c-34 0 -55.667 20.667 -65 62l-22 92c-4 17.333 3.66699 26 23 26h604v-180h-119c18.667 -38 28 -76 28 -114c0 -117.333 -59.667 -214.166 -179 -290.499s-275 -114.5 -467 -114.5c-414 0 -621 193.333 -621 580
c0 57.333 6.16699 120.166 18.5 188.499s29.833 127.833 52.5 178.5zM1434.11 0.000976562v180h144.993v-180h-144.993z" />
    <glyph glyph-name="uni06D0.init" unicode="&#x6d0;" horiz-adv-x="592" arabic-form="initial" 
d="M204 -386l-140 140l140 142l142 -142zM204 -668l-140 140l140 142l142 -142zM446 738c32 -107.333 48 -214.667 48 -322c0 -134.667 -33.333 -237.667 -100 -309s-165 -107 -295 -107h-119v180h119c78 0 134.833 18.167 170.5 54.5s53.5 95.833 53.5 178.5
c0 88 -12.333 183 -37 285z" />
    <glyph glyph-name="uni06D0.medi" unicode="&#x6d0;" horiz-adv-x="687" arabic-form="medial" 
d="M204 -386l-140 140l140 142l142 -142zM204 -668l-140 140l140 142l142 -142zM707 0l-23.998 -0.000976562c-128.667 0 -219 47.667 -271 143c-68.667 -95.333 -172.334 -143 -311.001 -143h-121v180h121c79.333 0 136.166 17.333 170.499 52s51.5 89.667 51.5 165
c0 18.667 -2.66699 82.334 -8 191.001l164 20l16 -246c8 -121.333 71.333 -182 190 -182h22v-180z" />
    <glyph glyph-name="uni06D0.fina" unicode="&#x6d0;" horiz-adv-x="1559" arabic-form="final" 
d="M728 -814l-140 140l140 142l142 -142zM728 -1096l-140 140l140 142l142 -142zM324 365c-36 -100 -53.999 -201.666 -53.999 -304.999c0 -271.333 149.667 -407 449 -407c79.333 0 156.166 10.5 230.499 31.5s135.333 50.167 183 87.5s71.5 77.666 71.5 120.999
c0 30.667 -14.333 56.167 -43 76.5s-69 30.5 -121 30.5h-123c-34 0 -55.667 20.667 -65 62l-22 92c-4 17.333 3.66699 26 23 26h604v-180h-119c18.667 -38 28 -76 28 -114c0 -117.333 -59.667 -214.166 -179 -290.499s-275 -114.5 -467 -114.5c-414 0 -621 193.333 -621 580
c0 57.333 6.16699 120.166 18.5 188.499s29.833 127.833 52.5 178.5zM1434.11 0.000976562v180h144.993v-180h-144.993z" />
    <glyph glyph-name="uni06D5.fina" unicode="&#x6d5;" horiz-adv-x="1038" 
d="M98 412c0 196.667 168.998 347.333 506.998 452l-7 45l159 33l82 -589c7.33301 -55.333 27 -98 59 -128s75 -45 129 -45h31v-180h-35c-179.333 0 -286.666 79 -321.999 237c-81.333 -70 -171.333 -105 -270 -105c-97.333 0 -177.166 23.5 -239.499 70.5
s-93.5 116.833 -93.5 209.5zM630.998 702.999c-120.667 -44.667 -210.666 -89.5 -269.999 -134.5s-89 -93.167 -89 -144.5c0 -40.667 13.167 -71.5 39.5 -92.5s64.166 -31.5 113.499 -31.5c60 0 114.333 16.833 163 50.5s73 77.5 73 131.5c0 20 -1.33301 39 -4 57z" />
    <glyph glyph-name="uniFB50" unicode="&#x671;" horiz-adv-x="465" arabic-form="isolated" 
d="M202 1373c36 0 65.835 0.831055 89.502 2.49805s44.834 4.33398 63.501 8.00098s33.167 8.83398 43.5 15.501s18 15.167 23 25.5s7.5 22.833 7.5 37.5c0 12.667 -2.33301 24.5 -7 35.5s-10.834 20.5 -18.501 28.5s-17.334 14.333 -29.001 19s-24.167 7 -37.5 7
c-24 0 -46.5 -6.16699 -67.5 -18.5s-41.833 -30.833 -62.5 -55.5s-45.334 -59.667 -74.001 -105h69zM-44.998 1355l17.001 81.9971c3.33301 -3.33301 7.66602 -7.16602 12.999 -11.499s14.333 -11.166 27 -20.499s23.667 -15.666 33 -18.999
c54.667 92 103.334 157 146.001 195s90 57 142 57c52.667 0 95.667 -16.167 129 -48.5s50 -73.5 50 -123.5c0 -65.333 -23 -111.333 -69 -138s-125.667 -40 -239 -40h-24c-40 0 -74.833 2.33301 -104.5 7s-54.834 12 -75.501 22s-35.667 22.667 -45 38zM148.003 1168.81h169
v-1165.96h-169v1165.96z" />
    <glyph glyph-name="uniFB51" unicode="&#x671;" horiz-adv-x="527" arabic-form="final" 
d="M202 1373c36 0 65.835 0.831055 89.502 2.49805s44.834 4.33398 63.501 8.00098s33.167 8.83398 43.5 15.501s18 15.167 23 25.5s7.5 22.833 7.5 37.5c0 12.667 -2.33301 24.5 -7 35.5s-10.834 20.5 -18.501 28.5s-17.334 14.333 -29.001 19s-24.167 7 -37.5 7
c-24 0 -46.5 -6.16699 -67.5 -18.5s-41.833 -30.833 -62.5 -55.5s-45.334 -59.667 -74.001 -105h69zM-44.998 1355l17.001 81.9971c3.33301 -3.33301 7.66602 -7.16602 12.999 -11.499s14.333 -11.166 27 -20.499s23.667 -15.666 33 -18.999
c54.667 92 103.334 157 146.001 195s90 57 142 57c52.667 0 95.667 -16.167 129 -48.5s50 -73.5 50 -123.5c0 -65.333 -23 -111.333 -69 -138s-125.667 -40 -239 -40h-24c-40 0 -74.833 2.33301 -104.5 7s-54.834 12 -75.501 22s-35.667 22.667 -45 38zM546.003 -0.00488281
h-24c-125.333 0 -219 32 -281 96s-93 166.667 -93 308v763h169v-763c0 -81.333 16.833 -139 50.5 -173s85.167 -51 154.5 -51h24v-180z" />
    <glyph glyph-name="uniFB56" unicode="&#x67e;" horiz-adv-x="1777" arabic-form="isolated" 
d="M774 -530l132 133l133 -133l-133 -132zM946 -268l132 133l133 -133l-133 -132zM606 -268l132 133l133 -133l-133 -132zM975 0h-134.999c-241.333 0 -425.333 40.667 -552 122s-190 202 -190 362c0 86 18 170.667 54 254l153 -57c-21.333 -56.667 -32 -114 -32 -172
c0.666992 -219.333 186.334 -329 557.001 -329h138c52 0 91.167 0.166992 117.5 0.5s62.166 2.16602 107.499 5.49902s79.833 8.33301 103.5 15s51.167 16.334 82.5 29.001s54.666 28.5 69.999 47.5s28.666 42.833 39.999 71.5s17 61.667 17 99c0 60 -12 143.333 -36 250
l160 40c32.667 -98.667 49 -190.334 49 -275.001c0 -56.667 -6 -107.5 -18 -152.5s-28.333 -83.667 -49 -116s-47.667 -60.166 -81 -83.499s-68.5 -42 -105.5 -56s-80.833 -25.167 -131.5 -33.5s-100.667 -14 -150 -17s-105.666 -4.5 -168.999 -4.5z" />
    <glyph glyph-name="uniFB57" unicode="&#x67e;" horiz-adv-x="1878" arabic-form="final" 
d="M774 -530l132 133l133 -133l-133 -132zM946 -268l132 133l133 -133l-133 -132zM606 -268l132 133l133 -133l-133 -132zM985 0l-145.001 0.000976562c-241.333 0 -425.333 40.667 -552 122s-190 202 -190 362c0 86 18 170.667 54 254l153 -57
c-21.333 -56.667 -32 -114 -32 -172c0.666992 -219.333 186.334 -329 557.001 -329h150c262 0 428.667 43 500 129c23.333 28 35 69 35 123c0 26 -2.33301 78 -7 156l161 20l16 -248c4 -60.667 21.167 -105.834 51.5 -135.501s75.833 -44.5 136.5 -44.5h25v-180h-25
c-137.333 -0 -236.333 59.333 -297 178c-112.667 -118.667 -309.667 -178 -591 -178z" />
    <glyph glyph-name="uniFB58" unicode="&#x67e;" horiz-adv-x="672" arabic-form="initial" 
d="M104 -530l132 133l133 -133l-133 -132zM276 -268l132 133l133 -133l-133 -132zM-64 -268l132 133l133 -133l-133 -132zM526 738c32 -107.333 48.001 -214.667 48.001 -322c0 -146 -35.833 -251.833 -107.5 -317.5s-184.167 -98.5 -337.5 -98.5h-149v180h149
c52 0 94.167 3 126.5 9s60.166 17.5 83.499 34.5s39.833 40.667 49.5 71s14.5 69.833 14.5 118.5c0 88 -12.333 183 -37 285z" />
    <glyph glyph-name="uniFB59" unicode="&#x67e;" horiz-adv-x="767" arabic-form="medial" 
d="M104 -530l132 133l133 -133l-133 -132zM276 -268l132 133l133 -133l-133 -132zM-64 -268l132 133l133 -133l-133 -132zM787 0l-24 -0.000976562c-68 0 -123.5 11.833 -166.5 35.5s-77.5 59.5 -103.5 107.5c-68 -95.333 -189.333 -143 -364 -143h-149v180h151
c100.667 0 171 14.833 211 44.5s60.333 83.834 61 162.501c0 54.667 -2.66699 122 -8 202l164 19l16 -247c8 -120.667 71.333 -181 190 -181h22v-180z" />
    <glyph glyph-name="uniFB66" unicode="&#x679;" horiz-adv-x="1777" arabic-form="isolated" 
d="M862 831c23.333 0 44.8301 0.667969 64.4971 2.00098s37.334 3.33301 53.001 6s29.834 6 42.501 10s23.334 8.5 32.001 13.5s16 10.5 22 16.5s10.333 12.5 13 19.5s4 14.5 4 22.5c0 21.333 -6.66699 38.666 -20 51.999s-31 20 -53 20c-58.667 0 -125 -54.333 -199 -163z
M705.997 830.001l7 11.499l6.5 10.5c1.66699 2.66699 4 6.16699 7 10.5s4.83301 7.5 5.5 9.5v423v9v5h5h9h76h9h5v-5v-9v-282c56.667 60 116.334 90 179.001 90c36 0 68.167 -7.66699 96.5 -23s50.333 -36.666 66 -63.999s23.5 -58 23.5 -92
c-0.666992 -135.333 -113.334 -203 -338.001 -203h-249h-9h-5v5v9v81v9v5h5h9h92zM974.997 0h-134.999c-241.333 0 -425.333 40.667 -552 122s-190 202 -190 362c0 86 18 170.667 54 254l153 -57c-21.333 -56.667 -32 -114 -32 -172
c0.666992 -219.333 186.334 -329 557.001 -329h138c52 0 91.167 0.166992 117.5 0.5s62.166 2.16602 107.499 5.49902s79.833 8.33301 103.5 15s51.167 16.334 82.5 29.001s54.666 28.5 69.999 47.5s28.666 42.833 39.999 71.5s17 61.667 17 99c0 60 -12 143.333 -36 250
l160 40c32.667 -98.667 49 -190.334 49 -275.001c0 -56.667 -6 -107.5 -18 -152.5s-28.333 -83.667 -49 -116s-47.667 -60.166 -81 -83.499s-68.5 -42 -105.5 -56s-80.833 -25.167 -131.5 -33.5s-100.667 -14 -150 -17s-105.666 -4.5 -168.999 -4.5z" />
    <glyph glyph-name="uniFB67" unicode="&#x679;" horiz-adv-x="1878" arabic-form="final" 
d="M872 831c23.333 0 44.8301 0.667969 64.4971 2.00098s37.334 3.33301 53.001 6s29.834 6 42.501 10s23.334 8.5 32.001 13.5s16 10.5 22 16.5s10.333 12.5 13 19.5s4 14.5 4 22.5c0 21.333 -6.66699 38.666 -20 51.999s-31 20 -53 20c-58.667 0 -125 -54.333 -199 -163z
M715.997 830.001l7 11.499l6.5 10.5c1.66699 2.66699 4 6.16699 7 10.5s4.83301 7.5 5.5 9.5v423v9v5h5h9h76h9h5v-5v-9v-282c56.667 60 116.334 90 179.001 90c36 0 68.167 -7.66699 96.5 -23s50.333 -36.666 66 -63.999s23.5 -58 23.5 -92
c-0.666992 -135.333 -113.334 -203 -338.001 -203h-249h-9h-5v5v9v81v9v5h5h9h92zM984.997 0l-145.001 0.000976562c-241.333 0 -425.333 40.667 -552 122s-190 202 -190 362c0 86 18 170.667 54 254l153 -57c-21.333 -56.667 -32 -114 -32 -172
c0.666992 -219.333 186.334 -329 557.001 -329h150c262 0 428.667 43 500 129c23.333 28 35 69 35 123c0 26 -2.33301 78 -7 156l161 20l16 -248c4 -60.667 21.167 -105.834 51.5 -135.501s75.833 -44.5 136.5 -44.5h25v-180h-25c-137.333 -0 -236.333 59.333 -297 178
c-112.667 -118.667 -309.667 -178 -591 -178z" />
    <glyph glyph-name="uniFB68" unicode="&#x679;" horiz-adv-x="678" arabic-form="initial" 
d="M252 981c23.333 0 44.8301 0.667969 64.4971 2.00098s37.334 3.33301 53.001 6s29.834 6 42.501 10s23.334 8.5 32.001 13.5s16 10.5 22 16.5s10.333 12.5 13 19.5s4 14.5 4 22.5c0 21.333 -6.66699 38.666 -20 51.999s-31 20 -53 20c-58.667 0 -125 -54.333 -199 -163z
M95.9971 980.001l7 11.499l6.5 10.5c1.66699 2.66699 4 6.16699 7 10.5s4.83301 7.5 5.5 9.5v423v9v5h5h9h76h9h5v-5v-9v-282c56.667 60 116.334 90 179.001 90c36 0 68.167 -7.66699 96.5 -23s50.333 -36.666 66 -63.999s23.5 -58 23.5 -92
c-0.666992 -135.333 -113.334 -203 -338.001 -203h-249h-9h-5v5v9v81v9v5h5h9h92zM525.997 738c32 -107.333 48.001 -214.667 48.001 -322c0 -146 -35.833 -251.833 -107.5 -317.5s-184.167 -98.5 -337.5 -98.5h-149v180h149c52 0 94.167 3 126.5 9s60.166 17.5 83.499 34.5
s39.833 40.667 49.5 71s14.5 69.833 14.5 118.5c0 88 -12.333 183 -37 285z" />
    <glyph glyph-name="uniFB69" unicode="&#x679;" horiz-adv-x="767" arabic-form="medial" 
d="M282 891c23.333 0 44.8301 0.667969 64.4971 2.00098s37.334 3.33301 53.001 6s29.834 6 42.501 10s23.334 8.5 32.001 13.5s16 10.5 22 16.5s10.333 12.5 13 19.5s4 14.5 4 22.5c0 21.333 -6.66699 38.666 -20 51.999s-31 20 -53 20c-58.667 0 -125 -54.333 -199 -163z
M125.997 890.001l7 11.499l6.5 10.5c1.66699 2.66699 4 6.16699 7 10.5s4.83301 7.5 5.5 9.5v423v9v5h5h9h76h9h5v-5v-9v-282c56.667 60 116.334 90 179.001 90c36 0 68.167 -7.66699 96.5 -23s50.333 -36.666 66 -63.999s23.5 -58 23.5 -92
c-0.666992 -135.333 -113.334 -203 -338.001 -203h-249h-9h-5v5v9v81v9v5h5h9h92zM786.997 0l-24 -0.000976562c-68 0 -123.5 11.833 -166.5 35.5s-77.5 59.5 -103.5 107.5c-68 -95.333 -189.333 -143 -364 -143h-149v180h151c100.667 0 171 14.833 211 44.5
s60.333 83.834 61 162.501c0 54.667 -2.66699 122 -8 202l164 19l16 -247c8 -120.667 71.333 -181 190 -181h22v-180z" />
    <glyph glyph-name="uniFB6B" unicode="&#x6a4;" horiz-adv-x="1962" arabic-form="final" 
d="M1348 1389l132 132l133 -132l-133 -133zM1520 1127l132 132l133 -132l-133 -133zM1180 1127l132 132l133 -132l-133 -133zM1501 681c-31.333 0 -67.832 -23.332 -109.499 -69.999s-62.5 -87 -62.5 -121c0 -33.333 22.167 -78.333 66.5 -135s81.166 -85 110.499 -85
c32 0 69.833 29 113.5 87s65.5 105 65.5 141c0 31.333 -20.667 69.666 -62 114.999s-82 68 -122 68zM960.001 180.001c126.667 0 212.667 0.996094 258 2.99609s79 5.66699 101 11c-54.667 54.667 -94.667 105 -120 151s-38 96.333 -38 151
c0 34.667 9.5 72.834 28.5 114.501s43.667 80.667 74 117s67 66.833 110 91.5s86.167 37 129.5 37c60.667 0 118.667 -18.833 174 -56.5s98.666 -83.167 129.999 -136.5s47 -104 47 -152c0 -59.333 -12.333 -111.666 -37 -156.999s-65.667 -98.666 -123 -159.999
c28 -9.33301 92.667 -14 194 -14h94v-180h-92c-85.333 -0 -158.5 8.83301 -219.5 26.5s-116.833 45.167 -167.5 82.5c-107.333 -72.667 -286.666 -109 -537.999 -109h-125c-241.333 0 -425.333 40.667 -552 122s-190 202 -190 362c0 87.333 18 172 54 254l153 -57
c-21.333 -57.333 -32 -114.666 -32 -171.999c1.33301 -219.333 187 -329 557 -329h130z" />
    <glyph glyph-name="uniFB6C" unicode="&#x6a4;" horiz-adv-x="918" arabic-form="initial" 
d="M667 391c-63.333 -19.333 -130.333 -28.9971 -201 -28.9971c-216 0 -325 89.667 -327 269c0 115.333 29.667 212.666 89 291.999s138.666 119 237.999 119c48.667 0 93 -10.667 133 -32s73.5 -50.166 100.5 -86.499s49.667 -79.333 68 -129
s31.666 -102.334 39.999 -158.001s12.5 -113.834 12.5 -174.501c0 -76.667 -6.83301 -141.667 -20.5 -195s-33.667 -97.5 -60 -132.5s-62.5 -62.333 -108.5 -82s-97.667 -33.334 -155 -41.001s-127.666 -11.5 -210.999 -11.5h-285v180h296c66.667 0 122.5 3 167.5 9
s85 16.5 120 31.5s60.833 36.5 77.5 64.5s25.334 63.333 26.001 106zM651 559.003c-4.66699 38 -11.168 73.333 -19.501 106s-19.666 65 -33.999 97s-33.333 57.333 -57 76s-50.834 28 -81.501 28c-43.333 0 -80.666 -20.167 -111.999 -60.5s-47 -89.5 -47 -147.5
c0 -84 59.667 -126 179 -126c54 0 111.333 9 172 27zM287.999 1569l132 132l133 -132l-133 -133zM459.999 1307l132 132l133 -132l-133 -133zM119.999 1307l132 132l133 -132l-133 -133z" />
    <glyph glyph-name="uniFB6D" unicode="&#x6a4;" horiz-adv-x="972" arabic-form="medial" 
d="M372 1389l132 132l133 -132l-133 -133zM544 1127l132 132l133 -132l-133 -133zM204 1127l132 132l133 -132l-133 -133zM511 681c-31.333 0 -67.832 -23.334 -109.499 -70.001s-62.5 -87 -62.5 -121c0 -33.333 22.167 -78.333 66.5 -135s81.166 -85 110.499 -85
c32 0 69.833 29 113.5 87s65.5 105 65.5 141c0 30.667 -20.833 68.834 -62.5 114.501s-82.167 68.5 -121.5 68.5zM704.001 193.999c24.667 -9.33301 89.333 -14.0029 194 -14.0029h94v-180h-92c-159.333 0 -288.333 36.333 -387 109
c-98.667 -72.667 -231.667 -109 -399 -109h-134v180h134c122 0 193.333 5 214 15c-54.667 54.667 -94.5 104.834 -119.5 150.501s-37.5 95.834 -37.5 150.501c0 46.667 15.5 97.834 46.5 153.501s73.5 104 127.5 145s109.667 61.5 167 61.5c46 0 91.167 -11.333 135.5 -34
s82 -51 113 -85s56 -71.333 75 -112s28.5 -78.667 28.5 -114c0 -106 -53.333 -211.667 -160 -317z" />
    <glyph glyph-name="uniFB7A" unicode="&#x686;" horiz-adv-x="1347" arabic-form="isolated" 
d="M680 -240l132 133l133 -133l-133 -132zM852 22l132 133l133 -133l-133 -132zM512 22l132 133l133 -133l-133 -132zM836 550l-90.998 37.001c-46 18.667 -77.833 31.334 -95.5 38.001l-68.5 25.5c-28 10.333 -49.5 17.166 -64.5 20.499s-28.167 5 -39.5 5
c-36.667 0 -72.834 -10.667 -108.501 -32s-66.5 -48.666 -92.5 -81.999l-27 -35l-151 75l15 26c43.333 70 96.5 125.167 159.5 165.5s131.5 60.5 205.5 60.5c69.333 0 170.333 -32 303 -96c104.667 -50.667 191 -87.667 259 -111s130.667 -36.333 188 -39l-13 -170
c-177.333 -14 -337.833 -47 -481.5 -99s-257.667 -119.5 -342 -202.5s-126.5 -173.5 -126.5 -271.5c0 -247.333 177.667 -371 533 -371c142 0 280.333 31.667 415 95l35 -170c-134 -64 -288.667 -96 -464 -96c-102.667 0 -195.334 10.667 -278.001 32
s-154.667 53.166 -216 95.499s-108.5 97.166 -141.5 164.499s-49.5 145.333 -49.5 234c0 80.667 16 157.5 48 230.5s78.5 139.833 139.5 200.5s138.167 114.167 231.5 160.5s199.333 82.833 318 109.5z" />
    <glyph glyph-name="uniFB7B" unicode="&#x686;" horiz-adv-x="1378" arabic-form="final" 
d="M539.354 -285.244l125.346 126.295l126.294 -126.295l-126.294 -125.346zM702.682 -36.4531l125.346 126.295l126.295 -126.295l-126.295 -125.346zM379.823 -36.4531l125.345 126.295l126.295 -126.295l-126.295 -125.346zM1248 -581
c-134 -64 -288.664 -96 -463.997 -96c-102.667 0 -195.334 10.667 -278.001 32s-154.667 53.166 -216 95.499s-108.5 97.166 -141.5 164.499s-49.5 145.333 -49.5 234c0 164 63.833 308.667 191.5 434s309.5 214.333 545.5 267l-91 37
c-46 18.667 -77.833 31.334 -95.5 38.001l-68.5 25.5c-28 10.333 -49.5 17.166 -64.5 20.499s-28.167 5 -39.5 5c-36.667 0 -72.834 -10.667 -108.501 -32s-66.5 -48.666 -92.5 -81.999l-27 -35l-151 75l15 26c43.333 70 96.5 125.167 159.5 165.5s131.5 60.5 205.5 60.5
c69.333 0 170.333 -32 303 -96c104.667 -50.667 191 -87.667 259 -111s130.667 -36.333 188 -39c-1.33301 -19.333 -3.5 -47.666 -6.5 -84.999s-5.16699 -65.666 -6.5 -84.999c-50 -3.33301 -115 -10.333 -195 -21c0.666992 -90 25.167 -152 73.5 -186
s123.833 -51 226.5 -51h78v-180h-75c-154 0 -267.833 29.167 -341.5 87.5s-110.834 158.166 -111.501 299.499c-195.333 -54.667 -345 -128.5 -449 -221.5s-156 -193.167 -156 -300.5c0 -247.333 177.667 -371 533 -371c142 0 280.333 31.667 415 95z" />
    <glyph glyph-name="uniFB7C" unicode="&#x686;" horiz-adv-x="1334" arabic-form="initial" 
d="M504 -530l132 133l133 -133l-133 -132zM676 -268l132 133l133 -133l-133 -132zM336 -268l132 133l133 -133l-133 -132zM-20 0l0.000976562 179.998h163c118 0 227.167 17.833 327.5 53.5s233.5 96.5 399.5 182.5l78 41c-8 2.66699 -17.833 6.5 -29.5 11.5l-60.5 25.5
l-95 39c-78.667 32 -137.667 54.833 -177 68.5s-69.666 20.5 -90.999 20.5c-36.667 0 -72.834 -10.667 -108.501 -32s-66.5 -48.666 -92.5 -81.999l-27 -35l-151 75l15 26c43.333 70 96.5 125.167 159.5 165.5s131.5 60.5 205.5 60.5c69.333 0 170.333 -32 303 -96
c104.667 -50.667 191 -87.667 259 -111s130.667 -36.333 188 -39l-2 -170c-39.333 -4.66699 -86.833 -18.667 -142.5 -42s-135.834 -62.666 -240.501 -117.999c-144 -76 -269.333 -132.333 -376 -169s-221.667 -55 -345 -55h-160z" />
    <glyph glyph-name="uniFB7D" unicode="&#x686;" horiz-adv-x="1351" arabic-form="medial" 
d="M504 -530l132 133l133 -133l-133 -132zM676 -268l132 133l133 -133l-133 -132zM336 -268l132 133l133 -133l-133 -132zM1244 384c-65.333 -7.33301 -132.667 -27.668 -202 -61.001c2 -50 25.167 -86.333 69.5 -109s112.833 -34 205.5 -34h54v-180h-58
c-124.667 0 -219.834 20.167 -285.501 60.5s-103.834 104.5 -114.501 192.5c-149.333 -81.333 -284.666 -143.833 -405.999 -187.5s-243.666 -65.5 -366.999 -65.5h-160v180h163c118 0 227.167 17.833 327.5 53.5s233.5 96.5 399.5 182.5l78 41
c-8 2.66699 -17.833 6.5 -29.5 11.5l-60.5 25.5l-95 39c-78.667 32 -137.667 54.833 -177 68.5s-69.666 20.5 -90.999 20.5c-36.667 0 -72.834 -10.667 -108.501 -32s-66.5 -48.666 -92.5 -81.999l-27 -35l-151 75l15 26c43.333 70 96.5 125.167 159.5 165.5
s131.5 60.5 205.5 60.5c69.333 0 170.333 -32 303 -96c104.667 -50.667 191 -87.667 259 -111s130.667 -36.333 188 -39z" />
    <glyph glyph-name="uniFB88" unicode="&#x688;" horiz-adv-x="963" arabic-form="isolated" 
d="M377 1273c23.333 0 44.8301 0.667969 64.4971 2.00098s37.334 3.33301 53.001 6s29.834 6 42.501 10s23.334 8.5 32.001 13.5s16 10.5 22 16.5s10.333 12.5 13 19.5s4 14.5 4 22.5c0 21.333 -6.66699 38.666 -20 51.999s-31 20 -53 20c-58.667 0 -125 -54.333 -199 -163z
M220.997 1272l7 11.499l6.5 10.5c1.66699 2.66699 4 6.16699 7 10.5s4.83301 7.5 5.5 9.5v423v9v5h5h9h76h9h5v-5v-9v-282c56.667 60 116.334 90 179.001 90c36 0 68.167 -7.66699 96.5 -23s50.333 -36.666 66 -63.999s23.5 -58 23.5 -92
c-0.666992 -135.333 -113.334 -203 -338.001 -203h-249h-9h-5v5v9v81v9v5h5h9h92zM97.9971 207c85.333 -17.333 158.333 -26 219 -26c248 0 372 61 372 183c0 126.667 -138 277 -414 451l98 148c328 -196 492 -394.667 492 -596c0 -243.333 -178.333 -365 -535 -365
c-80 0 -157.333 8 -232 24v181z" />
    <glyph glyph-name="uniFB89" unicode="&#x688;" horiz-adv-x="1055" arabic-form="final" 
d="M98 209c77.333 -18.667 147 -28.002 209 -28.002c231.333 0 347 55.333 347 166c0 30.667 -30.333 117.334 -91 260.001l-120 282l161 74l208 -531c37.333 -95.333 72.833 -161.166 106.5 -197.499s71.834 -54.5 114.501 -54.5h42v-180h-42c-110 0 -197.333 54 -262 162
c-90.667 -107.333 -240.334 -161 -449.001 -161c-81.333 0 -156 8.33301 -224 25v183zM427 1263c23.333 0 44.8301 0.667969 64.4971 2.00098s37.334 3.33301 53.001 6s29.834 6 42.501 10s23.334 8.5 32.001 13.5s16 10.5 22 16.5s10.333 12.5 13 19.5s4 14.5 4 22.5
c0 21.333 -6.66699 38.666 -20 51.999s-31 20 -53 20c-58.667 0 -125 -54.333 -199 -163zM270.997 1262l7 11.499l6.5 10.5c1.66699 2.66699 4 6.16699 7 10.5s4.83301 7.5 5.5 9.5v423v9v5h5h9h76h9h5v-5v-9v-282c56.667 60 116.334 90 179.001 90
c36 0 68.167 -7.66699 96.5 -23s50.333 -36.666 66 -63.999s23.5 -58 23.5 -92c-0.666992 -135.333 -113.334 -203 -338.001 -203h-249h-9h-5v5v9v81v9v5h5h9h92z" />
    <glyph glyph-name="uniFB8A" unicode="&#x698;" horiz-adv-x="810" arabic-form="isolated" 
d="M317 1096l132 132l133 -132l-133 -133zM489 834l132 132l133 -132l-133 -133zM149 834l132 132l133 -132l-133 -133zM600 527c54.667 -135.333 82 -266 82 -392c0 -362 -210.667 -583 -632 -663l-60 154c348 66 523 234 525 504c0 105.333 -25.667 218.333 -77 339z" />
    <glyph glyph-name="uniFB8B" unicode="&#x698;" horiz-adv-x="860" arabic-form="final" 
d="M317 1096l132 132l133 -132l-133 -133zM489 834l132 132l133 -132l-133 -133zM149 834l132 132l133 -132l-133 -133zM515 130c0 47.333 -6.66699 101.002 -20 161.002s-32.333 119.333 -57 178l162 58l61 -192c11.333 -34.667 25 -63.334 41 -86.001
s35.5 -39.834 58.5 -51.501s49.833 -17.5 80.5 -17.5h39v-180h-28c-49.333 0 -87 4.5 -113 13.5s-46.667 23.167 -62 42.5c-11.333 -154 -69.833 -280.667 -175.5 -380s-256.167 -167.333 -451.5 -204l-60 154c348 66.667 523 234.667 525 504z" />
    <glyph glyph-name="uniFB8C" unicode="&#x691;" horiz-adv-x="810" arabic-form="isolated" 
d="M411 826c23.333 0 44.8301 0.667969 64.4971 2.00098s37.334 3.33301 53.001 6s29.834 6 42.501 10s23.334 8.5 32.001 13.5s16 10.5 22 16.5s10.333 12.5 13 19.5s4 14.5 4 22.5c0 21.333 -6.66699 38.666 -20 51.999s-31 20 -53 20c-58.667 0 -125 -54.333 -199 -163z
M254.997 825.001l7 11.499l6.5 10.5c1.66699 2.66699 4 6.16699 7 10.5s4.83301 7.5 5.5 9.5v423v9v5h5h9h76h9h5v-5v-9v-282c56.667 60 116.334 90 179.001 90c36 0 68.167 -7.66699 96.5 -23s50.333 -36.666 66 -63.999s23.5 -58 23.5 -92
c-0.666992 -135.333 -113.334 -203 -338.001 -203h-249h-9h-5v5v9v81v9v5h5h9h92zM599.997 527c54.667 -135.333 82 -266 82 -392c0 -362 -210.667 -583 -632 -663l-60 154c348 66 523 234 525 504c0 105.333 -25.667 218.333 -77 339z" />
    <glyph glyph-name="uniFB8D" unicode="&#x691;" horiz-adv-x="860" arabic-form="final" 
d="M515 130c0 47.333 -6.66699 101.002 -20 161.002s-32.333 119.333 -57 178l162 58l61 -192c11.333 -34.667 25 -63.334 41 -86.001s35.5 -39.834 58.5 -51.501s49.833 -17.5 80.5 -17.5h39v-180h-28c-49.333 0 -87 4.5 -113 13.5s-46.667 23.167 -62 42.5
c-11.333 -154 -69.833 -280.667 -175.5 -380s-256.167 -167.333 -451.5 -204l-60 154c348 66.667 523 234.667 525 504zM421 826.002c23.333 0 44.8301 0.667969 64.4971 2.00098s37.334 3.33301 53.001 6s29.834 6 42.501 10s23.334 8.5 32.001 13.5s16 10.5 22 16.5
s10.333 12.5 13 19.5s4 14.5 4 22.5c0 21.333 -6.66699 38.666 -20 51.999s-31 20 -53 20c-58.667 0 -125 -54.333 -199 -163zM264.997 825.003l7 11.499l6.5 10.5c1.66699 2.66699 4 6.16699 7 10.5s4.83301 7.5 5.5 9.5v423v9v5h5h9h76h9h5v-5v-9v-282
c56.667 60 116.334 90 179.001 90c36 0 68.167 -7.66699 96.5 -23s50.333 -36.666 66 -63.999s23.5 -58 23.5 -92c-0.666992 -135.333 -113.334 -203 -338.001 -203h-249h-9h-5v5v9v81v9v5h5h9h92z" />
    <glyph glyph-name="uniFB8E" unicode="&#x6a9;" horiz-adv-x="1865" arabic-form="isolated" 
d="M305 681c-21.333 -56.667 -32.001 -114 -32.001 -172c0.666992 -219.333 186.334 -329 557.001 -329h200c290.667 0 436 64 436 192c0 32.667 -8.33301 63.5 -25 92.5s-43 60.5 -79 94.5c-56.667 52.667 -148 128.667 -274 228c-75.333 58.667 -113 120.334 -113 185.001
c0 84.667 46.667 145 140 181l690 256v-171l-675 -250l167.5 -141.5l114 -100c44.333 -39.667 78.833 -72.834 103.5 -99.501c84.667 -92.667 127 -190 127 -292c0 -236.667 -203.667 -355 -611 -355h-191c-241.333 0 -425.333 40.667 -552 122s-190 202 -190 362
c0 86 18 170.667 54 254z" />
    <glyph glyph-name="uniFB8F" unicode="&#x6a9;" horiz-adv-x="1941" arabic-form="final" 
d="M305 681c-21.333 -56.667 -32 -114 -32 -172c0.666992 -219.333 185.667 -329 555 -329h202c290.667 0 436 64.333 436 193c0 32 -8.5 62.5 -25.5 91.5s-43.5 60.5 -79.5 94.5c-68 63.333 -159 139.333 -273 228c-75.333 58.667 -113 120.334 -113 185.001
c0 85.333 46.333 145.666 139 180.999l690 256v-171l-675 -250l81 -68l79.5 -67l65.5 -56l64.5 -56.5l49.5 -46.5c18 -17.333 33.333 -33 46 -47c55.333 -59.333 98 -131 128 -215c59.333 -168 156 -252 290 -252h28v-180h-28c-142 0 -258.333 59.667 -349 179
c-79.333 -119.333 -264 -179 -554 -179h-192c-240.667 0 -424.167 40.667 -550.5 122s-189.5 202 -189.5 362c0 86 18 170.667 54 254z" />
    <glyph glyph-name="uniFB90" unicode="&#x6a9;" horiz-adv-x="950" arabic-form="initial" 
d="M215 988l55 -46.5l54 -46l48.5 -40.5c21.667 -18 37.667 -31.667 48 -41l41.5 -36.5l41.5 -36.5l34.5 -32l34 -33l28 -29c84 -90.667 126 -187.667 126 -291c0 -121.333 -44.667 -211 -134 -269s-231.333 -87 -426 -87h-186v180h185c135.333 0 233.5 15.833 294.5 47.5
s91.5 80.167 91.5 145.5c0 32 -8.5 62.5 -25.5 91.5s-43.5 60.5 -79.5 94.5c-60 56 -151 132 -273 228c-75.333 58.667 -113 120.334 -113 185.001c0 85.333 46.333 145.666 139 180.999l690 256v-171z" />
    <glyph glyph-name="uniFB91" unicode="&#x6a9;" horiz-adv-x="1027" arabic-form="medial" 
d="M669 179c-40 -61.333 -99.333 -106.5 -178 -135.5s-187 -43.5 -325 -43.5h-186v180h185c135.333 0 233.5 15.833 294.5 47.5s91.5 80.167 91.5 145.5c0 32 -8.5 62.5 -25.5 91.5s-43.5 60.5 -79.5 94.5c-60 56 -151 132 -273 228
c-75.333 58.667 -113 120.334 -113 185.001c0 85.333 46.333 145.666 139 180.999l690 256v-171l-674 -250l55 -46.5l54 -46l48.5 -40.5c21.667 -18 37.667 -31.667 48 -41l41.5 -36.5l41.5 -36.5l34.5 -32l34 -33l28 -29c56 -60 98.667 -131.667 128 -215
c59.333 -168 156 -252 290 -252h29v-180h-29c-142.667 0 -259 59.667 -349 179z" />
    <glyph glyph-name="uniFB92" unicode="&#x6af;" horiz-adv-x="1865" arabic-form="isolated" 
d="M1796.41 1534.07l-777.851 -288.885v108.064l777.851 288.886v-108.065zM305 681c-21.333 -56.667 -32.001 -114 -32.001 -172c0.666992 -219.333 186.334 -329 557.001 -329h200c290.667 0 436 64 436 192c0 32.667 -8.33301 63.5 -25 92.5s-43 60.5 -79 94.5
c-56.667 52.667 -148 128.667 -274 228c-75.333 58.667 -113 120.334 -113 185.001c0 84.667 46.667 145 140 181l690 256v-171l-675 -250l167.5 -141.5l114 -100c44.333 -39.667 78.833 -72.834 103.5 -99.501c84.667 -92.667 127 -190 127 -292
c0 -236.667 -203.667 -355 -611 -355h-191c-241.333 0 -425.333 40.667 -552 122s-190 202 -190 362c0 86 18 170.667 54 254z" />
    <glyph glyph-name="uniFB93" unicode="&#x6af;" horiz-adv-x="1941" arabic-form="final" 
d="M1796.41 1534.07l-777.851 -288.885v108.064l777.851 288.886v-108.065zM305 681c-21.333 -56.667 -32 -114 -32 -172c0.666992 -219.333 185.667 -329 555 -329h202c290.667 0 436 64.333 436 193c0 32 -8.5 62.5 -25.5 91.5s-43.5 60.5 -79.5 94.5
c-68 63.333 -159 139.333 -273 228c-75.333 58.667 -113 120.334 -113 185.001c0 85.333 46.333 145.666 139 180.999l690 256v-171l-675 -250l81 -68l79.5 -67l65.5 -56l64.5 -56.5l49.5 -46.5c18 -17.333 33.333 -33 46 -47c55.333 -59.333 98 -131 128 -215
c59.333 -168 156 -252 290 -252h28v-180h-28c-142 0 -258.333 59.667 -349 179c-79.333 -119.333 -264 -179 -554 -179h-192c-240.667 0 -424.167 40.667 -550.5 122s-189.5 202 -189.5 362c0 86 18 170.667 54 254z" />
    <glyph glyph-name="uniFB94" unicode="&#x6af;" horiz-adv-x="950" arabic-form="initial" 
d="M215 988l55 -46.5l54 -46l48.5 -40.5c21.667 -18 37.667 -31.667 48 -41l41.5 -36.5l41.5 -36.5l34.5 -32l34 -33l28 -29c84 -90.667 126 -187.667 126 -291c0 -121.333 -44.667 -211 -134 -269s-231.333 -87 -426 -87h-186v180h185c135.333 0 233.5 15.833 294.5 47.5
s91.5 80.167 91.5 145.5c0 32 -8.5 62.5 -25.5 91.5s-43.5 60.5 -79.5 94.5c-60 56 -151 132 -273 228c-75.333 58.667 -113 120.334 -113 185.001c0 85.333 46.333 145.666 139 180.999l690 256v-171zM881.41 1537.07l-777.851 -288.885v108.064l777.851 288.886v-108.065z
" />
    <glyph glyph-name="uniFB95" unicode="&#x6af;" horiz-adv-x="1027" arabic-form="medial" 
d="M881.41 1537.07l-777.851 -288.885v108.064l777.851 288.886v-108.065zM669 179c-40 -61.333 -99.333 -106.5 -178 -135.5s-187 -43.5 -325 -43.5h-186v180h185c135.333 0 233.5 15.833 294.5 47.5s91.5 80.167 91.5 145.5c0 32 -8.5 62.5 -25.5 91.5
s-43.5 60.5 -79.5 94.5c-60 56 -151 132 -273 228c-75.333 58.667 -113 120.334 -113 185.001c0 85.333 46.333 145.666 139 180.999l690 256v-171l-674 -250l55 -46.5l54 -46l48.5 -40.5c21.667 -18 37.667 -31.667 48 -41l41.5 -36.5l41.5 -36.5l34.5 -32l34 -33l28 -29
c56 -60 98.667 -131.667 128 -215c59.333 -168 156 -252 290 -252h29v-180h-29c-142.667 0 -259 59.667 -349 179z" />
    <glyph glyph-name="uniFB9E" unicode="&#x6ba;" horiz-adv-x="1447" arabic-form="isolated" 
d="M1087 539l169 58c62 -158 93 -310.333 93 -457c0 -190 -55.667 -335.833 -167 -437.5s-265 -152.5 -461 -152.5c-415.333 0 -623 192 -623 576c0 140 30 283 90 429l155 -63c-48.667 -128.667 -73 -249 -73 -361c0 -272 152.667 -408 458 -408c298 0 447.667 149 449 447
c0 120.667 -30 243.667 -90 369z" />
    <glyph glyph-name="uniFB9F" unicode="&#x6ba;" horiz-adv-x="1528" arabic-form="final" 
d="M1177 100c0 120 -30.002 243 -90.002 369l169 58l39.5 -124l32.5 -102c13.333 -41.333 34 -71.833 62 -91.5s67.333 -29.5 118 -29.5h40v-180h-36c-41.333 -0 -74.666 4.83301 -99.999 14.5s-48.666 24.5 -69.999 44.5c-2.66699 -186 -59 -329 -169 -429
s-260.667 -150 -452 -150c-415.333 0 -623 192 -623 576c0 140 30 283 90 429l155 -63c-48.667 -128 -73 -248.333 -73 -361c0 -272 152.667 -408 458 -408c298 0 447.667 149 449 447z" />
    <glyph glyph-name="uniFBA7" unicode="&#x6c1;" horiz-adv-x="919" arabic-form="final" 
d="M244 -20l-146.007 35.9932c8 80.667 25 157.834 51 231.501s56.833 136.334 92.5 188.001s74.334 92.834 116.001 123.501s82.167 46 121.5 46c34.667 0 65.334 -7.83301 92.001 -23.5s48.334 -36 65.001 -61s32 -52.5 46 -82.5l41 -90.5
c13.333 -30.333 27.666 -58 42.999 -83s34.833 -45.333 58.5 -61s50.834 -23.5 81.501 -23.5h33v-180h-32c-45.333 0 -86.166 7.33301 -122.499 22s-66.166 33.834 -89.499 57.501s-44.166 49.834 -62.499 78.501s-33.666 57.334 -45.999 86.001l-34 78.5
c-10.333 23.667 -21.333 42.834 -33 57.501s-24.167 22 -37.5 22c-44 0 -90.667 -40 -140 -120s-82 -180.667 -98 -302z" />
    <glyph glyph-name="uniFBA8" unicode="&#x6c1;" horiz-adv-x="592" arabic-form="initial" 
d="M386.146 -130.457c-39.8389 -36.4785 -69.2373 -70.5566 -88.1963 -102.235c-18.96 -31.6787 -28.4395 -68.6377 -28.4395 -110.876c35.0391 0 59.998 -7.91992 74.877 -23.7588c14.8799 -15.8389 22.3193 -40.0781 22.3193 -72.7168
c0 -31.6787 -8.39941 -56.6377 -25.1992 -74.877c-16.7988 -18.2393 -40.7979 -27.3594 -71.9971 -27.3594c-75.8369 0 -113.755 41.7588 -113.755 125.275c0 128.154 59.0371 237.83 177.112 329.026zM446 738c32 -107.333 48 -214.667 48 -322
c0 -134.667 -33.333 -237.667 -100 -309s-165 -107 -295 -107h-119v180h119c78 0 134.833 18.167 170.5 54.5s53.5 95.833 53.5 178.5c0 88 -12.333 183 -37 285z" />
    <glyph glyph-name="uniFBA9" unicode="&#x6c1;" horiz-adv-x="1002" arabic-form="medial" 
d="M221 50c-38.667 -18.667 -70.001 -31.667 -94.001 -39s-52 -11 -84 -11h-63v180h65c50.667 0 94.5 6.5 131.5 19.5s65 26.833 84 41.5s50.167 42.334 93.5 83.001l22 20l110 -122l-25 -22c-34.667 -30.667 -58.5 -66.167 -71.5 -106.5s-15.833 -80.333 -8.5 -120
s20.833 -78.667 40.5 -117s43.834 -72.833 72.501 -103.5s59 -55.334 91 -74.001c0 160 34 283.5 102 370.5s168.333 130.5 301 130.5h34v-180h-36c-168.667 0 -253 -110 -253 -330c0 -34 1.33301 -64.667 4 -92l-121 -118c-118.667 56.667 -213.167 134.667 -283.5 234
s-107.5 218 -111.5 356z" />
    <glyph glyph-name="uniFBAA" unicode="&#x6be;" horiz-adv-x="1487" arabic-form="isolated" 
d="M47 180h72v-180h-24zM621 240c54.667 22 96.833 53.167 126.5 93.5s44.834 83.5 45.501 129.5c0 54 -15.333 95.667 -46 125s-72.334 44 -125.001 44c-54 0 -97.667 -14.833 -131 -44.5s-50 -69.5 -50 -119.5c0 -48 15.5 -92.5 46.5 -133.5s75.5 -72.5 133.5 -94.5z
M702.999 951c232 -112.667 404.334 -217.669 517.001 -315.002s169 -191.666 169 -282.999c0 -110.667 -35.167 -195.5 -105.5 -254.5s-165.833 -88.5 -286.5 -88.5c-61.333 0 -129.666 6.83301 -204.999 20.5s-138.333 29.167 -189 46.5
c-58.667 -22 -125.334 -40.333 -200.001 -55s-144.667 -22 -210 -22h-95v180h83c90 0 162.333 3.33301 217 10c-84.667 70.667 -127 162.667 -127 276c0 96.667 33.167 174.334 99.5 233.001s147.166 88 242.499 88c30.667 0 59 -3.33301 85 -10l-71 36zM846 698.998
c36 -31.333 61.166 -63.333 75.499 -96s21.5 -72.667 21.5 -120c0 -118 -45.333 -217 -136 -297c56.667 -7.33301 114.334 -11 173.001 -11c156 0 234 58.333 234 175c0 94.667 -122.667 211 -368 349z" />
    <glyph glyph-name="uniFBAB" unicode="&#x6be;" horiz-adv-x="1120" arabic-form="final" 
d="M47 180h72v-180h-24zM734 -540c-224 106.667 -357.002 286.669 -399.002 540.002h-237v180h224c3.33301 72.667 9.16602 137.834 17.499 195.501s20.833 113.667 37.5 168s37.334 99.333 62.001 135s56.167 64.167 94.5 85.5s82.5 32 132.5 32
c80.667 0 144.5 -28.333 191.5 -85s70.5 -131.334 70.5 -224.001c0 -78.667 -20.167 -155.334 -60.5 -230.001s-94.166 -135.834 -161.499 -183.501s-138 -72.5 -212 -74.5c24.667 -139.333 94.334 -246 209.001 -320c0 160 34 283.5 102 370.5s168.333 130.5 301 130.5h34
v-180h-36c-168.667 0 -253 -110 -253 -330c0 -34 1.33301 -64.667 4 -92zM484.998 179.002c78.667 2.66699 145.666 33.834 200.999 93.501s83 131.167 83 214.5c0 43.333 -9.66699 76.666 -29 99.999s-44.666 35 -75.999 35c-56 0 -98 -36.167 -126 -108.5
s-45.667 -183.833 -53 -334.5z" />
    <glyph glyph-name="uniFBAC" unicode="&#x6be;" horiz-adv-x="1369" arabic-form="initial" 
d="M503 240c54.667 22 96.833 53.167 126.5 93.5s44.834 83.5 45.501 129.5c0 54 -15.333 95.667 -46 125s-72.334 44 -125.001 44c-54 0 -97.667 -14.833 -131 -44.5s-50 -69.5 -50 -119.5c0 -48 15.5 -92.5 46.5 -133.5s75.5 -72.5 133.5 -94.5zM584.999 951
c232 -112.667 404.334 -217.669 517.001 -315.002s169 -191.666 169 -282.999c0 -110.667 -35.167 -195.5 -105.5 -254.5s-165.833 -88.5 -286.5 -88.5c-61.333 0 -129.666 6.83301 -204.999 20.5s-138.333 29.167 -189 46.5c-58.667 -22 -125.334 -40.333 -200.001 -55
s-144.667 -22 -210 -22h-95v180h83c90 0 162.333 3.33301 217 10c-84.667 70.667 -127 162.667 -127 276c0 96.667 33.167 174.334 99.5 233.001s147.166 88 242.499 88c30.667 0 59 -3.33301 85 -10l-71 36zM728 698.998c36 -31.333 61.166 -63.333 75.499 -96
s21.5 -72.667 21.5 -120c0 -118 -45.333 -217 -136 -297c56.667 -7.33301 114.334 -11 173.001 -11c156 0 234 58.333 234 175c0 94.667 -122.667 211 -368 349z" />
    <glyph glyph-name="uniFBAD" unicode="&#x6be;" horiz-adv-x="1002" arabic-form="medial" 
d="M616 -540c-224 106.667 -357.002 286.669 -399.002 540.002h-237v180h224c3.33301 72.667 9.16602 137.834 17.499 195.501s20.833 113.667 37.5 168s37.334 99.333 62.001 135s56.167 64.167 94.5 85.5s82.5 32 132.5 32c80.667 0 144.5 -28.333 191.5 -85
s70.5 -131.334 70.5 -224.001c0 -78.667 -20.167 -155.334 -60.5 -230.001s-94.166 -135.834 -161.499 -183.501s-138 -72.5 -212 -74.5c24.667 -139.333 94.334 -246 209.001 -320c0 160 34 283.5 102 370.5s168.333 130.5 301 130.5h34v-180h-36
c-168.667 0 -253 -110 -253 -330c0 -34 1.33301 -64.667 4 -92zM366.998 179.002c78.667 2.66699 145.666 33.834 200.999 93.501s83 131.167 83 214.5c0 43.333 -9.66699 76.666 -29 99.999s-44.666 35 -75.999 35c-56 0 -98 -36.167 -126 -108.5
s-45.667 -183.833 -53 -334.5z" />
    <glyph glyph-name="uniFBAE" unicode="&#x6d2;" horiz-adv-x="1744" arabic-form="isolated" 
d="M791 453l-41.999 57.001l-50.5 67c-13 16.667 -29.667 36.667 -50 60s-39.5 43 -57.5 59l-49 -74c-17.333 -27.333 -33 -51 -47 -71s-31.333 -42.667 -52 -68c-23.333 -28 -45.5 -52.833 -66.5 -74.5s-37.5 -37.667 -49.5 -48l-31.5 -27
c-9 -7.66699 -15.333 -13.834 -19 -18.501s-5.5 -10 -5.5 -16c0 -25.333 25.5 -48 76.5 -68s117.167 -35.167 198.5 -45.5s168.666 -15.5 261.999 -15.5c126 0 258.333 5.66699 397 17s246 22.333 322 33l113 17l6 -178c-30.667 -4.66699 -72.667 -10.167 -126 -16.5
s-153.5 -14.833 -300.5 -25.5s-283.5 -16 -409.5 -16c-474.667 0 -712 94 -712 282c0 26 4.33301 49.5 13 70.5s21.5 40.5 38.5 58.5s34.667 35.167 53 51.5l67 62.5c26.333 25.333 49.833 51.666 70.5 78.999c24 31.333 47.5 63.833 70.5 97.5s40 59.334 51 77.001
s23 34.5 36 50.5s26 27 39 33s28.833 9 47.5 9c27.333 0 58.833 -13 94.5 -39s68.834 -57.5 99.501 -94.5s57.167 -71.333 79.5 -103s39.166 -58.167 50.499 -79.5z" />
    <glyph glyph-name="uniFBAF" unicode="&#x6d2;" horiz-adv-x="1576" arabic-form="final" 
d="M1200.77 0v180h395.005v-180h-395.005zM656 0c-40 0 -80.3301 -5.00293 -120.997 -15.0029s-76.334 -22.5 -107.001 -37.5s-58.167 -30.667 -82.5 -47s-42.833 -30.833 -55.5 -43.5s-19 -22 -19 -28c0 -25.333 25.5 -48 76.5 -68s117.167 -35.167 198.5 -45.5
s168.666 -15.5 261.999 -15.5c68 0 133.5 2.33301 196.5 7s115.167 10.334 156.5 17.001s77.666 13.334 108.999 20.001s54.333 12.334 69 17.001l21 7l38 -166c-18 -5.33301 -43.667 -12 -77 -20s-101.333 -18.5 -204 -31.5s-205 -19.5 -307 -19.5
c-474.667 0 -712 94 -712 282c0 38 16.333 78.833 49 122.5s74.667 83.5 126 119.5s111.833 65.833 181.5 89.5s138.167 35.5 205.5 35.5h567v-180h-571z" />
    <glyph glyph-name="uniFBB0" unicode="&#x6d3;" horiz-adv-x="1744" arabic-form="isolated" 
d="M538 1113c-24.667 20.667 -42.5029 43.834 -53.5029 69.501s-16.5 57.167 -16.5 94.5c0 62 19.833 112.167 59.5 150.5s86.834 57.5 141.501 57.5c24 0 47.333 -3.5 70 -10.5s44.667 -17.167 66 -30.5l1 -119c-41.333 24.667 -82.333 37 -123 37
c-18 0 -34.167 -3.16699 -48.5 -9.5s-26.5 -17 -36.5 -32s-15 -33.833 -15 -56.5c0.666992 -14.667 3.83398 -27.834 9.50098 -39.501s15 -22.5 28 -32.5s29.833 -19 50.5 -27c4 -1.33301 7.5 -2.33301 10.5 -3s6.16699 -1 9.5 -1h2.5c1 0 1.83301 0.166992 2.5 0.5
s1.66699 0.5 3 0.5l71 14.5c30.667 6.33301 51.334 10.5 62.001 12.5v-116l-397 -96v113zM790.997 453l-41.999 57.001l-50.5 67c-13 16.667 -29.667 36.667 -50 60s-39.5 43 -57.5 59l-49 -74c-17.333 -27.333 -33 -51 -47 -71s-31.333 -42.667 -52 -68
c-23.333 -28 -45.5 -52.833 -66.5 -74.5s-37.5 -37.667 -49.5 -48l-31.5 -27c-9 -7.66699 -15.333 -13.834 -19 -18.501s-5.5 -10 -5.5 -16c0 -25.333 25.5 -48 76.5 -68s117.167 -35.167 198.5 -45.5s168.666 -15.5 261.999 -15.5c126 0 258.333 5.66699 397 17
s246 22.333 322 33l113 17l6 -178c-30.667 -4.66699 -72.667 -10.167 -126 -16.5s-153.5 -14.833 -300.5 -25.5s-283.5 -16 -409.5 -16c-474.667 0 -712 94 -712 282c0 26 4.33301 49.5 13 70.5s21.5 40.5 38.5 58.5s34.667 35.167 53 51.5l67 62.5
c26.333 25.333 49.833 51.666 70.5 78.999c24 31.333 47.5 63.833 70.5 97.5s40 59.334 51 77.001s23 34.5 36 50.5s26 27 39 33s28.833 9 47.5 9c27.333 0 58.833 -13 94.5 -39s68.834 -57.5 99.501 -94.5s57.167 -71.333 79.5 -103s39.166 -58.167 50.499 -79.5z" />
    <glyph glyph-name="uniFBB1" unicode="&#x6d3;" horiz-adv-x="1576" arabic-form="final" 
d="M1200.77 0v180h395.005v-180h-395.005zM656 0c-40 0 -80.3301 -5.00293 -120.997 -15.0029s-76.334 -22.5 -107.001 -37.5s-58.167 -30.667 -82.5 -47s-42.833 -30.833 -55.5 -43.5s-19 -22 -19 -28c0 -25.333 25.5 -48 76.5 -68s117.167 -35.167 198.5 -45.5
s168.666 -15.5 261.999 -15.5c68 0 133.5 2.33301 196.5 7s115.167 10.334 156.5 17.001s77.666 13.334 108.999 20.001s54.333 12.334 69 17.001l21 7l38 -166c-18 -5.33301 -43.667 -12 -77 -20s-101.333 -18.5 -204 -31.5s-205 -19.5 -307 -19.5
c-474.667 0 -712 94 -712 282c0 38 16.333 78.833 49 122.5s74.667 83.5 126 119.5s111.833 65.833 181.5 89.5s138.167 35.5 205.5 35.5h567v-180h-571zM530.003 484.997c-24.667 20.667 -42.5029 43.834 -53.5029 69.501s-16.5 57.167 -16.5 94.5
c0 62 19.833 112.167 59.5 150.5s86.834 57.5 141.501 57.5c24 0 47.333 -3.5 70 -10.5s44.667 -17.167 66 -30.5l1 -119c-41.333 24.667 -82.333 37 -123 37c-18 0 -34.167 -3.16699 -48.5 -9.5s-26.5 -17 -36.5 -32s-15 -33.833 -15 -56.5
c0.666992 -14.667 3.83398 -27.834 9.50098 -39.501s15 -22.5 28 -32.5s29.833 -19 50.5 -27c4 -1.33301 7.5 -2.33301 10.5 -3s6.16699 -1 9.5 -1h2.5c1 0 1.83301 0.166992 2.5 0.5s1.66699 0.5 3 0.5l71 14.5c30.667 6.33301 51.334 10.5 62.001 12.5v-116l-397 -96v113z
" />
    <glyph glyph-name="uniFBDA" unicode="&#x6c6;" horiz-adv-x="938" arabic-form="final" 
d="M352 939l-193 324h124l140 -240l141 240h124l-194 -324h-142zM874.878 0v180h83.4893v-180h-83.4893zM432 720c207.333 0 322.999 -180 346.999 -540h117v-180h-129c-26 -138.667 -89.167 -253 -189.5 -343s-236.833 -151.667 -409.5 -185l-60 154
c140.667 26.667 253.334 72.167 338.001 136.5s139.667 143.5 165 237.5h-149c-242.667 0 -364 98.667 -364 296c0 116 31.833 215.667 95.5 299s143.167 125 238.5 125zM615.999 180c-15.333 236.667 -81.333 355 -198 355c-44 0 -80.833 -22.5 -110.5 -67.5
s-44.5 -97.167 -44.5 -156.5c0 -87.333 63 -131 189 -131h164z" />
    <glyph glyph-name="uniFBE8" unicode="&#x649;" horiz-adv-x="672" arabic-form="initial" 
d="M526 738c32 -107.333 48.001 -214.667 48.001 -322c0 -146 -35.833 -251.833 -107.5 -317.5s-184.167 -98.5 -337.5 -98.5h-149v180h149c52 0 94.167 3 126.5 9s60.166 17.5 83.499 34.5s39.833 40.667 49.5 71s14.5 69.833 14.5 118.5c0 88 -12.333 183 -37 285z" />
    <glyph glyph-name="uniFBE9" unicode="&#x649;" horiz-adv-x="767" arabic-form="medial" 
d="M787 0l-24 -0.000976562c-68 0 -123.5 11.833 -166.5 35.5s-77.5 59.5 -103.5 107.5c-68 -95.333 -189.333 -143 -364 -143h-149v180h151c100.667 0 171 14.833 211 44.5s60.333 83.834 61 162.501c0 54.667 -2.66699 122 -8 202l164 19l16 -247
c8 -120.667 71.333 -181 190 -181h22v-180z" />
    <glyph glyph-name="uniFBFC" unicode="&#x6cc;" horiz-adv-x="1477" arabic-form="isolated" 
d="M361 475c-61.333 -150 -92.002 -281.001 -92.002 -393.001c0 -272 151.667 -408.667 455 -410c80.667 0 157.834 10.667 231.501 32s135.667 54.333 186 99s75.5 96.334 75.5 155.001c0 38.667 -33 58 -99 58h-144c-80.667 0 -141.834 21 -183.501 63
s-62.5 103.333 -62.5 184c0 66 12.833 127 38.5 183s59.834 102.833 102.501 140.5s92 67.167 148 88.5s114.333 32 175 32c69.333 0 129.333 -10.667 180 -32l-32 -165c-45.333 14 -94.666 21 -147.999 21c-42.667 0 -82.834 -7.5 -120.501 -22.5s-69 -34.667 -94 -59
s-44.667 -51.666 -59 -81.999s-21.5 -60.833 -21.5 -91.5s5.83301 -52.334 17.5 -65.001s34.834 -19 69.501 -19h180c68.667 0 121.667 -17.833 159 -53.5s56 -82.5 56 -140.5c0 -156.667 -60 -278.667 -180 -366s-280 -131 -480 -131c-414 0 -621 192.667 -621 578
c0 136 36 289 108 459z" />
    <glyph glyph-name="uniFBFD" unicode="&#x6cc;" horiz-adv-x="1559" arabic-form="final" 
d="M324 365c-36 -100 -53.999 -201.666 -53.999 -304.999c0 -271.333 149.667 -407 449 -407c79.333 0 156.166 10.5 230.499 31.5s135.333 50.167 183 87.5s71.5 77.666 71.5 120.999c0 30.667 -14.333 56.167 -43 76.5s-69 30.5 -121 30.5h-123
c-34 0 -55.667 20.667 -65 62l-22 92c-4 17.333 3.66699 26 23 26h604v-180h-119c18.667 -38 28 -76 28 -114c0 -117.333 -59.667 -214.166 -179 -290.499s-275 -114.5 -467 -114.5c-414 0 -621 193.333 -621 580c0 57.333 6.16699 120.166 18.5 188.499
s29.833 127.833 52.5 178.5zM1434.11 0.000976562v180h144.993v-180h-144.993z" />
    <glyph glyph-name="uniFBFE" unicode="&#x6cc;" horiz-adv-x="672" arabic-form="initial" 
d="M267 -303l140 140l141 -140l-141 -142zM-65 -303l140 140l141 -140l-141 -142zM526 738c32 -107.333 48.001 -214.667 48.001 -322c0 -146 -35.833 -251.833 -107.5 -317.5s-184.167 -98.5 -337.5 -98.5h-149v180h149c52 0 94.167 3 126.5 9s60.166 17.5 83.499 34.5
s39.833 40.667 49.5 71s14.5 69.833 14.5 118.5c0 88 -12.333 183 -37 285z" />
    <glyph glyph-name="uniFBFF" unicode="&#x6cc;" horiz-adv-x="767" arabic-form="medial" 
d="M267 -303l140 140l141 -140l-141 -142zM-65 -303l140 140l141 -140l-141 -142zM787 0l-24 -0.000976562c-68 0 -123.5 11.833 -166.5 35.5s-77.5 59.5 -103.5 107.5c-68 -95.333 -189.333 -143 -364 -143h-149v180h151c100.667 0 171 14.833 211 44.5
s60.333 83.834 61 162.501c0 54.667 -2.66699 122 -8 202l164 19l16 -247c8 -120.667 71.333 -181 190 -181h22v-180z" />
    <glyph glyph-name="uniFDFC" unicode="&#xfdfc;" horiz-adv-x="3189" arabic-form="isolated" 
d="M2026 -274l140 140l141 -140l-141 -142zM1694 -274l140 140l141 -140l-141 -142zM335 358c-44 -112 -66 -219.333 -66 -322c0 -255.333 135.333 -383 406 -383c255.333 0 383 138.333 383 415l3 1298h168l-1 -1259c0 -418 -184.667 -627 -554 -627
c-384 0 -576 185.667 -576 557c0 124 27.333 252 82 384zM2988 468c54.667 -135.333 82 -266 82 -392c0 -362 -210.667 -583 -632 -663l-60 154c348 66 523 234 525 504c0 105.333 -25.667 218.333 -77 339zM2407 738c32 -107.333 48 -214.667 48 -322
c0 -146 -35.833 -251.833 -107.5 -317.5s-184.167 -98.5 -337.5 -98.5h-149v180h149c52 0 94.167 3 126.5 9s60.166 17.5 83.5 34.5c23.333 17 39.833 40.667 49.5 71s14.5 69.833 14.5 118.5c0 88 -12.333 183 -37 285zM1903 -0.000976562l-25 0.000976562
c-124.667 0 -218.167 32.167 -280.5 96.5s-93.5 167.166 -93.5 308.499v961h169v-962c0 -81.333 16.833 -139 50.5 -173s85.167 -51 154.5 -51h25v-180z" />
    <glyph glyph-name="uniFE80" unicode="&#x621;" horiz-adv-x="830" arabic-form="isolated" 
d="M454 263l125.5 28l126.5 29l26 -169c-166.667 -20.667 -378 -101 -634 -241v173c67.333 46.667 132.666 81.667 195.999 105c-117.333 60 -176 142 -176 246c0 101.333 30.333 182.333 91 243s138.667 91 234 91c89.333 0 164.333 -29.667 225 -89l-55 -134
c-53.333 37.333 -105.666 56 -156.999 56c-53.333 0 -96 -14.667 -128 -44s-48 -70 -48 -122c0 -62 58 -119.333 174 -172z" />
    <glyph glyph-name="uniFE81" unicode="&#x622;" horiz-adv-x="465" arabic-form="isolated" 
d="M129 1416c-55.333 0 -113.998 -37 -175.998 -111l-101 91c76 107.333 157 161.333 243 162c28 0 67.167 -8.5 117.5 -25.5s89.5 -25.5 117.5 -25.5c47.333 0 106.666 18 177.999 54l66 -122c-74.667 -46 -147.334 -69 -218.001 -69c-27.333 0 -65.5 7.66699 -114.5 23
s-86.5 23 -112.5 23zM148.002 1228.27h169v-1227.37h-169v1227.37z" />
    <glyph glyph-name="uniFE82" unicode="&#x622;" horiz-adv-x="527" arabic-form="final" 
d="M225 1416c-55.333 0 -113.998 -37 -175.998 -111l-101 91c76 107.333 157 161.333 243 162c28 0 67.167 -8.5 117.5 -25.5s89.5 -25.5 117.5 -25.5c47.333 0 106.666 18 177.999 54l66 -122c-74.667 -46 -147.334 -69 -218.001 -69c-27.333 0 -65.5 7.66699 -114.5 23
s-86.5 23 -112.5 23zM546.002 0h-24c-125.333 0 -219 32 -281 96s-93 166.667 -93 308v763h169v-763c0 -81.333 16.833 -139 50.5 -173s85.167 -51 154.5 -51h24v-180z" />
    <glyph glyph-name="uniFE83" unicode="&#x623;" horiz-adv-x="465" arabic-form="isolated" 
d="M125 1382c-24.667 20.667 -42.5029 43.834 -53.5029 69.501s-16.5 57.167 -16.5 94.5c0 62 19.833 112.167 59.5 150.5s86.834 57.5 141.501 57.5c24 0 47.333 -3.5 70 -10.5s44.667 -17.167 66 -30.5l1 -119c-41.333 24.667 -82.333 37 -123 37
c-18 0 -34.167 -3.16699 -48.5 -9.5s-26.5 -17 -36.5 -32s-15 -33.833 -15 -56.5c0.666992 -14.667 3.83398 -27.834 9.50098 -39.501s15 -22.5 28 -32.5s29.833 -19 50.5 -27c4 -1.33301 7.5 -2.33301 10.5 -3s6.16699 -1 9.5 -1h2.5c1 0 1.83301 0.166992 2.5 0.5
s1.66699 0.5 3 0.5l71 14.5c30.667 6.33301 51.334 10.5 62.001 12.5v-116l-397 -96v113zM147.997 1168.82h169v-1165.96h-169v1165.96z" />
    <glyph glyph-name="uniFE84" unicode="&#x623;" horiz-adv-x="527" arabic-form="final" 
d="M125 1382c-24.667 20.667 -42.5029 43.834 -53.5029 69.501s-16.5 57.167 -16.5 94.5c0 62 19.833 112.167 59.5 150.5s86.834 57.5 141.501 57.5c24 0 47.333 -3.5 70 -10.5s44.667 -17.167 66 -30.5l1 -119c-41.333 24.667 -82.333 37 -123 37
c-18 0 -34.167 -3.16699 -48.5 -9.5s-26.5 -17 -36.5 -32s-15 -33.833 -15 -56.5c0.666992 -14.667 3.83398 -27.834 9.50098 -39.501s15 -22.5 28 -32.5s29.833 -19 50.5 -27c4 -1.33301 7.5 -2.33301 10.5 -3s6.16699 -1 9.5 -1h2.5c1 0 1.83301 0.166992 2.5 0.5
s1.66699 0.5 3 0.5l71 14.5c30.667 6.33301 51.334 10.5 62.001 12.5v-116l-397 -96v113zM545.997 0h-24c-125.333 0 -219 32 -281 96s-93 166.667 -93 308v763h169v-763c0 -81.333 16.833 -139 50.5 -173s85.167 -51 154.5 -51h24v-180z" />
    <glyph glyph-name="uniFE85" unicode="&#x624;" horiz-adv-x="880" arabic-form="isolated" 
d="M313 979c-24.667 20.667 -42.5029 43.834 -53.5029 69.501s-16.5 57.167 -16.5 94.5c0 62 19.833 112.167 59.5 150.5s86.834 57.5 141.501 57.5c24 0 47.333 -3.5 70 -10.5s44.667 -17.167 66 -30.5l1 -119c-41.333 24.667 -82.333 37 -123 37
c-18 0 -34.167 -3.16699 -48.5 -9.5s-26.5 -17 -36.5 -32s-15 -33.833 -15 -56.5c0.666992 -14.667 3.83398 -27.834 9.50098 -39.501s15 -22.5 28 -32.5s29.833 -19 50.5 -27c4 -1.33301 7.5 -2.33301 10.5 -3s6.16699 -1 9.5 -1h2.5c1 0 1.83301 0.166992 2.5 0.5
s1.66699 0.5 3 0.5l71 14.5c30.667 6.33301 51.334 10.5 62.001 12.5v-116l-397 -96v113zM615.997 13c-78.667 -10 -131.666 -15.001 -158.999 -15.001c-239.333 0 -359 99.333 -359 298c0 116 31.167 215.667 93.5 299s141.166 125 236.499 125
c58.667 0 111.167 -15.667 157.5 -47s83.5 -73.5 111.5 -126.5s49.167 -111.833 63.5 -176.5s21.5 -132.667 21.5 -204c0 -187.333 -51.667 -340.166 -155 -458.499s-256.333 -196.833 -459 -235.5l-60 154c142 26.667 255.5 73.167 340.5 139.5
s140.833 148.833 167.5 247.5zM615.998 198.999c-14 224 -79.333 336 -196 336c-45.333 0 -82.833 -22.5 -112.5 -67.5s-44.5 -97.167 -44.5 -156.5c0 -92.667 65 -139 195 -139c46 0 98.667 9 158 27z" />
    <glyph glyph-name="uniFE86" unicode="&#x624;" horiz-adv-x="938" arabic-form="final" 
d="M874.878 0v180h83.4893v-180h-83.4893zM432 720c207.333 0 322.999 -180 346.999 -540h117v-180h-129c-26 -138.667 -89.167 -253 -189.5 -343s-236.833 -151.667 -409.5 -185l-60 154c140.667 26.667 253.334 72.167 338.001 136.5s139.667 143.5 165 237.5h-149
c-242.667 0 -364 98.667 -364 296c0 116 31.833 215.667 95.5 299s143.167 125 238.5 125zM615.999 180c-15.333 236.667 -81.333 355 -198 355c-44 0 -80.833 -22.5 -110.5 -67.5s-44.5 -97.167 -44.5 -156.5c0 -87.333 63 -131 189 -131h164zM312.999 979
c-24.667 20.667 -42.5029 43.834 -53.5029 69.501s-16.5 57.167 -16.5 94.5c0 62 19.833 112.167 59.5 150.5s86.834 57.5 141.501 57.5c24 0 47.333 -3.5 70 -10.5s44.667 -17.167 66 -30.5l1 -119c-41.333 24.667 -82.333 37 -123 37c-18 0 -34.167 -3.16699 -48.5 -9.5
s-26.5 -17 -36.5 -32s-15 -33.833 -15 -56.5c0.666992 -14.667 3.83398 -27.834 9.50098 -39.501s15 -22.5 28 -32.5s29.833 -19 50.5 -27c4 -1.33301 7.5 -2.33301 10.5 -3s6.16699 -1 9.5 -1h2.5c1 0 1.83301 0.166992 2.5 0.5s1.66699 0.5 3 0.5l71 14.5
c30.667 6.33301 51.334 10.5 62.001 12.5v-116l-397 -96v113z" />
    <glyph glyph-name="uniFE87" unicode="&#x625;" horiz-adv-x="465" arabic-form="isolated" 
d="M110 -492c-24.667 20.667 -42.5029 43.834 -53.5029 69.501s-16.5 57.167 -16.5 94.5c0 62 19.833 112.167 59.5 150.5s86.834 57.5 141.501 57.5c24 0 47.333 -3.5 70 -10.5s44.667 -17.167 66 -30.5l1 -119c-41.333 24.667 -82.333 37 -123 37
c-18 0 -34.167 -3.16699 -48.5 -9.5s-26.5 -17 -36.5 -32s-15 -33.833 -15 -56.5c0.666992 -14.667 3.83398 -27.834 9.50098 -39.501s15 -22.5 28 -32.5s29.833 -19 50.5 -27c4 -1.33301 7.5 -2.33301 10.5 -3s6.16699 -1 9.5 -1h2.5c1 0 1.83301 0.166992 2.5 0.5
s1.66699 0.5 3 0.5l71 14.5c30.667 6.33301 51.334 10.5 62.001 12.5v-116l-397 -96v113zM148.997 1366h169v-1365h-169v1365z" />
    <glyph glyph-name="uniFE88" unicode="&#x625;" horiz-adv-x="527" arabic-form="final" 
d="M547 0l-25 0.000976562c-124.667 0 -218.167 32.167 -280.5 96.5s-93.5 167.166 -93.5 308.499v961h169v-962c0 -81.333 16.833 -139 50.5 -173s85.167 -51 154.5 -51h25v-180zM209 -505.999c-24.667 20.667 -42.5029 43.834 -53.5029 69.501s-16.5 57.167 -16.5 94.5
c0 62 19.833 112.167 59.5 150.5s86.834 57.5 141.501 57.5c24 0 47.333 -3.5 70 -10.5s44.667 -17.167 66 -30.5l1 -119c-41.333 24.667 -82.333 37 -123 37c-18 0 -34.167 -3.16699 -48.5 -9.5s-26.5 -17 -36.5 -32s-15 -33.833 -15 -56.5
c0.666992 -14.667 3.83398 -27.834 9.50098 -39.501s15 -22.5 28 -32.5s29.833 -19 50.5 -27c4 -1.33301 7.5 -2.33301 10.5 -3s6.16699 -1 9.5 -1h2.5c1 0 1.83301 0.166992 2.5 0.5s1.66699 0.5 3 0.5l71 14.5c30.667 6.33301 51.334 10.5 62.001 12.5v-116l-397 -96v113z
" />
    <glyph glyph-name="uniFE89" unicode="&#x626;" horiz-adv-x="1477" arabic-form="isolated" 
d="M487 787c-24.667 20.667 -42.5029 43.834 -53.5029 69.501s-16.5 57.167 -16.5 94.5c0 62 19.833 112.167 59.5 150.5s86.834 57.5 141.501 57.5c24 0 47.333 -3.5 70 -10.5s44.667 -17.167 66 -30.5l1 -119c-41.333 24.667 -82.333 37 -123 37
c-18 0 -34.167 -3.16699 -48.5 -9.5s-26.5 -17 -36.5 -32s-15 -33.833 -15 -56.5c0.666992 -14.667 3.83398 -27.834 9.50098 -39.501s15 -22.5 28 -32.5s29.833 -19 50.5 -27c4 -1.33301 7.5 -2.33301 10.5 -3s6.16699 -1 9.5 -1h2.5c1 0 1.83301 0.166992 2.5 0.5
s1.66699 0.5 3 0.5l71 14.5c30.667 6.33301 51.334 10.5 62.001 12.5v-116l-397 -96v113zM360.997 475c-61.333 -150 -92.002 -281.001 -92.002 -393.001c0 -272 151.667 -408.667 455 -410c80.667 0 157.834 10.667 231.501 32s135.667 54.333 186 99
s75.5 96.334 75.5 155.001c0 38.667 -33 58 -99 58h-144c-80.667 0 -141.834 21 -183.501 63s-62.5 103.333 -62.5 184c0 66 12.833 127 38.5 183s59.834 102.833 102.501 140.5s92 67.167 148 88.5s114.333 32 175 32c69.333 0 129.333 -10.667 180 -32l-32 -165
c-45.333 14 -94.666 21 -147.999 21c-42.667 0 -82.834 -7.5 -120.501 -22.5s-69 -34.667 -94 -59s-44.667 -51.666 -59 -81.999s-21.5 -60.833 -21.5 -91.5s5.83301 -52.334 17.5 -65.001s34.834 -19 69.501 -19h180c68.667 0 121.667 -17.833 159 -53.5
s56 -82.5 56 -140.5c0 -156.667 -60 -278.667 -180 -366s-280 -131 -480 -131c-414 0 -621 192.667 -621 578c0 136 36 289 108 459z" />
    <glyph glyph-name="uniFE8A" unicode="&#x626;" horiz-adv-x="1559" arabic-form="final" 
d="M324 365c-36 -100 -53.999 -201.666 -53.999 -304.999c0 -271.333 149.667 -407 449 -407c79.333 0 156.166 10.5 230.499 31.5s135.333 50.167 183 87.5s71.5 77.666 71.5 120.999c0 30.667 -14.333 56.167 -43 76.5s-69 30.5 -121 30.5h-123
c-34 0 -55.667 20.667 -65 62l-22 92c-4 17.333 3.66699 26 23 26h604v-180h-119c18.667 -38 28 -76 28 -114c0 -117.333 -59.667 -214.166 -179 -290.499s-275 -114.5 -467 -114.5c-414 0 -621 193.333 -621 580c0 57.333 6.16699 120.166 18.5 188.499
s29.833 127.833 52.5 178.5zM1434.11 0.000976562v180h144.993v-180h-144.993zM516.001 594.001c-24.667 20.667 -42.5029 43.834 -53.5029 69.501s-16.5 57.167 -16.5 94.5c0 62 19.833 112.167 59.5 150.5s86.834 57.5 141.501 57.5c24 0 47.333 -3.5 70 -10.5
s44.667 -17.167 66 -30.5l1 -119c-41.333 24.667 -82.333 37 -123 37c-18 0 -34.167 -3.16699 -48.5 -9.5s-26.5 -17 -36.5 -32s-15 -33.833 -15 -56.5c0.666992 -14.667 3.83398 -27.834 9.50098 -39.501s15 -22.5 28 -32.5s29.833 -19 50.5 -27
c4 -1.33301 7.5 -2.33301 10.5 -3s6.16699 -1 9.5 -1h2.5c1 0 1.83301 0.166992 2.5 0.5s1.66699 0.5 3 0.5l71 14.5c30.667 6.33301 51.334 10.5 62.001 12.5v-116l-397 -96v113z" />
    <glyph glyph-name="uniFE8B" unicode="&#x626;" horiz-adv-x="592" arabic-form="initial" 
d="M446 738c32 -107.333 48 -214.667 48 -322c0 -134.667 -33.333 -237.667 -100 -309s-165 -107 -295 -107h-119v180h119c78 0 134.833 18.167 170.5 54.5s53.5 95.833 53.5 178.5c0 88 -12.333 183 -37 285zM184 960.999c-24.667 20.667 -42.5029 43.834 -53.5029 69.501
s-16.5 57.167 -16.5 94.5c0 62 19.833 112.167 59.5 150.5s86.834 57.5 141.501 57.5c24 0 47.333 -3.5 70 -10.5s44.667 -17.167 66 -30.5l1 -119c-41.333 24.667 -82.333 37 -123 37c-18 0 -34.167 -3.16699 -48.5 -9.5s-26.5 -17 -36.5 -32s-15 -33.833 -15 -56.5
c0.666992 -14.667 3.83398 -27.834 9.50098 -39.501s15 -22.5 28 -32.5s29.833 -19 50.5 -27c4 -1.33301 7.5 -2.33301 10.5 -3s6.16699 -1 9.5 -1h2.5c1 0 1.83301 0.166992 2.5 0.5s1.66699 0.5 3 0.5l71 14.5c30.667 6.33301 51.334 10.5 62.001 12.5v-116l-397 -96v113z
" />
    <glyph glyph-name="uniFE8C" unicode="&#x626;" horiz-adv-x="687" arabic-form="medial" 
d="M707 0l-23.998 -0.000976562c-128.667 0 -219 47.667 -271 143c-68.667 -95.333 -172.334 -143 -311.001 -143h-121v180h121c79.333 0 136.166 17.333 170.499 52s51.5 89.667 51.5 165c0 18.667 -2.66699 82.334 -8 191.001l164 20l16 -246
c8 -121.333 71.333 -182 190 -182h22v-180zM211.002 854.999c-24.667 20.667 -42.5029 43.834 -53.5029 69.501s-16.5 57.167 -16.5 94.5c0 62 19.833 112.167 59.5 150.5s86.834 57.5 141.501 57.5c24 0 47.333 -3.5 70 -10.5s44.667 -17.167 66 -30.5l1 -119
c-41.333 24.667 -82.333 37 -123 37c-18 0 -34.167 -3.16699 -48.5 -9.5s-26.5 -17 -36.5 -32s-15 -33.833 -15 -56.5c0.666992 -14.667 3.83398 -27.834 9.50098 -39.501s15 -22.5 28 -32.5s29.833 -19 50.5 -27c4 -1.33301 7.5 -2.33301 10.5 -3s6.16699 -1 9.5 -1h2.5
c1 0 1.83301 0.166992 2.5 0.5s1.66699 0.5 3 0.5l71 14.5c30.667 6.33301 51.334 10.5 62.001 12.5v-116l-397 -96v113z" />
    <glyph glyph-name="uniFE8D" unicode="&#x627;" horiz-adv-x="465" arabic-form="isolated" 
d="M148 1366h169v-1365h-169v1365z" />
    <glyph glyph-name="uniFE8E" unicode="&#x627;" horiz-adv-x="527" arabic-form="final" 
d="M547 0l-25 0.000976562c-124.667 0 -218.167 32.167 -280.5 96.5s-93.5 167.166 -93.5 308.499v961h169v-962c0 -81.333 16.833 -139 50.5 -173s85.167 -51 154.5 -51h25v-180z" />
    <glyph glyph-name="uniFE8F" unicode="&#x628;" horiz-adv-x="1777" arabic-form="isolated" 
d="M781 -303l145 145l147 -146l-146 -145zM975 0h-134.999c-241.333 0 -425.333 40.667 -552 122s-190 202 -190 362c0 86 18 170.667 54 254l153 -57c-21.333 -56.667 -32 -114 -32 -172c0.666992 -219.333 186.334 -329 557.001 -329h138c52 0 91.167 0.166992 117.5 0.5
s62.166 2.16602 107.499 5.49902s79.833 8.33301 103.5 15s51.167 16.334 82.5 29.001s54.666 28.5 69.999 47.5s28.666 42.833 39.999 71.5s17 61.667 17 99c0 60 -12 143.333 -36 250l160 40c32.667 -98.667 49 -190.334 49 -275.001c0 -56.667 -6 -107.5 -18 -152.5
s-28.333 -83.667 -49 -116s-47.667 -60.166 -81 -83.499s-68.5 -42 -105.5 -56s-80.833 -25.167 -131.5 -33.5s-100.667 -14 -150 -17s-105.666 -4.5 -168.999 -4.5z" />
    <glyph glyph-name="uniFE90" unicode="&#x628;" horiz-adv-x="1878" arabic-form="final" 
d="M757 -303l145 145l147 -146l-146 -145zM985 0l-145.001 0.000976562c-241.333 0 -425.333 40.667 -552 122s-190 202 -190 362c0 86 18 170.667 54 254l153 -57c-21.333 -56.667 -32 -114 -32 -172c0.666992 -219.333 186.334 -329 557.001 -329h150
c262 0 428.667 43 500 129c23.333 28 35 69 35 123c0 26 -2.33301 78 -7 156l161 20l16 -248c4 -60.667 21.167 -105.834 51.5 -135.501s75.833 -44.5 136.5 -44.5h25v-180h-25c-137.333 -0 -236.333 59.333 -297 178c-112.667 -118.667 -309.667 -178 -591 -178z" />
    <glyph glyph-name="uniFE91" unicode="&#x628;" horiz-adv-x="592" arabic-form="initial" 
d="M59 -303l145 145l147 -146l-146 -145zM446 738c32 -107.333 48 -214.667 48 -322c0 -134.667 -33.333 -237.667 -100 -309s-165 -107 -295 -107h-119v180h119c78 0 134.833 18.167 170.5 54.5s53.5 95.833 53.5 178.5c0 88 -12.333 183 -37 285z" />
    <glyph glyph-name="uniFE92" unicode="&#x628;" horiz-adv-x="687" arabic-form="medial" 
d="M59 -303l145 145l147 -146l-146 -145zM707 0l-23.998 -0.000976562c-128.667 0 -219 47.667 -271 143c-68.667 -95.333 -172.334 -143 -311.001 -143h-121v180h121c79.333 0 136.166 17.333 170.499 52s51.5 89.667 51.5 165c0 18.667 -2.66699 82.334 -8 191.001l164 20
l16 -246c8 -121.333 71.333 -182 190 -182h22v-180z" />
    <glyph glyph-name="uniFE93" unicode="&#x629;" horiz-adv-x="922" arabic-form="isolated" 
d="M447 635c-121.333 -106.667 -181.999 -202 -181.999 -286c0 -56.667 15.667 -99 47 -127s80.666 -42 147.999 -42c68 0 117.833 14 149.5 42s47.5 70.667 47.5 128c0 77.333 -70 172.333 -210 285zM369.001 932c303.333 -222 454.999 -418 454.999 -588
c0 -99.333 -32.667 -180.5 -98 -243.5s-153.666 -95.167 -264.999 -96.5c-116 0 -205.5 29.5 -268.5 88.5s-94.5 142.833 -94.5 251.5c0 136 73 275.667 219 419l-45 39zM460 1218l140 140l141 -140l-141 -142zM128 1218l140 140l141 -140l-141 -142z" />
    <glyph glyph-name="uniFE94" unicode="&#x629;" horiz-adv-x="1038" arabic-form="final" 
d="M605 1221l140 140l141 -140l-141 -142zM273 1221l140 140l141 -140l-141 -142zM98 412c0 196.667 168.998 347.333 506.998 452l-7 45l159 33l82 -589c7.33301 -55.333 27 -98 59 -128s75 -45 129 -45h31v-180h-35c-179.333 0 -286.666 79 -321.999 237
c-81.333 -70 -171.333 -105 -270 -105c-97.333 0 -177.166 23.5 -239.499 70.5s-93.5 116.833 -93.5 209.5zM630.998 702.999c-120.667 -44.667 -210.666 -89.5 -269.999 -134.5s-89 -93.167 -89 -144.5c0 -40.667 13.167 -71.5 39.5 -92.5s64.166 -31.5 113.499 -31.5
c60 0 114.333 16.833 163 50.5s73 77.5 73 131.5c0 20 -1.33301 39 -4 57z" />
    <glyph glyph-name="uniFE95" unicode="&#x62a;" horiz-adv-x="1777" arabic-form="isolated" 
d="M975 0h-134.999c-241.333 0 -425.333 40.667 -552 122s-190 202 -190 362c0 86 18 170.667 54 254l153 -57c-21.333 -56.667 -32 -114 -32 -172c0.666992 -219.333 186.334 -329 557.001 -329h138c52 0 91.167 0.166992 117.5 0.5s62.166 2.16602 107.499 5.49902
s79.833 8.33301 103.5 15s51.167 16.334 82.5 29.001s54.666 28.5 69.999 47.5s28.666 42.833 39.999 71.5s17 61.667 17 99c0 60 -12 143.333 -36 250l160 40c32.667 -98.667 49 -190.334 49 -275.001c0 -56.667 -6 -107.5 -18 -152.5s-28.333 -83.667 -49 -116
s-47.667 -60.166 -81 -83.499s-68.5 -42 -105.5 -56s-80.833 -25.167 -131.5 -33.5s-100.667 -14 -150 -17s-105.666 -4.5 -168.999 -4.5zM921.001 860l140 140l141 -140l-141 -142zM589.001 860l140 140l141 -140l-141 -142z" />
    <glyph glyph-name="uniFE96" unicode="&#x62a;" horiz-adv-x="1878" arabic-form="final" 
d="M936 859l140 140l141 -140l-141 -142zM604 859l140 140l141 -140l-141 -142zM985 0l-145.001 0.000976562c-241.333 0 -425.333 40.667 -552 122s-190 202 -190 362c0 86 18 170.667 54 254l153 -57c-21.333 -56.667 -32 -114 -32 -172
c0.666992 -219.333 186.334 -329 557.001 -329h150c262 0 428.667 43 500 129c23.333 28 35 69 35 123c0 26 -2.33301 78 -7 156l161 20l16 -248c4 -60.667 21.167 -105.834 51.5 -135.501s75.833 -44.5 136.5 -44.5h25v-180h-25c-137.333 -0 -236.333 59.333 -297 178
c-112.667 -118.667 -309.667 -178 -591 -178z" />
    <glyph glyph-name="uniFE97" unicode="&#x62a;" horiz-adv-x="695" arabic-form="initial" 
d="M335 1040l140 140l141 -140l-141 -142zM3 1040l140 140l141 -140l-141 -142zM526 738c32 -107.333 48.001 -214.667 48.001 -322c0 -146 -35.833 -251.833 -107.5 -317.5s-184.167 -98.5 -337.5 -98.5h-149v180h149c52 0 94.167 3 126.5 9s60.166 17.5 83.499 34.5
s39.833 40.667 49.5 71s14.5 69.833 14.5 118.5c0 88 -12.333 183 -37 285z" />
    <glyph glyph-name="uniFE98" unicode="&#x62a;" horiz-adv-x="767" arabic-form="medial" 
d="M336 957l140 140l141 -140l-141 -142zM4 957l140 140l141 -140l-141 -142zM787 0l-24 -0.000976562c-68 0 -123.5 11.833 -166.5 35.5s-77.5 59.5 -103.5 107.5c-68 -95.333 -189.333 -143 -364 -143h-149v180h151c100.667 0 171 14.833 211 44.5
s60.333 83.834 61 162.501c0 54.667 -2.66699 122 -8 202l164 19l16 -247c8 -120.667 71.333 -181 190 -181h22v-180z" />
    <glyph glyph-name="uniFE99" unicode="&#x62b;" horiz-adv-x="1777" arabic-form="isolated" 
d="M975 0h-134.999c-241.333 0 -425.333 40.667 -552 122s-190 202 -190 362c0 86 18 170.667 54 254l153 -57c-21.333 -56.667 -32 -114 -32 -172c0.666992 -219.333 186.334 -329 557.001 -329h138c52 0 91.167 0.166992 117.5 0.5s62.166 2.16602 107.499 5.49902
s79.833 8.33301 103.5 15s51.167 16.334 82.5 29.001s54.666 28.5 69.999 47.5s28.666 42.833 39.999 71.5s17 61.667 17 99c0 60 -12 143.333 -36 250l160 40c32.667 -98.667 49 -190.334 49 -275.001c0 -56.667 -6 -107.5 -18 -152.5s-28.333 -83.667 -49 -116
s-47.667 -60.166 -81 -83.499s-68.5 -42 -105.5 -56s-80.833 -25.167 -131.5 -33.5s-100.667 -14 -150 -17s-105.666 -4.5 -168.999 -4.5zM762.001 1047l132 132l133 -132l-133 -133zM934.001 785l132 132l133 -132l-133 -133zM594.001 785l132 132l133 -132l-133 -133z" />
    <glyph glyph-name="uniFE9A" unicode="&#x62b;" horiz-adv-x="1878" arabic-form="final" 
d="M774 1048l132 132l133 -132l-133 -133zM946 786l132 132l133 -132l-133 -133zM606 786l132 132l133 -132l-133 -133zM985 0l-145.001 0.000976562c-241.333 0 -425.333 40.667 -552 122s-190 202 -190 362c0 86 18 170.667 54 254l153 -57
c-21.333 -56.667 -32 -114 -32 -172c0.666992 -219.333 186.334 -329 557.001 -329h150c262 0 428.667 43 500 129c23.333 28 35 69 35 123c0 26 -2.33301 78 -7 156l161 20l16 -248c4 -60.667 21.167 -105.834 51.5 -135.501s75.833 -44.5 136.5 -44.5h25v-180h-25
c-137.333 -0 -236.333 59.333 -297 178c-112.667 -118.667 -309.667 -178 -591 -178z" />
    <glyph glyph-name="uniFE9B" unicode="&#x62b;" horiz-adv-x="678" arabic-form="initial" 
d="M167 1272l132 132l133 -132l-133 -133zM339 1010l132 132l133 -132l-133 -133zM-1 1010l132 132l133 -132l-133 -133zM526 738c32 -107.333 48.001 -214.667 48.001 -322c0 -146 -35.833 -251.833 -107.5 -317.5s-184.167 -98.5 -337.5 -98.5h-149v180h149
c52 0 94.167 3 126.5 9s60.166 17.5 83.499 34.5s39.833 40.667 49.5 71s14.5 69.833 14.5 118.5c0 88 -12.333 183 -37 285z" />
    <glyph glyph-name="uniFE9C" unicode="&#x62b;" horiz-adv-x="767" arabic-form="medial" 
d="M169 1174l132 132l133 -132l-133 -133zM341 912l132 132l133 -132l-133 -133zM1 912l132 132l133 -132l-133 -133zM787 0l-24 -0.000976562c-68 0 -123.5 11.833 -166.5 35.5s-77.5 59.5 -103.5 107.5c-68 -95.333 -189.333 -143 -364 -143h-149v180h151
c100.667 0 171 14.833 211 44.5s60.333 83.834 61 162.501c0 54.667 -2.66699 122 -8 202l164 19l16 -247c8 -120.667 71.333 -181 190 -181h22v-180z" />
    <glyph glyph-name="uniFE9D" unicode="&#x62c;" horiz-adv-x="1347" arabic-form="isolated" 
d="M836 550l-90.998 37.001c-46 18.667 -77.833 31.334 -95.5 38.001l-68.5 25.5c-28 10.333 -49.5 17.166 -64.5 20.499s-28.167 5 -39.5 5c-36.667 0 -72.834 -10.667 -108.501 -32s-66.5 -48.666 -92.5 -81.999l-27 -35l-151 75l15 26
c43.333 70 96.5 125.167 159.5 165.5s131.5 60.5 205.5 60.5c69.333 0 170.333 -32 303 -96c104.667 -50.667 191 -87.667 259 -111s130.667 -36.333 188 -39l-13 -170c-177.333 -14 -337.833 -47 -481.5 -99s-257.667 -119.5 -342 -202.5s-126.5 -173.5 -126.5 -271.5
c0 -247.333 177.667 -371 533 -371c142 0 280.333 31.667 415 95l35 -170c-134 -64 -288.667 -96 -464 -96c-102.667 0 -195.334 10.667 -278.001 32s-154.667 53.166 -216 95.499s-108.5 97.166 -141.5 164.499s-49.5 145.333 -49.5 234c0 80.667 16 157.5 48 230.5
s78.5 139.833 139.5 200.5s138.167 114.167 231.5 160.5s199.333 82.833 318 109.5zM658.002 -77.999l145 145l147 -146l-146 -145z" />
    <glyph glyph-name="uniFE9E" unicode="&#x62c;" horiz-adv-x="1378" arabic-form="final" 
d="M563 -119l145 145l147 -146l-146 -145zM1248 -581c-134 -64 -288.664 -96 -463.997 -96c-102.667 0 -195.334 10.667 -278.001 32s-154.667 53.166 -216 95.499s-108.5 97.166 -141.5 164.499s-49.5 145.333 -49.5 234c0 164 63.833 308.667 191.5 434
s309.5 214.333 545.5 267l-91 37c-46 18.667 -77.833 31.334 -95.5 38.001l-68.5 25.5c-28 10.333 -49.5 17.166 -64.5 20.499s-28.167 5 -39.5 5c-36.667 0 -72.834 -10.667 -108.501 -32s-66.5 -48.666 -92.5 -81.999l-27 -35l-151 75l15 26
c43.333 70 96.5 125.167 159.5 165.5s131.5 60.5 205.5 60.5c69.333 0 170.333 -32 303 -96c104.667 -50.667 191 -87.667 259 -111s130.667 -36.333 188 -39c-1.33301 -19.333 -3.5 -47.666 -6.5 -84.999s-5.16699 -65.666 -6.5 -84.999
c-50 -3.33301 -115 -10.333 -195 -21c0.666992 -90 25.167 -152 73.5 -186s123.833 -51 226.5 -51h78v-180h-75c-154 0 -267.833 29.167 -341.5 87.5s-110.834 158.166 -111.501 299.499c-195.333 -54.667 -345 -128.5 -449 -221.5s-156 -193.167 -156 -300.5
c0 -247.333 177.667 -371 533 -371c142 0 280.333 31.667 415 95z" />
    <glyph glyph-name="uniFE9F" unicode="&#x62c;" horiz-adv-x="1334" arabic-form="initial" 
d="M489 -303l145 145l147 -146l-146 -145zM-20 0l0.000976562 179.998h163c118 0 227.167 17.833 327.5 53.5s233.5 96.5 399.5 182.5l78 41c-8 2.66699 -17.833 6.5 -29.5 11.5l-60.5 25.5l-95 39c-78.667 32 -137.667 54.833 -177 68.5s-69.666 20.5 -90.999 20.5
c-36.667 0 -72.834 -10.667 -108.501 -32s-66.5 -48.666 -92.5 -81.999l-27 -35l-151 75l15 26c43.333 70 96.5 125.167 159.5 165.5s131.5 60.5 205.5 60.5c69.333 0 170.333 -32 303 -96c104.667 -50.667 191 -87.667 259 -111s130.667 -36.333 188 -39l-2 -170
c-39.333 -4.66699 -86.833 -18.667 -142.5 -42s-135.834 -62.666 -240.501 -117.999c-144 -76 -269.333 -132.333 -376 -169s-221.667 -55 -345 -55h-160z" />
    <glyph glyph-name="uniFEA0" unicode="&#x62c;" horiz-adv-x="1351" arabic-form="medial" 
d="M489 -303l145 145l147 -146l-146 -145zM1244 384c-65.333 -7.33301 -132.667 -27.668 -202 -61.001c2 -50 25.167 -86.333 69.5 -109s112.833 -34 205.5 -34h54v-180h-58c-124.667 0 -219.834 20.167 -285.501 60.5s-103.834 104.5 -114.501 192.5
c-149.333 -81.333 -284.666 -143.833 -405.999 -187.5s-243.666 -65.5 -366.999 -65.5h-160v180h163c118 0 227.167 17.833 327.5 53.5s233.5 96.5 399.5 182.5l78 41c-8 2.66699 -17.833 6.5 -29.5 11.5l-60.5 25.5l-95 39c-78.667 32 -137.667 54.833 -177 68.5
s-69.666 20.5 -90.999 20.5c-36.667 0 -72.834 -10.667 -108.501 -32s-66.5 -48.666 -92.5 -81.999l-27 -35l-151 75l15 26c43.333 70 96.5 125.167 159.5 165.5s131.5 60.5 205.5 60.5c69.333 0 170.333 -32 303 -96c104.667 -50.667 191 -87.667 259 -111
s130.667 -36.333 188 -39z" />
    <glyph glyph-name="uniFEA1" unicode="&#x62d;" horiz-adv-x="1347" arabic-form="isolated" 
d="M836 550l-90.998 37.001c-46 18.667 -77.833 31.334 -95.5 38.001l-68.5 25.5c-28 10.333 -49.5 17.166 -64.5 20.499s-28.167 5 -39.5 5c-36.667 0 -72.834 -10.667 -108.501 -32s-66.5 -48.666 -92.5 -81.999l-27 -35l-151 75l15 26
c43.333 70 96.5 125.167 159.5 165.5s131.5 60.5 205.5 60.5c69.333 0 170.333 -32 303 -96c104.667 -50.667 191 -87.667 259 -111s130.667 -36.333 188 -39l-13 -170c-177.333 -14 -337.833 -47 -481.5 -99s-257.667 -119.5 -342 -202.5s-126.5 -173.5 -126.5 -271.5
c0 -247.333 177.667 -371 533 -371c142 0 280.333 31.667 415 95l35 -170c-134 -64 -288.667 -96 -464 -96c-102.667 0 -195.334 10.667 -278.001 32s-154.667 53.166 -216 95.499s-108.5 97.166 -141.5 164.499s-49.5 145.333 -49.5 234c0 80.667 16 157.5 48 230.5
s78.5 139.833 139.5 200.5s138.167 114.167 231.5 160.5s199.333 82.833 318 109.5z" />
    <glyph glyph-name="uniFEA2" unicode="&#x62d;" horiz-adv-x="1378" arabic-form="final" 
d="M1248 -581c-134 -64 -288.664 -96 -463.997 -96c-102.667 0 -195.334 10.667 -278.001 32s-154.667 53.166 -216 95.499s-108.5 97.166 -141.5 164.499s-49.5 145.333 -49.5 234c0 164 63.833 308.667 191.5 434s309.5 214.333 545.5 267l-91 37
c-46 18.667 -77.833 31.334 -95.5 38.001l-68.5 25.5c-28 10.333 -49.5 17.166 -64.5 20.499s-28.167 5 -39.5 5c-36.667 0 -72.834 -10.667 -108.501 -32s-66.5 -48.666 -92.5 -81.999l-27 -35l-151 75l15 26c43.333 70 96.5 125.167 159.5 165.5s131.5 60.5 205.5 60.5
c69.333 0 170.333 -32 303 -96c104.667 -50.667 191 -87.667 259 -111s130.667 -36.333 188 -39c-1.33301 -19.333 -3.5 -47.666 -6.5 -84.999s-5.16699 -65.666 -6.5 -84.999c-50 -3.33301 -115 -10.333 -195 -21c0.666992 -90 25.167 -152 73.5 -186
s123.833 -51 226.5 -51h78v-180h-75c-154 0 -267.833 29.167 -341.5 87.5s-110.834 158.166 -111.501 299.499c-195.333 -54.667 -345 -128.5 -449 -221.5s-156 -193.167 -156 -300.5c0 -247.333 177.667 -371 533 -371c142 0 280.333 31.667 415 95z" />
    <glyph glyph-name="uniFEA3" unicode="&#x62d;" horiz-adv-x="1334" arabic-form="initial" 
d="M-20 0l0.000976562 179.998h163c118 0 227.167 17.833 327.5 53.5s233.5 96.5 399.5 182.5l78 41c-8 2.66699 -17.833 6.5 -29.5 11.5l-60.5 25.5l-95 39c-78.667 32 -137.667 54.833 -177 68.5s-69.666 20.5 -90.999 20.5c-36.667 0 -72.834 -10.667 -108.501 -32
s-66.5 -48.666 -92.5 -81.999l-27 -35l-151 75l15 26c43.333 70 96.5 125.167 159.5 165.5s131.5 60.5 205.5 60.5c69.333 0 170.333 -32 303 -96c104.667 -50.667 191 -87.667 259 -111s130.667 -36.333 188 -39l-2 -170c-39.333 -4.66699 -86.833 -18.667 -142.5 -42
s-135.834 -62.666 -240.501 -117.999c-144 -76 -269.333 -132.333 -376 -169s-221.667 -55 -345 -55h-160z" />
    <glyph glyph-name="uniFEA4" unicode="&#x62d;" horiz-adv-x="1351" arabic-form="medial" 
d="M1244 384c-65.333 -7.33301 -132.667 -27.668 -202 -61.001c2 -50 25.167 -86.333 69.5 -109s112.833 -34 205.5 -34h54v-180h-58c-124.667 0 -219.834 20.167 -285.501 60.5s-103.834 104.5 -114.501 192.5c-149.333 -81.333 -284.666 -143.833 -405.999 -187.5
s-243.666 -65.5 -366.999 -65.5h-160v180h163c118 0 227.167 17.833 327.5 53.5s233.5 96.5 399.5 182.5l78 41c-8 2.66699 -17.833 6.5 -29.5 11.5l-60.5 25.5l-95 39c-78.667 32 -137.667 54.833 -177 68.5s-69.666 20.5 -90.999 20.5
c-36.667 0 -72.834 -10.667 -108.501 -32s-66.5 -48.666 -92.5 -81.999l-27 -35l-151 75l15 26c43.333 70 96.5 125.167 159.5 165.5s131.5 60.5 205.5 60.5c69.333 0 170.333 -32 303 -96c104.667 -50.667 191 -87.667 259 -111s130.667 -36.333 188 -39z" />
    <glyph glyph-name="uniFEA5" unicode="&#x62e;" horiz-adv-x="1347" arabic-form="isolated" 
d="M420 1184l145 145l147 -146l-146 -145zM836 550l-90.998 37.001c-46 18.667 -77.833 31.334 -95.5 38.001l-68.5 25.5c-28 10.333 -49.5 17.166 -64.5 20.499s-28.167 5 -39.5 5c-36.667 0 -72.834 -10.667 -108.501 -32s-66.5 -48.666 -92.5 -81.999l-27 -35l-151 75
l15 26c43.333 70 96.5 125.167 159.5 165.5s131.5 60.5 205.5 60.5c69.333 0 170.333 -32 303 -96c104.667 -50.667 191 -87.667 259 -111s130.667 -36.333 188 -39l-13 -170c-177.333 -14 -337.833 -47 -481.5 -99s-257.667 -119.5 -342 -202.5
s-126.5 -173.5 -126.5 -271.5c0 -247.333 177.667 -371 533 -371c142 0 280.333 31.667 415 95l35 -170c-134 -64 -288.667 -96 -464 -96c-102.667 0 -195.334 10.667 -278.001 32s-154.667 53.166 -216 95.499s-108.5 97.166 -141.5 164.499s-49.5 145.333 -49.5 234
c0 80.667 16 157.5 48 230.5s78.5 139.833 139.5 200.5s138.167 114.167 231.5 160.5s199.333 82.833 318 109.5z" />
    <glyph glyph-name="uniFEA6" unicode="&#x62e;" horiz-adv-x="1378" arabic-form="final" 
d="M420 1184l145 145l147 -146l-146 -145zM1248 -581c-134 -64 -288.664 -96 -463.997 -96c-102.667 0 -195.334 10.667 -278.001 32s-154.667 53.166 -216 95.499s-108.5 97.166 -141.5 164.499s-49.5 145.333 -49.5 234c0 164 63.833 308.667 191.5 434
s309.5 214.333 545.5 267l-91 37c-46 18.667 -77.833 31.334 -95.5 38.001l-68.5 25.5c-28 10.333 -49.5 17.166 -64.5 20.499s-28.167 5 -39.5 5c-36.667 0 -72.834 -10.667 -108.501 -32s-66.5 -48.666 -92.5 -81.999l-27 -35l-151 75l15 26
c43.333 70 96.5 125.167 159.5 165.5s131.5 60.5 205.5 60.5c69.333 0 170.333 -32 303 -96c104.667 -50.667 191 -87.667 259 -111s130.667 -36.333 188 -39c-1.33301 -19.333 -3.5 -47.666 -6.5 -84.999s-5.16699 -65.666 -6.5 -84.999
c-50 -3.33301 -115 -10.333 -195 -21c0.666992 -90 25.167 -152 73.5 -186s123.833 -51 226.5 -51h78v-180h-75c-154 0 -267.833 29.167 -341.5 87.5s-110.834 158.166 -111.501 299.499c-195.333 -54.667 -345 -128.5 -449 -221.5s-156 -193.167 -156 -300.5
c0 -247.333 177.667 -371 533 -371c142 0 280.333 31.667 415 95z" />
    <glyph glyph-name="uniFEA7" unicode="&#x62e;" horiz-adv-x="1334" arabic-form="initial" 
d="M429 1132l145 145l147 -146l-146 -145zM-20 0l0.000976562 179.998h163c118 0 227.167 17.833 327.5 53.5s233.5 96.5 399.5 182.5l78 41c-8 2.66699 -17.833 6.5 -29.5 11.5l-60.5 25.5l-95 39c-78.667 32 -137.667 54.833 -177 68.5s-69.666 20.5 -90.999 20.5
c-36.667 0 -72.834 -10.667 -108.501 -32s-66.5 -48.666 -92.5 -81.999l-27 -35l-151 75l15 26c43.333 70 96.5 125.167 159.5 165.5s131.5 60.5 205.5 60.5c69.333 0 170.333 -32 303 -96c104.667 -50.667 191 -87.667 259 -111s130.667 -36.333 188 -39l-2 -170
c-39.333 -4.66699 -86.833 -18.667 -142.5 -42s-135.834 -62.666 -240.501 -117.999c-144 -76 -269.333 -132.333 -376 -169s-221.667 -55 -345 -55h-160z" />
    <glyph glyph-name="uniFEA8" unicode="&#x62e;" horiz-adv-x="1351" arabic-form="medial" 
d="M429 1132l145 145l147 -146l-146 -145zM1244 384c-65.333 -7.33301 -132.667 -27.668 -202 -61.001c2 -50 25.167 -86.333 69.5 -109s112.833 -34 205.5 -34h54v-180h-58c-124.667 0 -219.834 20.167 -285.501 60.5s-103.834 104.5 -114.501 192.5
c-149.333 -81.333 -284.666 -143.833 -405.999 -187.5s-243.666 -65.5 -366.999 -65.5h-160v180h163c118 0 227.167 17.833 327.5 53.5s233.5 96.5 399.5 182.5l78 41c-8 2.66699 -17.833 6.5 -29.5 11.5l-60.5 25.5l-95 39c-78.667 32 -137.667 54.833 -177 68.5
s-69.666 20.5 -90.999 20.5c-36.667 0 -72.834 -10.667 -108.501 -32s-66.5 -48.666 -92.5 -81.999l-27 -35l-151 75l15 26c43.333 70 96.5 125.167 159.5 165.5s131.5 60.5 205.5 60.5c69.333 0 170.333 -32 303 -96c104.667 -50.667 191 -87.667 259 -111
s130.667 -36.333 188 -39z" />
    <glyph glyph-name="uniFEA9" unicode="&#x62f;" horiz-adv-x="963" arabic-form="isolated" 
d="M98 207c85.333 -17.333 158.333 -26 219 -26c248 0 372 61 372 183c0 126.667 -138 277 -414 451l98 148c328 -196 492 -394.667 492 -596c0 -243.333 -178.333 -365 -535 -365c-80 0 -157.333 8 -232 24v181z" />
    <glyph glyph-name="uniFEAA" unicode="&#x62f;" horiz-adv-x="1055" arabic-form="final" 
d="M98 209c77.333 -18.667 147 -28.002 209 -28.002c231.333 0 347 55.333 347 166c0 30.667 -30.333 117.334 -91 260.001l-120 282l161 74l208 -531c37.333 -95.333 72.833 -161.166 106.5 -197.499s71.834 -54.5 114.501 -54.5h42v-180h-42c-110 0 -197.333 54 -262 162
c-90.667 -107.333 -240.334 -161 -449.001 -161c-81.333 0 -156 8.33301 -224 25v183z" />
    <glyph glyph-name="uniFEAB" unicode="&#x630;" horiz-adv-x="963" arabic-form="isolated" 
d="M202 1280l145 145l147 -146l-146 -145zM98 207c85.333 -17.333 158.333 -26 219 -26c248 0 372 61 372 183c0 126.667 -138 277 -414 451l98 148c328 -196 492 -394.667 492 -596c0 -243.333 -178.333 -365 -535 -365c-80 0 -157.333 8 -232 24v181z" />
    <glyph glyph-name="uniFEAC" unicode="&#x630;" horiz-adv-x="1055" arabic-form="final" 
d="M351 1274l145 145l147 -146l-146 -145zM98 209c77.333 -18.667 147 -28.002 209 -28.002c231.333 0 347 55.333 347 166c0 30.667 -30.333 117.334 -91 260.001l-120 282l161 74l208 -531c37.333 -95.333 72.833 -161.166 106.5 -197.499s71.834 -54.5 114.501 -54.5h42
v-180h-42c-110 0 -197.333 54 -262 162c-90.667 -107.333 -240.334 -161 -449.001 -161c-81.333 0 -156 8.33301 -224 25v183z" />
    <glyph glyph-name="uniFEAD" unicode="&#x631;" horiz-adv-x="780" arabic-form="isolated" 
d="M600 527c54.667 -135.333 82 -266 82 -392c0 -362 -210.667 -583 -632 -663l-60 154c348 66 523 234 525 504c0 105.333 -25.667 218.333 -77 339z" />
    <glyph glyph-name="uniFEAE" unicode="&#x631;" horiz-adv-x="860" arabic-form="final" 
d="M515 130c0 47.333 -6.66699 101.002 -20 161.002s-32.333 119.333 -57 178l162 58l61 -192c11.333 -34.667 25 -63.334 41 -86.001s35.5 -39.834 58.5 -51.501s49.833 -17.5 80.5 -17.5h39v-180h-28c-49.333 0 -87 4.5 -113 13.5s-46.667 23.167 -62 42.5
c-11.333 -154 -69.833 -280.667 -175.5 -380s-256.167 -167.333 -451.5 -204l-60 154c348 66.667 523 234.667 525 504z" />
    <glyph glyph-name="uniFEAF" unicode="&#x632;" horiz-adv-x="780" arabic-form="isolated" 
d="M314 892l145 145l147 -146l-146 -145zM600 527c54.667 -135.333 82 -266 82 -392c0 -362 -210.667 -583 -632 -663l-60 154c348 66 523 234 525 504c0 105.333 -25.667 218.333 -77 339z" />
    <glyph glyph-name="uniFEB0" unicode="&#x632;" horiz-adv-x="860" arabic-form="final" 
d="M315 890l145 145l147 -146l-146 -145zM516 130c0 47.333 -6.66699 101.002 -20 161.002s-32.333 119.333 -57 178l162 58l61 -192c11.333 -34.667 25 -63.334 41 -86.001s35.5 -39.834 58.5 -51.501s49.833 -17.5 80.5 -17.5h39v-180h-28c-49.333 0 -87 4.5 -113 13.5
s-46.667 23.167 -62 42.5c-11.333 -154 -69.833 -280.667 -175.5 -380s-256.167 -167.333 -451.5 -204l-60 154c348 66.667 523 234.667 525 504z" />
    <glyph glyph-name="uniFEB1" unicode="&#x633;" horiz-adv-x="2456" arabic-form="isolated" 
d="M1531 0c-76.667 0 -139.666 19.334 -188.999 58.001c-2.66699 -187.333 -58.334 -330.5 -167.001 -429.5s-260 -148.5 -454 -148.5c-415.333 0 -623 192 -623 576c0 140 30 283 90 429l155 -63c-48.667 -128.667 -73 -249 -73 -361c0 -272 152.667 -408 458 -408
c298.667 0 448.334 149 449.001 447c0 120.667 -30 243.667 -90 369l169 58l59 -183c34.667 -108.667 107.334 -163.334 218.001 -164.001c64.667 0 111.667 17.5 141 52.5s44 87.167 44 156.5c0 32 -3.33301 91.333 -10 178l165 20l16 -226c4 -54.667 19 -98.5 45 -131.5
s63.667 -49.5 113 -49.5c92.667 0 139 74 139 222c0 71.333 -14.667 159.333 -44 264l168 45c32 -102 48 -200 48 -294c0 -59.333 -5.66699 -113.333 -17 -162s-28.833 -92.5 -52.5 -131.5s-55.834 -69.333 -96.501 -91s-88.667 -32.5 -144 -32.5
c-114 0 -194.667 47.667 -242 143c-68.667 -95.333 -160.334 -143 -275.001 -143z" />
    <glyph glyph-name="uniFEB2" unicode="&#x633;" horiz-adv-x="2553" arabic-form="final" 
d="M1531 0c-76.667 0 -139.665 19.334 -188.998 58.001c-2.66699 -187.333 -58.334 -330.5 -167.001 -429.5s-260 -148.5 -454 -148.5c-415.333 0 -623 192 -623 576c0 140 30 283 90 429l155 -63c-48.667 -128.667 -73 -249 -73 -361c0 -272 152.667 -408 458 -408
c298.667 0 448.334 149 449.001 447c0 120.667 -30 243.667 -90 369l169 58l59 -183c18 -55.333 44.5 -96.333 79.5 -123s81.167 -40.334 138.5 -41.001c64.667 0 111.667 17.5 141 52.5s44 87.167 44 156.5c0 32 -3.33301 91.333 -10 178l165 20l16 -226
c4 -54.667 19.167 -98.5 45.5 -131.5s64.166 -49.5 113.499 -49.5c92.667 0 139 69 139 207c0 44.667 -3.33301 111.667 -10 201l165 20l16 -247c8 -120.667 69.667 -181 185 -181h30v-180h-28c-138 0 -224.333 47.667 -259 143c-25.333 -49.333 -57 -85.5 -95 -108.5
s-85.333 -34.5 -142 -34.5c-114.667 0 -195.667 47.667 -243 143c-68.667 -95.333 -160.334 -143 -275.001 -143z" />
    <glyph glyph-name="uniFEB3" unicode="&#x633;" horiz-adv-x="1562" arabic-form="initial" 
d="M1153 180c92.667 0 139.002 73.998 139.002 221.998c0 70 -14.667 158 -44 264l168 45c32 -102 48 -200 48 -294c0 -47.333 -3.33301 -91.166 -10 -131.499s-17.834 -78.166 -33.501 -113.499s-35.167 -65.5 -58.5 -90.5s-52.666 -44.833 -87.999 -59.5
s-75.333 -22 -120 -22c-114.667 0 -195.667 47.667 -243 143c-69.333 -95.333 -161 -143 -275 -143c-132.667 0 -220.667 47.667 -264 143c-55.333 -95.333 -163 -143 -323 -143h-69v180h71c84 0 145.333 15.667 184 47s58 85.333 58 162c0 38 -3.33301 97.333 -10 178
l165 20l16 -226c4 -55.333 20.667 -99.333 50 -132s70.666 -49 123.999 -49c64.667 0 111.667 17.5 141 52.5s44 87.167 44 156.5c0 36 -3.33301 95.333 -10 178l165 20l16 -226c4 -54.667 19.167 -98.5 45.5 -131.5s64.166 -49.5 113.499 -49.5z" />
    <glyph glyph-name="uniFEB4" unicode="&#x633;" horiz-adv-x="1658" arabic-form="medial" 
d="M372 143c-56.667 -95.333 -164.33 -143.001 -322.997 -143.001h-69v180h71c84 0 145.333 15.667 184 47s58 85.333 58 162c0 34 -3.33301 93.333 -10 178l165 20l16 -226c4 -55.333 20.667 -99.333 50 -132s70.666 -49 123.999 -49c64.667 0 111.667 17.5 141 52.5
s44 87.167 44 156.5c0 32 -3.33301 91.333 -10 178l165 20l16 -226c4 -54.667 19.167 -98.5 45.5 -131.5s64.166 -49.5 113.499 -49.5c92.667 0 139 69 139 207c0 44.667 -3.33301 111.667 -10 201l165 20l16 -247c8 -120.667 69.667 -181 185 -181h30v-180h-28
c-138 0 -224.333 47.667 -259 143c-25.333 -49.333 -57 -85.5 -95 -108.5s-85.333 -34.5 -142 -34.5c-114.667 0 -195.667 47.667 -243 143c-68.667 -95.333 -160.334 -143 -275.001 -143c-133.333 0.666992 -221.333 48.334 -264 143.001z" />
    <glyph glyph-name="uniFEB5" unicode="&#x634;" horiz-adv-x="2456" arabic-form="isolated" 
d="M1612 1184l132 132l133 -132l-133 -133zM1784 922l132 132l133 -132l-133 -133zM1444 922l132 132l133 -132l-133 -133zM1531 0c-76.667 0 -139.666 19.334 -188.999 58.001c-2.66699 -187.333 -58.334 -330.5 -167.001 -429.5s-260 -148.5 -454 -148.5
c-415.333 0 -623 192 -623 576c0 140 30 283 90 429l155 -63c-48.667 -128.667 -73 -249 -73 -361c0 -272 152.667 -408 458 -408c298.667 0 448.334 149 449.001 447c0 120.667 -30 243.667 -90 369l169 58l59 -183c34.667 -108.667 107.334 -163.334 218.001 -164.001
c64.667 0 111.667 17.5 141 52.5s44 87.167 44 156.5c0 32 -3.33301 91.333 -10 178l165 20l16 -226c4 -54.667 19 -98.5 45 -131.5s63.667 -49.5 113 -49.5c92.667 0 139 74 139 222c0 71.333 -14.667 159.333 -44 264l168 45c32 -102 48 -200 48 -294
c0 -59.333 -5.66699 -113.333 -17 -162s-28.833 -92.5 -52.5 -131.5s-55.834 -69.333 -96.501 -91s-88.667 -32.5 -144 -32.5c-114 0 -194.667 47.667 -242 143c-68.667 -95.333 -160.334 -143 -275.001 -143z" />
    <glyph glyph-name="uniFEB6" unicode="&#x634;" horiz-adv-x="2553" arabic-form="final" 
d="M1612 1184l132 132l133 -132l-133 -133zM1784 922l132 132l133 -132l-133 -133zM1444 922l132 132l133 -132l-133 -133zM1531 0c-76.667 0 -139.665 19.334 -188.998 58.001c-2.66699 -187.333 -58.334 -330.5 -167.001 -429.5s-260 -148.5 -454 -148.5
c-415.333 0 -623 192 -623 576c0 140 30 283 90 429l155 -63c-48.667 -128.667 -73 -249 -73 -361c0 -272 152.667 -408 458 -408c298.667 0 448.334 149 449.001 447c0 120.667 -30 243.667 -90 369l169 58l59 -183c18 -55.333 44.5 -96.333 79.5 -123
s81.167 -40.334 138.5 -41.001c64.667 0 111.667 17.5 141 52.5s44 87.167 44 156.5c0 32 -3.33301 91.333 -10 178l165 20l16 -226c4 -54.667 19.167 -98.5 45.5 -131.5s64.166 -49.5 113.499 -49.5c92.667 0 139 69 139 207c0 44.667 -3.33301 111.667 -10 201l165 20
l16 -247c8 -120.667 69.667 -181 185 -181h30v-180h-28c-138 0 -224.333 47.667 -259 143c-25.333 -49.333 -57 -85.5 -95 -108.5s-85.333 -34.5 -142 -34.5c-114.667 0 -195.667 47.667 -243 143c-68.667 -95.333 -160.334 -143 -275.001 -143z" />
    <glyph glyph-name="uniFEB7" unicode="&#x634;" horiz-adv-x="1562" arabic-form="initial" 
d="M718 1184l132 132l133 -132l-133 -133zM890 922l132 132l133 -132l-133 -133zM550 922l132 132l133 -132l-133 -133zM1153 180c92.667 0 139.002 73.998 139.002 221.998c0 70 -14.667 158 -44 264l168 45c32 -102 48 -200 48 -294
c0 -47.333 -3.33301 -91.166 -10 -131.499s-17.834 -78.166 -33.501 -113.499s-35.167 -65.5 -58.5 -90.5s-52.666 -44.833 -87.999 -59.5s-75.333 -22 -120 -22c-114.667 0 -195.667 47.667 -243 143c-69.333 -95.333 -161 -143 -275 -143
c-132.667 0 -220.667 47.667 -264 143c-55.333 -95.333 -163 -143 -323 -143h-69v180h71c84 0 145.333 15.667 184 47s58 85.333 58 162c0 38 -3.33301 97.333 -10 178l165 20l16 -226c4 -55.333 20.667 -99.333 50 -132s70.666 -49 123.999 -49
c64.667 0 111.667 17.5 141 52.5s44 87.167 44 156.5c0 36 -3.33301 95.333 -10 178l165 20l16 -226c4 -54.667 19.167 -98.5 45.5 -131.5s64.166 -49.5 113.499 -49.5z" />
    <glyph glyph-name="uniFEB8" unicode="&#x634;" horiz-adv-x="1658" arabic-form="medial" 
d="M718 1184l132 132l133 -132l-133 -133zM890 922l132 132l133 -132l-133 -133zM550 922l132 132l133 -132l-133 -133zM372 143c-56.667 -95.333 -164.33 -143.001 -322.997 -143.001h-69v180h71c84 0 145.333 15.667 184 47s58 85.333 58 162
c0 34 -3.33301 93.333 -10 178l165 20l16 -226c4 -55.333 20.667 -99.333 50 -132s70.666 -49 123.999 -49c64.667 0 111.667 17.5 141 52.5s44 87.167 44 156.5c0 32 -3.33301 91.333 -10 178l165 20l16 -226c4 -54.667 19.167 -98.5 45.5 -131.5
s64.166 -49.5 113.499 -49.5c92.667 0 139 69 139 207c0 44.667 -3.33301 111.667 -10 201l165 20l16 -247c8 -120.667 69.667 -181 185 -181h30v-180h-28c-138 0 -224.333 47.667 -259 143c-25.333 -49.333 -57 -85.5 -95 -108.5s-85.333 -34.5 -142 -34.5
c-114.667 0 -195.667 47.667 -243 143c-68.667 -95.333 -160.334 -143 -275.001 -143c-133.333 0.666992 -221.333 48.334 -264 143.001z" />
    <glyph glyph-name="uniFEB9" unicode="&#x635;" horiz-adv-x="2575" arabic-form="isolated" 
d="M1753 181c364 0 546 77.334 546 232.001c0 55.333 -18.167 101.166 -54.5 137.499s-83.166 54.5 -140.5 54.5c-150.667 0 -317 -141.667 -499 -425zM1177 100.001c0 120.667 -30.001 243.667 -90.001 369l169 58l59 -183c28 -85.333 62.667 -130.333 104 -135
c226.667 385.333 453 578 679 578c108.667 0 199 -35 271 -105s108 -156.667 108 -260c-1.33301 -281.333 -241.333 -422 -720 -422h-51c-163.333 0 -284.666 19 -363.999 57c-2.66699 -189.333 -58.834 -332.833 -168.501 -430.5s-260.5 -146.5 -452.5 -146.5
c-415.333 0 -623 192 -623 576c0 140 30 283 90 429l155 -63c-48.667 -128.667 -73 -249 -73 -361c0 -272 152.667 -408 458 -408c298.667 0 448.334 149 449.001 447z" />
    <glyph glyph-name="uniFEBA" unicode="&#x635;" horiz-adv-x="2610" arabic-form="final" 
d="M1753 181c364 0 546 77.334 546 232.001c0 55.333 -18.167 101.166 -54.5 137.499s-83.166 54.5 -140.5 54.5c-150.667 0 -317 -141.667 -499 -425zM1177 100.001c0 120.667 -30.002 243.667 -90.002 369l169 58l59 -183c26.667 -85.333 61.334 -130.333 104.001 -135
c228 385.333 453.667 578 677 578c112 0 203.5 -34.5 274.5 -103.5s106.5 -156.167 106.5 -261.5c0 -78 -27 -153.333 -81 -226c38 -10.667 106 -16 204 -16h30v-180h-29c-152 0 -266 31 -342 93c-112 -62 -279.333 -93 -502 -93h-51c-163.333 0 -284.666 19 -363.999 57
c-2.66699 -189.333 -58.834 -332.833 -168.501 -430.5s-260.5 -146.5 -452.5 -146.5c-415.333 0 -623 192 -623 576c0 140 30 283 90 429l155 -63c-48.667 -128.667 -73 -249 -73 -361c0 -272 152.667 -408 458 -408c298.667 0 448.334 149 449.001 447z" />
    <glyph glyph-name="uniFEBB" unicode="&#x635;" horiz-adv-x="1654" arabic-form="initial" 
d="M832 181c364 0 545.999 77.334 545.999 232.001c0 55.333 -18.167 101.166 -54.5 137.499s-83.166 54.5 -140.499 54.5c-150.667 0 -317 -141.667 -499 -425zM497.999 209.001c228.667 385.333 454.332 578 676.999 578c112 0 203.5 -34.5 274.5 -103.5
s106.5 -156.167 106.5 -261.5c-1.33301 -281.333 -241.333 -422 -720 -422h-51c-125.333 0 -225.166 11.667 -299.499 35s-126.833 59.333 -157.5 108c-37.333 -50.667 -79 -87.167 -125 -109.5s-107 -33.5 -183 -33.5h-40l1 180h39c85.333 0 143.833 16 175.5 48
s47.5 85.333 47.5 160c0 24.667 -2.66699 91.334 -8 200.001l164 20l18 -247c6.66699 -88.667 33.667 -139.334 81 -152.001z" />
    <glyph glyph-name="uniFEBC" unicode="&#x635;" horiz-adv-x="1689" arabic-form="medial" 
d="M832 181c364 0 545.999 77.334 545.999 232.001c0 55.333 -18.167 101.166 -54.5 137.499s-83.166 54.5 -140.499 54.5c-150.667 0 -317 -141.667 -499 -425zM497.999 209.001c229.333 385.333 455.332 578.002 677.999 578.002c112 0 203.333 -34.5 274 -103.5
s106 -156.833 106 -263.5c0 -74.667 -27 -149.334 -81 -224.001c26 -10.667 94 -16 204 -16h30v-180h-30c-151.333 0 -265 31 -341 93c-112 -62 -279.333 -93 -502 -93h-51c-243.333 0 -395.666 47.667 -456.999 143c-37.333 -50.667 -79 -87.167 -125 -109.5
s-107 -33.5 -183 -33.5h-40v180h39c86 0 144.833 16 176.5 48s47.5 85 47.5 159c0 25.333 -2.66699 92.333 -8 201l164 20l18 -247c6.66699 -88.667 33.667 -139.334 81 -152.001z" />
    <glyph glyph-name="uniFEBD" unicode="&#x636;" horiz-adv-x="2575" arabic-form="isolated" 
d="M1913 1144l145 145l147 -146l-146 -145zM1753 181c364 0 546 77.334 546 232.001c0 55.333 -18.167 101.166 -54.5 137.499s-83.166 54.5 -140.5 54.5c-150.667 0 -317 -141.667 -499 -425zM1177 100.001c0 120.667 -30.001 243.667 -90.001 369l169 58l59 -183
c28 -85.333 62.667 -130.333 104 -135c226.667 385.333 453 578 679 578c108.667 0 199 -35 271 -105s108 -156.667 108 -260c-1.33301 -281.333 -241.333 -422 -720 -422h-51c-163.333 0 -284.666 19 -363.999 57c-2.66699 -189.333 -58.834 -332.833 -168.501 -430.5
s-260.5 -146.5 -452.5 -146.5c-415.333 0 -623 192 -623 576c0 140 30 283 90 429l155 -63c-48.667 -128.667 -73 -249 -73 -361c0 -272 152.667 -408 458 -408c298.667 0 448.334 149 449.001 447z" />
    <glyph glyph-name="uniFEBE" unicode="&#x636;" horiz-adv-x="2610" arabic-form="final" 
d="M1913 1144l145 145l147 -146l-146 -145zM1753 181c364 0 546 77.334 546 232.001c0 55.333 -18.167 101.166 -54.5 137.499s-83.166 54.5 -140.5 54.5c-150.667 0 -317 -141.667 -499 -425zM1177 100.001c0 120.667 -30.002 243.667 -90.002 369l169 58l59 -183
c26.667 -85.333 61.334 -130.333 104.001 -135c228 385.333 453.667 578 677 578c112 0 203.5 -34.5 274.5 -103.5s106.5 -156.167 106.5 -261.5c0 -78 -27 -153.333 -81 -226c38 -10.667 106 -16 204 -16h30v-180h-29c-152 0 -266 31 -342 93
c-112 -62 -279.333 -93 -502 -93h-51c-163.333 0 -284.666 19 -363.999 57c-2.66699 -189.333 -58.834 -332.833 -168.501 -430.5s-260.5 -146.5 -452.5 -146.5c-415.333 0 -623 192 -623 576c0 140 30 283 90 429l155 -63c-48.667 -128.667 -73 -249 -73 -361
c0 -272 152.667 -408 458 -408c298.667 0 448.334 149 449.001 447z" />
    <glyph glyph-name="uniFEBF" unicode="&#x636;" horiz-adv-x="1654" arabic-form="initial" 
d="M992 1144l145 145l147 -146l-146 -145zM832 181c364 0 545.999 77.334 545.999 232.001c0 55.333 -18.167 101.166 -54.5 137.499s-83.166 54.5 -140.499 54.5c-150.667 0 -317 -141.667 -499 -425zM497.999 209.001c228.667 385.333 454.332 578 676.999 578
c112 0 203.5 -34.5 274.5 -103.5s106.5 -156.167 106.5 -261.5c-1.33301 -281.333 -241.333 -422 -720 -422h-51c-125.333 0 -225.166 11.667 -299.499 35s-126.833 59.333 -157.5 108c-37.333 -50.667 -79 -87.167 -125 -109.5s-107 -33.5 -183 -33.5h-40l1 180h39
c85.333 0 143.833 16 175.5 48s47.5 85.333 47.5 160c0 24.667 -2.66699 91.334 -8 200.001l164 20l18 -247c6.66699 -88.667 33.667 -139.334 81 -152.001z" />
    <glyph glyph-name="uniFEC0" unicode="&#x636;" horiz-adv-x="1689" arabic-form="medial" 
d="M992 1144l145 145l147 -146l-146 -145zM832 181c364 0 545.999 77.334 545.999 232.001c0 55.333 -18.167 101.166 -54.5 137.499s-83.166 54.5 -140.499 54.5c-150.667 0 -317 -141.667 -499 -425zM497.999 209.001c229.333 385.333 455.332 578.002 677.999 578.002
c112 0 203.333 -34.5 274 -103.5s106 -156.833 106 -263.5c0 -74.667 -27 -149.334 -81 -224.001c26 -10.667 94 -16 204 -16h30v-180h-30c-151.333 0 -265 31 -341 93c-112 -62 -279.333 -93 -502 -93h-51c-243.333 0 -395.666 47.667 -456.999 143
c-37.333 -50.667 -79 -87.167 -125 -109.5s-107 -33.5 -183 -33.5h-40v180h39c86 0 144.833 16 176.5 48s47.5 85 47.5 159c0 25.333 -2.66699 92.333 -8 201l164 20l18 -247c6.66699 -88.667 33.667 -139.334 81 -152.001z" />
    <glyph glyph-name="uniFEC1" unicode="&#x637;" horiz-adv-x="1471" arabic-form="isolated" 
d="M649 182c364 0 545.999 77.334 545.999 232.001c0 55.333 -18.167 101.166 -54.5 137.499s-83.166 54.5 -140.499 54.5c-150.667 0 -317 -141.667 -499 -425zM319.999 180.001l73 116v1070h169v-830c136 167.333 279 251 429 251c112.667 0 204.5 -34.333 275.5 -103
s106.5 -156 106.5 -262c-2 -281.333 -242 -422 -720 -422h-555v180h222z" />
    <glyph glyph-name="uniFEC2" unicode="&#x637;" horiz-adv-x="1510" arabic-form="final" 
d="M649 182c364 0 546 77.334 546 232.001c0 55.333 -18 101.166 -54 137.499s-82.667 54.5 -140 54.5c-151.333 0 -318 -141.667 -500 -425zM1292 195.001c13.333 -10 82.667 -15 208 -15h30v-180h-29c-150.667 0 -264 30.667 -340 92
c-53.333 -28 -124.833 -50.333 -214.5 -67s-187.5 -25 -293.5 -25h-555v180h222l36 57l37 59v1070h169v-830c134.667 167.333 278 251 430 251c111.333 0 202.5 -34.5 273.5 -103.5s106.5 -156.167 106.5 -261.5c0 -73.333 -26.667 -149 -80 -227z" />
    <glyph glyph-name="uniFEC3" unicode="&#x637;" horiz-adv-x="1293" arabic-form="initial" 
d="M471 182c364 0 545.999 77.334 545.999 232.001c0 55.333 -18.167 101.166 -54.5 137.499s-83.166 54.5 -140.499 54.5c-150.667 0 -317 -141.667 -499 -425zM383.999 536.001c136.667 167.333 281.667 251 435 251c109.333 0 199.333 -34.667 270 -104
s106 -156.333 106 -261c0 -281.333 -239.667 -422 -719 -422h-496v180h160l36.5 56l38.5 59v1071h169v-830z" />
    <glyph glyph-name="uniFEC4" unicode="&#x637;" horiz-adv-x="1332" arabic-form="medial" 
d="M471 182c364 0 545.999 77.334 545.999 232.001c0 55.333 -18.167 101.166 -54.5 137.499s-83.166 54.5 -140.499 54.5c-150.667 0 -317 -141.667 -499 -425zM1114 195.001c13.333 -10 82.667 -14.999 208 -14.999h30v-180h-31c-148.667 0 -261.334 31 -338.001 93
c-54 -28 -125.667 -50.5 -215 -67.5s-186.666 -25.5 -291.999 -25.5h-496v180h162l73 116v1070h169v-830c138 167.333 282 251 432 251c110 0 200.667 -34.667 272 -104s107 -156.333 107 -261c0 -72.667 -27 -148.334 -81 -227.001z" />
    <glyph glyph-name="uniFEC5" unicode="&#x638;" horiz-adv-x="1471" arabic-form="isolated" 
d="M825 1144l145 145l147 -146l-146 -145zM649 182c364 0 545.999 77.334 545.999 232.001c0 55.333 -18.167 101.166 -54.5 137.499s-83.166 54.5 -140.499 54.5c-150.667 0 -317 -141.667 -499 -425zM319.999 180.001l73 116v1070h169v-830c136 167.333 279 251 429 251
c112.667 0 204.5 -34.333 275.5 -103s106.5 -156 106.5 -262c-2 -281.333 -242 -422 -720 -422h-555v180h222z" />
    <glyph glyph-name="uniFEC6" unicode="&#x638;" horiz-adv-x="1510" arabic-form="final" 
d="M824 1144l145 145l147 -146l-146 -145zM649 182c364 0 546 77.334 546 232.001c0 55.333 -18 101.166 -54 137.499s-82.667 54.5 -140 54.5c-151.333 0 -318 -141.667 -500 -425zM1292 195.001c13.333 -10 82.667 -15 208 -15h30v-180h-29
c-150.667 0 -264 30.667 -340 92c-53.333 -28 -124.833 -50.333 -214.5 -67s-187.5 -25 -293.5 -25h-555v180h222l36 57l37 59v1070h169v-830c134.667 167.333 278 251 430 251c111.333 0 202.5 -34.5 273.5 -103.5s106.5 -156.167 106.5 -261.5
c0 -73.333 -26.667 -149 -80 -227z" />
    <glyph glyph-name="uniFEC7" unicode="&#x638;" horiz-adv-x="1293" arabic-form="initial" 
d="M649 1144l145 145l147 -146l-146 -145zM471 182c364 0 545.999 77.334 545.999 232.001c0 55.333 -18.167 101.166 -54.5 137.499s-83.166 54.5 -140.499 54.5c-150.667 0 -317 -141.667 -499 -425zM383.999 536.001c136.667 167.333 281.667 251 435 251
c109.333 0 199.333 -34.667 270 -104s106 -156.333 106 -261c0 -281.333 -239.667 -422 -719 -422h-496v180h160l36.5 56l38.5 59v1071h169v-830z" />
    <glyph glyph-name="uniFEC8" unicode="&#x638;" horiz-adv-x="1332" arabic-form="medial" 
d="M649 1144l145 145l147 -146l-146 -145zM471 182c364 0 545.999 77.334 545.999 232.001c0 55.333 -18.167 101.166 -54.5 137.499s-83.166 54.5 -140.499 54.5c-150.667 0 -317 -141.667 -499 -425zM1114 195.001c13.333 -10 82.667 -14.999 208 -14.999h30v-180h-31
c-148.667 0 -261.334 31 -338.001 93c-54 -28 -125.667 -50.5 -215 -67.5s-186.666 -25.5 -291.999 -25.5h-496v180h162l73 116v1070h169v-830c138 167.333 282 251 432 251c110 0 200.667 -34.667 272 -104s107 -156.333 107 -261c0 -72.667 -27 -148.334 -81 -227.001z
" />
    <glyph glyph-name="uniFEC9" unicode="&#x639;" horiz-adv-x="1306" arabic-form="isolated" 
d="M968 783c-100 58.667 -184.332 87.998 -252.999 87.998c-60.667 0 -112.5 -18.5 -155.5 -55.5s-64.5 -85.5 -64.5 -145.5c0 -13.333 0.833008 -25.833 2.5 -37.5s4.83398 -23.5 9.50098 -35.5s8.66699 -21.833 12 -29.5s9.33301 -17.834 18 -30.501s15 -21.667 19 -27
s12.167 -15.5 24.5 -30.5s20.5 -25.167 24.5 -30.5c120.667 21.333 223 32 307 32c55.333 0 115.666 -3.33301 180.999 -10l-23 -171c-29.333 1.33301 -62.333 2 -99 2c-235.333 0 -412 -39.667 -530 -119s-177 -192.666 -177 -339.999
c0 -109.333 43.167 -194.166 129.5 -254.499s210.5 -90.5 372.5 -90.5c136 0 271.667 31.333 407 94l35 -170c-130 -64 -281 -96 -453 -96c-74 0 -143.667 6.5 -209 19.5s-125.5 33.333 -180.5 61s-102.333 61.334 -142 101.001s-70.5 87.5 -92.5 143.5s-33 117.667 -33 185
c0 119.333 28.167 228 84.5 326s141.166 172.333 254.499 223c-76.667 89.333 -115 188.666 -115 297.999c0 96.667 38.5 181.834 115.5 255.501s166.167 110.5 267.5 110.5c102 0 211.667 -40 329 -120z" />
    <glyph glyph-name="uniFECA" unicode="&#x639;" horiz-adv-x="1199" arabic-form="final" 
d="M265 -198c0 -90 37.6689 -161.502 113.002 -214.502s180.666 -79.5 315.999 -79.5c110.667 0 224 24 340 72l35 -170c-108 -48.667 -234.667 -73 -380 -73c-177.333 0 -320.166 40.167 -428.499 120.5s-162.5 195.166 -162.5 344.499c0 196.667 116 368.334 348 515.001
c-185.333 108.667 -278 212.667 -278 312c0 36.667 13.5 69.334 40.5 98.001s62.833 51.334 107.5 68.001s92.5 29.334 143.5 38.001s103.167 13 156.5 13c55.333 0 107.666 -3.66699 156.999 -11s95.666 -18.833 138.999 -34.5s77.833 -37.834 103.5 -66.501
s38.5 -62.334 38.5 -101.001c0 -91.333 -101.667 -200.666 -305 -327.999c64 -42.667 127.667 -74.167 191 -94.5s136.333 -30.5 219 -30.5h60v-180h-60c-94 0 -184.833 17 -272.5 51s-182.5 86.667 -284.5 158c-224.667 -126 -337 -261.667 -337 -407zM604.002 416.998
c183.333 100.667 275 167.666 275 200.999c0 36 -88 54 -264 54s-264 -21.667 -264 -65c0 -35.333 84.333 -98.666 253 -189.999z" />
    <glyph glyph-name="uniFECB" unicode="&#x639;" horiz-adv-x="1057" arabic-form="initial" 
d="M959 147c-314.667 -98 -606.002 -147.003 -874.002 -147.003h-105v180h297c-34.667 43.333 -61 84.833 -79 124.5s-27 86.834 -27 141.501c0 118.667 38 218.834 114 300.501s176 122.5 300 122.5c138.667 0 253 -45.667 343 -137l-66 -147
c-83.333 67.333 -165 101.333 -245 102c-79.333 0 -145.166 -23.833 -197.499 -71.5s-78.5 -106.167 -78.5 -175.5c0 -12.667 1.83301 -26.667 5.5 -42s10.334 -33.833 20.001 -55.5s25.5 -43 47.5 -64s48.667 -38.5 80 -52.5c14 -7.33301 26.333 -9.66602 37 -6.99902
l428 108v-180z" />
    <glyph glyph-name="uniFECC" unicode="&#x639;" horiz-adv-x="1141" arabic-form="medial" 
d="M743 230c57.333 -33.333 158.001 -50.001 302.001 -50.001h46v-180h-46c-172 0 -318 41 -438 123c-118 -82 -291.333 -123 -520 -123h-107v180h110c199.333 0 322.333 16.667 369 50c-97.333 58 -170.333 113 -219 165s-73 106.667 -73 164c0 37.333 13 70.5 39 99.5
s60.667 51.833 104 68.5s90 29 140 37s102.333 12 157 12c51.333 0 101.5 -4.16699 150.5 -12.5s95.167 -20.666 138.5 -36.999s78.166 -39 104.499 -68s39.5 -62.167 39.5 -99.5c0 -48 -26 -100.667 -78 -158s-125 -114.333 -219 -171zM604.001 329.999
c64 35.333 123 72.5 177 111.5s81 70.5 81 94.5c0 44 -86 66 -258 66c-172.667 0 -259 -22 -259 -66c0 -25.333 27.333 -58 82 -98s113.667 -76 177 -108zM1069.38 -0.000976562v180h91.5479v-180h-91.5479z" />
    <glyph glyph-name="uniFECD" unicode="&#x63a;" horiz-adv-x="1306" arabic-form="isolated" 
d="M535 1362l145 145l147 -146l-146 -145zM968 783c-100 58.667 -184.332 87.998 -252.999 87.998c-60.667 0 -112.5 -18.5 -155.5 -55.5s-64.5 -85.5 -64.5 -145.5c0 -13.333 0.833008 -25.833 2.5 -37.5s4.83398 -23.5 9.50098 -35.5s8.66699 -21.833 12 -29.5
s9.33301 -17.834 18 -30.501s15 -21.667 19 -27s12.167 -15.5 24.5 -30.5s20.5 -25.167 24.5 -30.5c120.667 21.333 223 32 307 32c55.333 0 115.666 -3.33301 180.999 -10l-23 -171c-29.333 1.33301 -62.333 2 -99 2c-235.333 0 -412 -39.667 -530 -119
s-177 -192.666 -177 -339.999c0 -109.333 43.167 -194.166 129.5 -254.499s210.5 -90.5 372.5 -90.5c136 0 271.667 31.333 407 94l35 -170c-130 -64 -281 -96 -453 -96c-74 0 -143.667 6.5 -209 19.5s-125.5 33.333 -180.5 61s-102.333 61.334 -142 101.001
s-70.5 87.5 -92.5 143.5s-33 117.667 -33 185c0 119.333 28.167 228 84.5 326s141.166 172.333 254.499 223c-76.667 89.333 -115 188.666 -115 297.999c0 96.667 38.5 181.834 115.5 255.501s166.167 110.5 267.5 110.5c102 0 211.667 -40 329 -120z" />
    <glyph glyph-name="uniFECE" unicode="&#x63a;" horiz-adv-x="1199" arabic-form="final" 
d="M457 1171l145 145l147 -146l-146 -145zM265 -198c0 -90 37.6689 -161.502 113.002 -214.502s180.666 -79.5 315.999 -79.5c110.667 0 224 24 340 72l35 -170c-108 -48.667 -234.667 -73 -380 -73c-177.333 0 -320.166 40.167 -428.499 120.5
s-162.5 195.166 -162.5 344.499c0 196.667 116 368.334 348 515.001c-185.333 108.667 -278 212.667 -278 312c0 36.667 13.5 69.334 40.5 98.001s62.833 51.334 107.5 68.001s92.5 29.334 143.5 38.001s103.167 13 156.5 13c55.333 0 107.666 -3.66699 156.999 -11
s95.666 -18.833 138.999 -34.5s77.833 -37.834 103.5 -66.501s38.5 -62.334 38.5 -101.001c0 -91.333 -101.667 -200.666 -305 -327.999c64 -42.667 127.667 -74.167 191 -94.5s136.333 -30.5 219 -30.5h60v-180h-60c-94 0 -184.833 17 -272.5 51s-182.5 86.667 -284.5 158
c-224.667 -126 -337 -261.667 -337 -407zM604.002 416.998c183.333 100.667 275 167.666 275 200.999c0 36 -88 54 -264 54s-264 -21.667 -264 -65c0 -35.333 84.333 -98.666 253 -189.999z" />
    <glyph glyph-name="uniFECF" unicode="&#x63a;" horiz-adv-x="1063" arabic-form="initial" 
d="M420 1216l145 145l147 -146l-146 -145zM959 147c-314.667 -98 -606.002 -147.003 -874.002 -147.003h-105v180h297c-34.667 43.333 -61 84.833 -79 124.5s-27 86.834 -27 141.501c0 118.667 38 218.834 114 300.501s176 122.5 300 122.5c138.667 0 253 -45.667 343 -137
l-66 -147c-83.333 67.333 -165 101.333 -245 102c-79.333 0 -145.166 -23.833 -197.499 -71.5s-78.5 -106.167 -78.5 -175.5c0 -12.667 1.83301 -26.667 5.5 -42s10.334 -33.833 20.001 -55.5s25.5 -43 47.5 -64s48.667 -38.5 80 -52.5
c14 -7.33301 26.333 -9.66602 37 -6.99902l428 108v-180z" />
    <glyph glyph-name="uniFED0" unicode="&#x63a;" horiz-adv-x="1141" arabic-form="medial" 
d="M454 1129l145 145l147 -146l-146 -145zM743 230c57.333 -33.333 158.001 -50.001 302.001 -50.001h46v-180h-46c-172 0 -318 41 -438 123c-118 -82 -291.333 -123 -520 -123h-107v180h110c199.333 0 322.333 16.667 369 50c-97.333 58 -170.333 113 -219 165
s-73 106.667 -73 164c0 37.333 13 70.5 39 99.5s60.667 51.833 104 68.5s90 29 140 37s102.333 12 157 12c51.333 0 101.5 -4.16699 150.5 -12.5s95.167 -20.666 138.5 -36.999s78.166 -39 104.499 -68s39.5 -62.167 39.5 -99.5c0 -48 -26 -100.667 -78 -158
s-125 -114.333 -219 -171zM604.001 329.999c64 35.333 123 72.5 177 111.5s81 70.5 81 94.5c0 44 -86 66 -258 66c-172.667 0 -259 -22 -259 -66c0 -25.333 27.333 -58 82 -98s113.667 -76 177 -108zM1069.38 -0.000976562v180h91.5479v-180h-91.5479z" />
    <glyph glyph-name="uniFED1" unicode="&#x641;" horiz-adv-x="1781" arabic-form="isolated" 
d="M1157 1344l145 145l147 -146l-146 -145zM1529 390c-62 -19.333 -129.007 -29.0029 -201.007 -29.0029c-217.333 0 -326 92.333 -326 277c0 70 12.833 135.333 38.5 196s63.834 110.334 114.501 149.001s108.334 58 173.001 58c60.667 0 114.334 -16.167 161.001 -48.5
s83.834 -76.333 111.501 -132s48.334 -117.167 62.001 -184.5s20.5 -139 20.5 -215c-0.666992 -64 -5.33398 -119.667 -14.001 -167s-23 -88.166 -43 -122.499s-44 -62.5 -72 -84.5s-63.667 -39.5 -107 -52.5s-90.166 -22 -140.499 -27s-110.166 -7.5 -179.499 -7.5h-290
c-244 0 -428.167 40.5 -552.5 121.5s-186.5 201.833 -186.5 362.5c0 86 18 170.667 54 254l153 -57c-21.333 -56.667 -32 -114 -32 -172c0 -108.667 48 -190.667 144 -246s234.667 -83 416 -83h315c52.667 0 98 1.83301 136 5.5s73.167 10 105.5 19s58.333 21.333 78 37
s34.834 35.834 45.501 60.501s16 54 16 88zM1513.99 557.997c-4 29.333 -8.83496 57.167 -14.502 83.5s-13.667 53.5 -24 81.5s-22.166 52.167 -35.499 72.5s-30.166 37 -50.499 50s-42.833 19.5 -67.5 19.5c-42.667 0 -80 -20.167 -112 -60.5s-48 -89.5 -48 -147.5
c0 -84 59 -126 177 -126c54 0 112.333 9 175 27z" />
    <glyph glyph-name="uniFED2" unicode="&#x641;" horiz-adv-x="1962" arabic-form="final" 
d="M1347 1167l145 145l147 -146l-146 -145zM1501 681c-31.333 0 -67.832 -23.332 -109.499 -69.999s-62.5 -87 -62.5 -121c0 -33.333 22.167 -78.333 66.5 -135s81.166 -85 110.499 -85c32 0 69.833 29 113.5 87s65.5 105 65.5 141c0 31.333 -20.667 69.666 -62 114.999
s-82 68 -122 68zM960.001 180.001c126.667 0 212.667 0.996094 258 2.99609s79 5.66699 101 11c-54.667 54.667 -94.667 105 -120 151s-38 96.333 -38 151c0 34.667 9.5 72.834 28.5 114.501s43.667 80.667 74 117s67 66.833 110 91.5s86.167 37 129.5 37
c60.667 0 118.667 -18.833 174 -56.5s98.666 -83.167 129.999 -136.5s47 -104 47 -152c0 -59.333 -12.333 -111.666 -37 -156.999s-65.667 -98.666 -123 -159.999c28 -9.33301 92.667 -14 194 -14h94v-180h-92c-85.333 -0 -158.5 8.83301 -219.5 26.5
s-116.833 45.167 -167.5 82.5c-107.333 -72.667 -286.666 -109 -537.999 -109h-125c-241.333 0 -425.333 40.667 -552 122s-190 202 -190 362c0 87.333 18 172 54 254l153 -57c-21.333 -57.333 -32 -114.666 -32 -171.999c1.33301 -219.333 187 -329 557 -329h130z" />
    <glyph glyph-name="uniFED3" unicode="&#x641;" horiz-adv-x="918" arabic-form="initial" 
d="M289 1344l145 145l147 -146l-146 -145zM667 391c-63.333 -19.333 -130.333 -28.9971 -201 -28.9971c-216 0 -325 89.667 -327 269c0 115.333 29.667 212.666 89 291.999s138.666 119 237.999 119c48.667 0 93 -10.667 133 -32s73.5 -50.166 100.5 -86.499
s49.667 -79.333 68 -129s31.666 -102.334 39.999 -158.001s12.5 -113.834 12.5 -174.501c0 -76.667 -6.83301 -141.667 -20.5 -195s-33.667 -97.5 -60 -132.5s-62.5 -62.333 -108.5 -82s-97.667 -33.334 -155 -41.001s-127.666 -11.5 -210.999 -11.5h-285v180h296
c66.667 0 122.5 3 167.5 9s85 16.5 120 31.5s60.833 36.5 77.5 64.5s25.334 63.333 26.001 106zM651 559.003c-4.66699 38 -11.168 73.333 -19.501 106s-19.666 65 -33.999 97s-33.333 57.333 -57 76s-50.834 28 -81.501 28c-43.333 0 -80.666 -20.167 -111.999 -60.5
s-47 -89.5 -47 -147.5c0 -84 59.667 -126 179 -126c54 0 111.333 9 172 27z" />
    <glyph glyph-name="uniFED4" unicode="&#x641;" horiz-adv-x="972" arabic-form="medial" 
d="M352 1167l145 145l147 -146l-146 -145zM511 681c-31.333 0 -67.832 -23.334 -109.499 -70.001s-62.5 -87 -62.5 -121c0 -33.333 22.167 -78.333 66.5 -135s81.166 -85 110.499 -85c32 0 69.833 29 113.5 87s65.5 105 65.5 141c0 30.667 -20.833 68.834 -62.5 114.501
s-82.167 68.5 -121.5 68.5zM704.001 193.999c24.667 -9.33301 89.333 -14.0029 194 -14.0029h94v-180h-92c-159.333 0 -288.333 36.333 -387 109c-98.667 -72.667 -231.667 -109 -399 -109h-134v180h134c122 0 193.333 5 214 15
c-54.667 54.667 -94.5 104.834 -119.5 150.501s-37.5 95.834 -37.5 150.501c0 46.667 15.5 97.834 46.5 153.501s73.5 104 127.5 145s109.667 61.5 167 61.5c46 0 91.167 -11.333 135.5 -34s82 -51 113 -85s56 -71.333 75 -112s28.5 -78.667 28.5 -114
c0 -106 -53.333 -211.667 -160 -317z" />
    <glyph glyph-name="uniFED5" unicode="&#x642;" horiz-adv-x="1437" arabic-form="isolated" 
d="M983 1060l140 140l141 -140l-141 -142zM651 1060l140 140l141 -140l-141 -142zM1163 276c-4.66699 38 -11.167 73.333 -19.5 106s-19.666 65.167 -33.999 97.5s-33.333 57.833 -57 76.5s-50.834 28 -81.501 28c-42.667 0 -80 -20.333 -112 -61s-48 -89.667 -48 -147
c0 -84.667 58.667 -127 176 -127c56 0 114.667 9 176 27zM343 482c-48.667 -128.667 -73 -249.001 -73 -361.001c0 -272 151.667 -408 455 -408c162 0 277.833 33.167 347.5 99.5s105.5 165.166 107.5 296.499c-68.667 -20 -138.334 -30 -209.001 -30
c-213.333 0 -320 90 -320 270c0 69.333 12.667 134.666 38 195.999s63.333 112.333 114 153s109 61 175 61c52 0 98.833 -11.333 140.5 -34s76 -53 103 -91s49.5 -83.167 67.5 -135.5s30.833 -106.666 38.5 -162.999s11.5 -116.166 11.5 -179.499
c0 -209.333 -49.667 -364.333 -149 -465s-255.666 -151 -468.999 -151c-209.333 0 -365.5 47.833 -468.5 143.5s-154.5 239.834 -154.5 432.501c0 140 30 283 90 429z" />
    <glyph glyph-name="uniFED6" unicode="&#x642;" horiz-adv-x="1530" arabic-form="final" 
d="M1449.87 0v180h99.9844v-180h-99.9844zM979 1011l140 140l141 -140l-141 -142zM647 1011l140 140l141 -140l-141 -142zM343 422c-48.667 -128.667 -72.999 -249.001 -72.999 -361.001c0 -272 152.667 -408 458 -408c151.333 0 260.666 28 327.999 84
s106.666 144 117.999 264h-151c-242.667 0 -364 98.667 -364 296c0 116.667 31.667 216.5 95 299.5s143 124.5 239 124.5c200.667 0 316.334 -180.333 347.001 -541h130v-180h-132c-20 -177.333 -77.833 -308.333 -173.5 -393s-243.5 -127 -443.5 -127
c-209.333 0 -365.5 47.833 -468.5 143.5s-154.5 239.834 -154.5 432.501c0 140 30 283 90 429zM1176 180.999c-15.333 236.667 -81 355 -197 355c-44 0 -80.833 -22.5 -110.5 -67.5s-44.5 -97.167 -44.5 -156.5c0 -87.333 63 -131 189 -131h163z" />
    <glyph glyph-name="uniFED7" unicode="&#x642;" horiz-adv-x="918" arabic-form="initial" 
d="M452 1341l140 140l141 -140l-141 -142zM120 1341l140 140l141 -140l-141 -142zM667 391c-63.333 -19.333 -130.333 -28.9971 -201 -28.9971c-216 0 -325 89.667 -327 269c0 115.333 29.667 212.666 89 291.999s138.666 119 237.999 119c48.667 0 93 -10.667 133 -32
s73.5 -50.166 100.5 -86.499s49.667 -79.333 68 -129s31.666 -102.334 39.999 -158.001s12.5 -113.834 12.5 -174.501c0 -76.667 -6.83301 -141.667 -20.5 -195s-33.667 -97.5 -60 -132.5s-62.5 -62.333 -108.5 -82s-97.667 -33.334 -155 -41.001
s-127.666 -11.5 -210.999 -11.5h-285v180h296c66.667 0 122.5 3 167.5 9s85 16.5 120 31.5s60.833 36.5 77.5 64.5s25.334 63.333 26.001 106zM651 559.003c-4.66699 38 -11.168 73.333 -19.501 106s-19.666 65 -33.999 97s-33.333 57.333 -57 76s-50.834 28 -81.501 28
c-43.333 0 -80.666 -20.167 -111.999 -60.5s-47 -89.5 -47 -147.5c0 -84 59.667 -126 179 -126c54 0 111.333 9 172 27z" />
    <glyph glyph-name="uniFED8" unicode="&#x642;" horiz-adv-x="972" arabic-form="medial" 
d="M527 1159l140 140l141 -140l-141 -142zM195 1159l140 140l141 -140l-141 -142zM511 681c-31.333 0 -67.832 -23.334 -109.499 -70.001s-62.5 -87 -62.5 -121c0 -33.333 22.167 -78.333 66.5 -135s81.166 -85 110.499 -85c32 0 69.833 29 113.5 87s65.5 105 65.5 141
c0 30.667 -20.833 68.834 -62.5 114.501s-82.167 68.5 -121.5 68.5zM704.001 193.999c24.667 -9.33301 89.333 -14.0029 194 -14.0029h94v-180h-92c-159.333 0 -288.333 36.333 -387 109c-98.667 -72.667 -231.667 -109 -399 -109h-134v180h134c122 0 193.333 5 214 15
c-54.667 54.667 -94.5 104.834 -119.5 150.501s-37.5 95.834 -37.5 150.501c0 46.667 15.5 97.834 46.5 153.501s73.5 104 127.5 145s109.667 61.5 167 61.5c46 0 91.167 -11.333 135.5 -34s82 -51 113 -85s56 -71.333 75 -112s28.5 -78.667 28.5 -114
c0 -106 -53.333 -211.667 -160 -317z" />
    <glyph glyph-name="uniFED9" unicode="&#x643;" horiz-adv-x="1831" arabic-form="isolated" 
d="M708 588c64.667 -7.33301 108.333 -10.998 131 -10.998c22 0 38.5 0.166992 49.5 0.5s25.167 1.16602 42.5 2.49902s30.333 3.83301 39 7.5s18 8.33398 28 14.001s17 13.5 21 23.5s6 21.667 6 35c0 28.667 -7.66699 47.167 -23 55.5s-42 12.5 -80 12.5
c-49.333 0 -89.833 14.5 -121.5 43.5s-47.5 74.833 -47.5 137.5c0 57.333 18.5 103.666 55.5 138.999s91.5 53 163.5 53c16.667 0 34.167 -1 52.5 -3s37.5 -4.66699 57.5 -8v-95c-40 5.33301 -75 8 -105 8c-23.333 0 -43.833 -2.16699 -61.5 -6.5s-31.667 -10.333 -42 -18
s-18.166 -16.667 -23.499 -27s-8 -21.5 -8 -33.5c0 -28 7.5 -49.333 22.5 -64s40.167 -22 75.5 -22c63.333 -0.666992 108 -13.834 134 -39.501s39 -68.5 39 -128.5c0 -69.333 -20.833 -117.5 -62.5 -144.5s-109.834 -40.5 -204.501 -40.5c-26 0 -72 5 -138 15v94z
M977.999 180.002c94 0 173.167 4 237.5 12s116.166 19.167 155.499 33.5s69.5 34.166 90.5 59.499s35 51.833 42 79.5s10.5 62.834 10.5 105.501v896h169v-894c0 -66.667 -5.66699 -123.5 -17 -170.5s-32 -90.667 -62 -131s-71 -72.333 -123 -96s-119 -42 -201 -55
s-180.333 -19.5 -295 -19.5h-145c-241.333 0 -425.333 40.667 -552 122s-190 202 -190 362c0 86 18 170.667 54 254l153 -57c-21.333 -56.667 -32 -114 -32 -172c0.666992 -219.333 186.334 -329 557.001 -329h148z" />
    <glyph glyph-name="uniFEDA" unicode="&#x643;" horiz-adv-x="1891" arabic-form="final" 
d="M708 588c64.667 -7.33301 108.333 -10.998 131 -10.998c22 0 38.5 0.166992 49.5 0.5s25.167 1.16602 42.5 2.49902s30.333 3.83301 39 7.5s18 8.33398 28 14.001s17 13.5 21 23.5s6 21.667 6 35c0 28.667 -7.66699 47.167 -23 55.5s-42 12.5 -80 12.5
c-49.333 0 -89.833 14.5 -121.5 43.5s-47.5 74.833 -47.5 137.5c0 57.333 18.5 103.666 55.5 138.999s91.5 53 163.5 53c16.667 0 34.167 -1 52.5 -3s37.5 -4.66699 57.5 -8v-95c-40 5.33301 -75 8 -105 8c-23.333 0 -43.833 -2.16699 -61.5 -6.5s-31.667 -10.333 -42 -18
s-18.166 -16.667 -23.499 -27s-8 -21.5 -8 -33.5c0 -28 7.5 -49.333 22.5 -64s40.167 -22 75.5 -22c63.333 -0.666992 108 -13.834 134 -39.501s39 -68.5 39 -128.5c0 -69.333 -20.833 -117.5 -62.5 -144.5s-109.834 -40.5 -204.501 -40.5c-26 0 -72 5 -138 15v94z
M977.999 180.002c94 0 173.166 4.00098 237.499 12.001s116.166 19.167 155.499 33.5s69.5 34.166 90.5 59.499s35 51.833 42 79.5s10.5 62.834 10.5 105.501v896h169v-894c0 -42.667 1.16699 -77.834 3.5 -105.501s7.33301 -54.5 15 -80.5s18.5 -46 32.5 -60
s32.667 -25.167 56 -33.5s52 -12.5 86 -12.5h35v-180h-33c-90 0 -156.833 14.167 -200.5 42.5s-75.167 74.166 -94.5 137.499c-65.333 -71.333 -138.666 -119.166 -219.999 -143.499s-207.333 -36.5 -378 -36.5h-145c-241.333 0 -425.333 40.667 -552 122s-190 202 -190 362
c0 86 18 170.667 54 254l153 -57c-21.333 -56.667 -32 -114 -32 -172c0.666992 -219.333 186.334 -329 557.001 -329h148z" />
    <glyph glyph-name="uniFEDB" unicode="&#x643;" horiz-adv-x="950" arabic-form="initial" 
d="M215 988l55 -46.5l54 -46l48.5 -40.5c21.667 -18 37.667 -31.667 48 -41l41.5 -36.5l41.5 -36.5l34.5 -32l34 -33l28 -29c84 -90.667 126 -187.667 126 -291c0 -121.333 -44.667 -211 -134 -269s-231.333 -87 -426 -87h-186v180h185c135.333 0 233.5 15.833 294.5 47.5
s91.5 80.167 91.5 145.5c0 32 -8.5 62.5 -25.5 91.5s-43.5 60.5 -79.5 94.5c-60 56 -151 132 -273 228c-75.333 58.667 -113 120.334 -113 185.001c0 85.333 46.333 145.666 139 180.999l690 256v-171z" />
    <glyph glyph-name="uniFEDC" unicode="&#x643;" horiz-adv-x="1027" arabic-form="medial" 
d="M669 179c-40 -61.333 -99.333 -106.5 -178 -135.5s-187 -43.5 -325 -43.5h-186v180h185c135.333 0 233.5 15.833 294.5 47.5s91.5 80.167 91.5 145.5c0 32 -8.5 62.5 -25.5 91.5s-43.5 60.5 -79.5 94.5c-60 56 -151 132 -273 228
c-75.333 58.667 -113 120.334 -113 185.001c0 85.333 46.333 145.666 139 180.999l690 256v-171l-674 -250l55 -46.5l54 -46l48.5 -40.5c21.667 -18 37.667 -31.667 48 -41l41.5 -36.5l41.5 -36.5l34.5 -32l34 -33l28 -29c56 -60 98.667 -131.667 128 -215
c59.333 -168 156 -252 290 -252h29v-180h-29c-142.667 0 -259 59.667 -349 179z" />
    <glyph glyph-name="uniFEDD" unicode="&#x644;" horiz-adv-x="1377" arabic-form="isolated" 
d="M335 358c-44 -112 -66 -219.333 -66 -322c0 -255.333 135.333 -383 406 -383c255.333 0 383 138.333 383 415l3 1298h168l-1 -1259c0 -418 -184.667 -627 -554 -627c-384 0 -576 185.667 -576 557c0 124 27.333 252 82 384z" />
    <glyph glyph-name="uniFEDE" unicode="&#x644;" horiz-adv-x="1439" arabic-form="final" 
d="M335 358c-44 -112 -66 -219.333 -66 -322c0 -255.333 135.333 -383 406 -383c256 0 384 138.333 384 415l2 1296v2h168l-1 -973c0 -74 14.833 -128 44.5 -162s81.5 -51 155.5 -51h31v-180h-29c-50 0 -88.833 6 -116.5 18s-56.167 32 -85.5 60
c-5.33301 -398.667 -190 -598 -554 -598c-384 0 -576 185 -576 555c0 125.333 27.333 254 82 386z" />
    <glyph glyph-name="uniFEDF" unicode="&#x644;" horiz-adv-x="608" arabic-form="initial" 
d="M-20 0v180h81c86 0 145.833 17.833 179.5 53.5s50.5 92.167 50.5 169.5v963h169v-962c0 -136.667 -30.667 -238.167 -92 -304.5s-164 -99.5 -308 -99.5h-80z" />
    <glyph glyph-name="uniFEE0" unicode="&#x644;" horiz-adv-x="670" arabic-form="medial" 
d="M368 143c-34.667 -48.667 -77.001 -84.667 -127.001 -108s-116 -35 -198 -35h-63v180h65c87.333 0 150 17 188 51s57.333 86.667 58 158v977h169v-977c0 -71.333 15.333 -124 46 -158s81.334 -51 152.001 -51h32v-180h-30c-70 0 -127.167 11.5 -171.5 34.5
s-84.5 59.167 -120.5 108.5z" />
    <glyph glyph-name="uniFEE1" unicode="&#x645;" horiz-adv-x="1230" arabic-form="isolated" 
d="M560 296c121.333 -94 215.668 -141.001 283.001 -141.001c81.333 0.666992 122 47.334 122 140.001c0 63.333 -16.667 116 -50 158s-78 63 -134 63c-94.667 0 -168.334 -73.333 -221.001 -220zM112.002 -655.001c-7.33301 122.667 -11 229.999 -11 321.999
c0 62.667 1.33301 118.334 4 167.001s7.66699 97.834 15 147.501s17.833 92.834 31.5 129.501s30.667 70.5 51 101.5s45.833 56.167 76.5 75.5s66 33 106 41c97.333 246.667 229 370.667 395 372c104.667 0 189.5 -38 254.5 -114s97.5 -169.333 97.5 -280
c0 -100 -24.5 -180 -73.5 -240s-120.833 -90 -215.5 -90c-67.333 0 -148.666 27.333 -243.999 82c-24.667 15.333 -59 34.333 -103 57c-28.667 14.667 -54.334 22 -77.001 22c-51.333 -0.666992 -88.333 -36.834 -111 -108.501s-34 -183.167 -34 -334.5
c0 -122.667 4.66699 -239.334 14 -350.001h-176z" />
    <glyph glyph-name="uniFEE2" unicode="&#x645;" horiz-adv-x="1296" arabic-form="final" 
d="M112 -655c-7.33301 122.667 -11 229.999 -11 321.999c0 62.667 1.33301 118.334 4 167.001s7.66699 97.834 15 147.501s17.833 92.834 31.5 129.501s30.667 70.5 51 101.5s45.833 56.167 76.5 75.5s66 33 106 41c98.667 248 230.334 372 395.001 372
c96 0 172.333 -29.667 229 -89s95.334 -140 116.001 -242c27.333 -126.667 81.666 -190 162.999 -190h28v-180h-28c-89.333 0 -157.333 34.667 -204 104c-26 -44.667 -57.667 -77 -95 -97s-85 -30 -143 -30c-74.667 0 -157.334 27.333 -248.001 82
c-24.667 15.333 -59 34.333 -103 57c-28.667 14.667 -54 22 -76 22c-51.333 -0.666992 -88.333 -36.834 -111 -108.501s-34 -183.167 -34 -334.5c0 -122.667 4.66699 -239.334 14 -350.001h-176zM559 295.999c121.333 -94 215.668 -141.001 283.001 -141.001
c81.333 0.666992 122 47.334 122 140.001c0 63.333 -16.667 116 -50 158s-78 63 -134 63c-94.667 0 -168.334 -73.333 -221.001 -220z" />
    <glyph glyph-name="uniFEE3" unicode="&#x645;" horiz-adv-x="1048" arabic-form="initial" 
d="M388 306c88.667 -102 173 -153 253 -153c94.667 0 142 46.333 142 139c0 66.667 -16.333 120.5 -49 161.5s-77 61.5 -133 61.5c-92.667 0 -163.667 -69.667 -213 -209zM303 144c-84 -96 -177.336 -143.999 -280.003 -143.999h-43v180h38c28.667 0 55.334 6.5 80.001 19.5
s46.834 31.667 66.501 56s36.167 48.166 49.5 71.499s27.333 51.333 42 84c88 193.333 201.667 290 341 290c104 0 188.833 -38.333 254.5 -115s98.5 -169.667 98.5 -279c0 -104.667 -25.333 -185.667 -76 -243s-123.667 -86 -219 -86
c-63.333 0 -123.166 13.667 -179.499 41s-113.833 69 -172.5 125z" />
    <glyph glyph-name="uniFEE4" unicode="&#x645;" horiz-adv-x="1111" arabic-form="medial" 
d="M387 306c88 -102 173.668 -153 257.001 -153c94 0 141 45 141 135c0 66 -17.333 120.333 -52 163s-80.334 64 -137.001 64c-89.333 0 -159 -69.667 -209 -209zM905.001 104c-28.667 -44.667 -62.999 -76.833 -102.999 -96.5s-90 -29.5 -150 -29.5
c-121.333 0 -238 55.333 -350 166c-84 -96 -177.333 -144 -280 -144h-42v180h37c29.333 0 56.5 6.5 81.5 19.5s47.167 31.833 66.5 56.5s35.666 48.667 48.999 72s27 51 41 83c87.333 193.333 201 290 341 290c95.333 0 172 -30.667 230 -92s97.333 -141 118 -239
c26.667 -126.667 80 -190 160 -190h27v-180h-28c-85.333 0 -151.333 34.667 -198 104z" />
    <glyph glyph-name="uniFEE5" unicode="&#x646;" horiz-adv-x="1447" arabic-form="isolated" 
d="M561 682l145 145l147 -146l-146 -145zM1087 539l169 58c62 -158 93 -310.333 93 -457c0 -190 -55.667 -335.833 -167 -437.5s-265 -152.5 -461 -152.5c-415.333 0 -623 192 -623 576c0 140 30 283 90 429l155 -63c-48.667 -128.667 -73 -249 -73 -361
c0 -272 152.667 -408 458 -408c298 0 447.667 149 449 447c0 120.667 -30 243.667 -90 369z" />
    <glyph glyph-name="uniFEE6" unicode="&#x646;" horiz-adv-x="1528" arabic-form="final" 
d="M562 609l145 145l147 -146l-146 -145zM1177 100c0 120 -30.002 243 -90.002 369l169 58l39.5 -124l32.5 -102c13.333 -41.333 34 -71.833 62 -91.5s67.333 -29.5 118 -29.5h40v-180h-36c-41.333 -0 -74.666 4.83301 -99.999 14.5s-48.666 24.5 -69.999 44.5
c-2.66699 -186 -59 -329 -169 -429s-260.667 -150 -452 -150c-415.333 0 -623 192 -623 576c0 140 30 283 90 429l155 -63c-48.667 -128 -73 -248.333 -73 -361c0 -272 152.667 -408 458 -408c298 0 447.667 149 449 447z" />
    <glyph glyph-name="uniFEE7" unicode="&#x646;" horiz-adv-x="592" arabic-form="initial" 
d="M126 1040l145 145l147 -146l-146 -145zM446 738c32 -107.333 48 -214.667 48 -322c0 -134.667 -33.333 -237.667 -100 -309s-165 -107 -295 -107h-119v180h119c78 0 134.833 18.167 170.5 54.5s53.5 95.833 53.5 178.5c0 88 -12.333 183 -37 285z" />
    <glyph glyph-name="uniFEE8" unicode="&#x646;" horiz-adv-x="687" arabic-form="medial" 
d="M181 955l145 145l147 -146l-146 -145zM707 0l-23.998 -0.000976562c-128.667 0 -219 47.667 -271 143c-68.667 -95.333 -172.334 -143 -311.001 -143h-121v180h121c79.333 0 136.166 17.333 170.499 52s51.5 89.667 51.5 165c0 18.667 -2.66699 82.334 -8 191.001l164 20
l16 -246c8 -121.333 71.333 -182 190 -182h22v-180z" />
    <glyph glyph-name="uniFEE9" unicode="&#x647;" horiz-adv-x="922" arabic-form="isolated" 
d="M447 635c-121.333 -106.667 -181.999 -202 -181.999 -286c0 -56.667 15.667 -99 47 -127s80.666 -42 147.999 -42c68 0 117.833 14 149.5 42s47.5 70.667 47.5 128c0 77.333 -70 172.333 -210 285zM369.001 932c303.333 -222 454.999 -418 454.999 -588
c0 -99.333 -32.667 -180.5 -98 -243.5s-153.666 -95.167 -264.999 -96.5c-116 0 -205.5 29.5 -268.5 88.5s-94.5 142.833 -94.5 251.5c0 136 73 275.667 219 419l-45 39z" />
    <glyph glyph-name="uniFEEA" unicode="&#x647;" horiz-adv-x="1038" arabic-form="final" 
d="M98 412c0 196.667 168.998 347.333 506.998 452l-7 45l159 33l82 -589c7.33301 -55.333 27 -98 59 -128s75 -45 129 -45h31v-180h-35c-179.333 0 -286.666 79 -321.999 237c-81.333 -70 -171.333 -105 -270 -105c-97.333 0 -177.166 23.5 -239.499 70.5
s-93.5 116.833 -93.5 209.5zM630.998 702.999c-120.667 -44.667 -210.666 -89.5 -269.999 -134.5s-89 -93.167 -89 -144.5c0 -40.667 13.167 -71.5 39.5 -92.5s64.166 -31.5 113.499 -31.5c60 0 114.333 16.833 163 50.5s73 77.5 73 131.5c0 20 -1.33301 39 -4 57z" />
    <glyph glyph-name="uniFEEB" unicode="&#x647;" horiz-adv-x="1369" arabic-form="initial" 
d="M503 240c54.667 22 96.833 53.167 126.5 93.5s44.834 83.5 45.501 129.5c0 54 -15.333 95.667 -46 125s-72.334 44 -125.001 44c-54 0 -97.667 -14.833 -131 -44.5s-50 -69.5 -50 -119.5c0 -48 15.5 -92.5 46.5 -133.5s75.5 -72.5 133.5 -94.5zM584.999 951
c232 -112.667 404.334 -217.669 517.001 -315.002s169 -191.666 169 -282.999c0 -110.667 -35.167 -195.5 -105.5 -254.5s-165.833 -88.5 -286.5 -88.5c-61.333 0 -129.666 6.83301 -204.999 20.5s-138.333 29.167 -189 46.5c-58.667 -22 -125.334 -40.333 -200.001 -55
s-144.667 -22 -210 -22h-95v180h83c90 0 162.333 3.33301 217 10c-84.667 70.667 -127 162.667 -127 276c0 96.667 33.167 174.334 99.5 233.001s147.166 88 242.499 88c30.667 0 59 -3.33301 85 -10l-71 36zM728 698.998c36 -31.333 61.166 -63.333 75.499 -96
s21.5 -72.667 21.5 -120c0 -118 -45.333 -217 -136 -297c56.667 -7.33301 114.334 -11 173.001 -11c156 0 234 58.333 234 175c0 94.667 -122.667 211 -368 349z" />
    <glyph glyph-name="uniFEEC" unicode="&#x647;" horiz-adv-x="1002" arabic-form="medial" 
d="M616 -540c-224 106.667 -357.002 286.669 -399.002 540.002h-237v180h224c3.33301 72.667 9.16602 137.834 17.499 195.501s20.833 113.667 37.5 168s37.334 99.333 62.001 135s56.167 64.167 94.5 85.5s82.5 32 132.5 32c80.667 0 144.5 -28.333 191.5 -85
s70.5 -131.334 70.5 -224.001c0 -78.667 -20.167 -155.334 -60.5 -230.001s-94.166 -135.834 -161.499 -183.501s-138 -72.5 -212 -74.5c24.667 -139.333 94.334 -246 209.001 -320c0 160 34 283.5 102 370.5s168.333 130.5 301 130.5h34v-180h-36
c-168.667 0 -253 -110 -253 -330c0 -34 1.33301 -64.667 4 -92zM366.998 179.002c78.667 2.66699 145.666 33.834 200.999 93.501s83 131.167 83 214.5c0 43.333 -9.66699 76.666 -29 99.999s-44.666 35 -75.999 35c-56 0 -98 -36.167 -126 -108.5
s-45.667 -183.833 -53 -334.5z" />
    <glyph glyph-name="uniFEED" unicode="&#x648;" horiz-adv-x="880" arabic-form="isolated" 
d="M616 13c-78.667 -10 -131.666 -15.001 -158.999 -15.001c-239.333 0 -359 99.333 -359 298c0 116 31.167 215.667 93.5 299s141.166 125 236.499 125c58.667 0 111.167 -15.667 157.5 -47s83.5 -73.5 111.5 -126.5s49.167 -111.833 63.5 -176.5s21.5 -132.667 21.5 -204
c0 -187.333 -51.667 -340.166 -155 -458.499s-256.333 -196.833 -459 -235.5l-60 154c142 26.667 255.5 73.167 340.5 139.5s140.833 148.833 167.5 247.5zM616.001 198.999c-14 224 -79.333 336 -196 336c-45.333 0 -82.833 -22.5 -112.5 -67.5s-44.5 -97.167 -44.5 -156.5
c0 -92.667 65 -139 195 -139c46 0 98.667 9 158 27z" />
    <glyph glyph-name="uniFEEE" unicode="&#x648;" horiz-adv-x="938" arabic-form="final" 
d="M874.878 0v180h83.4893v-180h-83.4893zM432 720c207.333 0 322.999 -180 346.999 -540h117v-180h-129c-26 -138.667 -89.167 -253 -189.5 -343s-236.833 -151.667 -409.5 -185l-60 154c140.667 26.667 253.334 72.167 338.001 136.5s139.667 143.5 165 237.5h-149
c-242.667 0 -364 98.667 -364 296c0 116 31.833 215.667 95.5 299s143.167 125 238.5 125zM615.999 180c-15.333 236.667 -81.333 355 -198 355c-44 0 -80.833 -22.5 -110.5 -67.5s-44.5 -97.167 -44.5 -156.5c0 -87.333 63 -131 189 -131h164z" />
    <glyph glyph-name="uniFEEF" unicode="&#x649;" horiz-adv-x="1477" arabic-form="isolated" 
d="M361 475c-61.333 -150 -92.002 -281.001 -92.002 -393.001c0 -272 151.667 -408.667 455 -410c80.667 0 157.834 10.667 231.501 32s135.667 54.333 186 99s75.5 96.334 75.5 155.001c0 38.667 -33 58 -99 58h-144c-80.667 0 -141.834 21 -183.501 63
s-62.5 103.333 -62.5 184c0 66 12.833 127 38.5 183s59.834 102.833 102.501 140.5s92 67.167 148 88.5s114.333 32 175 32c69.333 0 129.333 -10.667 180 -32l-32 -165c-45.333 14 -94.666 21 -147.999 21c-42.667 0 -82.834 -7.5 -120.501 -22.5s-69 -34.667 -94 -59
s-44.667 -51.666 -59 -81.999s-21.5 -60.833 -21.5 -91.5s5.83301 -52.334 17.5 -65.001s34.834 -19 69.501 -19h180c68.667 0 121.667 -17.833 159 -53.5s56 -82.5 56 -140.5c0 -156.667 -60 -278.667 -180 -366s-280 -131 -480 -131c-414 0 -621 192.667 -621 578
c0 136 36 289 108 459z" />
    <glyph glyph-name="uniFEF0" unicode="&#x649;" horiz-adv-x="1559" arabic-form="final" 
d="M324 365c-36 -100 -53.999 -201.666 -53.999 -304.999c0 -271.333 149.667 -407 449 -407c79.333 0 156.166 10.5 230.499 31.5s135.333 50.167 183 87.5s71.5 77.666 71.5 120.999c0 30.667 -14.333 56.167 -43 76.5s-69 30.5 -121 30.5h-123
c-34 0 -55.667 20.667 -65 62l-22 92c-4 17.333 3.66699 26 23 26h604v-180h-119c18.667 -38 28 -76 28 -114c0 -117.333 -59.667 -214.166 -179 -290.499s-275 -114.5 -467 -114.5c-414 0 -621 193.333 -621 580c0 57.333 6.16699 120.166 18.5 188.499
s29.833 127.833 52.5 178.5zM1434.11 0.000976562v180h144.993v-180h-144.993z" />
    <glyph glyph-name="uniFEF1" unicode="&#x64a;" horiz-adv-x="1477" arabic-form="isolated" 
d="M745 -789l140 140l141 -140l-141 -142zM413 -789l140 140l141 -140l-141 -142zM361 475c-61.333 -150 -92.002 -281.001 -92.002 -393.001c0 -272 151.667 -408.667 455 -410c80.667 0 157.834 10.667 231.501 32s135.667 54.333 186 99s75.5 96.334 75.5 155.001
c0 38.667 -33 58 -99 58h-144c-80.667 0 -141.834 21 -183.501 63s-62.5 103.333 -62.5 184c0 66 12.833 127 38.5 183s59.834 102.833 102.501 140.5s92 67.167 148 88.5s114.333 32 175 32c69.333 0 129.333 -10.667 180 -32l-32 -165c-45.333 14 -94.666 21 -147.999 21
c-42.667 0 -82.834 -7.5 -120.501 -22.5s-69 -34.667 -94 -59s-44.667 -51.666 -59 -81.999s-21.5 -60.833 -21.5 -91.5s5.83301 -52.334 17.5 -65.001s34.834 -19 69.501 -19h180c68.667 0 121.667 -17.833 159 -53.5s56 -82.5 56 -140.5
c0 -156.667 -60 -278.667 -180 -366s-280 -131 -480 -131c-414 0 -621 192.667 -621 578c0 136 36 289 108 459z" />
    <glyph glyph-name="uniFEF2" unicode="&#x64a;" horiz-adv-x="1559" arabic-form="final" 
d="M737 -805l140 140l141 -140l-141 -142zM405 -805l140 140l141 -140l-141 -142zM324 365c-36 -100 -53.999 -201.666 -53.999 -304.999c0 -271.333 149.667 -407 449 -407c79.333 0 156.166 10.5 230.499 31.5s135.333 50.167 183 87.5s71.5 77.666 71.5 120.999
c0 30.667 -14.333 56.167 -43 76.5s-69 30.5 -121 30.5h-123c-34 0 -55.667 20.667 -65 62l-22 92c-4 17.333 3.66699 26 23 26h604v-180h-119c18.667 -38 28 -76 28 -114c0 -117.333 -59.667 -214.166 -179 -290.499s-275 -114.5 -467 -114.5c-414 0 -621 193.333 -621 580
c0 57.333 6.16699 120.166 18.5 188.499s29.833 127.833 52.5 178.5zM1434.11 0.000976562v180h144.993v-180h-144.993z" />
    <glyph glyph-name="uniFEF3" unicode="&#x64a;" horiz-adv-x="672" arabic-form="initial" 
d="M267 -303l140 140l141 -140l-141 -142zM-65 -303l140 140l141 -140l-141 -142zM526 738c32 -107.333 48.001 -214.667 48.001 -322c0 -146 -35.833 -251.833 -107.5 -317.5s-184.167 -98.5 -337.5 -98.5h-149v180h149c52 0 94.167 3 126.5 9s60.166 17.5 83.499 34.5
s39.833 40.667 49.5 71s14.5 69.833 14.5 118.5c0 88 -12.333 183 -37 285z" />
    <glyph glyph-name="uniFEF4" unicode="&#x64a;" horiz-adv-x="767" arabic-form="medial" 
d="M267 -303l140 140l141 -140l-141 -142zM-65 -303l140 140l141 -140l-141 -142zM787 0l-24 -0.000976562c-68 0 -123.5 11.833 -166.5 35.5s-77.5 59.5 -103.5 107.5c-68 -95.333 -189.333 -143 -364 -143h-149v180h151c100.667 0 171 14.833 211 44.5
s60.333 83.834 61 162.501c0 54.667 -2.66699 122 -8 202l164 19l16 -247c8 -120.667 71.333 -181 190 -181h22v-180z" />
    <glyph glyph-name=".notdef" horiz-adv-x="908" 
d="M808 0h-708v1456h708v-1456zM754 84v1287l-274 -643zM154 1359v-1263l268 632zM194 54h515l-258 606zM451 796l258 606h-515z" />
    <glyph glyph-name="uni0000" 
 />
    <glyph glyph-name="uni0000" 
 />
    <glyph glyph-name="uni0002" 
 />
    <glyph glyph-name="uni000D" unicode="&#xd;" horiz-adv-x="507" 
 />
    <glyph glyph-name="space" unicode=" " horiz-adv-x="560" 
 />
    <glyph glyph-name="exclam" unicode="!" horiz-adv-x="632" 
d="M183 134c0 36.667 13 68.167 39 94.5s57.333 39.5 94 39.5s68 -13.167 94 -39.5s39 -57.833 39 -94.5s-13 -68 -39 -94s-57.333 -39 -94 -39c-37.333 0 -68.833 12.667 -94.5 38s-38.5 57 -38.5 95zM221 1356h194l-15 -924h-163z" />
    <glyph glyph-name="quotedbl" unicode="&#x22;" horiz-adv-x="655" 
d="M277 1400l-30 -358h-111l1 494h140v-136zM547 1400l-30 -358h-111l1 494h140v-136z" />
    <glyph glyph-name="numbersign" unicode="#" horiz-adv-x="1261" 
d="M765 410h-264l-80 -410h-143l80 410h-239v137h265l69 354h-258v139h285l82 416h143l-82 -416h264l82 416h144l-82 -416h204v-139h-231l-69 -354h225v-137h-251l-80 -410h-144zM527 547h264l69 354h-264z" />
    <glyph glyph-name="dollar" unicode="$" horiz-adv-x="1150" 
d="M856 375c0 61.333 -21.5 113.005 -64.5 155.005s-115.5 80 -217.5 114c-142 43.333 -245.5 99.833 -310.5 169.5s-97.5 158.167 -97.5 265.5c0 109.333 31.833 199 95.5 269s151.167 111.667 262.5 125v219h149v-220c112 -15.333 199.167 -62.333 261.5 -141
s93.5 -186.334 93.5 -323.001h-184c0 94 -22.333 168.667 -67 224s-105 83 -181 83c-79.333 0 -140 -20.5 -182 -61.5s-63 -98.167 -63 -171.5c0 -68 22.167 -122.167 66.5 -162.5s117.333 -77 219 -110s181 -69.333 238 -109s99 -85.834 126 -138.501
s40.5 -114.334 40.5 -185.001c0 -112.667 -33.833 -203.334 -101.5 -272.001s-162.5 -109.334 -284.5 -122.001v-191h-148v191c-124 11.333 -221.167 55.5 -291.5 132.5s-105.5 181.5 -105.5 313.5h185c0 -92.667 24.333 -164 73 -214s117.667 -75 207 -75
c87.333 0 156 21 206 63s75 99.333 75 172z" />
    <glyph glyph-name="percent" unicode="%" horiz-adv-x="1500" 
d="M105 1176c0 87.333 27.834 159.332 83.501 215.999s127.167 85 214.5 85c88.667 0 160.5 -28.5 215.5 -85.5s82.5 -130.833 82.5 -221.5v-71c0 -88 -27.833 -159.833 -83.5 -215.5s-126.5 -83.5 -212.5 -83.5c-86.667 0 -158.334 27.833 -215.001 83.5
s-85 129.834 -85 222.501v70zM243.001 1099c0 -52 14.668 -94.834 44.001 -128.501s68.666 -50.5 117.999 -50.5c47.333 0 85.5 16.333 114.5 49s43.5 77.334 43.5 134.001v73c0 52 -14.333 95 -43 129s-67.667 51 -117 51s-88.333 -17 -117 -51s-43 -78.333 -43 -133v-73z
M814.002 356.998c0 87.333 27.835 159.165 83.502 215.498s127.167 84.5 214.5 84.5s159 -28 215 -84s84 -130.333 84 -223v-71c0 -87.333 -27.833 -159.166 -83.5 -215.499s-126.834 -84.5 -213.501 -84.5s-158.334 27.833 -215.001 83.5s-85 129.834 -85 222.501v72z
M952.004 278.997c0 -52.667 14.668 -95.833 44.001 -129.5s68.666 -50.5 117.999 -50.5c48 0 86.333 16.5 115 49.5s43 77.833 43 134.5v74c0 52.667 -14.5 95.667 -43.5 129s-67.833 50 -116.5 50c-47.333 0 -85.833 -16.5 -115.5 -49.5s-44.5 -77.5 -44.5 -133.5v-74z
M447.005 109.998l-105 66l711 1138l105 -66z" />
    <glyph glyph-name="ampersand" unicode="&#x26;" horiz-adv-x="1273" 
d="M101 391c0 70 19.499 134.335 58.499 193.002s113.5 127 223.5 205c-64.667 78.667 -108 142 -130 190s-33 95.667 -33 143c0 110.667 32.667 197.334 98 260.001s154 94 266 94c100 0 182.667 -29.167 248 -87.5s98 -131.833 98 -220.5
c0 -58.667 -14.833 -112.834 -44.5 -162.501s-81.5 -101.834 -155.5 -156.501l-107 -79l324 -387c45.333 86.667 68 183 68 289h167c0 -170 -41 -311 -123 -423l208 -249h-222l-97 115c-49.333 -44 -107.166 -77.5 -173.499 -100.5s-133.833 -34.5 -202.5 -34.5
c-142 0 -256 37.667 -342 113s-129 174.666 -129 297.999zM571.999 131.002c98 0 187.667 37.333 269 112l-355 425l-33 -24c-111.333 -82 -167 -166.333 -167 -253c0 -78.667 25.5 -141.667 76.5 -189s120.833 -71 209.5 -71zM404.999 1128
c0 -64 39.333 -144.001 118 -240.001l118 83c45.333 32 76.333 62.5 93 91.5s25 64.167 25 105.5c0 44.667 -16.667 81.834 -50 111.501s-75.333 44.5 -126 44.5c-54.667 0 -98 -18.5 -130 -55.5s-48 -83.833 -48 -140.5z" />
    <glyph glyph-name="quotesingle" unicode="'" horiz-adv-x="357" 
d="M253 1425l-21 -368h-129l1 479h149v-111z" />
    <glyph glyph-name="parenleft" unicode="(" horiz-adv-x="700" 
d="M133 591c0 150.667 20.167 295.332 60.5 433.999s100.5 264.667 180.5 378s163 193.333 249 240l38 -122c-97.333 -74.667 -177.166 -188.667 -239.499 -342s-96.5 -325 -102.5 -515l-1 -85c0 -257.333 47 -480.666 141 -669.999c56.667 -113.333 124 -202 202 -266
l-38 -113c-88.667 49.333 -173.334 132 -254.001 248c-157.333 226.667 -236 497.667 -236 813z" />
    <glyph glyph-name="parenright" unicode=")" horiz-adv-x="712" 
d="M567 581c0 -148.667 -19.502 -291.167 -58.502 -427.5s-98.667 -262.166 -179 -377.499s-164.5 -197.333 -252.5 -246l-39 113c102.667 78.667 185.167 200.834 247.5 366.501s94.166 349.5 95.499 551.5v32c0 140 -14.667 270.167 -44 390.5
s-70.166 228.166 -122.499 323.499s-111.166 169.666 -176.499 222.999l39 113c88 -48.667 171.833 -130 251.5 -244s139.334 -239.667 179.001 -377s59.5 -284.333 59.5 -441z" />
    <glyph glyph-name="asterisk" unicode="*" horiz-adv-x="882" 
d="M330 983l-302 90l46 151l302 -112l-9 344h153l-10 -349l297 110l46 -152l-307 -91l198 -271l-124 -94l-186 288l-180 -281l-125 91z" />
    <glyph glyph-name="plus" unicode="+" horiz-adv-x="1161" 
d="M670 781h406v-175h-406v-460h-186v460h-406v175h406v425h186v-425z" />
    <glyph glyph-name="comma" unicode="," horiz-adv-x="402" 
d="M134 -290l-105.001 71.999c62.667 87.333 95.334 177.333 98.001 270v167h181v-145c0 -67.333 -16.5 -134.666 -49.5 -201.999s-74.5 -121.333 -124.5 -162z" />
    <glyph glyph-name="hyphen" unicode="-" horiz-adv-x="565" 
d="M525 543h-488v151h488v-151z" />
    <glyph glyph-name="period" unicode="." horiz-adv-x="632" 
d="M183 134c0 36.667 13 68.167 39 94.5s57.333 39.5 94 39.5s68 -13.167 94 -39.5s39 -57.833 39 -94.5s-13 -68 -39 -94s-57.333 -39 -94 -39c-37.333 0 -68.833 12.667 -94.5 38s-38.5 57 -38.5 95z" />
    <glyph glyph-name="slash" unicode="/" horiz-adv-x="844" 
d="M177 -125h-159l608 1581h158z" />
    <glyph glyph-name="zero" unicode="0" horiz-adv-x="1150" 
d="M1034 621c0 -216.667 -36.999 -377.668 -110.999 -483.001s-189.667 -158 -347 -158c-155.333 0 -270.333 51.5 -345 154.5s-113.334 256.833 -116.001 461.5v247c0 214 37 373 111 477s190 156 348 156c156.667 0 272 -50.167 346 -150.5s112 -255.166 114 -464.499
v-240zM849.001 873.999c0 156.667 -22.001 270.833 -66.001 342.5s-113.667 107.5 -209 107.5c-94.667 0 -163.667 -35.667 -207 -107s-65.666 -181 -66.999 -329v-296c0 -157.333 22.833 -273.5 68.5 -348.5s114.834 -112.5 207.501 -112.5
c91.333 0 159.166 35.333 203.499 106s67.5 182 69.5 334v303z" />
    <glyph glyph-name="one" unicode="1" horiz-adv-x="1150" 
d="M729 0h-186v1233l-373 -137v168l530 199h29v-1463z" />
    <glyph glyph-name="two" unicode="2" horiz-adv-x="1150" 
d="M1075 0l-954 -0.000976562v133l504 560c74.667 84.667 126.167 153.5 154.5 206.5s42.5 107.833 42.5 164.5c0 76 -23 138.333 -69 187s-107.333 73 -184 73c-92 0 -163.5 -26.167 -214.5 -78.5s-76.5 -125.166 -76.5 -218.499h-185c0 134 43.167 242.333 129.5 325
s201.833 124 346.5 124c135.333 0 242.333 -35.5 321 -106.5s118 -165.5 118 -283.5c0 -143.333 -91.333 -314 -274 -512l-390 -423h731v-151z" />
    <glyph glyph-name="three" unicode="3" horiz-adv-x="1150" 
d="M390 818l139.002 0.00195312c87.333 1.33301 156 24.333 206 69s75 105 75 181c0 170.667 -85 256 -255 256c-80 0 -143.833 -22.833 -191.5 -68.5s-71.5 -106.167 -71.5 -181.5h-185c0 115.333 42.167 211.166 126.5 287.499s191.5 114.5 321.5 114.5
c137.333 0 245 -36.333 323 -109s117 -173.667 117 -303c0 -63.333 -20.5 -124.666 -61.5 -183.999s-96.833 -103.666 -167.5 -132.999c80 -25.333 141.833 -67.333 185.5 -126s65.5 -130.334 65.5 -215.001c0 -130.667 -42.667 -234.334 -128 -311.001
s-196.333 -115 -333 -115s-247.834 37 -333.501 111s-128.5 171.667 -128.5 293h186c0 -76.667 25 -138 75 -184s117 -69 201 -69c89.333 0 157.666 23.333 204.999 70s71 113.667 71 201c0 84.667 -26 149.667 -78 195s-127 68.666 -225 69.999h-139v151z" />
    <glyph glyph-name="four" unicode="4" horiz-adv-x="1150" 
d="M902 489h202v-151h-202v-338h-186v338h-663v109l652 1009h197v-967zM263 489h453v714l-22 -40z" />
    <glyph glyph-name="five" unicode="5" horiz-adv-x="1150" 
d="M206 730l73.999 725.999h746v-171h-589l-44 -397c71.333 42 152.333 63 243 63c132.667 0 238 -43.833 316 -131.5s117 -206.167 117 -355.5c0 -150 -40.5 -268.167 -121.5 -354.5s-194.167 -129.5 -339.5 -129.5c-128.667 0 -233.667 35.667 -315 107
s-127.666 170 -138.999 296h175c11.333 -83.333 41 -146.166 89 -188.499s111.333 -63.5 190 -63.5c86 0 153.5 29.333 202.5 88s73.5 139.667 73.5 243c0 97.333 -26.5 175.5 -79.5 234.5s-123.5 88.5 -211.5 88.5c-80.667 0 -144 -17.667 -190 -53l-49 -40z" />
    </font>
</defs>
</svg>
